<svg xmlns="http://www.w3.org/2000/svg" xmlns:xlink="http://www.w3.org/1999/xlink" viewBox="0 0 1440 1024"><defs><linearGradient id="a" x1="404" y1="569.05" x2="1080" y2="569.05" gradientUnits="userSpaceOnUse"><stop offset="0.26" stop-color="#f0401e"/><stop offset="0.93" stop-color="#f46d16"/></linearGradient><linearGradient id="b" x1="408" y1="556.52" x2="1076" y2="556.52" xlink:href="#a"/><linearGradient id="c" x1="1058.88" y1="352.04" x2="1058.88" y2="342.96" gradientUnits="userSpaceOnUse"><stop offset="0" stop-color="#f77777"/><stop offset="1" stop-color="#f0401e"/></linearGradient><linearGradient id="d" x1="1069.49" y1="381.69" x2="1069.49" y2="347.93" xlink:href="#c"/><linearGradient id="e" x1="1052.78" y1="773.79" x2="1052.78" y2="703.67" gradientUnits="userSpaceOnUse"><stop offset="0" stop-color="#f77777" stop-opacity="0.77"/><stop offset="0.7" stop-color="#b4141b"/></linearGradient><linearGradient id="f" x1="458" y1="430" x2="458" y2="358" gradientTransform="matrix(1, 0, 0, -1, 0, 1024)" gradientUnits="userSpaceOnUse"><stop offset="0" stop-color="#f36118"/><stop offset="1" stop-color="#c91e25"/></linearGradient><linearGradient id="g" x1="973" y1="692.5" x2="973" y2="688" gradientTransform="matrix(1, 0, 0, -1, 0, 1024)" gradientUnits="userSpaceOnUse"><stop offset="0" stop-color="#e61b1b"/><stop offset="1" stop-color="#c82222"/></linearGradient><linearGradient id="h" x1="491.48" y1="141.54" x2="491.48" y2="166.66" gradientUnits="userSpaceOnUse"><stop offset="0" stop-color="#e24f4f"/><stop offset="1" stop-color="#ea2b2b"/></linearGradient><linearGradient id="i" x1="546.76" y1="148" x2="546.76" y2="83.5" gradientUnits="userSpaceOnUse"><stop offset="0.58" stop-color="#ca0b0b"/><stop offset="1" stop-color="#dc0e19"/></linearGradient><linearGradient id="j" x1="501.07" y1="196.62" x2="501.07" y2="148" gradientUnits="userSpaceOnUse"><stop offset="0" stop-color="#f52323"/><stop offset="1" stop-color="#fd637f"/></linearGradient><linearGradient id="k" x1="625.55" y1="197.18" x2="541.05" y2="240.56" gradientUnits="userSpaceOnUse"><stop offset="0.02" stop-color="#f0401e"/><stop offset="0.78" stop-color="#ed1c24"/></linearGradient><linearGradient id="l" x1="530.83" y1="210.28" x2="530.83" y2="152.5" gradientUnits="userSpaceOnUse"><stop offset="0.35" stop-color="#f40e0e"/><stop offset="1" stop-color="#fa9999"/></linearGradient><linearGradient id="m" x1="576.25" y1="869" x2="576.25" y2="831" gradientTransform="matrix(1, 0, 0, -1, 0, 1024)" gradientUnits="userSpaceOnUse"><stop offset="0" stop-color="#ed1c24"/><stop offset="1" stop-color="#f31717"/></linearGradient><linearGradient id="n" x1="555.51" y1="166.42" x2="555.51" y2="96.3" gradientUnits="userSpaceOnUse"><stop offset="0.54" stop-color="#c50909"/><stop offset="1" stop-color="#f52525" stop-opacity="0.88"/></linearGradient><linearGradient id="o" x1="625.45" y1="198.33" x2="663.63" y2="150.11" gradientUnits="userSpaceOnUse"><stop offset="0.17" stop-color="#cb1111"/><stop offset="0.98" stop-color="#ca1010"/></linearGradient><linearGradient id="p" x1="677.05" y1="179.32" x2="677.05" y2="107.77" gradientUnits="userSpaceOnUse"><stop offset="0" stop-color="#c80707"/><stop offset="1" stop-color="#b72809" stop-opacity="0.77"/></linearGradient><linearGradient id="q" x1="707.7" y1="194.84" x2="833.98" y2="121.73" gradientUnits="userSpaceOnUse"><stop offset="0" stop-color="#ad0906"/><stop offset="0.49" stop-color="#cb0707"/><stop offset="0.85" stop-color="#f4444f" stop-opacity="0.4"/></linearGradient><linearGradient id="r" x1="719.05" y1="201.59" x2="719.05" y2="138.73" gradientUnits="userSpaceOnUse"><stop offset="0" stop-color="#f33d03"/><stop offset="1" stop-color="#c91e25"/></linearGradient><linearGradient id="s" x1="496.26" y1="241.15" x2="551.59" y2="246.69" gradientUnits="userSpaceOnUse"><stop offset="0" stop-color="#c91e25"/><stop offset="1" stop-color="#ed1c24"/></linearGradient><linearGradient id="t" x1="589.25" y1="846.5" x2="589.25" y2="699.5" gradientTransform="matrix(1, 0, 0, -1, 0, 1024)" gradientUnits="userSpaceOnUse"><stop offset="0" stop-color="#ed1c24"/><stop offset="1" stop-color="#f36118"/></linearGradient><linearGradient id="u" x1="556.25" y1="764" x2="556.25" y2="704" gradientTransform="matrix(1, 0, 0, -1, 0, 1024)" gradientUnits="userSpaceOnUse"><stop offset="0" stop-color="#f2591a"/><stop offset="1" stop-color="#f2591a"/></linearGradient><linearGradient id="v" x1="546.22" y1="263.37" x2="535.04" y2="272.45" gradientUnits="userSpaceOnUse"><stop offset="0" stop-color="#f36817"/><stop offset="1" stop-color="#e23b16" stop-opacity="0.99"/></linearGradient><linearGradient id="w" x1="518.52" y1="321" x2="518.52" y2="276.46" gradientUnits="userSpaceOnUse"><stop offset="0" stop-color="#c91e25"/><stop offset="1" stop-color="#fb8b08" stop-opacity="0.77"/></linearGradient><linearGradient id="x" x1="526.87" y1="339.17" x2="526.87" y2="286" gradientUnits="userSpaceOnUse"><stop offset="0" stop-color="#fb8b08" stop-opacity="0.77"/><stop offset="1" stop-color="#f36118"/></linearGradient><linearGradient id="y" x1="524.45" y1="467" x2="524.45" y2="299.5" gradientUnits="userSpaceOnUse"><stop offset="0" stop-color="#f36118"/><stop offset="1" stop-color="#f77777" stop-opacity="0.77"/></linearGradient><linearGradient id="z" x1="661.75" y1="843.5" x2="661.75" y2="785" gradientTransform="matrix(1, 0, 0, -1, 0, 1024)" gradientUnits="userSpaceOnUse"><stop offset="0.43" stop-color="#ef391f"/><stop offset="1" stop-color="#f2591a"/></linearGradient><linearGradient id="aa" x1="636.06" y1="698.94" x2="562.56" y2="753.44" gradientTransform="matrix(1, 0, 0, -1, 0, 1024)" xlink:href="#a"/><linearGradient id="ab" x1="643.5" y1="811" x2="643.5" y2="751" gradientTransform="matrix(1, 0, 0, -1, 0, 1024)" gradientUnits="userSpaceOnUse"><stop offset="0" stop-color="#f0401e"/><stop offset="1" stop-color="#f36817"/></linearGradient><linearGradient id="ac" x1="707.75" y1="821" x2="707.75" y2="701.5" gradientTransform="matrix(1, 0, 0, -1, 0, 1024)" gradientUnits="userSpaceOnUse"><stop offset="0" stop-color="#ed1c24"/><stop offset="1" stop-color="#f2591a"/></linearGradient><linearGradient id="ad" x1="687.25" y1="806.5" x2="687.25" y2="697" gradientTransform="matrix(1, 0, 0, -1, 0, 1024)" gradientUnits="userSpaceOnUse"><stop offset="0" stop-color="#f36817"/><stop offset="1" stop-color="#f77777"/></linearGradient><linearGradient id="ae" x1="773.6" y1="261" x2="773.6" y2="175.39" gradientUnits="userSpaceOnUse"><stop offset="0.35" stop-color="#c91e25"/><stop offset="1" stop-color="#ed1c24"/></linearGradient><linearGradient id="af" x1="779" y1="766" x2="779" y2="620.5" gradientTransform="matrix(1, 0, 0, -1, 0, 1024)" gradientUnits="userSpaceOnUse"><stop offset="0" stop-color="#f36817"/><stop offset="1" stop-color="#ed1c24"/></linearGradient><linearGradient id="ag" x1="756" y1="818" x2="756" y2="690.5" gradientTransform="matrix(1, 0, 0, -1, 0, 1024)" gradientUnits="userSpaceOnUse"><stop offset="0" stop-color="#c91e25"/><stop offset="1" stop-color="#f46d16"/></linearGradient><linearGradient id="ah" x1="805.24" y1="279" x2="805.24" y2="171.06" gradientUnits="userSpaceOnUse"><stop offset="0" stop-color="#f5333b"/><stop offset="1" stop-color="#f0401e"/></linearGradient><linearGradient id="ai" x1="885" y1="741.5" x2="885" y2="692" gradientTransform="matrix(1, 0, 0, -1, 0, 1024)" gradientUnits="userSpaceOnUse"><stop offset="0" stop-color="#f2591a"/><stop offset="1" stop-color="#f47315"/></linearGradient><linearGradient id="aj" x1="843.01" y1="278.5" x2="843.01" y2="177.21" gradientTransform="matrix(1, 0, 0, 1, 0, 0)" xlink:href="#ac"/><linearGradient id="ak" x1="910.3" y1="277.34" x2="910.3" y2="221.51" gradientUnits="userSpaceOnUse"><stop offset="0" stop-color="#ed1c24"/><stop offset="1" stop-color="#f07e14" stop-opacity="0.99"/></linearGradient><linearGradient id="al" x1="826.25" y1="776" x2="826.25" y2="721.5" gradientTransform="matrix(1, 0, 0, -1, 0, 1024)" gradientUnits="userSpaceOnUse"><stop offset="0" stop-color="#f0401e"/><stop offset="1" stop-color="#f46d16"/></linearGradient><linearGradient id="am" x1="910.8" y1="298.5" x2="910.8" y2="247.5" gradientUnits="userSpaceOnUse"><stop offset="0" stop-color="#f2591a"/><stop offset="1" stop-color="#f46d16"/></linearGradient><linearGradient id="an" x1="920.27" y1="312.03" x2="920.27" y2="276.33" gradientUnits="userSpaceOnUse"><stop offset="0" stop-color="#f72f5f"/><stop offset="1" stop-color="#f2591a"/></linearGradient><linearGradient id="ao" x1="983.57" y1="330.09" x2="983.57" y2="280.76" gradientUnits="userSpaceOnUse"><stop offset="0" stop-color="#ee2316"/><stop offset="1" stop-color="#fb8b08" stop-opacity="0.77"/></linearGradient><linearGradient id="ap" x1="956.25" y1="329.05" x2="956.25" y2="279.73" gradientUnits="userSpaceOnUse"><stop offset="0" stop-color="#f76512"/><stop offset="1" stop-color="#cd362c" stop-opacity="0.89"/></linearGradient><linearGradient id="aq" x1="1004.86" y1="332.5" x2="1004.86" y2="295.41" gradientUnits="userSpaceOnUse"><stop offset="0" stop-color="#ed1c24"/><stop offset="1" stop-color="#fb8b08" stop-opacity="0.77"/></linearGradient><linearGradient id="ar" x1="504.95" y1="391" x2="504.95" y2="357.05" gradientUnits="userSpaceOnUse"><stop offset="0" stop-color="#f2591a"/><stop offset="1" stop-color="#ed1c24"/></linearGradient><linearGradient id="as" x1="506.96" y1="412.39" x2="506.96" y2="388.33" xlink:href="#s"/><linearGradient id="at" x1="487.82" y1="417.5" x2="487.82" y2="398" gradientUnits="userSpaceOnUse"><stop offset="0" stop-color="#c91e25"/><stop offset="1" stop-color="#ec0e17"/></linearGradient><linearGradient id="au" x1="512" y1="626" x2="512" y2="592" gradientTransform="matrix(1, 0, 0, -1, 0, 1024)" gradientUnits="userSpaceOnUse"><stop offset="0" stop-color="#ed1c24"/><stop offset="1" stop-color="#c91e25"/></linearGradient><linearGradient id="av" x1="512" y1="626" x2="512" y2="554" gradientTransform="matrix(1, 0, 0, -1, 0, 1024)" gradientUnits="userSpaceOnUse"><stop offset="0.56" stop-color="#c91e25"/><stop offset="1" stop-color="#e93e67" stop-opacity="0.81"/></linearGradient><linearGradient id="aw" x1="519.25" y1="592" x2="519.25" y2="554" gradientTransform="matrix(1, 0, 0, -1, 0, 1024)" gradientUnits="userSpaceOnUse"><stop offset="0" stop-color="#ed1c24"/><stop offset="1" stop-color="#f36817"/></linearGradient><linearGradient id="ax" x1="485.06" y1="469.99" x2="485.06" y2="415.59" gradientUnits="userSpaceOnUse"><stop offset="0.31" stop-color="#f0401e"/><stop offset="1" stop-color="#f2591a"/></linearGradient><linearGradient id="ay" x1="538.56" y1="608.88" x2="609.06" y2="598.88" gradientTransform="matrix(1, 0, 0, -1, 0, 1024)" gradientUnits="userSpaceOnUse"><stop offset="0" stop-color="#de1041"/><stop offset="0.18" stop-color="#ed1c24"/><stop offset="0.61" stop-color="#fb8b08" stop-opacity="0.77"/></linearGradient><linearGradient id="az" x1="627.25" y1="701.5" x2="627.25" y2="589" gradientTransform="matrix(1, 0, 0, -1, 0, 1024)" gradientUnits="userSpaceOnUse"><stop offset="0" stop-color="#f0401e"/><stop offset="1" stop-color="#f36118" stop-opacity="0.57"/></linearGradient><linearGradient id="ba" x1="589.75" y1="701" x2="589.75" y2="643.5" gradientTransform="matrix(1, 0, 0, -1, 0, 1024)" gradientUnits="userSpaceOnUse"><stop offset="0" stop-color="#f36817"/><stop offset="1" stop-color="#f7bc77" stop-opacity="0.77"/></linearGradient><linearGradient id="bb" x1="662.5" y1="693.5" x2="662.5" y2="643.5" gradientTransform="matrix(1, 0, 0, -1, 0, 1024)" gradientUnits="userSpaceOnUse"><stop offset="0" stop-color="#f36118"/><stop offset="1" stop-color="#fb8b08" stop-opacity="0.77"/></linearGradient><linearGradient id="bc" x1="680" y1="689" x2="680" y2="619" xlink:href="#ad"/><linearGradient id="bd" x1="706.75" y1="688.5" x2="706.75" y2="619" gradientTransform="matrix(1, 0, 0, -1, 0, 1024)" gradientUnits="userSpaceOnUse"><stop offset="0" stop-color="#e93e67" stop-opacity="0.81"/><stop offset="1" stop-color="#f46d16"/></linearGradient><linearGradient id="be" x1="773.75" y1="653" x2="773.75" y2="398" gradientTransform="matrix(1, 0, 0, -1, 0, 1024)" gradientUnits="userSpaceOnUse"><stop offset="0" stop-color="#f2591a"/><stop offset="0.81" stop-color="#fb8b08" stop-opacity="0.77"/></linearGradient><linearGradient id="bf" x1="750.25" y1="684.5" x2="750.25" y2="633" gradientTransform="matrix(1, 0, 0, -1, 0, 1024)" gradientUnits="userSpaceOnUse"><stop offset="0" stop-color="#f00d1b" stop-opacity="0.84"/><stop offset="1" stop-color="#f36118"/></linearGradient><linearGradient id="bg" x1="841" y1="692" x2="841" y2="624" gradientTransform="matrix(1, 0, 0, -1, 0, 1024)" gradientUnits="userSpaceOnUse"><stop offset="0" stop-color="#f2591a"/><stop offset="1" stop-color="#fb8b08" stop-opacity="0.77"/></linearGradient><linearGradient id="bh" x1="937" x2="937" y2="560.5" xlink:href="#bg"/><linearGradient id="bi" x1="928.5" y1="693" x2="928.5" y2="640.5" xlink:href="#ad"/><linearGradient id="bj" x1="953.75" y1="692" x2="953.75" y2="611" gradientTransform="matrix(1, 0, 0, -1, 0, 1024)" gradientUnits="userSpaceOnUse"><stop offset="0" stop-color="#f77777"/><stop offset="1" stop-color="#f36118"/></linearGradient><linearGradient id="bk" x1="604" y1="644.5" x2="604" y2="591" gradientTransform="matrix(1, 0, 0, -1, 0, 1024)" gradientUnits="userSpaceOnUse"><stop offset="0" stop-color="#f36118"/><stop offset="1" stop-color="#f46d16"/></linearGradient><linearGradient id="bl" x1="627.25" y1="591" x2="627.25" y2="399.5" gradientTransform="matrix(1, 0, 0, -1, 0, 1024)" gradientUnits="userSpaceOnUse"><stop offset="0" stop-color="#f36817"/><stop offset="1" stop-color="#fb8b08" stop-opacity="0.77"/></linearGradient><linearGradient id="bm" x1="634.25" y1="614.5" x2="634.25" y2="588.5" gradientTransform="matrix(1, 0, 0, -1, 0, 1024)" gradientUnits="userSpaceOnUse"><stop offset="0" stop-color="#f77777"/><stop offset="1" stop-color="#f46d16"/></linearGradient><linearGradient id="bn" x1="609.5" y1="587.5" x2="609.5" y2="484.5" gradientTransform="matrix(1, 0, 0, -1, 0, 1024)" gradientUnits="userSpaceOnUse"><stop offset="0" stop-color="#f36118"/><stop offset="1" stop-color="#f36817"/></linearGradient><linearGradient id="bo" x1="685.25" y1="586.5" x2="685.25" y2="401.5" gradientTransform="matrix(1, 0, 0, -1, 0, 1024)" gradientUnits="userSpaceOnUse"><stop offset="0" stop-color="#f36717"/><stop offset="1" stop-color="#f0401e" stop-opacity="0.52"/></linearGradient><linearGradient id="bp" x1="676.25" y1="587.5" x2="676.25" y2="398.5" gradientTransform="matrix(1, 0, 0, -1, 0, 1024)" gradientUnits="userSpaceOnUse"><stop offset="0.34" stop-color="#f2591a"/><stop offset="1" stop-color="#fb8b08" stop-opacity="0.77"/></linearGradient><linearGradient id="bq" x1="891.5" y1="658.5" x2="891.5" y2="605" gradientTransform="matrix(1, 0, 0, -1, 0, 1024)" gradientUnits="userSpaceOnUse"><stop offset="0" stop-color="#f47315"/><stop offset="1" stop-color="#f77777" stop-opacity="0.77"/></linearGradient><linearGradient id="br" x1="993.37" y1="415.52" x2="993.37" y2="328.62" gradientTransform="matrix(1, 0, 0, 1, 0, 0)" xlink:href="#bg"/><linearGradient id="bs" x1="1000.92" y1="458.86" x2="1000.92" y2="342.87" gradientUnits="userSpaceOnUse"><stop offset="0" stop-color="#ec0d61" stop-opacity="0.88"/><stop offset="1" stop-color="#f2591a"/></linearGradient><linearGradient id="bt" x1="470.59" y1="478.45" x2="470.59" y2="438.1" gradientUnits="userSpaceOnUse"><stop offset="0" stop-color="#c91e25" stop-opacity="0.91"/><stop offset="1" stop-color="#e93e67" stop-opacity="0.81"/></linearGradient><linearGradient id="bu" x1="493.75" y1="556.5" x2="493.75" y2="316" xlink:href="#t"/><linearGradient id="bv" x1="464.07" y1="601.5" x2="464.07" y2="471" gradientUnits="userSpaceOnUse"><stop offset="0" stop-color="#ed1c24"/><stop offset="1" stop-color="#f39fa2"/></linearGradient><linearGradient id="bw" x1="432.37" y1="599.32" x2="432.37" y2="506.43" gradientUnits="userSpaceOnUse"><stop offset="0" stop-color="#fd5455"/><stop offset="1" stop-color="#fa5656"/></linearGradient><linearGradient id="bx" x1="430.82" y1="621.92" x2="430.82" y2="594" gradientUnits="userSpaceOnUse"><stop offset="0" stop-color="#f77777"/><stop offset="1" stop-color="#e3484e"/></linearGradient><linearGradient id="by" x1="430.48" y1="673" x2="430.48" y2="596.5" gradientUnits="userSpaceOnUse"><stop offset="0" stop-color="#f77777"/><stop offset="1" stop-color="#c91e25"/></linearGradient><linearGradient id="bz" x1="424.96" y1="709.02" x2="424.96" y2="699.9" gradientUnits="userSpaceOnUse"><stop offset="0" stop-color="#f77777"/><stop offset="1" stop-color="#d50606"/></linearGradient><linearGradient id="ca" x1="420.99" y1="704.8" x2="420.99" y2="644.51" gradientUnits="userSpaceOnUse"><stop offset="0" stop-color="#c20f0d"/><stop offset="1" stop-color="#f77777"/></linearGradient><linearGradient id="cb" x1="563" y1="558" x2="563" y2="429" xlink:href="#bb"/><linearGradient id="cc" x1="518.5" y1="459.5" x2="518.5" y2="318" gradientTransform="matrix(1, 0, 0, -1, 0, 1024)" gradientUnits="userSpaceOnUse"><stop offset="0" stop-color="#f7bc77" stop-opacity="0.77"/><stop offset="1" stop-color="#f2591a"/></linearGradient><linearGradient id="cd" x1="518.5" y1="457" x2="518.5" y2="317" gradientTransform="matrix(1, 0, 0, -1, 0, 1024)" gradientUnits="userSpaceOnUse"><stop offset="0" stop-color="#fb8b08" stop-opacity="0.77"/><stop offset="1" stop-color="#ee184b" stop-opacity="0.92"/></linearGradient><linearGradient id="ce" x1="612.75" y1="471" x2="612.75" y2="380.5" gradientTransform="matrix(1, 0, 0, -1, 0, 1024)" gradientUnits="userSpaceOnUse"><stop offset="0" stop-color="#f36817"/><stop offset="1" stop-color="#ffefb8"/></linearGradient><linearGradient id="cf" x1="650.75" y1="472.5" x2="650.75" y2="383" gradientTransform="matrix(1, 0, 0, -1, 0, 1024)" gradientUnits="userSpaceOnUse"><stop offset="0" stop-color="#fb8b08" stop-opacity="0.77"/><stop offset="1" stop-color="#fcc53a" stop-opacity="0.77"/></linearGradient><linearGradient id="cg" x1="873.68" y1="387.41" x2="897.18" y2="588.41" gradientTransform="matrix(1, 0, 0, -1, 0, 1024)" gradientUnits="userSpaceOnUse"><stop offset="0" stop-color="#fb8b08" stop-opacity="0.77"/><stop offset="0.89" stop-color="#f47315"/></linearGradient><linearGradient id="ch" x1="891.5" y1="622.5" x2="891.5" y2="524.5" gradientTransform="matrix(1, 0, 0, -1, 0, 1024)" gradientUnits="userSpaceOnUse"><stop offset="0" stop-color="#f2591a"/><stop offset="1" stop-color="#f77777"/></linearGradient><linearGradient id="ci" x1="969" y1="602.5" x2="969" y2="524.5" xlink:href="#bg"/><linearGradient id="cj" x1="1045" y1="460.56" x2="1045" y2="414.65" gradientUnits="userSpaceOnUse"><stop offset="0.4" stop-color="#e93e3e" stop-opacity="0.99"/><stop offset="1" stop-color="#de5184" stop-opacity="0.76"/></linearGradient><linearGradient id="ck" x1="925.84" y1="527.55" x2="1067.84" y2="495.55" gradientTransform="matrix(1, 0, 0, -1, 0, 1024)" gradientUnits="userSpaceOnUse"><stop offset="0" stop-color="#f2591a"/><stop offset="1" stop-color="#de5184" stop-opacity="0.51"/></linearGradient><linearGradient id="cl" x1="1054.58" y1="558.35" x2="1054.58" y2="459.07" gradientUnits="userSpaceOnUse"><stop offset="0" stop-color="#de5184" stop-opacity="0.83"/><stop offset="0.36" stop-color="#f0401e"/></linearGradient><linearGradient id="cm" x1="1053.33" y1="607" x2="1053.33" y2="564.1" gradientTransform="matrix(1, 0, 0, 1, 0, 0)" xlink:href="#bl"/><linearGradient id="cn" x1="481" y1="793.14" x2="481" y2="688.5" gradientUnits="userSpaceOnUse"><stop offset="0" stop-color="#e93e3e"/><stop offset="1" stop-color="#b40a0a" stop-opacity="0.77"/></linearGradient><linearGradient id="co" x1="465.73" y1="863.35" x2="465.73" y2="725" gradientUnits="userSpaceOnUse"><stop offset="0.01" stop-color="#e93e67" stop-opacity="0.81"/><stop offset="0.59" stop-color="#c91e25"/></linearGradient><linearGradient id="cp" x1="528.75" y1="334.5" x2="528.75" y2="207.5" xlink:href="#au"/><linearGradient id="cq" x1="612.24" y1="934.43" x2="612.24" y2="682" gradientUnits="userSpaceOnUse"><stop offset="0" stop-color="#f2591a"/><stop offset="1" stop-color="#e70a12"/></linearGradient><linearGradient id="cr" x1="566.75" y1="331" x2="566.75" y2="200.5" gradientTransform="matrix(1, 0, 0, -1, 0, 1024)" gradientUnits="userSpaceOnUse"><stop offset="0" stop-color="#f95e04"/><stop offset="1" stop-color="#ed1c24"/></linearGradient><linearGradient id="cs" x1="566.75" y1="870.2" x2="566.75" y2="815.91" gradientUnits="userSpaceOnUse"><stop offset="0" stop-color="#ed1c24"/><stop offset="1" stop-color="#a50c0c" stop-opacity="0.77"/></linearGradient><linearGradient id="ct" x1="575.72" y1="898.99" x2="575.72" y2="821.51" gradientUnits="userSpaceOnUse"><stop offset="0" stop-color="#e30c15"/><stop offset="1" stop-color="#ba0732" stop-opacity="0.77"/></linearGradient><linearGradient id="cu" x1="627.43" y1="928.95" x2="627.43" y2="821.99" gradientTransform="matrix(1, 0, 0, 1, 0, 0)" xlink:href="#au"/><linearGradient id="cv" x1="650" y1="397.5" x2="650" y2="214.5" gradientTransform="matrix(1, 0, 0, -1, 0, 1024)" gradientUnits="userSpaceOnUse"><stop offset="0.21" stop-color="#fc700c" stop-opacity="0.83"/><stop offset="1" stop-color="#c91e25"/></linearGradient><linearGradient id="cw" x1="658" y1="347.5" x2="658" y2="133" gradientTransform="matrix(1, 0, 0, -1, 0, 1024)" gradientUnits="userSpaceOnUse"><stop offset="0" stop-color="#ed1c24" stop-opacity="0.79"/><stop offset="1" stop-color="#c91e25"/></linearGradient><linearGradient id="cx" x1="759.5" y1="405.5" x2="759.5" y2="344" xlink:href="#ad"/><linearGradient id="cy" x1="744.75" y1="404.5" x2="744.75" y2="134" gradientTransform="matrix(1, 0, 0, -1, 0, 1024)" gradientUnits="userSpaceOnUse"><stop offset="0.3" stop-color="#f1803e"/><stop offset="1" stop-color="#ed1c24"/></linearGradient><linearGradient id="cz" x1="687" y1="936.12" x2="687" y2="799.97" gradientUnits="userSpaceOnUse"><stop offset="0" stop-color="#f0401e"/><stop offset="1" stop-color="#c40d15"/></linearGradient><linearGradient id="da" x1="746" y1="940.42" x2="746" y2="797" gradientUnits="userSpaceOnUse"><stop offset="0" stop-color="#ed1c24"/><stop offset="1" stop-color="#87080d"/></linearGradient><linearGradient id="db" x1="706.66" y1="938.61" x2="706.66" y2="795.55" gradientUnits="userSpaceOnUse"><stop offset="0" stop-color="#c91e25"/><stop offset="1" stop-color="#9c070d"/></linearGradient><linearGradient id="dc" x1="847.75" y1="403" x2="847.75" y2="267" gradientTransform="matrix(1, 0, 0, -1, 0, 1024)" gradientUnits="userSpaceOnUse"><stop offset="0" stop-color="#f46d16"/><stop offset="1" stop-color="#fb8b08" stop-opacity="0.77"/></linearGradient><linearGradient id="dd" x1="904" y1="411.5" x2="904" y2="280" xlink:href="#ba"/><linearGradient id="de" x1="747.35" y1="940.41" x2="747.35" y2="757.87" gradientUnits="userSpaceOnUse"><stop offset="0" stop-color="#fc3a3a"/><stop offset="1" stop-color="#c91e25"/></linearGradient><linearGradient id="df" x1="826.08" y1="934.43" x2="826.08" y2="865.85" gradientUnits="userSpaceOnUse"><stop offset="0" stop-color="#c91e25" stop-opacity="0.79"/><stop offset="1" stop-color="#9a040b"/></linearGradient><linearGradient id="dg" x1="847.75" y1="280" x2="847.75" y2="225" gradientTransform="matrix(1, 0, 0, -1, 0, 1024)" gradientUnits="userSpaceOnUse"><stop offset="0" stop-color="#f59d34" stop-opacity="0.77"/><stop offset="1" stop-color="#f0401e"/></linearGradient><linearGradient id="dh" x1="850.42" y1="925.58" x2="850.42" y2="799.87" gradientUnits="userSpaceOnUse"><stop offset="0" stop-color="#ed1c24"/><stop offset="1" stop-color="#af050c"/></linearGradient><linearGradient id="di" x1="996.5" y1="416" x2="996.5" y2="281" gradientTransform="matrix(1, 0, 0, -1, 0, 1024)" gradientUnits="userSpaceOnUse"><stop offset="0" stop-color="#fb8b08" stop-opacity="0.77"/><stop offset="1" stop-color="#f0401e"/></linearGradient><linearGradient id="dj" x1="1075.11" y1="647.18" x2="1075.11" y2="564.4" gradientUnits="userSpaceOnUse"><stop offset="0" stop-color="#f2591a"/><stop offset="1" stop-color="#c91e25"/></linearGradient><linearGradient id="dk" x1="1029.29" y1="744" x2="1029.29" y2="610.5" gradientUnits="userSpaceOnUse"><stop offset="0" stop-color="#ea131b"/><stop offset="1" stop-color="#db0a12"/></linearGradient><linearGradient id="dl" x1="906.25" y1="924.64" x2="906.25" y2="746.22" gradientUnits="userSpaceOnUse"><stop offset="0" stop-color="#fb0808" stop-opacity="0.54"/><stop offset="1" stop-color="#7e1b1f"/></linearGradient><linearGradient id="dm" x1="985.78" y1="879.78" x2="985.78" y2="744" xlink:href="#s"/><linearGradient id="dn" x1="939.58" y1="889.59" x2="939.58" y2="744.9" gradientUnits="userSpaceOnUse"><stop offset="0" stop-color="#eb121b"/><stop offset="1" stop-color="#a91218"/></linearGradient><linearGradient id="do" x1="1010.3" y1="838.56" x2="1010.3" y2="742.21" xlink:href="#dj"/><linearGradient id="dp" x1="1058.43" y1="711.33" x2="1058.43" y2="675.52" gradientUnits="userSpaceOnUse"><stop offset="0" stop-color="#f40c0c"/><stop offset="1" stop-color="#c91e25"/></linearGradient><linearGradient id="dq" x1="1053.96" y1="758.5" x2="1053.96" y2="695.13" gradientUnits="userSpaceOnUse"><stop offset="0" stop-color="#ed1c24"/><stop offset="1" stop-color="#e91422"/></linearGradient><linearGradient id="dr" x1="802.5" y1="937.89" x2="802.5" y2="757.87" gradientUnits="userSpaceOnUse"><stop offset="0" stop-color="#f0401e"/><stop offset="1" stop-color="#b40b12"/></linearGradient></defs><title>biegacz</title><path d="M1075.9,355.7l.9-2c1.1-3.6-.7-8.1-3.8-9.4a4.5,4.5,0,0,0-2-.4,10.5,10.5,0,0,0-6.1,2.4v-.7a6.1,6.1,0,0,1-.1-1.4,5.4,5.4,0,0,0-2-3.8h-.1l-.3-.4a3,3,0,0,0-2.5-1h-.7a12,12,0,0,0-3.5,1l-1.3.8a13.8,13.8,0,0,0-4.4,6.2,4.7,4.7,0,0,0-.5,1,16,16,0,0,0-1.2,4.8v.4h-1.1a6.1,6.1,0,0,0-2.4.4l-.9.4a11.6,11.6,0,0,0-5.6,3.6l2.3,3.7.6.8,5.4,8.7,2.2,3.8c2.9,4.8,5.7,9.8,8.4,14.8,1.6,2.9,3.1,5.8,4.6,8.8.8,1.3,1.4,2.7,2.1,4.1l1.4-2v-.2c.6-1.1,1.3-2.2,1.9-3.4,2-3.4,3.8-7,5.6-10.4l.4-.7a25.6,25.6,0,0,0,1.1-2.4,6.4,6.4,0,0,0,.2-.7h0a9.1,9.1,0,0,0,.2-5.4,18.7,18.7,0,0,0,1.7-3,13.9,13.9,0,0,1,1.4-2.5,8.1,8.1,0,0,0,2.1-5.5v-4.5A6.3,6.3,0,0,0,1075.9,355.7Zm-48.8-21.9a29.6,29.6,0,0,0-1.9-6.9l-1.5-3.2a68.9,68.9,0,0,0-6.1-9.7l-1.2-1.7a76.9,76.9,0,0,0-11.5-12.5L1001,296a32.2,32.2,0,0,0-5.2-4.3l-.5-.4c-1.3-.9-2.8-1.8-4.4-2.7a56.1,56.1,0,0,0-6.5-3.3,28.8,28.8,0,0,0-6.1-2l-1.4-.3,6,6c3.2,3.3,6.5,6.7,9.6,10.2l.4.3q12.6,13.8,24.3,28.8h0l6.3,8.2,3.9,5.4c.5-1.6.4-3.4,0-6ZM439.7,771.9h-.1c-4.8-7.5-9.3-15.2-13.4-23.1l-2.8-5.5c-.6-1.3-1.2-2.5-1.7-3.7-5,1.6-10.7,3.7-15.1,8.6l-.7.9a.8.8,0,0,1-.4.4,6.8,6.8,0,0,0-1.5,4.3v53.3h0c.4,6.6,3.8,12.6,6.8,17.8.4.7.7,1.4,1.1,2a79.7,79.7,0,0,0,13.5,17.4,56.7,56.7,0,0,0,7.8,6.3l2.1,1.5a13.5,13.5,0,0,0,3.2,1.4h.5l.9,1,4.1.3h1.8l1-.5.5-.3.3-.3c5.8-4.5,5.9-7.5,4.6-14.2a54.3,54.3,0,0,0-2.9-9.1,17.3,17.3,0,0,1-1.2-9.3v-.2a29.7,29.7,0,0,1,1.8-6.4,24.1,24.1,0,0,1,1.5-3.3,44.8,44.8,0,0,0,2-4.4,47.8,47.8,0,0,1,4.7-9.3l-2.6-3.4Q447.1,783.5,439.7,771.9Z" fill="url(#a)"/><path d="M1073.4,359.3l-3.4.5.6-1.9c.8-1.9,1.7-3.6,2.4-5.5s-.4-3.9-1.5-4.4-3.7.7-4.5,1.9a61.6,61.6,0,0,0-4,7.1.1.1,0,0,0-.1.1,71.3,71.3,0,0,0-2.9,6.9l-.7,1.5c-.7-5.1.3-9.2,1.3-13.5v-.3c.1-.3.1-.7.2-1a34.5,34.5,0,0,0-.1-6.4c0-.5-.8-1-1.1-1.3a7.7,7.7,0,0,0-2.3.6l-.7.5c-1.9,1.3-2.6,3.6-3.6,5.7a13,13,0,0,0-.9,4,7.7,7.7,0,0,1-.2,1.5c-.3,1-.9,1.9-1.1,2.5s-2.3-.5-3.1-.6h-.1a1.9,1.9,0,0,0-1.3.1c-2,.8-4.2,1.2-5.5,3.5l-.3.5-1.1,2.1h0c-1.5,2.7-2.8,5.5-4.2,8.3s-2.2,4.2-3.4,6.3c-2.1,4-3.2,8.4-4.7,12.6-1,2.6-.4,5.9-.2,8.9.3,5-1.7,9.1-4.1,13.3s-3.2,5.7-4.7,8.5l-3.4,6.5a64.7,64.7,0,0,1-3.3,6.2h0a.1.1,0,0,1-.1.1h0a99,99,0,0,1-7.7,11.7c-2.1,2.7-4.2,5.4-6.4,8l-.2.2-1.4,1.6h0a63.3,63.3,0,0,1-4.4,4.6c-.8-1.7-1.9-3.2-2.2-4.9a38.6,38.6,0,0,0-1.7-5.8c-.1,0-.1,0-.1-.1h0c-1.3-3.4-3-6.7-4.6-10s-4.1-7.9-7.7-10.7c-1.8-1.5-1.8-4.6-4.8-5.2-.6-.1-1.1-2-1.1-3.2h0c0-.5-.1-1-.1-1.5a38.1,38.1,0,0,0-.7-5.9,37.5,37.5,0,0,0-2.3-7.9c-.2-.4,0-.9,0-.7,1.9-1.8,4-2.9,4.8-4.7a5,5,0,0,1,3.2-3c2.3-.8,3.6-2.5,4.7-4.7l2,1.2c2-.8,4.3-1.3,4.8-4.1l3.3.5,4.4.8a10.5,10.5,0,0,0,4-7.7,16.5,16.5,0,0,1,.4-3.2c.5-2.2,1.1-4.3,1.5-6.5s2-3.3,3.3-4.6c3.7-3.8,6.9-7.9,8.8-12.9a25.8,25.8,0,0,1,.8-2.6c1.3-2.5,2.2-5.2,4.2-7.5h4.1c3.8-3.9,3.9-4.3,3.2-8.7-.1-.6-.2-1.3-.4-2.1a24.6,24.6,0,0,0-1.9-6.7h0c-2-4.8-5.1-8.9-8.1-13.2-4.2-6-9.8-10.6-15-15.7a35,35,0,0,0-4.6-3.9l-.4-.2a46.5,46.5,0,0,0-4.1-2.6c-2-1.1-4-2.2-6.1-3.1a22.5,22.5,0,0,0-5.4-1.7l-1.9-.5c-2.8-.6-5.6-1.4-8.6-.8l-7,1.5a50.6,50.6,0,0,0-15.4,6.1c-5.1,3.3-10.2,6.6-14.4,10.9a43.9,43.9,0,0,0-8.1,10.5h0a5.9,5.9,0,0,0-.4.8c-2,4.1-4.5,7.8-5.7,12.2a19.9,19.9,0,0,1-1.9,3.9c-.1.1-.1.3-.2.4l-.5,1-1.5-1h0l-.5-.4-.6-.7a20.2,20.2,0,0,0-12.5-8.4,11.2,11.2,0,0,0-2.6-.8,3.6,3.6,0,0,1-3.6-2.8c-1.4-5-4.6-8.8-7.4-12.9l-.6-.9-.4-.5a51,51,0,0,0-5-5.7,89.1,89.1,0,0,0-8.4-7.4c-1.9-1.5-3.9-3-6-4.4l-.6-.5c-5.3-3.5-10.7-6.7-16.1-10.1s-12.2-7-17.8-11.4c-1.9-1.4-4.3-2.8-7-2.4-.2,0-.5-.7-.8-1h-6c-.4.3-.8.9-1.3,1s-3.5-.5-5,.1c-7,2.6-14.5,3.7-21.7,5.5h-.3l-1,.3-2.2.5-.5.2a143.6,143.6,0,0,0-22.2,8.1c-5.7,2.5-11,5.7-16.5,8.6H745c-4.7,2.5-9.5,4.5-14,7.4a40.8,40.8,0,0,1-8.3,4.3l-.5.2h-.3a43.2,43.2,0,0,1-7.2,2.3h-.2a17.1,17.1,0,0,1-4.5.3c-4.2-.3-8.3-.1-12.5-.1-1,0-2.5-.4-2.9.1s-2.8.7-4.1.9h-.3a27,27,0,0,1-3.9.8,12.9,12.9,0,0,1-4.7-.6c-4.6-1.3-8.8-3.7-13.5-4.7-2.2-.5-4.5-1.9-6.3-1.4s-5.4.7-5.8,4.1c1.8,2.6,4.6,3.8,7.5,4.7a86.5,86.5,0,0,1,14.5,5.9c1.8,1,2.4,2,1.6,4.3L664.8,314h-.4c-3.2-2-7.1-1.3-10.4-2.8-.7-.4-1.9,0-2.8.3a4.5,4.5,0,0,0-3.2,4c-.2,2,1.4,2.3,2.7,2.8l1.7.8c2.4,1.3,5.4.2,7.5,1.2s5,.2,7.4,1.4,5,.9,7.4,1.5,1.7,1.1,2.4,1.6c-.9,3-3.1,4.1-5.3,5.3l-5.5,3.1-.4.2-8.3,4.6c-2.2,1.2-4.6,2.3-6.2,4.3s-1.9,4.9.1,6.8,3,1.2,4.7.3l17.9-8.8a8.3,8.3,0,0,1,2.1-.7l-7.4,8.9c-.3.4-.6.9-1.1,1-3.8,1.1-4.5,5.3-7.3,7.4-.3.3-.3.9-.4,1.4a2.5,2.5,0,0,0,.1,1.7h0a7,7,0,0,0,1.6,1.9c1.5,1.3,2.8.8,4.5.2l1.2-.5c2.6-1.3,4.7-3.3,7-4.9,5.3-3.7,9.9-8.3,15.5-11.7l.5-.3a40.2,40.2,0,0,1,9.3-4c1.5,5-1.4,8.8-3.1,12.7s-2.9,6.9-2.6,10.6l2.3,2.5c2.9.9,5.2-.6,6.8-2a8.2,8.2,0,0,0,3.1-5c.3-2.3,1.7-4.5,2.8-6.7,2.5-5.2,5.1-10.3,7.7-15.3v-.2a.3.3,0,0,0,.1-.2,34.6,34.6,0,0,1,8.7-10.3l.2-.2,2.8-2.2c2.1-1.6,4.6-1.9,6.7-3.3a22.9,22.9,0,0,1,6.8-2.9c5.5-1.6,10.8-3.7,16.6-4.7,2.2-.3,4.6-.1,6.5-1l.8-.3h0c1.7-.5,3.3-.3,4.9-.5s3.7-.8,5.6-1l5.8-.4h.2l8-.5a3.3,3.3,0,0,0,1,0c1.8-2,4.1-.6,6.1-1s3.8-.7,5.7-.9c4.5-.5,9-.8,13.5-1.1a1.3,1.3,0,0,0,.9-.2c1.2-1.4,2.7-.7,4.2-.6.8,2.7,1.7,5.4,2.6,8.1a37.1,37.1,0,0,0,7.7,13.5l3.9,4.2a.1.1,0,0,1,.1.1l8.8,9.1c0,5.6-.1,5.6-3.2,9.6s-5.8,8.7-9.5,12.6c-1.1,1.2-1.6,3-3.5,3.6s-2.5,2.3-4.2,3.1-6,3.3-8.8,5.1h0c-3.1,2-6.1,4.1-9.1,6.2a.1.1,0,0,1-.1.1l-7,5.4-5.3,4.5a.2.2,0,0,1-.2.2c-3.1,2.9-6.2,5.8-9.6,8.5s-7.4,7.4-11.6,10.6-7.4,7-11.3,10.3-10.5,9.2-15.5,13.9c-7.3,6.8-14.7,13.2-23,18.5-4.1,2.7-8.8,3.9-13.5,5.2h-.1l-1.1.3c-2.7.8-14.5,4-17.2,5.4-4.3,2.3-8.7,4.4-12.3,8a79.1,79.1,0,0,0-6.6,7.7c-.5.6-.9,1.3-1.4,2-1.7,2.7-2.4,5.7-4,8.3a37,37,0,0,0-2.9,7.3,220.2,220.2,0,0,1-9.1,23.8,51.1,51.1,0,0,1-8.7,13.8l-3.3,3.5-.2.2c-2.3,2.4-4.7,4.7-7.1,6.9l-4.3,4.1-.3.2c-2,1.9-4.2,3.9-6.1,5.5h-.1l-1.8,1.7a124.6,124.6,0,0,0-12.1,12c-5.1,5.8-9.1,12.3-13.8,18.4a64.2,64.2,0,0,0-4.2,6h-.1c-2.8,4.2-5.4,8.6-8.5,12.7a78.3,78.3,0,0,1-12.6,13.1c-5.2,4.4-11.3,7.6-17.4,10.8-7.9,4.1-15.8,7.9-23.4,12.6a115.8,115.8,0,0,0-12.5,9.3c-4.2,3.5-7.1,7.9-10.4,12.2s-7.3,9.9-11,14.9c-2.3,3.1-4.6,6.2-7,9.1s-4.3,4.5-5.9,7.1a58.8,58.8,0,0,1-3.6,5.1h0c-3.1,4.1-6.5,7.9-9.6,11.9s-4.1,4.6-5.9,7.1c-4.2,5.8-9.9,10.4-16.4,14.5s-12.8,5.6-19.5,7.5l-4.4,1.3-1.3.4c-5.2,1.6-10.1,3.5-13.9,7.6a7.4,7.4,0,0,1-.9,1.2,2.7,2.7,0,0,0-.6,1.7V807h0c.4,6.4,4.3,12.6,7.4,18.1a79.7,79.7,0,0,0,12.9,16.5c2.7,2.9,6.2,5,9.4,7.4,1.2.9,3.1.6,4.2,1.8l2.5.2h.6c4.4-3.4,4.4-4.6,3.3-10.4a46,46,0,0,0-2.8-8.4,22.7,22.7,0,0,1-1.3-11.4h0a30.1,30.1,0,0,1,2.1-7.5c1-2.6,2.5-5,3.4-7.6a55.3,55.3,0,0,1,5.9-11.3l1.2-1.8c1.7-2.5,4.8-3.4,6.1-6.4l-5.9-4.8c2.9-3.2,6-6.1,8.5-9.6,1.3-1.8,2.9-3.4,4.3-5.1s2.7-3.7,4.3-5.2c7.8-7.8,15.3-15.8,24.2-22.5l6.5-4.9,6.8-5.2c4.7-3.5,9.5-6.9,14.2-10.2s6.8-4.2,9.7-6.8c4.6-4.4,10.5-7.1,14.9-11.7l.9-1a27.7,27.7,0,0,0,6-4.1l5-4.1c2.3-1.7,4.5-3.6,6.7-5.5h.1l8.4-7.5a44.3,44.3,0,0,1,6.5-4.9l6-3.5h0l7.7-4.4a69.3,69.3,0,0,0,14.5-10.8,31.6,31.6,0,0,1,14.5-8.3c8.3-2.2,15.5-6.8,22.5-11.6l1.6-1.1h0q2.9-2,5.7-4.2a51.9,51.9,0,0,0,5.9-4.2c2.4-2.3,4.6-4.8,7.3-6.6s5.1-4.4,7.7-6.4,6.8-5.4,10.1-8.2h0l3.5-3h.1l4.2-3.6,6.3-5.3,8.7-7h0c1-.9,2-1.6,3-2.4,3.2-2.6,6.6-5,9.8-7.3l4.4,3,7,5.1h.2c5.5,4.1,11,8.1,16.8,11.8s10.8,7.5,16.6,10.5,12.4,7,19.1,9.5c4.1,1.6,8,4,12.4,5.1l1,.6h0l2,1.7a39.1,39.1,0,0,0-6.4,1.7c-2.9,1.2-6.1,1.1-8.9,2.8s-5.6,2.6-8.2,4.1c-6.9,4.1-13.3,8.9-20.2,12.8-3.9,2.3-8.1,4.1-12.1,6.1s-9.5,4.1-14.3,6L711.9,664c-3.6,1.4-7.3,2.8-11,4l-10.6,4.1-6.8,2.7-5.1-3.7c-.3.3-.6.8-1.1.9a21.4,21.4,0,0,0-10.9,5,31.4,31.4,0,0,1-4.4,2.5c-3.5,2-9.2,6.9-10.8,9.9s-2.3,4.2-2,6.1a18.2,18.2,0,0,0,3.4,7.5,115.1,115.1,0,0,0,8.8,10.8,64.5,64.5,0,0,1,6.7,9.1c0,.1.1.1.1.2s1.6,2.6,2.3,4c2.3,4.7,4.8,9.3,7.2,14.1l1.5,3.3a154.8,154.8,0,0,0,14.5,25.3,24.3,24.3,0,0,0,11.6,8.9c6.8,2.6,10.8,1.7,16.3-1.9,3.2-2.1,4-5.9,5.2-9.3.4-1.2-1.1-3.1-1.5-4.7-.9-4-4.2-6.3-6.5-9.3a27.8,27.8,0,0,1-5.6-14.6,46.1,46.1,0,0,1,1.1-14.8c.7-3,1.1-6.1,1.6-9.1s2-6.6,2.2-10a2.6,2.6,0,0,1,1.4-1.9,67.4,67.4,0,0,1,11.3-5.1c4.9-1.6,9.5-4.1,14.8-4.1,7.4-3,15.4-3.1,23-4.8,4.5-.9,9.2-1.1,13.7-2.1,2.2-.4,4.5.1,6.9-.6h.1l.6-.2c2.3-.9,5-.6,7.6-1s7.8-1.5,11.6-2.1c7.1-.9,13.7-3.6,20.5-5.5a133,133,0,0,0,16.5-5.5c8.5-3.6,17.8-5.3,25.9-10.1l1.1-.7c3.7-2.2,7.3-4.4,9.5-8.4s4.1-7.4,4.3-11.6.7-10.9-.9-16.1a65.9,65.9,0,0,0-3.2-8.8h0c-.3-.7-.7-1.3-1-1.9-3-4.8-5.7-9.8-9.1-14.3l-12.4-16.4c-3.1-4.2-6.5-8.3-9.2-12.7s-6.8-9.2-10.3-13.6-10.2-11.3-15.5-16.7-8.4-7.8-12.6-11.7L797.5,515l-1.6-1-3.6-3.1c3.5-2.8,6.4-5.7,9.7-7.8a70.5,70.5,0,0,1,11.7-6.6L827,491c4.4-1.8,8.8-3.6,13.1-5.7,6.1-2.9,12.1-6.3,18.2-9.3,4.4-2.2,8.8-4.4,13.3-6.4,7.4-3.2,15.1-5.5,22.5-8.5l1.5-.6h.2a131.5,131.5,0,0,0,14.9-7.7c6-3.5,11.1-8.5,16.6-12.7,1.2-.9,2.1-1.5,3.1-1,2.3,4.3,4.6,8.2,6.6,12.1a53.2,53.2,0,0,0,3.5,6.1h0c2.8,4.1,5.9,7.9,9,11.7s4.3,4.5,6,7.1a63.1,63.1,0,0,0,7.1,8.4,37.6,37.6,0,0,1,2.5,3.1c1.8,2.3,4,4.3,5.6,6.7a74.5,74.5,0,0,0,12.8,14.6c4.4,3.6,9.2,4.8,15,2.3a22.5,22.5,0,0,0,3.1-1.6c6.7-4,10.5-10.5,14.4-17.1,1-4.9,4-9.2,5.4-14a15.9,15.9,0,0,0,.6-3,79.5,79.5,0,0,0,6.1-14.8,73.4,73.4,0,0,1,5.9-14.2,43.6,43.6,0,0,1,3.7-10.1l2.4-5.4c2-5,4.7-9.7,6.8-14.7a17.3,17.3,0,0,1,4-5.7,51.1,51.1,0,0,0,5.2-5.2,48.7,48.7,0,0,0,5.7-7.2c.1-.1.1-.1.1-.2s1.3-2.2,1.9-3.2c2.1-3.7,4-7.4,5.9-11a20,20,0,0,0,1-2.1.4.4,0,0,1,.1-.3h0a5.7,5.7,0,0,0-.3-4.4,1.1,1.1,0,0,1,.1-1c1.9-2,2.5-4.9,4.3-7a4.4,4.4,0,0,0,1.1-2.9v-4.5A2.3,2.3,0,0,0,1073.4,359.3Zm-23.9,7.1c1.1,3.1-.6,5.6-.7,8.2a6,6,0,0,0,.4,2.2h-5.5c1-2,1.8-4,2.9-6A16.7,16.7,0,0,1,1049.5,366.4Z" fill="url(#b)"/><path d="M1060.8,344.3a34.5,34.5,0,0,1,.1,6.4c-.1.3-.1.7-.2,1v.3l-1.6-3.3-2.3-4.6.7-.5a7.7,7.7,0,0,1,2.3-.6C1060,343.3,1060.8,343.8,1060.8,344.3Z" fill="url(#c)"/><path d="M1070.8,381.4h0a5.3,5.3,0,0,0-.3-4.4,1.1,1.1,0,0,1,.1-1c1.9-2,2.5-4.9,4.3-7a4.4,4.4,0,0,0,1.1-2.9v-4.5a2.2,2.2,0,0,0-2.5-2.2l-3.5.4.6-1.9c.8-1.9,1.7-3.6,2.4-5.5s-.4-4-1.5-4.4-3.7.7-4.5,1.9a69.9,69.9,0,0,0-4,7l.5,1.1,4.2,13.9,2.9,9.8Z" fill="url(#d)"/><path d="M445,851h-.6l-2.5-.2c-1.1-1.2-3-.9-4.2-1.8-3.2-2.4-6.7-4.5-9.4-7.4a79.7,79.7,0,0,1-12.9-16.5c-3.1-5.5-7-11.7-7.4-18.1h0V794h.1l.7.5,35.4,26.3.8.6-.8-.6a22.7,22.7,0,0,0,1.3,11.4,46,46,0,0,1,2.8,8.4C449.4,846.4,449.4,847.6,445,851Z" fill="#ba2125" stroke="#ed1c24"/><path d="M1097.6,703.7a282.4,282.4,0,0,1-21.6,57.8c-2.2,4.3-4.5,8.5-6.9,12.7L1008,758.5l68-41.6Z" fill="url(#e)"/><path d="M451,669.5,462,594l3,10Z" fill="url(#f)"/><path d="M958,337l-.5-5.5,31,1Z" fill="url(#g)"/><path d="M510,83.4h-.1l-.8.7-47.6,45.4-.2-.3a570,570,0,0,0-40.8-54.8c7.1.6,40,2.2,87.9,8.7H510Z" fill="#ca0e0e"/><path d="M520,148l-.6.3-1.1.6h0l-35.6,17.8h-.1c-6-12.1-12.7-23.6-19.6-34.6l56.5,15.9h.5Z" fill="#de0c0c"/><path d="M520,148l-.6.3-1.1.6h0l-35.6,17.8h-.1c-6-12.1-12.7-23.6-19.6-34.6l56.5,15.9h.5Z" fill="url(#h)"/><path d="M520,148h-.5L463,132a15.8,15.8,0,0,1-1.5-2.4l-.2-.3,47.6-45.8.3-.2h1.5l9.2,64Z" fill="#e20909"/><path d="M510.9,83.5H508l.4-.3h2.5Z" fill="#9e0b0b"/><path d="M584,95.9h.5L520,148v-.5L509.1,84.2v-.7h1.9c21.7,3,46.4,7,73.1,12.4Z" fill="#e24f4f"/><path d="M584,95.9h.5L520,148v-.5L509.1,84.2v-.7h1.9c21.7,3,46.4,7,73.1,12.4Z" fill="url(#i)"/><path d="M519.5,148v.3l-1.6,3.6v.7l-.2.2-20.1,47.4V200a355.9,355.9,0,0,0-14.5-33.3h-.1l36.5-18.4h0Z" fill="url(#j)"/><path d="M505.8,227.5h0l41,32.5.2.2.9.7,1.4,1.1,17.4,13.7.3.3,6.1-14,33-75,.3-.7h0V186l-42,10.5-63.1,15.7a4.3,4.3,0,0,1,.1.5c1.6,4.8,3,9.8,4.3,14.8Z" fill="url(#k)"/><path d="M564.5,196.5l-63,16.2a4.3,4.3,0,0,0-.1-.5c-1.3-4-2.7-8-4.1-12V200l20.2-47.2v-.3h.1l46.9,43.9Z" fill="#5aafec"/><path d="M564.5,196.5l-63,16.2a4.3,4.3,0,0,0-.1-.5c-1.3-4-2.7-8-4.1-12V200l20.2-47.2v-.3h.1l46.9,43.9Z" fill="url(#l)"/><path d="M564.5,196.5l-48.5-45L636.5,179Z" fill="url(#m)"/><path d="M584.5,96c3.8.8,7.7,1.5,11.5,2.4l-1.7,6.6-15.7,60.8v.2h-.3l-60.5-13.8-1.4-.3-1.3-.3,3.3-2.6h0l.8-.7h0l.4-.3h0l.4-.4h0L584,95.9h.5Z" fill="url(#n)"/><path d="M729.5,204l-2.5-.6h-.7l-93.2-23.1H632l-54-13.4.2-.6v-.2L594.3,105l1.8-6.6c8.5,1.8,17.2,3.7,26.1,5.8h.1l80.8,75.1,1,1,22.7,21.1.7.7Z" fill="url(#o)"/><path d="M731.9,136.5l-27.8,43.9H704l-81.8-76.3h.1a1016.3,1016.3,0,0,1,109.4,32.2Z" fill="url(#p)"/><path d="M817.6,172.5,728.2,197H728v-.3l7.1-59h0a831.4,831.4,0,0,1,82.4,34.8h.1Z" fill="url(#q)"/><path d="M735.1,137.7l-6.9,59v.3l-.7,5.2v.3l-.7-.7L704,180.5l-1-1h.1l28.6-42.9h.2l3.2,1.2Z" fill="url(#r)"/><path d="M548.5,261H547l-35.8-6a.6.6,0,0,0-.1-.4,266.4,266.4,0,0,0-5.3-26.9h0Z" fill="url(#s)"/><path d="M633.5,179.5l-27,6.5L545,324.5Z" fill="url(#t)"/><path d="M547,260l-1.5,63.5L567,276Z" fill="url(#u)"/><path d="M547,260v2l-1,39h0l-.3-.2-.3-.2L526,286l-12.8-9.5h0c-.2-4.9-.6-9.7-1.1-14.5l-.9-7.2a.6.6,0,0,0-.1-.4l35.7,5.6Z" fill="url(#v)"/><path d="M526,286h0l-15,35a.9.9,0,0,0,.1-.5h0a29.1,29.1,0,0,0,.4-3.1,217.5,217.5,0,0,0,1.7-40.9h0Z" fill="url(#w)"/><path d="M546,300.5l-.3.3-38,38.4c.1-.1.1-.1.1-.2,1.3-5.9,2.4-11.9,3.2-18h0a.9.9,0,0,0,.1-.5h0L526,286h0l19.7,14.3Z" fill="url(#x)"/><path d="M546,300v3.8l-.2,17.9v1h0v.4l-.4,42h0l-.9,101.1h0v.3h-.1l-13.1-34.2h0l-.8-2.2-7.1-18.7h0l-.2-.5h0l-7.7-20.1-12.5-32.6h0c.1-.2.1-.5.2-.8,1.7-5.9,3.3-12,4.6-18.2.1-.1.1-.1.1-.2l37.6-38.4.3-.3Z" fill="url(#y)"/><path d="M727.5,203,633,180l-37,59Z" fill="url(#z)"/><path d="M545,323l53-86L744.5,340Z" fill="url(#aa)"/><path d="M689,213l-91,24,55,39Z" fill="url(#ab)"/><path d="M727,203l-38.5,10.5,33,111Z" fill="url(#ac)"/><path d="M653,276l36-63,32.5,111Z" fill="url(#ad)"/><path d="M823.2,175.3l-35.7,30.9-.5.4-62.3,53.8h-.2v.2l-.4.3v-1.4l2.6-56.3h0v-1.6l.2-4.5,1-.3h.2l89.3-24.2h.1l5.6,2.8Z" fill="url(#ae)"/><path d="M721,324l3-64.5L837,402Z" fill="url(#af)"/><path d="M787.5,206l-63,54.5,57,71.5Z" fill="url(#ag)"/><path d="M827,177.2,790.8,262l-2.8,6.6-3.9,9-.3.8h-.1l-.2.5v-.5h0l.5-8.8.3-7.6,2.7-55.4h0l.5-.4,35.7-30.8h0l3.8,1.9Z" fill="url(#ah)"/><path d="M783.5,278.5l-2,53.5,207,.5Z" fill="url(#ai)"/><path d="M902.5,221.8l-51.4,24.5h-.4l-.5.2-32,15.3-34.1,16.2-.3.2h-.3l.6-1.3h0l3.6-8.5h.1l2.8-6.6L827,177.2h0a661.5,661.5,0,0,1,75,44.3Z" fill="url(#aj)"/><path d="M970.6,276.9l.5.4L911.6,262,851,246.4h-1.5L902,221.5l.5.3A556.2,556.2,0,0,1,954.3,262C959.9,266.8,965.3,271.8,970.6,276.9Z" fill="url(#ak)"/><path d="M783.5,278.5l67-32.5L869,301.5Z" fill="url(#al)"/><path d="M971.6,277.8l-92.9,21.4-4.3.9-4.6,1.1h-.1l-.7.2h-.5v-.2l-.2-.5-4.6-13.9L855.3,262l-5.1-15.3v-.5h.4l.6.2L912.5,262l58.1,14.9.5.4C971.3,277.5,971.4,277.7,971.6,277.8Z" fill="url(#am)"/><path d="M971.6,277.8l.4.5-12,9.2-36,28-.9-.2-1-.3-38-9.6-15.6-3.9h.5l.7-.2,4.7-1.1,4.3-.9Z" fill="url(#an)"/><path d="M993.1,294.7l.4.2-.6,4.6-4.4,33-12.9-45.7-1.9-7,9.2,9.2c2.1.9,4.1,2,6.1,3.1A46.5,46.5,0,0,1,993.1,294.7Z" fill="url(#ao)"/><path d="M988.5,332.5h0l-64.5-17,36-28,12-9.2,1.7,1.5,1.9,7Z" fill="url(#ap)"/><path d="M1021.2,327.7l-4,.6-28.7,4.2h0l4-33.3.6-4.5.4.2a35,35,0,0,1,4.6,3.9c5.2,5.1,10.8,9.7,15,15.7,3,4.3,6.1,8.4,8.1,13.2Z" fill="url(#aq)"/><path d="M516,391l-.6-.2-21.5-6c3.3-8.7,6.4-17.5,9-26.6h0c.1-.2.1-.5.2-.8Z" fill="url(#ar)"/><path d="M524.5,412l-1.2-.6-30.9-14.1h-.6l-2.4-1.1h.1l3-7.6,30.6,22.6h0Z" fill="url(#as)"/><path d="M492,397h-.2l-3.6,1.7,1.2-2.8h.1Z" fill="#c80a11"/><path d="M492.5,418.5h-.2l-11.6-2.9h0l2.4-5.3,9.2,8h0Z" fill="#d84305"/><path d="M492.5,418.4h0l-.2-.2h0l-9.2-8c1.8-3.8,3.5-7.6,5.1-11.5l3.6-1.7h.2v.2Z" fill="url(#at)"/><path d="M524.5,412,492,397l40,34.5Z" fill="url(#au)"/><path d="M493,469.5,492,397l40,34.5Z" fill="url(#av)"/><path d="M544.5,467,494,468.5,531.5,432Z" fill="url(#aw)"/><path d="M493,418.5v50.6l-.2-.5-.2-.6h0v-.2L480.8,434h0l-3.7-10.7h.1l3.5-7.4h0l11.6,2.7h.7Z" fill="url(#ax)"/><path d="M481,434h-.2l-6.5-4.9c.9-1.9,1.9-3.8,2.8-5.8h.1Z" fill="#f14c1c"/><path d="M580,379.5,544.5,467l.5-102Z" fill="url(#ay)"/><path d="M545.5,322l-.5,43,164.5,69.5Z" fill="url(#az)"/><path d="M632.5,330.4v50.9L547,323Z" fill="url(#ba)"/><path d="M693,335.5l-61,46V330Z" fill="url(#bb)"/><path d="M670,407.5l-38-26L667,355Z" fill="#fb8b08" fill-opacity="0.77"/><path d="M693,335.5,667,355l3,52.5Z" fill="url(#bc)"/><path d="M743.5,339.5l-50.5-4-23,72Z" fill="url(#bd)"/><path d="M709.5,434.5l-39.5-27L710,370Z" fill="#f2591a"/><path d="M838.5,402,709,371l1.5,254.5Z" fill="url(#be)"/><path d="M744,338.5,709,371l82.5,20Z" fill="url(#bf)"/><path d="M791.5,391,745,339.5,837,402Z" fill="#f0401e"/><path d="M900.5,332,837,402l-55.5-70Z" fill="url(#bg)"/><path d="M1003,461,871,364l28.5-32Z" fill="url(#bh)"/><path d="M957.5,331.5l-16,53.5-42-53Z" fill="url(#bi)"/><path d="M957.5,331.5,966,416l-24.5-31Z" fill="url(#bj)"/><path d="M649,408l-90,23,21-51.5Z" fill="url(#bk)"/><path d="M710.5,625.5,544,467.5,559,431Z" fill="url(#bl)"/><path d="M709.5,434.5,649,408l-90,23Z" fill="url(#bm)"/><path d="M642,538,559,431l101,2Z" fill="url(#bn)"/><path d="M709.5,434.5,660,433l50.5,192.5Z" fill="url(#bo)"/><path d="M642,538l18-105,50.5,192.5Z" fill="url(#bp)"/><path d="M945.5,418.5l-108-17,34-37.5Z" fill="url(#bq)"/><path d="M1028.7,343.7l-31.1,35.6-8.8,10.1-20.5,23.4-2.1,2.4-.2.3-.2.2-.3.3v-2L958,337h0l30.5-4.5h0l28.7-4.2h0l4-.6h0a24.6,24.6,0,0,1,1.9,6.7c.2.8.3,1.5.4,2.1Z" fill="url(#br)"/><path d="M1036.3,354.8h0l-24.9,79.3h0L1003,461l-5.9-7-28-33.7h0l-3.6-4.3.3-.3.2-.2.2-.3,2.1-2.4,20.5-23.4,8.8-10.1,31.1-35.6C1031.3,347.4,1033.9,351,1036.3,354.8Z" fill="url(#bs)"/><path d="M492.5,468h-.2l-43.6,10.5v-.2c7-13.4,14.1-26.7,20.9-40.2h.1l22.6,29.7.2.2Z" fill="url(#bt)"/><path d="M493,469h-.1l-.2-.3-.4-.6-.2-.2-22.5-29.7h.1c.8-1.7,1.7-3.5,2.6-5.2l8.5,1.1h.2l11.6,33.7.3,1.1h0Z" fill="#f46d16"/><path d="M481,434h-.2l-8.5-1.1c.6-1.3,1.3-2.6,2-4l6.5,4.9h.2Z" fill="#cb1355"/><path d="M493,468.5l51.5-1.5L443,707Z" fill="url(#bu)"/><path d="M493.5,467.5l-.2,1-.2.9L465,604l-.2-.8-2.8-8.9v-.2h0l-27.3-87.5h.1c4.5-9.4,9.2-18.7,14-27.9v-.2l43.4-10.5h1.4Z" fill="url(#bv)"/><path d="M462,594h-.1L408,599.2l-5.3.5c1.5-8,3.3-15.9,5.3-23.5,6.6-24.7,16.1-47.6,26.6-69.7h.1Z" fill="url(#bw)"/><path d="M462,594h-.1L408,619.9l-8.4,4c.5-6.6,1.3-13.2,2.4-19.9.2-1.4.5-2.9.7-4.3l5.3-.5,53.9-5.2Z" fill="url(#bx)"/><path d="M462,594h-.1L408,626.5l-8.8,5.4h0c.1-2.6.2-5.3.4-7.9l8.4-4L461.9,594Z" fill="#de515a"/><path d="M462,594v.3h0l-.5,3-9.9,68.8h0l-.3,2.2h0L450,677l-.6-.5L408,646.4l-9-6.6c0-2.6,0-5.3.2-7.9h0l8.8-5.3,53.9-32.4Z" fill="url(#by)"/><path d="M443,707l-33.4,2-.8-1.6-.8-3.7-1.1-3.8,1.1.2Z" fill="url(#bz)"/><path d="M443,707l-35-6.9-1.1-.2a224.4,224.4,0,0,1-7.9-55.8l9,12.9Z" fill="url(#ca)"/><path d="M450,677l-7,30-35-50-9-12.9v-4.3l9,6.6,41.4,30.1Z" fill="#fb2d2d" fill-opacity="0.91"/><path d="M491.5,592l53-125,90,86Z" fill="url(#cb)"/><path d="M491.5,592,443,707,594,564Z" fill="url(#cc)"/><path d="M589.5,682,594,564,443,707Z" fill="url(#cd)"/><path d="M594,564l40.5-11L591,641Z" fill="url(#ce)"/><path d="M589.5,682l1.5-41,119.5-15.5Z" fill="#fb8b08" fill-opacity="0.77"/><path d="M710.5,625.5,591,641l43.5-88Z" fill="url(#cf)"/><path d="M1041.5,608l-331,17.5,127-224Z" fill="url(#cg)"/><path d="M945.5,418.5l-108-17,97.5,99Z" fill="url(#ch)"/><path d="M1003,461l-57.5-42.5-10.5,82Z" fill="url(#ci)"/><path d="M1087,460l-11,.2-47.9.5-15.5.2H1003l13.9-9.9,20.8-14.7,31.7-22.6c2.3,4.9,4.5,9.8,6.6,14.9l3,7.3C1081,441,1083.8,449.2,1087,460Z" fill="url(#cj)"/><path d="M1047.7,357.2l-6.5,4.9-1.7,1.3h0L1032,369l4.4-14.2,4.2,6.5.3-.5c1.3-2.3,3.5-2.7,5.5-3.5A1.9,1.9,0,0,1,1047.7,357.2Z" fill="#f31313" fill-opacity="0.65"/><path d="M1060,348l-1,.7-6.8,5.1a13,13,0,0,1,.9-4c1-2.1,1.7-4.4,3.6-5.7l.7-.5Z" fill="#f31313" fill-opacity="0.65"/><path d="M1062.1,354.4a.1.1,0,0,0-.1.1v-.2Z" fill="#db1111" fill-opacity="0.78"/><path d="M1070.8,381.4h0l-3.1-9.5-4.8-14.8a71.3,71.3,0,0,0-2.9,6.9l-.7,1.5c-.7-5.1.3-9.2,1.3-13.5v-.3c.1-.3.1-.6.2-1l-.9-2.7-1,.7-6.8,5.1a7.7,7.7,0,0,1-.2,1.5c-.3,1-.9,1.9-1.1,2.5s-2.3-.5-3.1-.6h-.1l-6.5,4.9-1.7,1.3h0L1032,369l3.3,2.7,21.9,17.7,6.7,5.4,5.8-11a18.9,18.9,0,0,0,.9-2.1Z" fill="#db1111" fill-opacity="0.78"/><path d="M1061.8,398.2c2.7,5.1,5.2,10.3,7.6,15.6l-31.7,22.6-20.8,14.7L1003,461l8.5-27h0l20.5-65,3.3,2.7,21.9,17.7,6.6,5.4c-.6,1-1.2,2.2-1.9,3.2S1061.9,398.1,1061.8,398.2Z" fill="#eb3030" fill-opacity="0.95"/><path d="M935,500.5l68-39.5-3,105Z" fill="url(#ck)"/><path d="M1106.2,559.3,1076,530.6l-54.6-52.1-11.6-11.1L1003,461h9.6l15.5-.2,47.9-.5,11-.2A563.3,563.3,0,0,1,1106.2,559.3Z" fill="url(#cl)"/><path d="M1106.5,562.6l-30.5,1-76,2.4h0l1.6-56.4.3-9.9.3-10.1v-5.2h0l.7-23.3,6.8,6.4,11.6,11.1,54.6,52.1,30.2,28.7h0Z" fill="#f0401e" fill-opacity="0.76"/><path d="M1106.7,564.4,1076,584.9,1041.5,608,1000,566h0l76-2.4,30.5-1C1106.6,563.2,1106.6,563.8,1106.7,564.4Z" fill="url(#cm)"/><path d="M443,707l-13.9,34.6-2.9,7.2L408.1,794V753.8a2.7,2.7,0,0,1,.6-1.7,7.4,7.4,0,0,0,.9-1.2c3.8-4.1,8.7-6,13.9-7.6A253.3,253.3,0,0,1,409.6,709Z" fill="#bc090f"/><polygon points="554 688 553.9 688.1 553.9 688.1 503.5 725 454.8 760.8 443.7 769 439.6 771.9 418.3 787.6 415.9 789.4 414.9 790.1 408.8 794.5 408 795.1 408 794.3 408.1 794 426.2 748.8 429.1 741.6 443 707 480.5 700.6 521.8 693.5 554 688" fill="url(#cn)"/><path d="M523.5,862.9h0c-4.8-3.9-9.5-7.9-14.2-11.9a397.6,397.6,0,0,1-53.7-56.6,55.3,55.3,0,0,0-5.9,11.3c-.9,2.6-2.4,5-3.4,7.6a30.1,30.1,0,0,0-2.1,7.5l.8.6-.8-.6-36.2-25v-.7l.8-.6,6.1-4.4,1-.7,2.4-1.8,21.3-15.7,4.1-3,11.1-8.1L503.5,725h0l1.3,9.1,3.3,22.5,8.4,58.3h0l5.2,36Z" fill="url(#co)"/><path d="M516.5,815l-13-90L554,688Z" fill="url(#cp)"/><path d="M670.5,934.4h-.3L630.9,851,617,821.5h0L557.3,695.1,554,688h0l15.1-2.5h0l20.4-3.5,40.8,127.3.2.6L643.7,851l12.8,39.9h0Z" fill="url(#cq)"/><path d="M617,821.5,516.5,815,554,688Z" fill="url(#cr)"/><path d="M617,821.5h0L568.4,851l-33.9,20.6h-.1l-10.9-8.7h0L521.7,851l-5.2-36h0L617,821.5Z" fill="url(#cs)"/><path d="M617,821.5h0L605.4,851l-20.8,53A318,318,0,0,1,544,878.8l-9.5-7.2L568.4,851Z" fill="url(#ct)"/><path d="M670.2,934.4A338.9,338.9,0,0,1,584.6,904l20.8-53L617,821.5h0L630.9,851Z" fill="url(#cu)"/><path d="M710.5,625.5,589.5,682l41,128Z" fill="url(#cv)"/><path d="M656.5,891,630,810l56-128Z" fill="url(#cw)"/><path d="M833,619,686,682l24.5-56.5Z" fill="url(#cx)"/><path d="M656.5,891,686,682l147-63Z" fill="url(#cy)"/><path d="M717.5,797l-18.1,54L690,879.1l-18.5,55.5-1-.2h0l-14-43.4h0l26-39.9Z" fill="url(#cz)"/><path d="M774.5,941.3a380.4,380.4,0,0,1-51.2.2L719.7,851l-2.2-54,21.3,54Z" fill="url(#da)"/><path d="M723.3,941.5h-2.1L690,879.1h0l9.4-28,18.1-54,2.2,54Z" fill="url(#db)"/><path d="M951.5,744,833,619,744,756Z" fill="url(#dc)"/><path d="M951.5,744,975,611.5,833,619Z" fill="url(#dd)"/><path d="M777.2,941.2h-2.7L738.8,851l-21.3-54,.9-1.4L744,756h0L761,851Z" fill="url(#de)"/><path d="M865.7,924.7a413.8,413.8,0,0,1-79,15.6c-.1,0-.2,0-.2.1L825,865l.7,1.1Z" fill="url(#df)"/><path d="M951.5,744,861,799,744,756Z" fill="url(#dg)"/><path d="M875.8,921.5l-10.1,3.2-40-58.6L825,865l7.6-14L861,799l6.3,52Z" fill="url(#dh)"/><path d="M1041.5,608l-90,136L975,611.5Z" fill="url(#di)"/><path d="M1107.1,647.2,1076,628.6,1041.5,608l34.5-23.1,30.7-20.5A475.5,475.5,0,0,1,1107.1,647.2Z" fill="url(#dj)"/><path d="M1107.1,647.2c-.6,6.4-1.3,12.8-2.2,19.2h0L1076,681l-62.6,31.7h0l-1.4.7L951.5,744l90-136,34.5,20.6Z" fill="url(#dk)"/><path d="M951.5,744l-37,101h0l-2.2,5.9-24.2,66.3h0q-6.1,2.3-12.3,4.2L867.3,851,861,799Z" fill="url(#dl)"/><path d="M1020.1,836.3c-5.3,5.1-10.7,10-16.3,14.7a351.8,351.8,0,0,1-39.1,28.8L961.9,851,951.5,744Z" fill="url(#dm)"/><path d="M927,900.8c-12.6,6.1-25.6,11.6-38.9,16.5L912.3,851l2.2-6h0l1.3,5.9Z" fill="#c0141b"/><path d="M952.2,887.3q-12.3,7.2-25.2,13.5L915.8,851l-1.3-5.9h0l5.3,6Z" fill="#c91e25"/><path d="M964.7,879.8c-4.1,2.6-8.3,5.1-12.5,7.5L919.8,851l-5.3-6h0l37-101,10.4,107Z" fill="url(#dn)"/><path d="M1008,758.5l61.1,15.7-2.4,4a290.7,290.7,0,0,1-46.6,58.1L951.5,744Z" fill="url(#do)"/><path d="M1104.9,666.4h0c-1.3,9.1-2.9,18.3-5,27.3L1076,699l-62.6,13.7h0l-1.4.3,64-32.1Z" fill="url(#dp)"/><path d="M1099.9,693.7c-.7,3.3-1.5,6.6-2.3,10h0L1076,716.9l-68,41.6,4-45.1V713l1.4-.3h0L1076,699Z" fill="url(#dq)"/><path d="M1008,758.5l4-45.5-60.5,31Z" fill="#c91e25"/><path d="M861,799l-27.3,52-8,15.1-39,74.2c-.1,0-.2,0-.2.1l-9.3.8L761,851l-17-94.9h.1Z" fill="url(#dr)"/><path d="M721.2,941.4a360,360,0,0,1-49.7-6.8L690,879h0Z" fill="#b5141b"/><path d="M523.1,410.9h0l-30.6-22.6a36.5,36.5,0,0,0,1.4-3.5l21.5,6,.6.2,8.5,21Z" fill="#ce2222"/><path d="M1062.1,354.4a.1.1,0,0,0-.1.1v-.2Z" fill="none"/><path d="M1063.9,394.8l5.8-11a18.9,18.9,0,0,0,.9-2.1" fill="none"/><path d="M511.1,320.5h0c.2-1,.3-2,.5-3.1a226.1,226.1,0,0,0,1.6-40.9h0c-.2-4.8-.6-9.6-1.1-14.4H954.3c5.6,4.8,11,9.8,16.3,14.9l.5.4c.2.2.3.4.5.5l.4.5,1.6,1.5c3.2,3,6.2,6.1,9.3,9.2,2.1.9,4.1,2,6.1,3.1a35.4,35.4,0,0,1,4.1,2.6l.4.2a43.1,43.1,0,0,1,4.6,3.9c5.2,5.1,10.8,9.7,15,15.7,3,4.3,6.1,8.4,8.1,13.2h0a24.6,24.6,0,0,1,1.9,6.7c.2.8.3,1.5.4,2.1l5.2,7.2c2.6,3.7,5.2,7.3,7.6,11.1h.1c1.4,2.1,2.9,4.3,4.2,6.4l.3-.5c1.3-2.3,3.5-2.7,5.5-3.5a1.9,1.9,0,0,1,1.3-.1h.1c.8.1,1.9.5,3.1.6s.8-1.5,1.1-2.5a7.7,7.7,0,0,0,.2-1.5,13,13,0,0,1,.9-4c1-2.1,1.7-4.4,3.6-5.7l.8-.5a6.4,6.4,0,0,1,2.2-.6c.3.3,1.1.8,1.1,1.4a33.3,33.3,0,0,1,.1,6.3c-.1.4-.1.7-.2,1v.3c-1,4.3-2,8.4-1.3,13.5l.7-1.5a71.3,71.3,0,0,1,2.9-6.9l-.2-.8.3.6a69.9,69.9,0,0,1,4-7c.8-1.2,3.6-2.3,4.5-1.9s2,2.8,1.5,4.4-1.6,3.6-2.4,5.5l-.6,1.9,3.5-.4a2.2,2.2,0,0,1,2.5,2.2v4.5a4.4,4.4,0,0,1-1.1,2.9c-1.8,2.1-2.4,5-4.3,7a1.1,1.1,0,0,0-.1,1,5.3,5.3,0,0,1,.3,4.4h0" fill="none"/><path d="M1073.4,359.3l-3.4.5.6-1.9c.8-1.9,1.7-3.6,2.4-5.5s-.4-3.9-1.5-4.4-3.7.7-4.5,1.9a61.6,61.6,0,0,0-4,7.1.1.1,0,0,0-.1.1,71.3,71.3,0,0,0-2.9,6.9l-.7,1.5c-.7-5.1.3-9.2,1.3-13.5v-.3c.1-.3.1-.7.2-1a34.5,34.5,0,0,0-.1-6.4c0-.5-.8-1-1.1-1.3a7.7,7.7,0,0,0-2.3.6l-.7.5c-1.9,1.3-2.6,3.6-3.6,5.7a13,13,0,0,0-.9,4,7.7,7.7,0,0,1-.2,1.5c-.3,1-.9,1.9-1.1,2.5s-2.3-.5-3.1-.6h-.1a1.9,1.9,0,0,0-1.3.1c-2,.8-4.2,1.2-5.5,3.5l-.3.5-1.1,2.1h0c-1.5,2.7-2.8,5.5-4.2,8.3s-2.2,4.2-3.4,6.3c-2.1,4-3.2,8.4-4.7,12.6-1,2.6-.4,5.9-.2,8.9.3,5-1.7,9.1-4.1,13.3s-3.2,5.7-4.7,8.5l-3.4,6.5a64.7,64.7,0,0,1-3.3,6.2h0a.1.1,0,0,1-.1.1h0a99,99,0,0,1-7.7,11.7c-2.1,2.7-4.2,5.4-6.4,8l-.2.2-1.4,1.6h0a63.3,63.3,0,0,1-4.4,4.6c-.8-1.7-1.9-3.2-2.2-4.9a38.6,38.6,0,0,0-1.7-5.8c-.1,0-.1,0-.1-.1h0c-1.3-3.4-3-6.7-4.6-10s-4.1-7.9-7.7-10.7c-1.8-1.5-1.8-4.6-4.8-5.2-.6-.1-1.1-2-1.1-3.2h0c0-.5-.1-1-.1-1.5a38.1,38.1,0,0,0-.7-5.9,37.5,37.5,0,0,0-2.3-7.9c-.2-.4,0-.9,0-.7,1.9-1.8,4-2.9,4.8-4.7a5,5,0,0,1,3.2-3c2.3-.8,3.6-2.5,4.7-4.7l2,1.2c2-.8,4.3-1.3,4.8-4.1l3.3.5,4.4.8a10.5,10.5,0,0,0,4-7.7,16.5,16.5,0,0,1,.4-3.2c.5-2.2,1.1-4.3,1.5-6.5s2-3.3,3.3-4.6c3.7-3.8,6.9-7.9,8.8-12.9a25.8,25.8,0,0,1,.8-2.6c1.3-2.5,2.2-5.2,4.2-7.5h4.1c3.8-3.9,3.9-4.3,3.2-8.7-.1-.6-.2-1.3-.4-2.1a24.6,24.6,0,0,0-1.9-6.7h0c-2-4.8-5.1-8.9-8.1-13.2-4.2-6-9.8-10.6-15-15.7a35,35,0,0,0-4.6-3.9l-.4-.2a46.5,46.5,0,0,0-4.1-2.6c-2-1.1-4-2.2-6.1-3.1a22.5,22.5,0,0,0-5.4-1.7l-1.9-.5c-2.8-.6-5.6-1.4-8.6-.8l-7,1.5a50.6,50.6,0,0,0-15.4,6.1c-5.1,3.3-10.2,6.6-14.4,10.9a43.9,43.9,0,0,0-8.1,10.5h0a5.9,5.9,0,0,0-.4.8c-2,4.1-4.5,7.8-5.7,12.2a19.9,19.9,0,0,1-1.9,3.9c-.1.1-.1.3-.2.4l-.5,1-1.5-1h0l-.5-.4-.6-.7a20.2,20.2,0,0,0-12.5-8.4,11.2,11.2,0,0,0-2.6-.8,3.6,3.6,0,0,1-3.6-2.8c-1.4-5-4.6-8.8-7.4-12.9l-.6-.9-.4-.5a51,51,0,0,0-5-5.7,89.1,89.1,0,0,0-8.4-7.4c-1.9-1.5-3.9-3-6-4.4l-.6-.5c-5.3-3.5-10.7-6.7-16.1-10.1s-12.2-7-17.8-11.4c-1.9-1.4-4.3-2.8-7-2.4-.2,0-.5-.7-.8-1h-6c-.4.3-.8.9-1.3,1s-3.5-.5-5,.1c-7,2.6-14.5,3.7-21.7,5.5h-.3l-1,.3-2.2.5-.5.2a143.6,143.6,0,0,0-22.2,8.1c-5.7,2.5-11,5.7-16.5,8.6H745c-4.7,2.5-9.5,4.5-14,7.4a40.8,40.8,0,0,1-8.3,4.3l-.5.2h-.3a43.2,43.2,0,0,1-7.2,2.3h-.2a17.1,17.1,0,0,1-4.5.3c-4.2-.3-8.3-.1-12.5-.1-1,0-2.5-.4-2.9.1s-2.8.7-4.1.9h-.3a27,27,0,0,1-3.9.8,12.9,12.9,0,0,1-4.7-.6c-4.6-1.3-8.8-3.7-13.5-4.7-2.2-.5-4.5-1.9-6.3-1.4s-5.4.7-5.8,4.1c1.8,2.6,4.6,3.8,7.5,4.7a86.5,86.5,0,0,1,14.5,5.9c1.8,1,2.4,2,1.6,4.3L664.8,314h-.4c-3.2-2-7.1-1.3-10.4-2.8-.7-.4-1.9,0-2.8.3a4.5,4.5,0,0,0-3.2,4c-.2,2,1.4,2.3,2.7,2.8l1.7.8c2.4,1.3,5.4.2,7.5,1.2s5,.2,7.4,1.4,5,.9,7.4,1.5,1.7,1.1,2.4,1.6c-.9,3-3.1,4.1-5.3,5.3l-5.5,3.1-.4.2-8.3,4.6c-2.2,1.2-4.6,2.3-6.2,4.3s-1.9,4.9.1,6.8,3,1.2,4.7.3l17.9-8.8a8.3,8.3,0,0,1,2.1-.7l-7.4,8.9c-.3.4-.6.9-1.1,1-3.8,1.1-4.5,5.3-7.3,7.4-.3.3-.3.9-.4,1.4a2.5,2.5,0,0,0,.1,1.7h0a7,7,0,0,0,1.6,1.9c1.5,1.3,2.8.8,4.5.2l1.2-.5c2.6-1.3,4.7-3.3,7-4.9,5.3-3.7,9.9-8.3,15.5-11.7l.5-.3a40.2,40.2,0,0,1,9.3-4c1.5,5-1.4,8.8-3.1,12.7s-2.9,6.9-2.6,10.6l2.3,2.5c2.9.9,5.2-.6,6.8-2a8.2,8.2,0,0,0,3.1-5c.3-2.3,1.7-4.5,2.8-6.7,2.5-5.2,5.1-10.3,7.7-15.3v-.2a.3.3,0,0,0,.1-.2,34.6,34.6,0,0,1,8.7-10.3l.2-.2,2.8-2.2c2.1-1.6,4.6-1.9,6.7-3.3a22.9,22.9,0,0,1,6.8-2.9c5.5-1.6,10.8-3.7,16.6-4.7,2.2-.3,4.6-.1,6.5-1l.8-.3h0c1.7-.5,3.3-.3,4.9-.5s3.7-.8,5.6-1l5.8-.4h.2l8-.5a3.3,3.3,0,0,0,1,0c1.8-2,4.1-.6,6.1-1s3.8-.7,5.7-.9c4.5-.5,9-.8,13.5-1.1a1.3,1.3,0,0,0,.9-.2c1.2-1.4,2.7-.7,4.2-.6.8,2.7,1.7,5.4,2.6,8.1a37.1,37.1,0,0,0,7.7,13.5l3.9,4.2a.1.1,0,0,1,.1.1l8.8,9.1c0,5.6-.1,5.6-3.2,9.6s-5.8,8.7-9.5,12.6c-1.1,1.2-1.6,3-3.5,3.6s-2.5,2.3-4.2,3.1-6,3.3-8.8,5.1h0c-3.1,2-6.1,4.1-9.1,6.2a.1.1,0,0,1-.1.1l-7,5.4-5.3,4.5a.2.2,0,0,1-.2.2c-3.1,2.9-6.2,5.8-9.6,8.5s-7.4,7.4-11.6,10.6-7.4,7-11.3,10.3-10.5,9.2-15.5,13.9c-7.3,6.8-14.7,13.2-23,18.5-4.1,2.7-8.8,3.9-13.5,5.2h-.1l-1.1.3c-2.7.8-14.5,4-17.2,5.4-4.3,2.3-8.7,4.4-12.3,8a79.1,79.1,0,0,0-6.6,7.7c-.5.6-.9,1.3-1.4,2-1.7,2.7-2.4,5.7-4,8.3a37,37,0,0,0-2.9,7.3,220.2,220.2,0,0,1-9.1,23.8,51.1,51.1,0,0,1-8.7,13.8l-3.3,3.5-.2.2c-2.3,2.4-4.7,4.7-7.1,6.9l-4.3,4.1-.3.2c-2,1.9-4.2,3.9-6.1,5.5h-.1l-1.8,1.7a124.6,124.6,0,0,0-12.1,12c-5.1,5.8-9.1,12.3-13.8,18.4a64.2,64.2,0,0,0-4.2,6h-.1c-2.8,4.2-5.4,8.6-8.5,12.7a78.3,78.3,0,0,1-12.6,13.1c-5.2,4.4-11.3,7.6-17.4,10.8-7.9,4.1-15.8,7.9-23.4,12.6a115.8,115.8,0,0,0-12.5,9.3c-4.2,3.5-7.1,7.9-10.4,12.2s-7.3,9.9-11,14.9c-2.3,3.1-4.6,6.2-7,9.1s-4.3,4.5-5.9,7.1a58.8,58.8,0,0,1-3.6,5.1h0c-3.1,4.1-6.5,7.9-9.6,11.9s-4.1,4.6-5.9,7.1c-4.2,5.8-9.9,10.4-16.4,14.5s-12.8,5.6-19.5,7.5l-4.4,1.3-1.3.4c-5.2,1.6-10.1,3.5-13.9,7.6a7.4,7.4,0,0,1-.9,1.2,2.7,2.7,0,0,0-.6,1.7V807h0c.4,6.4,4.3,12.6,7.4,18.1a79.7,79.7,0,0,0,12.9,16.5c2.7,2.9,6.2,5,9.4,7.4,1.2.9,3.1.6,4.2,1.8l2.5.2h.6c4.4-3.4,4.4-4.6,3.3-10.4a46,46,0,0,0-2.8-8.4,22.7,22.7,0,0,1-1.3-11.4h0a30.1,30.1,0,0,1,2.1-7.5c1-2.6,2.5-5,3.4-7.6a55.3,55.3,0,0,1,5.9-11.3l1.2-1.8c1.7-2.5,4.8-3.4,6.1-6.4l-5.9-4.8c2.9-3.2,6-6.1,8.5-9.6,1.3-1.8,2.9-3.4,4.3-5.1s2.7-3.7,4.3-5.2c7.8-7.8,15.3-15.8,24.2-22.5l6.5-4.9,6.8-5.2c4.7-3.5,9.5-6.9,14.2-10.2s6.8-4.2,9.7-6.8c4.6-4.4,10.5-7.1,14.9-11.7l.9-1a27.7,27.7,0,0,0,6-4.1l5-4.1c2.3-1.7,4.5-3.6,6.7-5.5h.1l8.4-7.5a44.3,44.3,0,0,1,6.5-4.9l6-3.5h0l7.7-4.4a69.3,69.3,0,0,0,14.5-10.8,31.6,31.6,0,0,1,14.5-8.3c8.3-2.2,15.5-6.8,22.5-11.6l1.6-1.1h0q2.9-2,5.7-4.2a51.9,51.9,0,0,0,5.9-4.2c2.4-2.3,4.6-4.8,7.3-6.6s5.1-4.4,7.7-6.4,6.8-5.4,10.1-8.2h0l3.5-3h.1l4.2-3.6,6.3-5.3,8.7-7h0c1-.9,2-1.6,3-2.4,3.2-2.6,6.6-5,9.8-7.3l4.4,3,7,5.1h.2c5.5,4.1,11,8.1,16.8,11.8s10.8,7.5,16.6,10.5,12.4,7,19.1,9.5c4.1,1.6,8,4,12.4,5.1l1,.6h0l2,1.7a39.1,39.1,0,0,0-6.4,1.7c-2.9,1.2-6.1,1.1-8.9,2.8s-5.6,2.6-8.2,4.1c-6.9,4.1-13.3,8.9-20.2,12.8-3.9,2.3-8.1,4.1-12.1,6.1s-9.5,4.1-14.3,6L711.9,664c-3.6,1.4-7.3,2.8-11,4l-10.6,4.1-6.8,2.7-5.1-3.7c-.3.3-.6.8-1.1.9a21.4,21.4,0,0,0-10.9,5,31.4,31.4,0,0,1-4.4,2.5c-3.5,2-9.2,6.9-10.8,9.9s-2.3,4.2-2,6.1a18.2,18.2,0,0,0,3.4,7.5,115.1,115.1,0,0,0,8.8,10.8,64.5,64.5,0,0,1,6.7,9.1c0,.1.1.1.1.2s1.6,2.6,2.3,4c2.3,4.7,4.8,9.3,7.2,14.1l1.5,3.3a154.8,154.8,0,0,0,14.5,25.3,24.3,24.3,0,0,0,11.6,8.9c6.8,2.6,10.8,1.7,16.3-1.9,3.2-2.1,4-5.9,5.2-9.3.4-1.2-1.1-3.1-1.5-4.7-.9-4-4.2-6.3-6.5-9.3a27.8,27.8,0,0,1-5.6-14.6,46.1,46.1,0,0,1,1.1-14.8c.7-3,1.1-6.1,1.6-9.1s2-6.6,2.2-10a2.6,2.6,0,0,1,1.4-1.9,67.4,67.4,0,0,1,11.3-5.1c4.9-1.6,9.5-4.1,14.8-4.1,7.4-3,15.4-3.1,23-4.8,4.5-.9,9.2-1.1,13.7-2.1,2.2-.4,4.5.1,6.9-.6h.1l.6-.2c2.3-.9,5-.6,7.6-1s7.8-1.5,11.6-2.1c7.1-.9,13.7-3.6,20.5-5.5a133,133,0,0,0,16.5-5.5c8.5-3.6,17.8-5.3,25.9-10.1l1.1-.7c3.7-2.2,7.3-4.4,9.5-8.4s4.1-7.4,4.3-11.6.7-10.9-.9-16.1a65.9,65.9,0,0,0-3.2-8.8h0c-.3-.7-.7-1.3-1-1.9-3-4.8-5.7-9.8-9.1-14.3l-12.4-16.4c-3.1-4.2-6.5-8.3-9.2-12.7s-6.8-9.2-10.3-13.6-10.2-11.3-15.5-16.7-8.4-7.8-12.6-11.7L797.5,515l-1.6-1-3.6-3.1c3.5-2.8,6.4-5.7,9.7-7.8a70.5,70.5,0,0,1,11.7-6.6L827,491c4.4-1.8,8.8-3.6,13.1-5.7,6.1-2.9,12.1-6.3,18.2-9.3,4.4-2.2,8.8-4.4,13.3-6.4,7.4-3.2,15.1-5.5,22.5-8.5l1.5-.6h.2a131.5,131.5,0,0,0,14.9-7.7c6-3.5,11.1-8.5,16.6-12.7,1.2-.9,2.1-1.5,3.1-1,2.3,4.3,4.6,8.2,6.6,12.1a53.2,53.2,0,0,0,3.5,6.1h0c2.8,4.1,5.9,7.9,9,11.7s4.3,4.5,6,7.1a63.1,63.1,0,0,0,7.1,8.4,37.6,37.6,0,0,1,2.5,3.1c1.8,2.3,4,4.3,5.6,6.7a74.5,74.5,0,0,0,12.8,14.6c4.4,3.6,9.2,4.8,15,2.3a22.5,22.5,0,0,0,3.1-1.6c6.7-4,10.5-10.5,14.4-17.1,1-4.9,4-9.2,5.4-14a15.9,15.9,0,0,0,.6-3,79.5,79.5,0,0,0,6.1-14.8,73.4,73.4,0,0,1,5.9-14.2,43.6,43.6,0,0,1,3.7-10.1l2.4-5.4c2-5,4.7-9.7,6.8-14.7a17.3,17.3,0,0,1,4-5.7,51.1,51.1,0,0,0,5.2-5.2,48.7,48.7,0,0,0,5.7-7.2c.1-.1.1-.1.1-.2s1.3-2.2,1.9-3.2c2.1-3.7,4-7.4,5.9-11a20,20,0,0,0,1-2.1.4.4,0,0,1,.1-.3h0a5.7,5.7,0,0,0-.3-4.4,1.1,1.1,0,0,1,.1-1c1.9-2,2.5-4.9,4.3-7a4.4,4.4,0,0,0,1.1-2.9v-4.5A2.3,2.3,0,0,0,1073.4,359.3Zm-23.9,7.1c1.1,3.1-.6,5.6-.7,8.2a6,6,0,0,0,.4,2.2h-5.5c1-2,1.8-4,2.9-6A16.7,16.7,0,0,1,1049.5,366.4Z" fill="#fcfcfc"/><ellipse cx="727" cy="501.5" rx="15" ry="15.5" fill="#c70810"/><circle cx="874" cy="335" r="11" fill="#c70810"/><circle cx="947" cy="425" r="11" fill="#c70810"/><circle cx="586" cy="636" r="11" fill="#c70810"/><circle cx="847" cy="632" r="11" fill="#c70810"/><line x1="727.7" y1="500.3" x2="847.7" y2="631.3" fill="none" stroke="#c70810" stroke-width="2" stroke-dasharray="10 10"/><line x1="727.7" y1="501.7" x2="450.7" y2="759.7" fill="none" stroke="#c70810" stroke-width="2" stroke-dasharray="10 10"/><circle cx="822.5" cy="286.5" r="7.5" fill="#c70810"/><circle cx="996.5" cy="494.5" r="7.5" fill="#c70810"/><circle cx="447.5" cy="762.5" r="7.5" fill="#c70810"/><circle cx="700.5" cy="690.5" r="7.5" fill="#c70810"/><circle cx="723.5" cy="311.5" r="5.5" fill="#c70810"/><circle cx="1033.5" cy="412.5" r="5.5" fill="#c70810"/><line x1="846.4" y1="631.9" x2="701.4" y2="691.9" fill="none" stroke="#c70810" stroke-width="2" stroke-dasharray="10 10"/><line x1="872.3" y1="335.7" x2="822.3" y2="288.7" fill="none" stroke="#c70810" stroke-width="2" stroke-dasharray="10 10"/><line x1="947.8" y1="422.4" x2="995.8" y2="493.4" fill="none" stroke="#c70810" stroke-width="2" stroke-dasharray="10 10"/><line x1="822.2" y1="289" x2="724.2" y2="312" fill="none" stroke="#c70810" stroke-width="2" stroke-dasharray="10 10"/><line x1="1033.9" y1="412.4" x2="997.9" y2="494.4" fill="none" stroke="#c70810" stroke-width="2" stroke-dasharray="10 10"/></svg>