<svg width="360" height="1912" viewBox="0 0 360 1912" fill="none" xmlns="http://www.w3.org/2000/svg">
<rect width="360" height="1912" fill="white"/>
<path d="M99.6293 191.669C96.2042 201.626 96.0751 199.869 91.8568 217.183C88.5974 230.562 89.5459 237.331 88.5974 277.655C87.4117 328.059 63.1721 414.555 44.7289 435.401C26.2857 456.247 13.2436 491.717 14.0341 558.3C14.6664 611.567 24.539 622.955 29.8085 627H227.678C237.92 612.66 241.782 552.451 277.509 491.717C322.168 415.799 310.575 411.754 316.898 378.463C323.222 345.171 308.467 309.079 310.575 277.655C312.683 246.23 327.833 214.805 331.126 190.225C334.42 165.645 328.731 126.631 308.467 111.196C267.99 80.3663 237.031 80.9888 198.564 91.5675C180.506 96.5334 164.346 111.196 151.041 122.708C137.736 134.22 105.245 175.345 99.6293 191.669Z" fill="url(#paint0_linear)" fill-opacity="0.3"/>
<ellipse opacity="0.25" cx="62.5" cy="211.5" rx="5.5" ry="13.5" fill="url(#paint1_linear)"/>
<ellipse opacity="0.25" cx="45" cy="172" rx="12" ry="26" fill="url(#paint2_linear)"/>
<path d="M44.4112 656.874C44.9347 645.422 36.0997 631.979 31.3001 627H227.911C206.051 654.696 182.928 676.545 177.646 685.192C169.661 698.262 150.309 716.622 166.802 773.881C183.295 831.14 257.515 785.395 288.539 821.182C319.562 856.969 326.368 862.259 340.767 901.469C355.166 940.678 347.705 1061.73 340.767 1135.17C335.217 1193.92 302.785 1237.34 289.041 1249.38L132.354 1250C132.354 1250 138.551 1247.83 132.354 1198.97C124.5 1137.04 121.359 1137.04 104.494 1081.02C89.0497 1029.73 30.6667 950.636 20.7184 921.073C10.77 891.51 0.821667 837.052 15.2206 745.252C29.6195 653.451 43.7567 671.189 44.4112 656.874Z" fill="url(#paint3_linear)" fill-opacity="0.3"/>
<ellipse opacity="0.25" cx="284.5" cy="731.5" rx="15.5" ry="33.5" fill="url(#paint4_linear)"/>
<ellipse opacity="0.25" cx="306.5" cy="685.5" rx="6.5" ry="12.5" fill="url(#paint5_linear)"/>
<path d="M85.8824 1286.34C89.6953 1282.3 114.413 1260.51 131.899 1249.62L289.278 1249C285.684 1250.87 276.787 1259.27 276.13 1264.56C275.473 1269.85 274.947 1271.4 280.206 1281.98C291.87 1305.45 297.261 1320.54 297.921 1338.62C298.841 1363.82 288.718 1412.37 298.841 1444.11C307.242 1470.44 304.495 1492.96 319.483 1518.17C334.472 1543.37 333.42 1614.32 329.476 1638.59C326.473 1657.07 323.033 1681.54 301.077 1712.34C293.136 1723.48 239.019 1773.95 196.026 1791.38C153.033 1808.81 130.682 1735.06 117.14 1695.23C103.598 1655.4 54.031 1646.68 34.8353 1615.57C15.6395 1584.45 0.64355 1533.97 2.09746 1492.96C3.67531 1448.46 24.0715 1398.38 34.8353 1373.47C48.1485 1342.66 44.3357 1344.53 59.3241 1323.99C69.131 1310.56 76.1055 1296.71 85.8824 1286.34Z" fill="url(#paint6_linear)" fill-opacity="0.3"/>
<ellipse opacity="0.25" cx="40" cy="1721" rx="7" ry="17" fill="url(#paint7_linear)"/>
<ellipse opacity="0.25" cx="45.5" cy="1691" rx="6.5" ry="13" fill="url(#paint8_linear)"/>
<ellipse opacity="0.25" cx="47" cy="1751" rx="6" ry="13" fill="url(#paint9_linear)"/>
<defs>
<linearGradient id="paint0_linear" x1="172.959" y1="73.5411" x2="172.959" y2="626.75" gradientUnits="userSpaceOnUse">
<stop stop-color="#F4B615"/>
<stop offset="1" stop-color="#F36618"/>
</linearGradient>
<linearGradient id="paint1_linear" x1="62.5" y1="198" x2="62.5" y2="225" gradientUnits="userSpaceOnUse">
<stop stop-color="#FB8B08" stop-opacity="0.77"/>
<stop offset="1" stop-color="#EA2B2B"/>
</linearGradient>
<linearGradient id="paint2_linear" x1="45" y1="146" x2="45" y2="198" gradientUnits="userSpaceOnUse">
<stop stop-color="#FFEFB8"/>
<stop offset="1" stop-color="#F35D19"/>
</linearGradient>
<linearGradient id="paint3_linear" x1="178.5" y1="627.622" x2="178.5" y2="1265.25" gradientUnits="userSpaceOnUse">
<stop stop-color="#F36618"/>
<stop offset="1" stop-color="#F47315"/>
</linearGradient>
<linearGradient id="paint4_linear" x1="284.5" y1="698" x2="284.5" y2="765" gradientUnits="userSpaceOnUse">
<stop stop-color="#F46D16"/>
<stop offset="1" stop-color="#EF3620"/>
</linearGradient>
<linearGradient id="paint5_linear" x1="306.5" y1="673" x2="306.5" y2="698" gradientUnits="userSpaceOnUse">
<stop stop-color="#FB8B08" stop-opacity="0.77"/>
<stop offset="1" stop-color="#EA2B2B"/>
</linearGradient>
<linearGradient id="paint6_linear" x1="167" y1="1249.62" x2="167" y2="1794" gradientUnits="userSpaceOnUse">
<stop stop-color="#F47315"/>
<stop offset="1" stop-color="#F7D377" stop-opacity="0.77"/>
</linearGradient>
<linearGradient id="paint7_linear" x1="40" y1="1704" x2="40" y2="1738" gradientUnits="userSpaceOnUse">
<stop stop-color="#FB8B08" stop-opacity="0.77"/>
<stop offset="1" stop-color="#EA2B2B"/>
</linearGradient>
<linearGradient id="paint8_linear" x1="45.5" y1="1678" x2="45.5" y2="1704" gradientUnits="userSpaceOnUse">
<stop stop-color="#FB8B08" stop-opacity="0.77"/>
<stop offset="1" stop-color="#EA2B2B"/>
</linearGradient>
<linearGradient id="paint9_linear" x1="47" y1="1738" x2="47" y2="1764" gradientUnits="userSpaceOnUse">
<stop stop-color="#FB8B08" stop-opacity="0.77"/>
<stop offset="1" stop-color="#EA2B2B"/>
</linearGradient>
</defs>
</svg>
