<svg width="3000" height="1000" viewBox="0 0 3000 1000" fill="none" xmlns="http://www.w3.org/2000/svg">
<rect width="3000" height="1000" fill="url(#paint0_linear)"/>
<path d="M1222 300.419C1209 316.419 1208.51 313.595 1192.5 341.419C1180.13 362.919 1183.73 373.798 1180.13 438.598C1175.63 519.598 1083.63 658.598 1013.63 692.098C943.629 725.598 894.129 782.598 897.129 889.598C899.529 975.198 937 993.5 957 1000H1708C1746.87 976.956 1761.53 880.198 1897.13 782.598C2066.63 660.598 2022.63 654.098 2046.63 600.598C2070.63 547.098 2014.63 489.098 2022.63 438.598C2030.63 388.098 2088.13 337.598 2100.63 298.098C2113.13 258.598 2091.54 195.901 2014.63 171.098C1861 121.554 1743.5 122.554 1597.5 139.554C1528.96 147.534 1467.63 171.098 1417.13 189.598C1366.63 208.098 1243.31 274.186 1222 300.419Z" fill="url(#paint1_linear)" fill-opacity="0.3"/>
<ellipse opacity="0.25" cx="1079" cy="333" rx="22" ry="21" fill="url(#paint2_linear)"/>
<ellipse opacity="0.25" cx="1011.5" cy="268.5" rx="45.5" ry="43.5" fill="url(#paint3_linear)"/>
<defs>
<linearGradient id="paint0_linear" x1="1500" y1="0" x2="1500" y2="1000" gradientUnits="userSpaceOnUse">
<stop stop-color="white" stop-opacity="0"/>
<stop offset="0.269109" stop-color="white"/>
</linearGradient>
<linearGradient id="paint1_linear" x1="1500.32" y1="110.585" x2="1500.32" y2="999.598" gradientUnits="userSpaceOnUse">
<stop stop-color="#F4B615"/>
<stop offset="1" stop-color="#F36618"/>
</linearGradient>
<linearGradient id="paint2_linear" x1="1079" y1="312" x2="1079" y2="354" gradientUnits="userSpaceOnUse">
<stop stop-color="#FB8B08" stop-opacity="0.77"/>
<stop offset="1" stop-color="#EA2B2B"/>
</linearGradient>
<linearGradient id="paint3_linear" x1="1011.5" y1="225" x2="1011.5" y2="312" gradientUnits="userSpaceOnUse">
<stop stop-color="#FFEFB8"/>
<stop offset="1" stop-color="#F35D19"/>
</linearGradient>
</defs>
</svg>
