<svg width="3000" height="1000" viewBox="0 0 3000 1000" fill="none" xmlns="http://www.w3.org/2000/svg">
<g clip-path="url(#clip0)">
<rect width="3000" height="1000" fill="white"/>
<path d="M1008.08 47C1010.08 28.6 975.333 7 957 -1H1708C1624.5 43.5 1537.18 78.606 1517 92.5C1486.5 113.5 1412.58 143 1475.58 235C1538.58 327 1822.08 253.5 1940.58 311C2059.08 368.5 2085.08 377 2140.08 440C2195.08 503 2166.58 697.5 2140.08 815.5C2118.88 909.9 1995 979.667 1942.5 999L1761 1000H1344C1344 1000 1367.67 996.509 1344 918C1314 818.5 1302 818.5 1237.58 728.5C1178.59 646.08 955.581 519 917.581 471.5C879.581 424 841.581 336.5 896.581 189C951.581 41.5 1005.58 70 1008.08 47Z" fill="url(#paint0_linear)" fill-opacity="0.3"/>
<ellipse opacity="0.25" cx="2081.5" cy="214.5" rx="57.5" ry="52.5" fill="url(#paint1_linear)"/>
<ellipse opacity="0.25" cx="2161" cy="141" rx="22" ry="21" fill="url(#paint2_linear)"/>
</g>
<defs>
<linearGradient id="paint0_linear" x1="1520.26" y1="-5.48086e-09" x2="1520.26" y2="1024.5" gradientUnits="userSpaceOnUse">
<stop stop-color="#F36618"/>
<stop offset="1" stop-color="#F47315"/>
</linearGradient>
<linearGradient id="paint1_linear" x1="2081.5" y1="162" x2="2081.5" y2="267" gradientUnits="userSpaceOnUse">
<stop stop-color="#F46D16"/>
<stop offset="1" stop-color="#EF3620"/>
</linearGradient>
<linearGradient id="paint2_linear" x1="2161" y1="120" x2="2161" y2="162" gradientUnits="userSpaceOnUse">
<stop stop-color="#FB8B08" stop-opacity="0.77"/>
<stop offset="1" stop-color="#EA2B2B"/>
</linearGradient>
<clipPath id="clip0">
<rect width="3000" height="1000" fill="white"/>
</clipPath>
</defs>
</svg>
