<svg width="3000" height="1000" viewBox="0 0 3000 1000" fill="none" xmlns="http://www.w3.org/2000/svg">
<g clip-path="url(#clip0)">
<path d="M1008.08 48C1010.08 29.6 975.333 8 957 0H1708C1624.5 44.5 1537.18 79.606 1517 93.5C1486.5 114.5 1412.58 144 1475.58 236C1538.58 328 1822.08 254.5 1940.58 312C2059.08 369.5 2085.08 378 2140.08 441C2195.08 504 2166.58 698.5 2140.08 816.5C2118.88 910.9 1995 980.667 1942.5 1000L1761 1001L1537.5 1000C1523 973.5 1418.88 892.5 1340.08 876.5C1241.58 856.5 1268.58 826 1237.58 729.5C1206.58 633 955.581 520 917.581 472.5C879.581 425 841.581 337.5 896.581 190C951.581 42.5 1005.58 71 1008.08 48Z" fill="url(#paint0_linear)" fill-opacity="0.3"/>
<ellipse opacity="0.25" cx="2081.5" cy="214.5" rx="57.5" ry="52.5" fill="url(#paint1_linear)"/>
<ellipse opacity="0.25" cx="2161" cy="141" rx="22" ry="21" fill="url(#paint2_linear)"/>
</g>
<defs>
<linearGradient id="paint0_linear" x1="1520.26" y1="1" x2="1520.26" y2="1025.5" gradientUnits="userSpaceOnUse">
<stop stop-color="#F36618"/>
<stop offset="1" stop-color="#F47315"/>
</linearGradient>
<linearGradient id="paint1_linear" x1="2081.5" y1="162" x2="2081.5" y2="267" gradientUnits="userSpaceOnUse">
<stop stop-color="#F46D16"/>
<stop offset="1" stop-color="#EF3620"/>
</linearGradient>
<linearGradient id="paint2_linear" x1="2161" y1="120" x2="2161" y2="162" gradientUnits="userSpaceOnUse">
<stop stop-color="#FB8B08" stop-opacity="0.77"/>
<stop offset="1" stop-color="#EA2B2B"/>
</linearGradient>
<clipPath id="clip0">
<rect width="3000" height="1000" fill="white"/>
</clipPath>
</defs>
</svg>
