<svg width="3000" height="1000" viewBox="0 0 3000 1000" fill="none" xmlns="http://www.w3.org/2000/svg">
<rect width="3000" height="1000" fill="white"/>
<path d="M1175 59C1189.5 52.5 1277.5 17.5 1344 0H1942.5C1928.83 3 1901 15.5 1898.5 24C1896 32.5 1894 35 1914 52C1958.36 89.705 1978.86 113.954 1981.37 143C1984.87 183.5 1946.37 261.5 1984.87 312.5C2016.82 354.817 2006.37 391 2063.37 431.5C2120.37 472 2116.37 586 2101.37 625C2089.95 654.695 2076.87 694 1993.37 743.5C1963.17 761.403 1757.37 842.5 1593.87 870.5C1430.37 898.5 1345.37 780 1293.87 716C1242.37 652 1053.87 638 980.871 588C907.87 538 850.842 456.884 856.371 391C862.371 319.5 939.937 239.021 980.871 199C1031.5 149.5 1017 152.5 1074 119.5C1111.3 97.9081 1137.82 75.6675 1175 59Z" fill="url(#paint0_linear)" fill-opacity="0.3"/>
<ellipse opacity="0.25" cx="992.5" cy="767" rx="27.5" ry="27" fill="url(#paint1_linear)"/>
<ellipse opacity="0.25" cx="1015" cy="719" rx="22" ry="21" fill="url(#paint2_linear)"/>
<ellipse opacity="0.25" cx="1042" cy="803" rx="22" ry="21" fill="url(#paint3_linear)"/>
<defs>
<linearGradient id="paint0_linear" x1="1483.49" y1="0" x2="1483.49" y2="874.709" gradientUnits="userSpaceOnUse">
<stop stop-color="#F47315"/>
<stop offset="1" stop-color="#F7D377" stop-opacity="0.77"/>
</linearGradient>
<linearGradient id="paint1_linear" x1="992.5" y1="740" x2="992.5" y2="794" gradientUnits="userSpaceOnUse">
<stop stop-color="#FB8B08" stop-opacity="0.77"/>
<stop offset="1" stop-color="#EA2B2B"/>
</linearGradient>
<linearGradient id="paint2_linear" x1="1015" y1="698" x2="1015" y2="740" gradientUnits="userSpaceOnUse">
<stop stop-color="#FB8B08" stop-opacity="0.77"/>
<stop offset="1" stop-color="#EA2B2B"/>
</linearGradient>
<linearGradient id="paint3_linear" x1="1042" y1="782" x2="1042" y2="824" gradientUnits="userSpaceOnUse">
<stop stop-color="#FB8B08" stop-opacity="0.77"/>
<stop offset="1" stop-color="#EA2B2B"/>
</linearGradient>
</defs>
</svg>
