<svg width="1440" height="1024" viewBox="0 0 1440 1024" fill="none" xmlns="http://www.w3.org/2000/svg">
<g clip-path="url(#clip0)">
<path d="M407 324.865C394 340.865 393.51 338.041 377.5 365.865C365.129 387.365 368.729 398.244 365.129 463.044C360.629 544.044 268.629 683.045 198.629 716.545C128.629 750.045 79.1293 807.045 82.1293 914.045C84.5293 999.645 124.129 1023.04 143.629 1024.04H895.629C934.5 1001 946.529 904.645 1082.13 807.045C1251.63 685.045 1207.63 678.544 1231.63 625.044C1255.63 571.544 1199.63 513.544 1207.63 463.044C1215.63 412.544 1273.13 362.044 1285.63 322.544C1298.13 283.044 1276.54 220.347 1199.63 195.544C1046 146 928.5 147 782.5 164C713.963 171.981 652.629 195.544 602.129 214.044C551.629 232.544 428.315 298.632 407 324.865Z" fill="url(#paint0_linear)" fill-opacity="0.3"/>
<ellipse opacity="0.25" cx="331.5" cy="142.5" rx="45.5" ry="43.5" fill="url(#paint1_linear)"/>
<ellipse opacity="0.25" cx="377" cy="207" rx="22" ry="21" fill="url(#paint2_linear)"/>
</g>
<defs>
<linearGradient id="paint0_linear" x1="685.316" y1="135.032" x2="685.316" y2="1024.04" gradientUnits="userSpaceOnUse">
<stop stop-color="#F4B615"/>
<stop offset="1" stop-color="#F0421E"/>
</linearGradient>
<linearGradient id="paint1_linear" x1="331.5" y1="99" x2="331.5" y2="186" gradientUnits="userSpaceOnUse">
<stop stop-color="#FFEFB8"/>
<stop offset="1" stop-color="#F35D19"/>
</linearGradient>
<linearGradient id="paint2_linear" x1="377" y1="186" x2="377" y2="228" gradientUnits="userSpaceOnUse">
<stop stop-color="#FB8B08" stop-opacity="0.77"/>
<stop offset="1" stop-color="#EA2B2B"/>
</linearGradient>
<clipPath id="clip0">
<rect width="1440" height="1024" fill="white"/>
</clipPath>
</defs>
</svg>
