<svg width="1440" height="1024" viewBox="0 0 1440 1024" fill="none" xmlns="http://www.w3.org/2000/svg">
<g clip-path="url(#clip0)">
<path d="M208.081 47C210.081 28.6 174.333 8 156 0H908.5C825 44.5 737.179 78.606 717 92.5C686.5 113.5 612.581 143 675.581 235C738.581 327 1022.08 253.5 1140.58 311C1259.08 368.5 1285.08 377 1340.08 440C1395.08 503 1366.58 697.5 1340.08 815.5C1318.88 909.9 1195 1005.17 1142.5 1024.5H960.5H774.5C727.167 992.5 618.881 891.5 540.081 875.5C441.581 855.5 468.581 825 437.581 728.5C406.581 632 155.581 519 117.581 471.5C79.5807 424 41.5807 336.5 96.5807 189C151.581 41.5 205.581 70 208.081 47Z" fill="url(#paint0_linear)" fill-opacity="0.3"/>
<ellipse opacity="0.25" cx="1199.5" cy="171.5" rx="57.5" ry="52.5" fill="url(#paint1_linear)"/>
<ellipse opacity="0.25" cx="1279" cy="98" rx="22" ry="21" fill="url(#paint2_linear)"/>
</g>
<defs>
<linearGradient id="paint0_linear" x1="720.264" y1="0" x2="720.264" y2="1024.5" gradientUnits="userSpaceOnUse">
<stop stop-color="#F0421E"/>
<stop offset="1" stop-color="#F47315"/>
</linearGradient>
<linearGradient id="paint1_linear" x1="1199.5" y1="119" x2="1199.5" y2="224" gradientUnits="userSpaceOnUse">
<stop stop-color="#F46D16"/>
<stop offset="1" stop-color="#EF3620"/>
</linearGradient>
<linearGradient id="paint2_linear" x1="1279" y1="77" x2="1279" y2="119" gradientUnits="userSpaceOnUse">
<stop stop-color="#FB8B08" stop-opacity="0.77"/>
<stop offset="1" stop-color="#EA2B2B"/>
</linearGradient>
<clipPath id="clip0">
<rect width="1440" height="1024" fill="white"/>
</clipPath>
</defs>
</svg>
