<svg width="1440" height="1024" viewBox="0 0 1440 1024" fill="none" xmlns="http://www.w3.org/2000/svg">
<path d="M780.371 32.5C793.371 22 787.871 19.5 779.371 0H1149.37C1135.7 3 1105.07 8.27989 1099.37 14.5C1093.87 20.5 1097.37 31 1108.37 36C1161.37 60.0909 1215.86 113.954 1218.37 143C1221.87 183.5 1183.37 261.5 1221.87 312.5C1253.82 354.817 1243.37 391 1300.37 431.5C1357.37 472 1353.37 586 1338.37 625C1326.95 654.695 1313.87 694 1230.37 743.5C1200.17 761.403 994.371 842.5 830.871 870.5C667.371 898.5 582.371 780 530.871 716C479.371 652 290.871 638 217.871 588C144.87 538 87.8415 456.884 93.3706 391C99.3711 319.5 192.871 250.5 217.871 199C242.871 147.5 392.371 138.5 403.371 134.5C414.371 130.5 748.673 58.1023 780.371 32.5Z" fill="url(#paint0_linear)" fill-opacity="0.3"/>
<ellipse opacity="0.25" cx="272" cy="762" rx="22" ry="21" fill="url(#paint1_linear)"/>
<ellipse opacity="0.25" cx="307" cy="854" rx="22" ry="21" fill="url(#paint2_linear)"/>
<ellipse opacity="0.25" cx="257.5" cy="819" rx="27.5" ry="27" fill="url(#paint3_linear)"/>
<defs>
<linearGradient id="paint0_linear" x1="720.485" y1="0" x2="720.485" y2="874.709" gradientUnits="userSpaceOnUse">
<stop stop-color="#F47315"/>
<stop offset="1" stop-color="#F7D377" stop-opacity="0.77"/>
</linearGradient>
<linearGradient id="paint1_linear" x1="272" y1="741" x2="272" y2="783" gradientUnits="userSpaceOnUse">
<stop stop-color="#FB8B08" stop-opacity="0.77"/>
<stop offset="1" stop-color="#EA2B2B"/>
</linearGradient>
<linearGradient id="paint2_linear" x1="307" y1="833" x2="307" y2="875" gradientUnits="userSpaceOnUse">
<stop stop-color="#FB8B08" stop-opacity="0.77"/>
<stop offset="1" stop-color="#EA2B2B"/>
</linearGradient>
<linearGradient id="paint3_linear" x1="257.5" y1="792" x2="257.5" y2="846" gradientUnits="userSpaceOnUse">
<stop stop-color="#FB8B08" stop-opacity="0.77"/>
<stop offset="1" stop-color="#EA2B2B"/>
</linearGradient>
</defs>
</svg>
