<svg width="3000" height="3000" viewBox="0 0 3000 3000" fill="none" xmlns="http://www.w3.org/2000/svg">
<rect width="3000" height="3000" fill="url(#paint0_linear)"/>
<path d="M1222 300.419C1209 316.419 1208.51 313.595 1192.5 341.419C1180.13 362.919 1183.73 373.798 1180.13 438.598C1175.63 519.598 1083.63 658.598 1013.63 692.098C943.629 725.598 894.129 782.598 897.129 889.598C899.529 975.198 937 993.5 957 1000H1708C1746.87 976.956 1761.53 880.198 1897.13 782.598C2066.63 660.598 2022.63 654.098 2046.63 600.598C2070.63 547.098 2014.63 489.098 2022.63 438.598C2030.63 388.098 2088.13 337.598 2100.63 298.098C2113.13 258.598 2091.54 195.901 2014.63 171.098C1861 121.554 1743.5 122.554 1597.5 139.554C1528.96 147.534 1467.63 171.098 1417.13 189.598C1366.63 208.098 1243.31 274.186 1222 300.419Z" fill="url(#paint1_linear)" fill-opacity="0.3"/>
<ellipse opacity="0.25" cx="1079" cy="333" rx="22" ry="21" fill="url(#paint2_linear)"/>
<ellipse opacity="0.25" cx="1011.5" cy="268.5" rx="45.5" ry="43.5" fill="url(#paint3_linear)"/>
<path d="M1007.08 1048C1009.08 1029.6 975.333 1008 957 1000H1708C1624.5 1044.5 1536.18 1079.61 1516 1093.5C1485.5 1114.5 1411.58 1144 1474.58 1236C1537.58 1328 1821.08 1254.5 1939.58 1312C2058.08 1369.5 2084.08 1378 2139.08 1441C2194.08 1504 2165.58 1698.5 2139.08 1816.5C2117.88 1910.9 1994 1980.67 1941.5 2000L1343 2001C1343 2001 1366.67 1997.51 1343 1919C1313 1819.5 1301 1819.5 1236.58 1729.5C1177.59 1647.08 954.581 1520 916.581 1472.5C878.581 1425 840.581 1337.5 895.581 1190C950.581 1042.5 1004.58 1071 1007.08 1048Z" fill="url(#paint4_linear)" fill-opacity="0.3"/>
<ellipse opacity="0.25" cx="1927.5" cy="1168.5" rx="57.5" ry="52.5" fill="url(#paint5_linear)"/>
<ellipse opacity="0.25" cx="2007" cy="1095" rx="22" ry="21" fill="url(#paint6_linear)"/>
<path d="M1168 2060C1182.5 2053.5 1276.5 2018.5 1343 2001L1941.5 2000C1927.83 2003 1894 2016.5 1891.5 2025C1889 2033.5 1887 2036 1907 2053C1951.36 2090.71 1971.86 2114.95 1974.37 2144C1977.87 2184.5 1939.37 2262.5 1977.87 2313.5C2009.82 2355.82 1999.37 2392 2056.37 2432.5C2113.37 2473 2109.37 2587 2094.37 2626C2082.95 2655.7 2069.87 2695 1986.37 2744.5C1956.17 2762.4 1750.37 2843.5 1586.87 2871.5C1423.37 2899.5 1338.37 2781 1286.87 2717C1235.37 2653 1046.87 2639 973.871 2589C900.87 2539 843.842 2457.88 849.371 2392C855.371 2320.5 932.937 2240.02 973.871 2200C1024.5 2150.5 1010 2153.5 1067 2120.5C1104.3 2098.91 1130.82 2076.67 1168 2060Z" fill="url(#paint7_linear)" fill-opacity="0.3"/>
<ellipse opacity="0.25" cx="993.5" cy="2758" rx="27.5" ry="27" fill="url(#paint8_linear)"/>
<ellipse opacity="0.25" cx="1016" cy="2710" rx="22" ry="21" fill="url(#paint9_linear)"/>
<ellipse opacity="0.25" cx="1043" cy="2794" rx="22" ry="21" fill="url(#paint10_linear)"/>
<defs>
<linearGradient id="paint0_linear" x1="1500" y1="0" x2="1500" y2="3000" gradientUnits="userSpaceOnUse">
<stop stop-color="white" stop-opacity="0"/>
<stop offset="0.269109" stop-color="white"/>
</linearGradient>
<linearGradient id="paint1_linear" x1="1500.32" y1="110.585" x2="1500.32" y2="999.598" gradientUnits="userSpaceOnUse">
<stop stop-color="#F4B615"/>
<stop offset="1" stop-color="#F36618"/>
</linearGradient>
<linearGradient id="paint2_linear" x1="1079" y1="312" x2="1079" y2="354" gradientUnits="userSpaceOnUse">
<stop stop-color="#FB8B08" stop-opacity="0.77"/>
<stop offset="1" stop-color="#EA2B2B"/>
</linearGradient>
<linearGradient id="paint3_linear" x1="1011.5" y1="225" x2="1011.5" y2="312" gradientUnits="userSpaceOnUse">
<stop stop-color="#FFEFB8"/>
<stop offset="1" stop-color="#F35D19"/>
</linearGradient>
<linearGradient id="paint4_linear" x1="1519.26" y1="1001" x2="1519.26" y2="2025.5" gradientUnits="userSpaceOnUse">
<stop stop-color="#F36618"/>
<stop offset="1" stop-color="#F47315"/>
</linearGradient>
<linearGradient id="paint5_linear" x1="1927.5" y1="1116" x2="1927.5" y2="1221" gradientUnits="userSpaceOnUse">
<stop stop-color="#F46D16"/>
<stop offset="1" stop-color="#EF3620"/>
</linearGradient>
<linearGradient id="paint6_linear" x1="2007" y1="1074" x2="2007" y2="1116" gradientUnits="userSpaceOnUse">
<stop stop-color="#FB8B08" stop-opacity="0.77"/>
<stop offset="1" stop-color="#EA2B2B"/>
</linearGradient>
<linearGradient id="paint7_linear" x1="1476.49" y1="2001" x2="1476.49" y2="2875.71" gradientUnits="userSpaceOnUse">
<stop stop-color="#F47315"/>
<stop offset="1" stop-color="#F7D377" stop-opacity="0.77"/>
</linearGradient>
<linearGradient id="paint8_linear" x1="993.5" y1="2731" x2="993.5" y2="2785" gradientUnits="userSpaceOnUse">
<stop stop-color="#FB8B08" stop-opacity="0.77"/>
<stop offset="1" stop-color="#EA2B2B"/>
</linearGradient>
<linearGradient id="paint9_linear" x1="1016" y1="2689" x2="1016" y2="2731" gradientUnits="userSpaceOnUse">
<stop stop-color="#FB8B08" stop-opacity="0.77"/>
<stop offset="1" stop-color="#EA2B2B"/>
</linearGradient>
<linearGradient id="paint10_linear" x1="1043" y1="2773" x2="1043" y2="2815" gradientUnits="userSpaceOnUse">
<stop stop-color="#FB8B08" stop-opacity="0.77"/>
<stop offset="1" stop-color="#EA2B2B"/>
</linearGradient>
</defs>
</svg>
