<svg width="1536" height="2378" viewBox="0 0 1536 2378" fill="none" xmlns="http://www.w3.org/2000/svg">
<rect width="1536" height="2378" fill="url(#paint0_linear)"/>
<path d="M1439.5 471.374C1392.01 399.501 1195.07 275.397 985.63 275.397C816.178 286.111 729.703 197.274 651.225 211.56C581.082 224.328 558.653 324.032 537.822 416.633L537.257 419.143C516.263 512.444 437.785 522.265 385.3 561.996C332.815 601.727 324.817 683.421 356.308 765.562C387.799 847.702 219 843.5 163 934.5C107 1025.5 128 1095.5 205.5 1197.5C331.709 1363.61 298.142 1392.5 186.142 1504.5C119.801 1570.84 49.1426 1794.5 68.1419 1899.5C101.979 2086.5 273.327 2168 406.143 2168C529.643 2168 590.528 2070.82 705.995 2036C821.463 2001.18 1028.96 2172.5 1188 2036C1347.03 1899.5 1158 1771.5 1188 1704C1226.08 1618.3 1396.82 1490.08 1439.5 1398.5C1475.49 1321.27 1471.99 1218.88 1439.5 1154C1409.34 1086.44 1338.14 959.946 1314.14 934.5C1279.8 898.073 1217.15 818.239 1236.64 765.562C1256.14 712.885 1405.51 689.671 1439.5 658.868C1473.49 628.066 1489.18 546.568 1439.5 471.374Z" fill="url(#paint1_linear)"/>
<path d="M1439.5 471.374C1392.01 399.501 1195.07 275.397 985.63 275.397C816.178 286.111 729.703 197.274 651.225 211.56C581.082 224.328 558.653 324.032 537.822 416.633L537.257 419.143C516.263 512.444 437.785 522.265 385.3 561.996C332.815 601.727 324.817 683.421 356.308 765.562C387.799 847.702 219 843.5 163 934.5C107 1025.5 128 1095.5 205.5 1197.5C331.709 1363.61 298.142 1392.5 186.142 1504.5C119.801 1570.84 49.1426 1794.5 68.1419 1899.5C101.979 2086.5 273.327 2168 406.143 2168C529.643 2168 590.528 2070.82 705.995 2036C821.463 2001.18 1028.96 2172.5 1188 2036C1347.03 1899.5 1158 1771.5 1188 1704C1226.08 1618.3 1396.82 1490.08 1439.5 1398.5C1475.49 1321.27 1471.99 1218.88 1439.5 1154C1409.34 1086.44 1338.14 959.946 1314.14 934.5C1279.8 898.073 1217.15 818.239 1236.64 765.562C1256.14 712.885 1405.51 689.671 1439.5 658.868C1473.49 628.066 1489.18 546.568 1439.5 471.374Z" fill="url(#paint2_linear)"/>
<ellipse opacity="0.25" cx="1290.5" cy="2115.5" rx="57.5" ry="52.5" fill="url(#paint3_linear)"/>
<ellipse opacity="0.25" cx="1348" cy="2042" rx="22" ry="21" fill="url(#paint4_linear)"/>
<ellipse opacity="0.25" cx="199.5" cy="374.5" rx="45.5" ry="43.5" fill="url(#paint5_linear)"/>
<ellipse opacity="0.25" cx="245" cy="429" rx="22" ry="21" fill="url(#paint6_linear)"/>
<defs>
<linearGradient id="paint0_linear" x1="768" y1="0" x2="768" y2="2378" gradientUnits="userSpaceOnUse">
<stop stop-color="white" stop-opacity="0"/>
<stop offset="0.269109" stop-color="white"/>
</linearGradient>
<linearGradient id="paint1_linear" x1="878.294" y1="1024.71" x2="878.294" y2="1514.87" gradientUnits="userSpaceOnUse">
<stop offset="0.136165" stop-color="#FAAE87"/>
<stop offset="0.582111" stop-color="#FDEFA4"/>
</linearGradient>
<linearGradient id="paint2_linear" x1="877.996" y1="210" x2="878.233" y2="1349.7" gradientUnits="userSpaceOnUse">
<stop stop-color="#FFF3C8"/>
<stop offset="1" stop-color="#FFD4BE"/>
</linearGradient>
<linearGradient id="paint3_linear" x1="1290.5" y1="2063" x2="1290.5" y2="2168" gradientUnits="userSpaceOnUse">
<stop stop-color="#F46D16"/>
<stop offset="1" stop-color="#EF3620"/>
</linearGradient>
<linearGradient id="paint4_linear" x1="1348" y1="2021" x2="1348" y2="2063" gradientUnits="userSpaceOnUse">
<stop stop-color="#FB8B08" stop-opacity="0.77"/>
<stop offset="1" stop-color="#EA2B2B"/>
</linearGradient>
<linearGradient id="paint5_linear" x1="199.5" y1="331" x2="199.5" y2="418" gradientUnits="userSpaceOnUse">
<stop stop-color="#FFEFB8"/>
<stop offset="1" stop-color="#F35D19"/>
</linearGradient>
<linearGradient id="paint6_linear" x1="245" y1="408" x2="245" y2="450" gradientUnits="userSpaceOnUse">
<stop stop-color="#FB8B08" stop-opacity="0.77"/>
<stop offset="1" stop-color="#EA2B2B"/>
</linearGradient>
</defs>
</svg>
