<svg width="1440" height="1024" viewBox="0 0 1440 1024" fill="none" xmlns="http://www.w3.org/2000/svg">
<rect width="1440" height="1024" fill="white"/>
<path d="M252.521 419.139C265.169 498.853 265.894 525.857 252.522 637.5C223.27 700.897 148.754 853.319 177.5 891.5C229.735 960.878 417.688 859.829 439 837.5C528.473 743.759 639 719 639 719C639 719 676.62 710.956 780.5 740.5C813.5 749.885 845.5 763.5 903.596 822.251C975.5 894.966 1025.62 851.756 1094.15 856.94C1162.69 862.123 1233.31 852.044 1233.31 781.182C1233.31 733.734 1199.04 750.081 1163.11 714.196C1127.17 678.311 1169.02 640.511 1199.04 604.148C1242.51 551.516 1273.57 545.136 1305.61 453.429C1326.08 394.817 1320.98 339.62 1291.82 274.8C1256.3 195.853 1223.9 190.425 1146.39 167.942C1041.92 137.639 982.577 163.157 860.553 217.383C738.529 271.61 778.228 279.585 681.695 297.527C585.163 315.47 563.432 286.363 523.733 263.237C484.033 240.111 367.43 239.67 326.071 263.237C265.894 297.527 238.73 332.217 252.521 419.139Z" fill="url(#paint0_linear)"/>
<ellipse cx="179.5" cy="155" rx="50.5" ry="48" fill="url(#paint1_linear)"/>
<ellipse cx="254.5" cy="203" rx="24.5" ry="24" fill="url(#paint2_linear)"/>
<ellipse cx="1317.5" cy="833" rx="24.5" ry="24" fill="url(#paint3_linear)"/>
<ellipse cx="1279.5" cy="892" rx="24.5" ry="24" fill="url(#paint4_linear)"/>
<ellipse cx="1213.5" cy="932" rx="24.5" ry="24" fill="url(#paint5_linear)"/>
<defs>
<linearGradient id="paint0_linear" x1="783.501" y1="155" x2="783.501" y2="868" gradientUnits="userSpaceOnUse">
<stop stop-color="#FFF7DA"/>
<stop offset="1" stop-color="#FFE7DE"/>
</linearGradient>
<linearGradient id="paint1_linear" x1="179.5" y1="107" x2="179.5" y2="203" gradientUnits="userSpaceOnUse">
<stop stop-color="#FFEFBE"/>
<stop offset="1" stop-color="#FAC8A1"/>
</linearGradient>
<linearGradient id="paint2_linear" x1="254.5" y1="179" x2="254.5" y2="227" gradientUnits="userSpaceOnUse">
<stop stop-color="#FFEFBE"/>
<stop offset="1" stop-color="#FAC8A1"/>
</linearGradient>
<linearGradient id="paint3_linear" x1="1317.5" y1="809" x2="1317.5" y2="857" gradientUnits="userSpaceOnUse">
<stop stop-color="#FFF6DA"/>
<stop offset="1" stop-color="#FFDEC4"/>
</linearGradient>
<linearGradient id="paint4_linear" x1="1279.5" y1="868" x2="1279.5" y2="916" gradientUnits="userSpaceOnUse">
<stop stop-color="#FFF6DA"/>
<stop offset="1" stop-color="#FFDEC4"/>
</linearGradient>
<linearGradient id="paint5_linear" x1="1213.5" y1="908" x2="1213.5" y2="956" gradientUnits="userSpaceOnUse">
<stop stop-color="#FFF6DA"/>
<stop offset="1" stop-color="#FFDEC4"/>
</linearGradient>
</defs>
</svg>
