<svg width="202" height="244" viewBox="0 0 202 244" fill="none" xmlns="http://www.w3.org/2000/svg">
<g clip-path="url(#clip0)">
<path d="M153.958 236.076C153.958 237.607 129.055 238.847 98.3362 238.847C67.6171 238.847 42.7145 237.607 42.7145 236.076C42.7145 234.544 67.6171 233.304 98.3362 233.304C129.055 233.304 153.958 234.544 153.958 236.076Z" fill="#E9E9E9"/>
<path d="M84.5536 72.6854L83.2923 73.3198C83.1231 73.4048 83.0592 73.6019 83.1524 73.7596C83.2137 73.8643 83.3309 73.9247 83.4508 73.9284L83.6279 73.8889L84.8893 73.2533C85.0597 73.1683 85.1223 72.9712 85.0291 72.8148C84.9372 72.6571 84.7254 72.598 84.5536 72.6854" fill="#C91E25"/>
<path d="M102.213 63.7996L100.951 64.434C100.782 64.519 100.719 64.7161 100.811 64.8726C100.873 64.9785 100.989 65.0388 101.111 65.0425L101.286 65.0019L102.548 64.3675C102.718 64.2825 102.781 64.0854 102.688 63.9289C102.596 63.7713 102.383 63.7121 102.213 63.7996Z" fill="#C91E25"/>
<path d="M82.0324 73.9543L80.7697 74.5887C80.6006 74.6737 80.5379 74.8709 80.6298 75.0285C80.6911 75.1333 80.8083 75.1949 80.9295 75.1973L81.1053 75.1579L82.3667 74.5222C82.5372 74.4372 82.5997 74.2413 82.5065 74.0837C82.4146 73.926 82.2015 73.8668 82.0324 73.9543Z" fill="#C91E25"/>
<path d="M99.6907 65.0685L98.4294 65.7042C98.259 65.7892 98.1964 65.9851 98.2896 66.1428C98.3508 66.2487 98.4667 66.3091 98.5879 66.3115L98.7637 66.2721L100.025 65.6377C100.195 65.5527 100.258 65.3556 100.165 65.1979C100.073 65.0414 99.8612 64.9811 99.6907 65.0685" fill="#C91E25"/>
<path d="M105.74 64.3873L106.816 65.0155L106.994 65.0648L107.299 64.9133C107.402 64.7618 107.353 64.5622 107.189 64.4661L106.113 63.8391C105.951 63.743 105.734 63.7874 105.63 63.9401C105.527 64.0916 105.576 64.2912 105.74 64.3873" fill="#C91E25"/>
<path d="M89.6002 70.1464L88.3375 70.7809C88.1684 70.8659 88.1058 71.063 88.1977 71.2207C88.2603 71.3254 88.3761 71.387 88.4974 71.3894L88.6732 71.35L89.9345 70.7143C90.105 70.6293 90.1676 70.4335 90.0744 70.2758C89.9825 70.1181 89.7694 70.059 89.6002 70.1464Z" fill="#C91E25"/>
<path d="M94.6455 67.6075L93.3828 68.2419C93.2137 68.3281 93.1497 68.524 93.243 68.6817C93.3042 68.7864 93.4214 68.848 93.5413 68.8505L93.7185 68.811L94.9798 68.1766C95.1503 68.0904 95.2129 67.8945 95.1197 67.7368C95.0278 67.5791 94.8146 67.52 94.6455 67.6075" fill="#C91E25"/>
<path d="M87.0763 71.4153L85.8163 72.0498C85.6458 72.136 85.5832 72.3319 85.6765 72.4896C85.7377 72.5943 85.8536 72.6559 85.9748 72.6584L86.1506 72.6189L87.4119 71.9845C87.5824 71.8983 87.645 71.7024 87.5518 71.5447C87.4599 71.387 87.2468 71.3291 87.0763 71.4153" fill="#C91E25"/>
<path d="M97.1668 66.3374L95.9068 66.9731C95.7363 67.0581 95.6737 67.2551 95.767 67.4116C95.8282 67.5175 95.9441 67.5779 96.0653 67.5804L96.2411 67.541L97.5024 66.9065C97.6729 66.8215 97.7355 66.6244 97.6423 66.4667C97.5504 66.3103 97.3373 66.2511 97.1668 66.3374" fill="#C91E25"/>
<path d="M166.72 68.1557C166.651 68.497 166.626 68.8431 166.691 69.5811C168.409 67.0322 169.701 67.8576 168.382 69.8595H168.384C169.431 68.5019 169.092 66.6602 167.137 68.6941V68.7002C166.999 68.5191 166.86 68.3368 166.72 68.1557" fill="#C91E25"/>
<path d="M115.979 71.366C115.943 72.678 117.064 73.7683 118.483 73.8016C119.901 73.8348 121.08 72.7975 121.116 71.4855C121.15 70.1735 120.03 69.0833 118.612 69.05C117.193 69.018 116.015 70.054 115.979 71.366Z" fill="#C91E25"/>
<path d="M114.723 68.8591C114.56 68.7643 114.343 68.8086 114.239 68.9614C114.137 69.1129 114.186 69.3125 114.35 69.4086L115.426 70.0356L115.604 70.0849L115.909 69.9346C116.012 69.7831 115.963 69.5823 115.799 69.4874L114.723 68.8591" fill="#C91E25"/>
<path d="M112.57 67.6038C112.408 67.5089 112.191 67.5533 112.087 67.706C111.984 67.8576 112.034 68.0571 112.197 68.1532L113.274 68.7803L113.451 68.8295L113.756 68.6792C113.86 68.5277 113.81 68.3269 113.646 68.2321L112.57 67.6038" fill="#C91E25"/>
<path d="M110.418 66.3497C110.255 66.2548 110.04 66.2979 109.934 66.4507C109.832 66.6022 109.881 66.8018 110.045 66.8979L111.121 67.5262L111.298 67.5754L111.605 67.4239C111.707 67.2724 111.658 67.0728 111.494 66.9767L110.418 66.3497Z" fill="#C91E25"/>
<path d="M108.266 65.0943C108.103 64.9982 107.886 65.0426 107.782 65.1953C107.678 65.3469 107.729 65.5464 107.891 65.6425L108.969 66.2708L109.147 66.3201L109.452 66.1686C109.555 66.017 109.506 65.8175 109.342 65.7214L108.266 65.0943" fill="#C91E25"/>
<path d="M162.493 70.1243C161.703 71.8896 160.934 73.852 162.594 73.002C163.723 72.2407 162.348 70.6293 162.493 70.1243Z" fill="#C91E25"/>
<path d="M104.15 64.2481C105.085 64.269 105.863 63.5865 105.885 62.7217C105.909 61.8569 105.17 61.1387 104.235 61.1166C103.3 61.0944 102.524 61.7781 102.5 62.6429C102.477 63.5077 103.216 64.2259 104.15 64.2481Z" fill="#C91E25"/>
<path d="M92.1229 68.8763L90.8602 69.512C90.6911 69.597 90.6285 69.7929 90.7204 69.9505C90.783 70.0565 90.8989 70.1169 91.0201 70.1193L91.1959 70.0799L92.4572 69.4454C92.6277 69.3604 92.6902 69.1634 92.597 69.0057C92.5051 68.8492 92.2934 68.7889 92.1229 68.8763" fill="#C91E25"/>
<path d="M78.2843 75.7998C78.2697 76.3517 78.7412 76.8099 79.3365 76.8235C79.9332 76.837 80.4287 76.4009 80.4433 75.8503C80.4593 75.2984 79.9878 74.8401 79.3911 74.8266C78.7945 74.8118 78.299 75.2479 78.2843 75.7998Z" fill="#C91E25"/>
<path d="M105.908 124.584L106.209 124.438C106.316 124.289 106.272 124.087 106.111 123.989L104.941 123.274C104.78 123.177 104.563 123.216 104.455 123.365C104.348 123.515 104.394 123.716 104.553 123.815L105.723 124.529L105.908 124.584Z" fill="#C91E25"/>
<path d="M77.3427 130.875L78.1872 129.84C78.303 129.697 78.2724 129.494 78.1179 129.386C77.9647 129.278 77.7436 129.305 77.6278 129.45L76.7833 130.484C76.6674 130.627 76.6981 130.831 76.8526 130.938L77.0537 131.003L77.3427 130.875" fill="#C91E25"/>
<path d="M103.571 123.153L103.872 123.008C103.978 122.859 103.933 122.658 103.773 122.558L102.604 121.844C102.442 121.746 102.224 121.786 102.117 121.935C102.011 122.085 102.055 122.286 102.216 122.385L103.385 123.099L103.571 123.153Z" fill="#C91E25"/>
<path d="M84.0941 122.597L84.9372 121.56C85.0544 121.419 85.0238 121.214 84.8693 121.107C84.7161 121 84.495 121.027 84.3791 121.171L83.5347 122.206C83.4175 122.349 83.4481 122.552 83.6026 122.659L83.8051 122.725L84.0941 122.597" fill="#C91E25"/>
<path d="M82.4053 124.666L83.2497 123.631C83.3669 123.488 83.3363 123.285 83.1818 123.177C83.0286 123.07 82.8075 123.097 82.6903 123.241L81.8472 124.276C81.73 124.418 81.7606 124.622 81.9151 124.729L82.1176 124.794L82.4053 124.666Z" fill="#C91E25"/>
<path d="M94.2193 117.434L94.5203 117.289C94.6269 117.139 94.5829 116.938 94.4218 116.84L93.2524 116.124C93.0912 116.027 92.8741 116.067 92.7675 116.216C92.661 116.365 92.7049 116.566 92.8661 116.665L94.0342 117.381L94.2193 117.434" fill="#C91E25"/>
<path d="M79.0303 128.805L79.8747 127.771C79.9919 127.628 79.9613 127.424 79.8055 127.316C79.6523 127.209 79.4325 127.236 79.3153 127.38L78.4722 128.415C78.355 128.558 78.3856 128.761 78.5401 128.868L78.7426 128.933L79.0303 128.805" fill="#C91E25"/>
<path d="M80.7191 126.736L81.5622 125.701C81.6781 125.558 81.6475 125.355 81.493 125.246C81.3398 125.139 81.1187 125.166 81.0015 125.31L80.1584 126.345C80.0425 126.488 80.0731 126.691 80.2276 126.8L80.4301 126.864L80.7191 126.736Z" fill="#C91E25"/>
<path d="M89.796 116.878C91.9883 116.93 93.8104 115.327 93.865 113.299C93.9196 111.272 92.1881 109.586 89.9958 109.536C87.8035 109.485 85.9815 111.088 85.9269 113.116C85.8709 115.142 87.6037 116.827 89.796 116.878" fill="#C91E25"/>
<path d="M98.8943 120.293L99.1953 120.149C99.3018 119.998 99.2579 119.798 99.0967 119.699L97.9286 118.985C97.7662 118.886 97.5504 118.927 97.4425 119.076C97.336 119.225 97.3799 119.427 97.5411 119.525L98.7105 120.24L98.8943 120.293" fill="#C91E25"/>
<path d="M95.105 117.645C94.9984 117.796 95.0424 117.997 95.2036 118.095L96.3717 118.811L96.5568 118.864L96.8578 118.718C96.9644 118.569 96.9204 118.369 96.7592 118.27L95.5898 117.554C95.43 117.456 95.2115 117.496 95.105 117.645Z" fill="#C91E25"/>
<path d="M86.9778 118.52L87.1802 118.585L87.4692 118.457L88.3123 117.421C88.4296 117.278 88.3989 117.075 88.2444 116.968C88.0912 116.861 87.8702 116.888 87.7543 117.032L86.9098 118.067C86.7926 118.21 86.8233 118.413 86.9778 118.52" fill="#C91E25"/>
<path d="M101.232 121.723L101.533 121.578C101.641 121.429 101.595 121.228 101.434 121.129L100.266 120.415C100.105 120.316 99.8865 120.357 99.78 120.506C99.6734 120.655 99.7174 120.856 99.8785 120.954L101.048 121.67L101.232 121.723" fill="#C91E25"/>
<path d="M85.7803 120.527L86.6248 119.491C86.742 119.349 86.71 119.145 86.5568 119.037C86.4023 118.93 86.1826 118.957 86.0654 119.102L85.2223 120.136C85.1051 120.279 85.1357 120.482 85.2902 120.59L85.4926 120.655L85.7803 120.527" fill="#C91E25"/>
<path d="M158.502 87.0286L158.024 88.247C157.958 88.4158 158.051 88.6018 158.233 88.6621L158.344 88.6819C158.49 88.6856 158.629 88.603 158.682 88.4687L159.162 87.2503C159.227 87.0828 159.134 86.8968 158.951 86.8352C158.771 86.7724 158.569 86.8611 158.502 87.0286Z" fill="#C91E25"/>
<path d="M157.545 89.4654L157.065 90.6838C157 90.8513 157.093 91.0373 157.274 91.0989L157.386 91.1186C157.533 91.1211 157.671 91.0398 157.723 90.9055L158.203 89.6871C158.269 89.5183 158.176 89.3323 157.994 89.272C157.812 89.2091 157.611 89.2966 157.545 89.4654" fill="#C91E25"/>
<path d="M159.191 86.2254L159.302 86.2451C159.448 86.2488 159.587 86.1663 159.64 86.032L160.119 84.8149C160.185 84.6461 160.091 84.4613 159.91 84.3997C159.728 84.3357 159.527 84.4244 159.461 84.5931L158.982 85.8103C158.915 85.979 159.009 86.1651 159.191 86.2254Z" fill="#C91E25"/>
<path d="M156.587 91.9008L156.109 93.1192C156.042 93.288 156.136 93.474 156.318 93.5344L156.429 93.5541C156.575 93.5578 156.714 93.4752 156.767 93.341L157.245 92.1226C157.312 91.955 157.217 91.7678 157.036 91.7074C156.855 91.6446 156.652 91.7333 156.587 91.9008Z" fill="#C91E25"/>
<path d="M160.867 81.963C160.685 81.8989 160.483 81.9889 160.418 82.1564L159.94 83.3747C159.873 83.5423 159.966 83.7295 160.149 83.7899L160.259 83.8096C160.406 83.8133 160.546 83.7308 160.597 83.5965L161.076 82.3782C161.142 82.2094 161.049 82.0234 160.867 81.963Z" fill="#C91E25"/>
<path d="M162.443 80.8001C162.459 80.2481 161.988 79.7899 161.391 79.7763C160.795 79.7628 160.299 80.1989 160.285 80.7495C160.27 81.3014 160.741 81.7597 161.337 81.7745C161.933 81.7881 162.429 81.352 162.443 80.8001" fill="#C91E25"/>
<path d="M155.471 95.9908C155.617 95.9933 155.756 95.9119 155.808 95.7776L156.287 94.5593C156.353 94.3918 156.259 94.2045 156.078 94.1441C155.897 94.0813 155.695 94.17 155.629 94.3376L155.151 95.5559C155.085 95.7235 155.178 95.9095 155.36 95.9711L155.471 95.9908Z" fill="#C91E25"/>
<path d="M33.6136 202.484C32.8291 202.128 31.9447 201.598 30.9658 200.85C28.0009 198.358 28.8054 195.229 27.925 191.459H26.9088C27.9197 194.096 26.6877 201.3 33.6136 202.484" fill="#F0431D"/>
<path d="M22.2311 185.493C23.5617 187.294 25.0001 189.084 26.5851 190.856H26.5824C26.717 191.011 26.8182 191.224 26.9087 191.459H27.925C27.5867 190.011 27.0073 188.469 25.8552 186.829C21.5691 181.636 27.3403 178.603 31.4266 177.88C31.9567 177.786 32.4295 177.521 32.7665 177.132C34.7617 174.821 36.0736 173.138 37.0019 171.81L33.8879 166.82L22.2311 185.493Z" fill="#EF391F"/>
<path d="M12.6867 166.82C14.6392 173.172 17.7399 179.412 22.2311 185.493L33.8879 166.82H12.6867Z" fill="#EE2D21"/>
<path d="M37.0019 171.81C38.5696 169.568 39.0478 168.335 39.8629 166.82H33.8879L37.0019 171.81" fill="#F0421E"/>
<path d="M18.5071 142.179L10.3478 155.248C10.7634 159.139 11.5132 163 12.6866 166.82H33.8879L18.5071 142.179Z" fill="#EF381F"/>
<path d="M10.1733 142.179C9.85102 146.562 9.88699 150.923 10.3478 155.248L18.5071 142.179H10.1733Z" fill="#EF3520"/>
<path d="M33.8879 166.82H39.8629C40.4875 165.658 41.3093 164.331 42.9808 162.249C43.3511 161.789 43.6495 161.272 43.8333 160.723C45.3889 156.093 49.6417 153.047 53.8958 149.593L49.2674 142.179L33.8879 166.82" fill="#EF3620"/>
<path d="M33.8879 166.82L49.2675 142.179H18.5071L33.8879 166.82Z" fill="#F03D1F"/>
<path d="M11.6611 131.214C10.9552 134.877 10.4424 138.535 10.1734 142.179H18.5071L11.6611 131.214" fill="#EF3620"/>
<path d="M53.8958 149.593C56.5436 147.443 59.1808 145.127 61.1787 142.179H49.2675L53.8958 149.593Z" fill="#F0441D"/>
<path d="M18.5071 142.179H49.2675L33.8879 117.539L18.5071 142.179Z" fill="#F0441D"/>
<path d="M33.8879 117.539H33.6042L23.6056 133.658C24.181 128.545 25.1693 123.143 26.5185 117.539H15.1107C13.7189 122.095 12.5401 126.658 11.6611 131.214L18.5071 142.179L33.8879 117.539" fill="#EF381F"/>
<path d="M49.2675 142.179H61.1787C62.2948 140.533 63.2205 138.699 63.8185 136.571C64.5231 134.059 65.6273 131.65 67.2961 129.563C68.3643 128.228 69.3366 127.296 70.249 126.51L64.6497 117.539L49.2675 142.179" fill="#F14A1C"/>
<path d="M49.2675 142.179L64.6483 117.539H33.8879L49.2675 142.179" fill="#F2531B"/>
<path d="M33.6042 117.539H33.8873L33.7451 117.312L33.6042 117.539" fill="#F14A1C"/>
<path d="M28.7334 109.283L21.97 98.446C19.4314 104.766 17.0646 111.145 15.1107 117.539H26.5185C27.1698 114.833 27.905 112.081 28.7334 109.283" fill="#F14A1C"/>
<path d="M70.249 126.51C71.5156 125.416 72.6637 124.59 73.7785 123.394C73.921 123.151 74.0622 122.907 74.2047 122.664C74.246 120.768 74.3805 119.073 74.607 117.539H64.6483L70.249 126.51Z" fill="#F14E1C"/>
<path d="M64.6483 117.539L49.2675 92.8987L33.8879 117.539H64.6483Z" fill="#F25D19"/>
<path d="M33.7454 117.312L33.8879 117.539L49.2675 92.8987H48.8879L33.7454 117.312Z" fill="#F2571A"/>
<path d="M34.418 92.8987H24.2396C23.4724 94.7417 22.7146 96.592 21.97 98.446L28.7335 109.283C30.3091 103.96 32.2084 98.483 34.418 92.8987Z" fill="#F2571A"/>
<path d="M80.0292 92.8987L64.6483 117.539H74.607C75.6658 110.359 78.8784 106.849 85.3541 104.425C85.6685 103.929 85.9775 103.427 86.2931 102.933L80.0292 92.8987Z" fill="#F2591A"/>
<path d="M80.0292 92.8987H49.2675L64.6483 117.539L80.0292 92.8987Z" fill="#F36118"/>
<path d="M48.8878 92.8987H49.2674L49.077 92.5938L48.8878 92.8987" fill="#F36118"/>
<path d="M34.3288 68.9663C34.1503 69.4049 33.9692 69.8459 33.7881 70.2869C34.1037 70.0664 34.4207 69.836 34.7364 69.6192L34.3288 68.9663" fill="#F36118"/>
<path d="M40.5208 78.8857L34.9654 69.9851L31.7809 75.1197C29.3262 80.9504 26.741 86.8906 24.2396 92.8987H34.418C36.2414 88.2889 38.2726 83.6113 40.5208 78.8857Z" fill="#F36118"/>
<path d="M92.8181 92.8987H80.0292L86.2931 102.933C88.4455 99.5498 90.6245 96.2126 92.8181 92.8987Z" fill="#F25C19"/>
<path d="M49.2675 92.8987H80.0292L73.632 82.6492C72.2122 83.243 70.863 82.4866 68.2897 81.7314C66.2905 81.145 63.5548 80.5586 59.4739 80.6029C59.2328 80.6054 58.9717 80.4305 58.9744 80.2075C58.9824 79.7566 59.7709 79.4363 60.915 79.1973L60.6619 79.0347C60.0732 78.2635 61.7608 77.5256 64.1848 77.9445C65.4235 78.1588 66.9911 78.2118 68.2311 78.213C69.1155 78.2291 69.1448 77.5232 68.4189 76.9836C66.3691 75.4622 67.099 74.2672 68.64 74.6516L64.6483 68.258L49.2675 92.8987" fill="#F36618"/>
<path d="M49.077 92.5932L49.2675 92.8987L64.6483 68.258H64.1715L49.077 92.5932" fill="#F36717"/>
<path d="M35.5475 69.0489L34.9655 69.9851L40.5208 78.8857C42.1951 75.3636 43.9878 71.8182 45.8938 68.258H34.6125C34.5179 68.4945 34.4247 68.7298 34.3288 68.9663L34.7364 69.6192C35.0067 69.4332 35.2771 69.2312 35.5475 69.0489" fill="#F36717"/>
<path d="M92.8181 92.8987C95.9055 88.2359 99.0288 83.6384 102.188 79.116L96.5768 70.1268C95.5618 70.4754 94.5469 70.8585 93.5347 71.2626L80.0292 92.8987H92.8181" fill="#F14C1C"/>
<path d="M93.5346 71.2626C87.9873 73.4812 82.589 76.4132 78.4561 78.9485C77.2081 79.7147 76.068 80.6263 75.0518 81.6427C74.543 82.1502 74.0848 82.4607 73.632 82.6492L80.0291 92.8987L93.5346 71.2626" fill="#F2531B"/>
<path d="M68.64 74.6516C69.1168 74.7699 69.6682 75.036 70.2436 75.4955C70.6605 75.8293 71.3185 75.7924 71.726 75.4487C73.1991 74.2069 75.8496 73.7659 76.9124 73.8102C80.2942 72.0424 81.6314 70.3387 83.7758 68.258H64.6483L68.64 74.6516" fill="#F2531B"/>
<path d="M54.2767 53.7189C54.4912 53.3715 54.7149 53.0364 54.9307 52.6902L49.2674 43.6184L35.8805 65.0648C35.4662 66.1255 35.044 67.1899 34.6125 68.2579H45.8937C48.4829 63.4264 51.2666 58.5726 54.2767 53.7189" fill="#F25C19"/>
<path d="M64.1715 68.2579H64.6484L64.4099 67.8755L64.1715 68.2579Z" fill="#F25C19"/>
<path d="M42.7585 43.6184C41.2268 50.4851 38.7747 57.6647 35.8805 65.0648L49.2675 43.6184H42.7585Z" fill="#F2551A"/>
<path d="M152.84 92.8987H151.405C151.746 93.6526 152.011 93.8337 152.84 92.8987Z" fill="#F03C1F"/>
<path d="M108.158 70.707C107.18 69.9913 106.188 69.1856 105.269 68.258H103.636C101.35 68.6522 98.9689 69.3014 96.5768 70.1268L102.188 79.1161C104.165 76.2864 106.153 73.4801 108.158 70.707" fill="#F0411E"/>
<path d="M64.6483 68.2579H83.7758C85.4673 66.6183 87.665 64.7445 91.7659 62.4187L80.0291 43.6184L64.6483 68.2579Z" fill="#F14E1C"/>
<path d="M64.4099 67.8748L64.6483 68.2579L80.0291 43.6184H79.4551L64.4099 67.8748Z" fill="#F14F1B"/>
<path d="M49.2675 43.6184L54.9307 52.6902C56.8673 49.5981 58.8439 46.5688 60.863 43.6184H49.2675Z" fill="#F14F1B"/>
<path d="M44.1383 35.399C43.8519 38.0833 43.3818 40.8256 42.7584 43.6183H49.2675L44.1383 35.399Z" fill="#F1471D"/>
<path d="M145.303 86.8906C149.934 88.5697 150.808 91.5805 151.405 92.8987H152.84L152.942 92.789C155.992 87.7838 157.943 83.6063 158.179 79.9784C158.203 79.6162 158.161 79.2553 158.104 78.8955C157.611 75.7813 158.578 74.1255 159.445 72.2814L156.933 68.258L145.303 86.8906" fill="#F03A1F"/>
<path d="M154.761 68.258L150.041 75.87C150.061 77.3495 150.167 77.9556 148.684 78.0566L144.709 84.4651C144.997 85.5344 144.942 86.425 145.051 86.7897L145.303 86.8907L156.933 68.258H154.761Z" fill="#F0401E"/>
<path d="M110.791 43.6184L102.252 57.2976C102.977 57.0364 103.766 56.9453 104.45 57.3691C108.874 59.1036 112.336 60.264 115.017 61.3962C116.269 59.7269 117.525 58.0712 118.785 56.4242L110.791 43.6184Z" fill="#F03B1F"/>
<path d="M105.044 68.0424C104.58 68.1003 104.109 68.1766 103.636 68.2579H105.269L105.044 68.0424Z" fill="#F03B1F"/>
<path d="M80.0292 43.6184L91.7659 62.4186C93.9622 61.1731 96.7033 59.7983 100.209 58.2609C100.604 58.0872 100.993 57.8999 101.37 57.6954C101.643 57.5476 101.943 57.4084 102.252 57.2975L110.791 43.6184H80.0292" fill="#EF3320"/>
<path d="M79.4551 43.6183H80.0292L79.7414 43.1574L79.4551 43.6183Z" fill="#EF3120"/>
<path d="M60.863 43.6183C64.2221 38.7055 67.6877 34.0008 71.2252 29.5129L64.6483 18.9776L49.2675 43.6183H60.863Z" fill="#EF3120"/>
<path d="M64.6497 18.9776H43.0954C44.5032 24.1492 44.7523 29.641 44.1382 35.399L49.2674 43.6183L64.6497 18.9776Z" fill="#EF2E21"/>
<path d="M159.445 72.2814C159.89 71.334 160.308 70.3374 160.487 69.0649C160.498 68.6941 160.576 68.4415 160.684 68.2579H156.933L159.445 72.2814" fill="#E82124"/>
<path d="M162.158 68.6645C162.162 68.5173 162.171 68.3971 162.178 68.2598H161.893C162.004 68.3763 162.101 68.5087 162.158 68.6645Z" fill="#E82124"/>
<path d="M164.439 68.6115C164.476 68.4879 164.515 68.3765 164.555 68.2602H164.42C164.425 68.3777 164.436 68.4916 164.439 68.6115Z" fill="#E82124"/>
<path d="M156.933 68.2579L155.844 66.5123L154.761 68.2579H156.933Z" fill="#E61D25"/>
<path d="M128.852 43.6183H110.791L118.785 56.4241C122.113 52.0767 125.47 47.8056 128.852 43.6183Z" fill="#E11D25"/>
<path d="M110.791 43.6183L95.41 18.9776L80.0292 43.6183H110.791Z" fill="#E12124"/>
<path d="M80.0225 18.9777H64.6483L71.2252 29.513C74.1141 25.8468 77.0523 22.3359 80.0225 18.9777" fill="#DF2A23"/>
<path d="M80.0291 43.6183L95.41 18.9776H94.7387L79.7414 43.1564L80.0291 43.6183Z" fill="#DF2A23"/>
<path d="M64.6497 18.9776L55.5274 4.36588C51.4545 3.97413 47.3908 3.77702 43.3538 3.81152L39.3541 10.2199C41.0483 13.0201 42.271 15.9446 43.0954 18.9776H64.6497Z" fill="#E33B20"/>
<path d="M34.8163 4.21063C36.6064 6.14228 38.1008 8.14905 39.3541 10.2199L43.3538 3.81149C40.4929 3.8349 37.6452 3.96302 34.8163 4.21063Z" fill="#EA2922"/>
<path d="M160.684 68.2579C160.978 67.7602 161.534 67.876 161.893 68.2579H162.178C162.412 62.8732 164.23 64.8245 164.42 68.2579H164.556C165.58 65.2187 167.158 65.0906 167.049 66.6071C166.945 67.2834 166.841 67.6456 166.766 67.9561C167.778 64.8763 166.07 65.0229 165.26 66.2954V66.2967C163.949 64.6521 162.582 63.037 161.193 61.4343L156.933 68.2579H160.684" fill="#DB1E25"/>
<path d="M156.933 68.2579L161.193 61.4344C160.767 60.9416 160.34 60.4501 159.906 59.9622L155.844 66.5123L156.933 68.2579" fill="#D61E25"/>
<path d="M128.851 43.6183C130.741 41.2777 132.637 38.9556 134.541 36.6667C130.153 33.3701 125.596 30.278 120.917 27.3953L110.791 43.6183H128.851" fill="#CB1E25"/>
<path d="M110.791 43.6183L120.917 27.3953C115.952 24.334 110.847 21.5129 105.632 18.9776H95.41L110.791 43.6183Z" fill="#C61E25"/>
<path d="M95.073 18.4382L94.7387 18.9776H95.41L95.073 18.4382" fill="#C32424"/>
<path d="M80.0225 18.9776C82.3667 16.329 84.7281 13.7728 87.1042 11.3275C82.1389 9.62988 77.1256 8.19713 72.0936 7.05145L64.6483 18.9776H80.0225Z" fill="#C32424"/>
<path d="M72.0937 7.05263C66.5782 5.79854 61.0442 4.89434 55.5274 4.36585L64.6496 18.9776L72.0937 7.05263" fill="#B01D23"/>
<path d="M105.632 18.9776C103.003 17.6989 100.349 16.4879 97.6716 15.3545L95.41 18.9776H105.632Z" fill="#BA1D24"/>
<path d="M95.41 18.9776L97.6716 15.3545C97.4905 15.2781 97.308 15.2042 97.1268 15.1278L95.073 18.438L95.41 18.9776Z" fill="#CA1E25"/>
<path d="M34.7363 69.6191C34.4207 69.8359 34.1037 70.0663 33.788 70.2868C33.1314 71.8896 32.4628 73.4985 31.7809 75.1197L34.9654 69.985L34.7363 69.6191" fill="#F36118"/>
<path d="M31.7809 75.1197C32.4628 73.4985 33.1314 71.8896 33.788 70.2868C34.1037 70.0663 34.4207 69.8359 34.7363 69.6191L34.9654 69.985L31.7809 75.1197" fill="url(#paint0_radial)"/>
<path d="M34.7364 69.6192L34.9655 69.9851L35.5475 69.0488C35.2771 69.2312 35.0068 69.4332 34.7364 69.6192Z" fill="#F36717"/>
<path d="M34.9655 69.9851L34.7364 69.6192C35.0068 69.4332 35.2771 69.2312 35.5475 69.0488L34.9655 69.9851Z" fill="url(#paint1_radial)"/>
<path d="M74.1962 122.943L74.2056 122.664C74.0628 122.907 73.9213 123.151 73.7785 123.394C73.9173 123.244 74.0574 123.105 74.1962 122.943" fill="#F14E1C"/>
<path d="M73.7785 123.394C73.9213 123.151 74.0628 122.907 74.2056 122.664L74.1962 122.943C74.0574 123.105 73.9173 123.244 73.7785 123.394" fill="url(#paint2_radial)"/>
<path d="M85.3541 104.424C85.8469 104.241 86.3584 104.061 86.8898 103.889L86.2931 102.933C85.9774 103.427 85.6684 103.929 85.3541 104.424Z" fill="#F2591A"/>
<path d="M85.3541 104.424C85.6684 103.929 85.9774 103.427 86.2931 102.933L86.8898 103.889C86.3584 104.061 85.8469 104.241 85.3541 104.424Z" fill="url(#paint3_radial)"/>
<path d="M86.2931 102.933L86.8898 103.889C87.1922 103.79 87.4825 103.689 87.7968 103.593C91.7579 99.3367 94.4204 95.8664 96.5967 92.8987H92.8181C90.6245 96.2126 88.4455 99.5498 86.2931 102.933" fill="#F25C19"/>
<path d="M86.8898 103.889L86.2931 102.933C88.4455 99.5498 90.6245 96.2126 92.8181 92.8987H96.5967C94.4204 95.8664 91.7579 99.3367 87.7968 103.593C87.4825 103.689 87.1922 103.79 86.8898 103.889" fill="url(#paint4_radial)"/>
<path d="M92.8181 92.8987H96.5967C99.5322 88.8975 101.589 85.8251 104.649 83.0607L102.188 79.1161C99.0288 83.6384 95.9055 88.2359 92.8181 92.8987Z" fill="#F14C1C"/>
<path d="M96.5967 92.8987H92.8181C95.9055 88.2359 99.0288 83.6384 102.188 79.1161L104.649 83.0607C101.589 85.8251 99.5322 88.8975 96.5967 92.8987Z" fill="url(#paint5_radial)"/>
<path d="M104.649 83.0606C106.16 81.6968 107.905 80.4021 110.148 79.1086C110.719 76.8554 111.561 75.3328 113.003 74.2647C112.071 73.2693 110.16 72.1717 108.158 70.7069C106.153 73.48 104.165 76.2863 102.188 79.116L104.649 83.0606Z" fill="#F0411E"/>
<path d="M104.649 83.0606L102.188 79.116C104.165 76.2863 106.153 73.48 108.158 70.7069C110.16 72.1717 112.071 73.2693 113.003 74.2647C111.561 75.3328 110.719 76.8554 110.148 79.1086C107.905 80.4021 106.16 81.6968 104.649 83.0606Z" fill="url(#paint6_radial)"/>
<path d="M152.767 68.2579C152.412 71.9795 150.499 72.8985 150.123 73.9925C150.037 74.7366 150.033 75.3538 150.041 75.8699L154.761 68.2579H152.767" fill="#F0401E"/>
<path d="M150.041 75.8699C150.039 75.764 150.038 75.6556 150.038 75.5422C150.038 75.0975 150.054 74.585 150.123 73.9925C150.499 72.8985 152.412 71.9795 152.767 68.2579H154.761L150.041 75.8699" fill="url(#paint7_radial)"/>
<path d="M128.463 69.4985C128.53 69.0747 128.614 68.6633 128.704 68.2579H127.376C127.877 68.6657 128.245 69.1043 128.463 69.4985Z" fill="#F0401E"/>
<path d="M128.463 69.4985C128.245 69.1043 127.877 68.6657 127.376 68.2579H128.704C128.614 68.6633 128.53 69.0747 128.463 69.4985Z" fill="url(#paint8_radial)"/>
<path d="M147.761 78.0664C148.243 79.1555 146.506 79.5903 146.506 79.5903C146.68 80.6719 144.493 80.8961 144.493 80.8961C144.897 81.6969 144.501 82.1478 143.688 82.3904C144.232 83.0963 144.533 83.8133 144.709 84.465L148.684 78.0566C148.425 78.0738 148.124 78.0775 147.761 78.0664Z" fill="#F0401E"/>
<path d="M144.709 84.465C144.533 83.8133 144.232 83.0963 143.688 82.3904C144.283 82.213 144.653 81.9248 144.653 81.4702C144.653 81.3027 144.601 81.1117 144.493 80.8961C144.493 80.8961 146.513 80.6892 146.515 79.7135C146.517 79.6741 146.513 79.6322 146.506 79.5903C146.506 79.5903 147.847 79.254 147.844 78.4336C147.844 78.3214 147.819 78.1983 147.761 78.0664C147.894 78.0714 148.02 78.0726 148.137 78.0726C148.34 78.0726 148.521 78.0677 148.684 78.0566L144.709 84.465" fill="url(#paint9_radial)"/>
<path d="M115.017 61.3962C118.537 62.8806 120.711 64.3158 121.926 66.9324C123.385 66.7723 124.583 66.9336 125.548 67.2589L118.785 56.4242C117.525 58.0712 116.269 59.727 115.017 61.3962" fill="#F03B1F"/>
<path d="M125.548 67.2589C124.838 67.0199 124.006 66.8696 123.035 66.8696C122.683 66.8696 122.313 66.8893 121.926 66.9324C120.711 64.3158 118.537 62.8806 115.017 61.3962C116.269 59.727 117.525 58.0712 118.785 56.4242L125.548 67.2589" fill="url(#paint10_radial)"/>
<path d="M155.844 66.5123L141.553 43.6184L126.527 67.69C126.848 67.8649 127.128 68.0559 127.376 68.2579H128.704C131.908 53.799 148.301 51.632 154.501 65.8569C155.731 68.6903 152.777 68.1926 152.777 68.1926L152.767 68.2579H154.761L155.844 66.5123" fill="#E61D25"/>
<path d="M154.761 68.2579H152.767L152.777 68.1926C152.777 68.1926 152.976 68.2259 153.251 68.2259C153.849 68.2259 154.802 68.0657 154.801 67.042C154.801 66.7328 154.713 66.3448 154.501 65.8569C151.647 59.3068 146.632 56.2332 141.738 56.2332C136.003 56.2332 130.432 60.4562 128.704 68.2579H127.376C127.128 68.0559 126.848 67.8649 126.527 67.69L141.553 43.6184L155.844 66.5123L154.761 68.2579" fill="url(#paint11_radial)"/>
<path d="M128.852 43.6184C125.47 47.8057 122.113 52.0767 118.785 56.4241L125.548 67.2588C125.909 67.3808 126.23 67.5286 126.527 67.69L141.553 43.6184H128.852" fill="#E11D25"/>
<path d="M126.527 67.69C126.23 67.5286 125.909 67.3808 125.548 67.2588L118.785 56.4241C122.113 52.0767 125.47 47.8057 128.852 43.6184H141.553L126.527 67.69" fill="url(#paint12_radial)"/>
<path d="M155.844 66.5123L159.906 59.9622C154.785 54.198 149.183 48.7259 143.201 43.6184H141.553L155.844 66.5123Z" fill="#D61E25"/>
<path d="M155.844 66.5123L141.553 43.6184H143.201C149.183 48.7259 154.785 54.198 159.906 59.9622L155.844 66.5123Z" fill="url(#paint13_radial)"/>
<path d="M141.553 43.6183L139.773 40.7677C138.055 39.3732 136.316 37.9996 134.541 36.6667C132.637 38.9556 130.741 41.2777 128.852 43.6183H141.553Z" fill="#CB1E25"/>
<path d="M141.553 43.6183H128.852C130.741 41.2777 132.637 38.9556 134.541 36.6667C136.316 37.9996 138.055 39.3732 139.773 40.7677L141.553 43.6183Z" fill="url(#paint14_radial)"/>
<path d="M143.202 43.6183C142.842 43.3116 142.49 42.9987 142.129 42.6944L141.553 43.6183H143.202Z" fill="#B41D23"/>
<path d="M143.202 43.6183H141.553L142.129 42.6944C142.49 42.9987 142.842 43.3116 143.202 43.6183Z" fill="url(#paint15_radial)"/>
<path d="M142.129 42.6944C141.353 42.0427 140.562 41.4071 139.773 40.7677L141.553 43.6183L142.129 42.6944Z" fill="#B21D23"/>
<path d="M141.553 43.6183L139.773 40.7677C140.562 41.4071 141.353 42.0427 142.129 42.6944L141.553 43.6183Z" fill="url(#paint16_radial)"/>
<path d="M23.6056 133.658L33.6042 117.539H26.5185C25.1693 123.143 24.181 128.545 23.6056 133.658Z" fill="#EF381F"/>
<path d="M23.6056 133.658C24.181 128.545 25.1693 123.143 26.5185 117.539H33.6042L23.6056 133.658Z" fill="url(#paint17_radial)"/>
<path d="M28.7335 109.283C27.905 112.081 27.1698 114.833 26.5185 117.539H33.6042L33.7454 117.312L28.7335 109.283" fill="#F14A1C"/>
<path d="M33.6042 117.539H26.5185C27.1698 114.833 27.905 112.081 28.7335 109.283L33.7454 117.312L33.6042 117.539" fill="url(#paint18_radial)"/>
<path d="M48.8879 92.8987H34.418C32.2084 98.483 30.3091 103.96 28.7334 109.283L33.7454 117.312L48.8879 92.8987Z" fill="#F2571A"/>
<path d="M33.7454 117.312L28.7334 109.283C30.3091 103.96 32.2084 98.483 34.418 92.8987H48.8879L33.7454 117.312Z" fill="url(#paint19_radial)"/>
<path d="M49.077 92.5932L40.5208 78.8857C38.2726 83.6113 36.2414 88.2889 34.418 92.8987H48.8878L49.077 92.5932" fill="#F36118"/>
<path d="M48.8878 92.8987H34.418C36.2414 88.2889 38.2726 83.6113 40.5208 78.8857L49.077 92.5932L48.8878 92.8987" fill="url(#paint20_radial)"/>
<path d="M64.1715 68.258H45.8938C43.9878 71.8182 42.1951 75.3636 40.5209 78.8857L49.077 92.5932L64.1715 68.258Z" fill="#F36717"/>
<path d="M49.077 92.5932L40.5209 78.8857C42.1951 75.3636 43.9878 71.8182 45.8938 68.258H64.1715L49.077 92.5932" fill="url(#paint21_radial)"/>
<path d="M64.4099 67.8748L54.9307 52.6902C54.7149 53.0364 54.4912 53.3715 54.2767 53.7189C51.2666 58.5726 48.483 63.4264 45.8938 68.2579H64.1715L64.4099 67.8748" fill="#F25C19"/>
<path d="M64.1715 68.2579H45.8938C48.483 63.4264 51.2666 58.5726 54.2767 53.7189C54.4912 53.3715 54.7149 53.0364 54.9307 52.6902L64.4099 67.8748L64.1715 68.2579" fill="url(#paint22_radial)"/>
<path d="M79.4551 43.6184H60.863C58.8438 46.5688 56.8673 49.5981 54.9307 52.6902L64.4099 67.8748L79.4551 43.6184Z" fill="#F14F1B"/>
<path d="M64.4099 67.8748L54.9307 52.6902C56.8673 49.5981 58.8438 46.5688 60.863 43.6184H79.4551L64.4099 67.8748Z" fill="url(#paint23_radial)"/>
<path d="M79.7414 43.1564L71.2252 29.5129C67.6877 34.0008 64.2221 38.7055 60.863 43.6183H79.4551L79.7414 43.1564Z" fill="#EF3120"/>
<path d="M79.4551 43.6183H60.863C64.2221 38.7055 67.6877 34.0008 71.2252 29.5129L79.7414 43.1564L79.4551 43.6183Z" fill="url(#paint24_radial)"/>
<path d="M79.7415 43.1564L94.7387 18.9776H80.0225C77.0523 22.3358 74.1142 25.8468 71.2253 29.513L79.7415 43.1564Z" fill="#DF2A23"/>
<path d="M79.7415 43.1564L71.2253 29.513C74.1142 25.8468 77.0523 22.3358 80.0225 18.9776H94.7387L79.7415 43.1564Z" fill="url(#paint25_radial)"/>
<path d="M94.7387 18.9777L95.073 18.4381L91.6554 12.9622C90.1437 12.3931 88.6266 11.8486 87.1042 11.3275C84.7281 13.7729 82.3666 16.3291 80.0225 18.9777H94.7387Z" fill="#C32424"/>
<path d="M94.7387 18.9777H80.0225C82.3666 16.3291 84.7281 13.7729 87.1042 11.3275C88.6266 11.8486 90.1437 12.3931 91.6554 12.9622L95.073 18.4381L94.7387 18.9777Z" fill="url(#paint26_radial)"/>
<path d="M97.1268 15.1279C95.3127 14.3678 93.4867 13.6521 91.6554 12.9622L95.073 18.4381L97.1268 15.1279Z" fill="#CA1E25"/>
<path d="M95.073 18.4381L91.6554 12.9622C93.4867 13.6521 95.3127 14.3678 97.1268 15.1279L95.073 18.4381Z" fill="url(#paint27_radial)"/>
<path d="M154.672 96.7743L154.192 97.9927C154.126 98.1602 154.22 98.3462 154.401 98.4078L154.513 98.4275C154.66 98.43 154.798 98.3487 154.85 98.2144L155.33 96.996C155.395 96.8273 155.302 96.6412 155.121 96.5809C154.94 96.5168 154.737 96.6055 154.672 96.7743" fill="#C91E25"/>
<path d="M150.888 99.6779C150.864 100.608 151.658 101.38 152.662 101.404C153.668 101.427 154.503 100.693 154.528 99.7629C154.553 98.8328 153.758 98.0604 152.754 98.0382C151.748 98.0148 150.913 98.749 150.888 99.6779Z" fill="#C91E25"/>
<path d="M149.16 97.3668C149.034 97.5023 149.051 97.7068 149.199 97.8239L150.263 98.6677L150.482 98.7453L150.756 98.632C150.883 98.4965 150.865 98.292 150.719 98.1762L149.655 97.3323C149.508 97.2165 149.287 97.2301 149.16 97.3668" fill="#C91E25"/>
<path d="M147.033 95.6791C146.907 95.8146 146.924 96.0191 147.071 96.1362L148.135 96.98L148.355 97.0576L148.629 96.9443C148.756 96.8088 148.738 96.6043 148.59 96.4885L147.526 95.6446C147.381 95.5288 147.159 95.5424 147.033 95.6791" fill="#C91E25"/>
<path d="M146.502 95.2578C146.627 95.1211 146.611 94.9166 146.463 94.7995L145.4 93.9557C145.254 93.8411 145.033 93.8546 144.906 93.9914C144.78 94.1269 144.797 94.3314 144.944 94.4485L146.006 95.2923L146.226 95.3699L146.502 95.2578" fill="#C91E25"/>
<path d="M137.875 90.4213C137.839 91.7333 138.961 92.8235 140.379 92.8556C141.796 92.8888 142.976 91.8516 143.011 90.5396C143.047 89.2276 141.925 88.1374 140.507 88.1053C139.089 88.0721 137.91 89.1093 137.875 90.4213Z" fill="#C91E25"/>
<path d="M142.779 92.3037C142.653 92.4392 142.67 92.6437 142.817 92.7607L143.879 93.6046L144.099 93.6822L144.374 93.5701C144.5 93.4333 144.483 93.2288 144.336 93.1118L143.273 92.268C143.127 92.1534 142.904 92.1669 142.779 92.3037" fill="#C91E25"/>
<path d="M104.791 149.104L106.003 148.452C106.17 148.363 106.226 148.165 106.129 148.01C106.033 147.854 105.819 147.801 105.651 147.893L104.439 148.543C104.271 148.633 104.215 148.831 104.312 148.985L104.605 149.147L104.791 149.104" fill="#C91E25"/>
<path d="M106.737 147.684L107.031 147.846L107.216 147.801L108.427 147.151C108.595 147.061 108.652 146.864 108.555 146.709C108.457 146.555 108.244 146.501 108.075 146.592L106.863 147.242C106.697 147.332 106.639 147.529 106.737 147.684" fill="#C91E25"/>
<path d="M109.455 146.545L109.639 146.501L110.851 145.85C111.019 145.76 111.076 145.562 110.979 145.408C110.881 145.254 110.667 145.201 110.499 145.29L109.287 145.941C109.121 146.03 109.063 146.228 109.161 146.384L109.455 146.545" fill="#C91E25"/>
<path d="M101.281 150.611C101.185 150.457 100.971 150.404 100.803 150.494L99.5908 151.145C99.423 151.235 99.367 151.433 99.4629 151.588L99.7573 151.749L99.9424 151.705L101.154 151.055C101.322 150.965 101.378 150.767 101.281 150.611" fill="#C91E25"/>
<path d="M102.181 150.448L102.367 150.404L103.579 149.754C103.746 149.664 103.802 149.466 103.705 149.311C103.609 149.157 103.395 149.104 103.227 149.194L102.015 149.844C101.847 149.934 101.791 150.132 101.888 150.286L102.181 150.448" fill="#C91E25"/>
<path d="M111.879 145.244L112.063 145.2L113.276 144.549C113.443 144.459 113.5 144.261 113.403 144.107C113.306 143.952 113.092 143.899 112.923 143.989L111.711 144.639C111.545 144.729 111.487 144.927 111.585 145.083L111.879 145.244" fill="#C91E25"/>
<path d="M114.292 128.993C114.131 128.895 113.914 128.936 113.806 129.085C113.7 129.234 113.745 129.435 113.906 129.533L115.074 130.248L115.259 130.302L115.56 130.157C115.667 130.008 115.623 129.807 115.462 129.708L114.292 128.993" fill="#C91E25"/>
<path d="M109.131 126.224C109.025 126.375 109.07 126.576 109.23 126.674L110.399 127.389L110.583 127.443L110.885 127.297C110.992 127.148 110.947 126.948 110.786 126.849L109.617 126.133C109.456 126.035 109.239 126.075 109.131 126.224" fill="#C91E25"/>
<path d="M106.794 124.794C106.687 124.944 106.731 125.145 106.892 125.244L108.062 125.96L108.246 126.013L108.548 125.868C108.654 125.718 108.609 125.517 108.448 125.419L107.28 124.703C107.119 124.606 106.9 124.646 106.794 124.794" fill="#C91E25"/>
<path d="M64.009 217.125C64.5791 217.355 65.1465 217.599 65.7192 217.816L64.6483 216.1L64.009 217.125" fill="#F36318"/>
<path d="M63.0593 216.1L62.741 216.614C63.1619 216.792 63.5868 216.955 64.009 217.125L64.6483 216.1H63.0593" fill="#F2551A"/>
<path d="M64.6483 216.1L65.7191 217.816C73.9024 220.906 82.4452 222.608 91.0626 223.065L95.41 216.1H64.6483Z" fill="#F36817"/>
<path d="M63.0593 216.1H64.6483L63.8519 214.823L63.0593 216.1Z" fill="#F25C19"/>
<path d="M37.7372 191.459C37.0339 194.391 35.7593 196.409 36.2388 198.284C37.1818 196.016 38.1461 193.741 39.1303 191.459H37.7372Z" fill="#F0431D"/>
<path d="M91.0627 223.065C93.9662 223.219 96.8764 223.233 99.7853 223.108L95.41 216.1L91.0627 223.065" fill="#F36917"/>
<path d="M43.3285 181.944L42.1071 179.986C41.6476 180.654 41.1828 181.358 40.706 182.108C40.706 182.108 39.3807 184.104 38.8573 185.105C38.4338 185.917 38.1487 186.798 38.1647 187.701C38.19 189.114 38.0035 190.351 37.7372 191.459H39.1303C40.4942 188.297 41.886 185.127 43.3285 181.944" fill="#EF391F"/>
<path d="M95.41 216.1L99.7853 223.108C104.7 222.899 109.604 222.292 114.451 221.328C115.109 219.591 115.788 217.846 116.469 216.1H95.41Z" fill="#F36418"/>
<path d="M110.791 191.459L95.41 216.1H116.469C117.695 212.949 118.95 209.788 120.25 206.613L110.791 191.459Z" fill="#F36817"/>
<path d="M80.0292 191.459L95.41 216.1L110.791 191.459H80.0292Z" fill="#F46D16"/>
<path d="M79.1834 190.104L63.8518 214.823L64.6483 216.1H95.41L80.0291 191.459L79.1834 190.104Z" fill="#F36618"/>
<path d="M47.2137 173.569C45.5821 175.32 43.9079 177.359 42.1071 179.986L43.3285 181.944C44.5911 179.161 45.8924 176.367 47.2137 173.569" fill="#F0421E"/>
<path d="M126.694 191.459H110.791L120.25 206.613C122.307 201.589 124.458 196.536 126.694 191.459Z" fill="#F36717"/>
<path d="M110.791 191.459L101.084 175.909C100.413 176.251 99.4563 176.315 98.3189 175.954C95.1277 174.943 93.2856 173.643 92.0323 172.23L80.0292 191.459H110.791" fill="#F57815"/>
<path d="M80.0292 191.459L92.0323 172.23C91.6633 171.815 91.345 171.389 91.06 170.958L79.1834 190.104L80.0292 191.459" fill="#F47515"/>
<path d="M132.951 177.68L126.172 166.82L110.791 191.459H126.694C128.709 186.884 130.791 182.291 132.951 177.68Z" fill="#F36817"/>
<path d="M126.172 166.82L116.529 151.372C109.406 154.041 104.407 154.382 99.8359 156.808L97.3426 160.83C98.5546 165.475 97.5197 165.792 97.7475 167.616C97.9047 168.886 98.6785 170.013 99.7693 170.796C102.648 172.865 102.624 175.125 101.084 175.909L110.791 191.459L126.172 166.82Z" fill="#F47315"/>
<path d="M138.171 166.82H126.172L132.951 177.68C134.643 174.071 136.391 170.448 138.171 166.82Z" fill="#F25D19"/>
<path d="M146.58 150.234L141.553 142.179L126.172 166.82H138.171C140.875 161.308 143.674 155.778 146.58 150.234Z" fill="#F2591A"/>
<path d="M141.553 142.179L126.172 117.539L122.774 122.983C126.374 126.098 128.67 129.297 131.229 131.461C132.444 132.49 133.513 133.657 134.324 134.982C136.607 138.716 136.973 139.578 131.328 143.56C125.464 147.513 120.644 149.829 116.529 151.372L126.172 166.82L141.553 142.179" fill="#F36817"/>
<path d="M150.867 142.179H141.553L146.581 150.234C147.987 147.551 149.413 144.867 150.867 142.179Z" fill="#F2571A"/>
<path d="M114.291 137.622C114.106 137.58 113.906 137.532 113.718 137.49L113.557 137.749C113.793 137.702 114.035 137.659 114.291 137.622" fill="#F36817"/>
<path d="M113.557 137.749L113.718 137.49C113.172 137.367 112.622 137.241 112.056 137.107L111.193 138.498C111.902 138.174 112.666 137.925 113.557 137.749Z" fill="#F46D16"/>
<path d="M124.194 117.539L121.478 121.916C121.928 122.27 122.36 122.626 122.774 122.983L126.172 117.539H124.194" fill="#F46D16"/>
<path d="M161.005 124.061L156.933 117.539L141.553 142.179H150.867C154.126 136.15 157.509 130.109 161.005 124.061" fill="#F1491C"/>
<path d="M126.172 117.539L141.553 142.179L156.933 117.539H126.172Z" fill="#F25A1A"/>
<path d="M124.194 117.539H126.172L125.179 115.949L124.194 117.539Z" fill="#F25A1A"/>
<path d="M164.816 117.539H156.933L161.005 124.061C162.261 121.888 163.529 119.714 164.816 117.539" fill="#DE2424"/>
<path d="M156.933 117.539L146.025 100.065C145.56 99.7383 145.082 99.434 144.564 99.1962C142.931 98.4608 141.355 97.0355 139.874 95.5867L126.172 117.539H156.933" fill="#F1501B"/>
<path d="M126.172 117.539L139.874 95.5867C139.44 95.1617 139.011 94.7355 138.594 94.3228L125.179 115.949L126.172 117.539Z" fill="#F14C1C"/>
<path d="M172.946 104.108C174.003 102.403 175.071 100.715 176.138 99.025L172.314 92.8987L156.933 117.539H164.816C167.465 113.063 170.169 108.585 172.946 104.108" fill="#E32424"/>
<path d="M172.314 92.8987H161.149C159.756 97.7796 157.557 101.94 154.908 104.032C154.126 104.65 153.016 104.816 152.072 104.437C149.68 103.477 148.026 101.467 146.025 100.065L156.933 117.539L172.314 92.8987Z" fill="#F03C1F"/>
<path d="M180.05 92.8987H172.314L176.138 99.025C177.435 96.9714 178.739 94.9301 180.05 92.8987Z" fill="#D71E25"/>
<path d="M164.624 80.5796C163.922 81.4961 163.207 82.6381 162.639 84.6523C162.413 87.4746 161.895 90.2883 161.149 92.8987H172.314L164.624 80.5796Z" fill="#F03A1F"/>
<path d="M180.05 92.8987C180.43 92.3098 180.807 91.7197 181.187 91.1333C180.07 88.874 178.877 86.6344 177.609 84.4182L172.314 92.8987H180.05Z" fill="#DF1D25"/>
<path d="M177.609 84.4182C174.814 79.5336 171.679 74.755 168.216 70.1243C167.804 70.8597 167.685 71.015 167.463 72.29C170.003 71.0704 167.417 75.2244 166.971 76.6682C166.453 78.5567 165.549 79.371 164.624 80.5795L172.314 92.8987L177.609 84.4182" fill="#E82124"/>
<path d="M61.5423 216.1C61.9405 216.276 62.3414 216.445 62.741 216.614L63.0593 216.1H61.5423" fill="#F2551A"/>
<path d="M62.741 216.614C62.3414 216.445 61.9405 216.276 61.5423 216.1H63.0593L62.741 216.614" fill="url(#paint28_radial)"/>
<path d="M63.8518 214.823L49.2674 191.459L41.3826 204.091C45.1838 206.88 49.3846 209.619 54.033 212.298C56.4877 213.714 58.997 214.972 61.5423 216.1H63.0593L63.8518 214.823" fill="#F25C19"/>
<path d="M63.0593 216.1H61.5423C58.997 214.972 56.4877 213.714 54.033 212.298C49.3846 209.619 45.1838 206.88 41.3826 204.091L49.2674 191.459L63.8518 214.823L63.0593 216.1Z" fill="url(#paint29_radial)"/>
<path d="M39.1303 191.459C38.146 193.741 37.1817 196.016 36.2388 198.284C36.3347 198.661 36.4998 199.031 36.7555 199.401C38.4284 201.51 37.6679 203.463 35.1492 202.992V202.994C37.9609 203.691 38.0395 201.551 38.0395 201.551C39.1143 202.402 40.2345 203.249 41.3826 204.091L49.2675 191.459H39.1303" fill="#F0431D"/>
<path d="M41.3826 204.091C40.2345 203.249 39.1143 202.402 38.0395 201.551C38.0395 201.551 37.9809 203.134 36.1762 203.134C35.8831 203.134 35.5422 203.092 35.1492 202.994V202.992C35.4063 203.041 35.6447 203.063 35.8645 203.063C37.0192 203.063 37.6492 202.431 37.6479 201.519C37.6466 200.906 37.3602 200.164 36.7555 199.401C36.4998 199.031 36.3347 198.661 36.2388 198.284C37.1817 196.016 38.146 193.741 39.1303 191.459H49.2675L41.3826 204.091" fill="url(#paint30_radial)"/>
<path d="M39.1303 191.459H49.2675L43.3285 181.944C41.8861 185.127 40.4942 188.297 39.1303 191.459Z" fill="#EF391F"/>
<path d="M49.2675 191.459H39.1303C40.4942 188.297 41.8861 185.127 43.3285 181.944L49.2675 191.459Z" fill="url(#paint31_radial)"/>
<path d="M79.1834 190.104L64.6483 166.82L49.2675 191.459L63.8518 214.823L79.1834 190.104Z" fill="#F36618"/>
<path d="M63.8518 214.823L49.2675 191.459L64.6483 166.82L79.1834 190.104L63.8518 214.823Z" fill="url(#paint32_radial)"/>
<path d="M49.2675 191.459L64.6483 166.82H54.3394C51.8767 169.078 49.5885 171.022 47.2137 173.569C45.8924 176.367 44.5911 179.161 43.3285 181.944L49.2675 191.459" fill="#F0421E"/>
<path d="M49.2675 191.459L43.3285 181.944C44.5911 179.161 45.8924 176.367 47.2137 173.569C49.5885 171.022 51.8767 169.078 54.3394 166.82H64.6483L49.2675 191.459" fill="url(#paint33_radial)"/>
<path d="M79.1834 190.104L91.06 170.958C90.149 169.585 89.5562 168.159 88.6652 166.82H64.6483L79.1834 190.104Z" fill="#F47515"/>
<path d="M79.1834 190.104L64.6483 166.82H88.6652C89.5562 168.159 90.149 169.585 91.06 170.958L79.1834 190.104Z" fill="url(#paint34_radial)"/>
<path d="M60.6459 160.408C58.3457 163.05 56.2879 165.035 54.3394 166.82H64.6483L60.6459 160.408" fill="#EF3620"/>
<path d="M64.6483 166.82H54.3394C56.2879 165.035 58.3457 163.05 60.6459 160.408L64.6483 166.82Z" fill="url(#paint35_radial)"/>
<path d="M88.6652 166.82C87.7542 165.454 86.5302 164.178 84.3232 163.15C78.0979 159.55 81.4729 153.993 86.2265 153.994C86.6048 153.994 86.9804 153.961 87.352 153.911L80.7244 143.293C79.6562 144.415 78.5254 145.503 77.32 146.52L64.6483 166.82H88.6652Z" fill="#F46B17"/>
<path d="M88.6652 166.82H64.6483L77.32 146.52C78.5254 145.503 79.6562 144.415 80.7244 143.293L87.352 153.911C86.9817 153.96 86.6075 153.994 86.2292 153.994C86.2292 153.994 86.2279 153.994 86.2265 153.994C86.2265 153.994 86.2265 153.994 86.2252 153.994C83.3203 153.994 80.9295 156.07 80.9322 158.507C80.9349 160.055 81.9045 161.75 84.3232 163.15C86.5302 164.178 87.7542 165.454 88.6652 166.82" fill="url(#paint36_radial)"/>
<path d="M77.32 146.52C75.6192 147.955 73.7825 149.25 71.766 150.273C71.3078 150.504 70.6885 151.015 70.4061 151.423C67.388 155.789 65.2397 154.809 63.1432 157.386C62.2788 158.486 61.4477 159.486 60.6459 160.408L64.6483 166.82L77.32 146.52Z" fill="#F0441D"/>
<path d="M64.6483 166.82L60.6459 160.408C61.4477 159.486 62.2788 158.486 63.1432 157.386C65.2397 154.809 67.388 155.789 70.4061 151.423C70.6885 151.015 71.3078 150.504 71.766 150.273C73.7825 149.25 75.6192 147.955 77.32 146.52L64.6483 166.82" fill="url(#paint37_radial)"/>
<path d="M89.4884 153.253C98.6212 148.336 103.082 144.712 106.097 142.179H81.7646C81.425 142.554 81.0774 142.923 80.7244 143.293L87.352 153.911C88.1018 153.808 88.8291 153.607 89.4884 153.253" fill="#F47315"/>
<path d="M87.352 153.911L80.7244 143.293C81.0774 142.923 81.425 142.554 81.7646 142.179H106.097C103.082 144.712 98.6212 148.336 89.4884 153.253C88.8291 153.607 88.1018 153.808 87.352 153.911" fill="url(#paint38_radial)"/>
<path d="M97.7622 158.082C97.1562 158.511 96.8951 159.241 97.0922 159.922C97.1855 160.244 97.2667 160.543 97.3427 160.83L99.8359 156.808C99.1367 157.18 98.4468 157.596 97.7622 158.082" fill="#F47315"/>
<path d="M97.3425 160.83C97.2666 160.543 97.1854 160.244 97.0921 159.922C97.0482 159.771 97.0282 159.617 97.0282 159.464C97.0282 158.931 97.2919 158.414 97.7621 158.082C98.4467 157.596 99.1366 157.18 99.8359 156.808L97.3425 160.83" fill="url(#paint39_radial)"/>
<path d="M109.218 139.66L106.758 135.718C102.127 134.379 97.1654 132.577 92.4185 130.02C89.4897 132.114 86.1799 137.298 81.7646 142.179H106.097C107.299 141.17 108.272 140.334 109.218 139.66" fill="#F36618"/>
<path d="M106.097 142.179H81.7646C86.1799 137.298 89.4897 132.114 92.4185 130.02C97.1654 132.577 102.127 134.379 106.758 135.718L109.218 139.66C108.272 140.334 107.299 141.17 106.097 142.179" fill="url(#paint40_radial)"/>
<path d="M111.193 138.498L112.056 137.107C110.365 136.706 108.588 136.247 106.758 135.718L109.218 139.66C109.866 139.198 110.504 138.812 111.193 138.498" fill="#F46D16"/>
<path d="M109.218 139.66L106.758 135.718C108.588 136.247 110.365 136.706 112.056 137.107L111.193 138.498C110.504 138.812 109.866 139.198 109.218 139.66" fill="url(#paint41_radial)"/>
<path d="M114.133 117.539C117.105 118.847 119.486 120.353 121.478 121.916L124.194 117.539H114.133Z" fill="#F46D16"/>
<path d="M121.478 121.916C119.486 120.353 117.105 118.847 114.133 117.539H124.194L121.478 121.916Z" fill="url(#paint42_radial)"/>
<path d="M125.179 115.949L118.163 104.709C112.22 108.538 109.559 108.013 105.454 114.142L110.152 116.03C111.593 116.491 112.907 117 114.133 117.539H124.194L125.179 115.949" fill="#F25A1A"/>
<path d="M124.194 117.539H114.133C112.907 117 111.593 116.491 110.152 116.03L105.454 114.142C109.559 108.013 112.22 108.538 118.163 104.709L125.179 115.949L124.194 117.539" fill="url(#paint43_radial)"/>
<path d="M138.594 94.3228C138.074 93.8066 137.573 93.3348 137.083 92.8987H134.455C129.954 98.0875 127.332 98.0789 119.41 103.873C118.978 104.173 118.564 104.45 118.163 104.709L125.179 115.949L138.594 94.3228" fill="#F14C1C"/>
<path d="M125.179 115.949L118.163 104.709C118.564 104.45 118.978 104.173 119.41 103.873C127.332 98.0789 129.954 98.0875 134.455 92.8987H137.083C137.573 93.3348 138.074 93.8066 138.594 94.3228L125.179 115.949" fill="url(#paint44_radial)"/>
<path d="M135.487 91.6619C135.13 92.1078 134.789 92.5143 134.455 92.8987H137.083C136.531 92.4059 135.994 91.9649 135.487 91.6619Z" fill="#F0401E"/>
<path d="M137.083 92.8987H134.455C134.789 92.5143 135.13 92.1078 135.487 91.6619C135.994 91.9649 136.531 92.4059 137.083 92.8987Z" fill="url(#paint45_radial)"/>
<path d="M126.172 216.1H116.469C115.788 217.846 115.109 219.591 114.451 221.328C117.837 220.656 121.19 219.802 124.499 218.781L126.172 216.1Z" fill="#F36418"/>
<path d="M114.451 221.328C115.109 219.591 115.788 217.846 116.469 216.1H126.172L124.499 218.781C121.19 219.802 117.837 220.656 114.451 221.328Z" fill="url(#paint46_radial)"/>
<path d="M116.469 216.1H126.172L120.25 206.613C118.95 209.788 117.695 212.949 116.469 216.1Z" fill="#F36817"/>
<path d="M126.172 216.1H116.469C117.695 212.949 118.95 209.788 120.25 206.613L126.172 216.1Z" fill="url(#paint47_radial)"/>
<path d="M124.499 218.781C125.431 218.494 126.36 218.194 127.284 217.88L126.172 216.1L124.499 218.781Z" fill="#F35E19"/>
<path d="M124.499 218.781L126.172 216.1L127.284 217.88C126.36 218.194 125.431 218.494 124.499 218.781Z" fill="url(#paint48_radial)"/>
<path d="M126.694 191.459C124.458 196.536 122.306 201.589 120.25 206.613L126.172 216.1L141.553 191.459H126.694Z" fill="#F36717"/>
<path d="M126.172 216.1L120.25 206.613C122.306 201.589 124.458 196.536 126.694 191.459H141.553L126.172 216.1Z" fill="url(#paint49_radial)"/>
<path d="M127.284 217.88C128.906 217.328 130.515 216.733 132.111 216.1H126.172L127.284 217.88" fill="#F2571A"/>
<path d="M127.284 217.88L126.172 216.1H132.111C130.515 216.733 128.906 217.328 127.284 217.88" fill="url(#paint50_radial)"/>
<path d="M126.172 216.1H132.111C138.666 213.499 144.962 210.232 150.853 206.359L141.553 191.459L126.172 216.1Z" fill="#F36218"/>
<path d="M132.111 216.1H126.172L141.553 191.459L150.853 206.359C144.962 210.232 138.666 213.499 132.111 216.1Z" fill="url(#paint51_radial)"/>
<path d="M126.694 191.459H141.553L132.951 177.68C130.791 182.291 128.709 186.884 126.694 191.459Z" fill="#F36817"/>
<path d="M141.553 191.459H126.694C128.709 186.884 130.791 182.291 132.951 177.68L141.553 191.459Z" fill="url(#paint52_radial)"/>
<path d="M150.853 206.359C157.348 202.091 163.337 197.092 168.633 191.459H141.553L150.853 206.359" fill="#F25D19"/>
<path d="M150.853 206.359L141.553 191.459H168.633C163.337 197.092 157.348 202.091 150.853 206.359Z" fill="url(#paint53_radial)"/>
<path d="M141.553 191.459H168.633C169.373 190.671 170.102 189.871 170.815 189.057L156.933 166.82L141.553 191.459" fill="#F2591A"/>
<path d="M168.633 191.459H141.553L156.933 166.82L170.815 189.057C170.102 189.871 169.373 190.671 168.633 191.459" fill="url(#paint54_radial)"/>
<path d="M132.951 177.68L141.553 191.459L156.933 166.82H138.171C136.391 170.448 134.643 174.071 132.951 177.68Z" fill="#F25D19"/>
<path d="M141.553 191.459L132.951 177.68C134.643 174.071 136.391 170.448 138.171 166.82H156.933L141.553 191.459Z" fill="url(#paint55_radial)"/>
<path d="M170.815 189.057C173.349 186.168 175.721 183.141 177.868 179.958C180.777 175.649 183.196 171.261 185.174 166.82H156.933L170.815 189.057" fill="#F35E19"/>
<path d="M170.815 189.057L156.933 166.82H185.174C183.196 171.261 180.777 175.649 177.868 179.958C175.721 183.141 173.349 186.168 170.815 189.057" fill="url(#paint56_radial)"/>
<path d="M138.171 166.82H156.933L146.581 150.234C143.674 155.778 140.875 161.308 138.171 166.82" fill="#F2591A"/>
<path d="M156.933 166.82H138.171C140.875 161.308 143.674 155.778 146.581 150.234L156.933 166.82" fill="url(#paint57_radial)"/>
<path d="M156.933 166.82H185.174C185.531 166.018 185.861 165.212 186.19 164.408L172.314 142.179L156.933 166.82" fill="#F14D1C"/>
<path d="M185.174 166.82H156.933L172.314 142.179L186.19 164.408C185.861 165.212 185.531 166.018 185.174 166.82" fill="url(#paint58_radial)"/>
<path d="M146.58 150.234L156.933 166.82L172.314 142.179H150.867C149.413 144.867 147.987 147.551 146.58 150.234" fill="#F2571A"/>
<path d="M156.933 166.82L146.58 150.234C147.987 147.551 149.413 144.867 150.867 142.179H172.314L156.933 166.82" fill="url(#paint59_radial)"/>
<path d="M186.19 164.408C189.167 157.099 190.964 149.658 191.678 142.179H172.314L186.19 164.408" fill="#DA2324"/>
<path d="M186.19 164.408L172.314 142.179H191.678C190.964 149.658 189.167 157.099 186.19 164.408" fill="url(#paint60_radial)"/>
<path d="M150.867 142.179H172.314L161.005 124.061C157.509 130.109 154.126 136.15 150.867 142.179" fill="#F1491C"/>
<path d="M172.314 142.179H150.867C154.126 136.15 157.509 130.109 161.005 124.061L172.314 142.179Z" fill="url(#paint61_radial)"/>
<path d="M172.314 142.179H191.678C192.278 135.886 192.116 129.57 191.283 123.286L187.695 117.539L172.314 142.179Z" fill="#CF1E25"/>
<path d="M191.678 142.179H172.314L187.695 117.539L191.283 123.286C191.781 127.042 192.04 130.81 192.038 134.576C192.037 137.112 191.92 139.647 191.678 142.179" fill="url(#paint62_radial)"/>
<path d="M161.005 124.061L172.314 142.179L187.695 117.539H164.816C163.529 119.714 162.261 121.888 161.005 124.061" fill="#DE2424"/>
<path d="M172.314 142.179L161.005 124.061C162.261 121.888 163.529 119.714 164.816 117.539H187.695L172.314 142.179Z" fill="url(#paint63_radial)"/>
<path d="M191.283 123.286C191.029 121.367 190.717 119.45 190.339 117.539H187.695L191.283 123.286Z" fill="#C71E25"/>
<path d="M191.283 123.286L187.695 117.539H190.339C190.717 119.45 191.029 121.367 191.283 123.286Z" fill="url(#paint64_radial)"/>
<path d="M164.816 117.539H187.695L176.138 99.025C175.071 100.715 174.003 102.403 172.946 104.108C170.169 108.585 167.465 113.063 164.816 117.539" fill="#E32424"/>
<path d="M187.695 117.539H164.816C167.465 113.063 170.169 108.585 172.946 104.108C174.003 102.403 175.071 100.715 176.138 99.025L187.695 117.539" fill="url(#paint65_radial)"/>
<path d="M190.339 117.539C190.131 116.49 189.899 115.444 189.656 114.398L187.695 117.539H190.339Z" fill="#C21E25"/>
<path d="M190.339 117.539H187.695L189.656 114.398C189.899 115.444 190.131 116.49 190.339 117.539Z" fill="url(#paint66_radial)"/>
<path d="M176.138 99.025L187.695 117.539L189.656 114.398C187.953 107.116 185.387 99.9182 182.057 92.8987H180.05C178.739 94.9301 177.435 96.9714 176.138 99.025" fill="#D71E25"/>
<path d="M187.695 117.539L176.138 99.025C177.435 96.9714 178.739 94.9301 180.05 92.8987H182.057C185.387 99.9182 187.953 107.116 189.656 114.398L187.695 117.539" fill="url(#paint67_radial)"/>
<path d="M182.057 92.8987C181.776 92.3074 181.478 91.721 181.187 91.1333C180.807 91.7197 180.43 92.3098 180.05 92.8987H182.057Z" fill="#DF1D25"/>
<path d="M182.057 92.8987H180.05C180.43 92.3098 180.807 91.7197 181.187 91.1333C181.478 91.721 181.776 92.3074 182.057 92.8987Z" fill="url(#paint68_radial)"/>
<path d="M113.124 128.278L111.955 127.564C111.794 127.465 111.577 127.506 111.469 127.655C111.362 127.804 111.408 128.005 111.569 128.104L112.737 128.819L112.922 128.873L113.223 128.728C113.329 128.579 113.284 128.378 113.124 128.278Z" fill="#C91E25"/>
<path d="M98.3788 151.795L97.1668 152.446C96.999 152.536 96.9431 152.734 97.0403 152.889L97.3333 153.051L97.5184 153.006L98.7304 152.356C98.8982 152.266 98.9542 152.068 98.8569 151.914C98.761 151.758 98.5453 151.705 98.3788 151.795" fill="#C91E25"/>
<path d="M115.347 142.688L114.135 143.338C113.969 143.428 113.912 143.626 114.009 143.782L114.303 143.943L114.487 143.899L115.7 143.248C115.867 143.158 115.924 142.96 115.827 142.805C115.73 142.651 115.516 142.598 115.347 142.688" fill="#C91E25"/>
<path d="M125.377 133.697C123.765 133.66 122.425 134.838 122.384 136.33C122.344 137.82 123.618 139.059 125.23 139.097C126.842 139.134 128.182 137.956 128.221 136.464C128.263 134.973 126.988 133.734 125.377 133.697Z" fill="#C91E25"/>
<path d="M118.983 140.736C118.817 140.826 118.76 141.025 118.857 141.179L119.151 141.34L119.335 141.297L120.548 140.645C120.715 140.557 120.772 140.358 120.675 140.203C120.578 140.049 120.365 139.996 120.195 140.086L118.983 140.736" fill="#C91E25"/>
<path d="M121.306 133.282C121.145 133.185 120.928 133.225 120.821 133.373C120.715 133.524 120.759 133.724 120.92 133.823L122.088 134.539L122.273 134.592L122.574 134.446C122.681 134.297 122.637 134.096 122.476 133.998L121.306 133.282Z" fill="#C91E25"/>
<path d="M118.967 131.853C118.806 131.755 118.59 131.795 118.483 131.944C118.376 132.093 118.42 132.295 118.581 132.394L119.751 133.108L119.934 133.161L120.235 133.017C120.342 132.867 120.298 132.666 120.137 132.568L118.967 131.853" fill="#C91E25"/>
<path d="M121.575 140.039L121.759 139.995L122.971 139.344C123.139 139.254 123.196 139.057 123.099 138.902C123.002 138.747 122.787 138.694 122.62 138.785L121.407 139.435C121.241 139.525 121.184 139.723 121.281 139.878L121.575 140.039" fill="#C91E25"/>
<path d="M94.9092 154.352L95.0943 154.307L96.3064 153.657C96.4742 153.567 96.5301 153.368 96.4329 153.214C96.337 153.06 96.1226 153.006 95.9548 153.096L94.7427 153.748C94.5749 153.837 94.5189 154.035 94.6162 154.19L94.9092 154.352" fill="#C91E25"/>
<path d="M92.4851 155.652L92.6702 155.608L93.8823 154.958C94.0501 154.868 94.106 154.671 94.0088 154.515C93.9129 154.361 93.6984 154.308 93.5306 154.398L92.3186 155.049C92.1508 155.139 92.0936 155.336 92.1908 155.491L92.4851 155.652" fill="#C91E25"/>
<path d="M90.0611 156.953L90.2462 156.91L91.4582 156.259C91.6261 156.17 91.682 155.972 91.5848 155.816C91.4889 155.662 91.2744 155.608 91.1066 155.699L89.8946 156.35C89.7268 156.44 89.6708 156.638 89.7667 156.792L90.0611 156.953" fill="#C91E25"/>
<path d="M116.727 142.641L116.911 142.598L118.123 141.947C118.291 141.857 118.348 141.659 118.251 141.504C118.154 141.35 117.941 141.297 117.773 141.387L116.559 142.037C116.393 142.127 116.336 142.326 116.433 142.48L116.727 142.641" fill="#C91E25"/>
<path d="M116.244 130.964L117.412 131.678L117.597 131.732L117.898 131.587C118.004 131.438 117.96 131.236 117.799 131.137L116.63 130.423C116.47 130.325 116.252 130.365 116.145 130.514C116.039 130.664 116.083 130.865 116.244 130.964Z" fill="#C91E25"/>
<path d="M85.8603 157.882C85.835 158.816 86.6328 159.593 87.6437 159.617C88.6533 159.64 89.4924 158.901 89.5177 157.967C89.543 157.033 88.7452 156.256 87.7356 156.233C86.7247 156.209 85.8856 156.948 85.8603 157.882Z" fill="#C91E25"/>
<path d="M31.9833 181.354C31.958 182.289 32.7571 183.065 33.7667 183.088C34.7763 183.112 35.6154 182.373 35.6407 181.439C35.666 180.505 34.8682 179.729 33.8586 179.704C32.8491 179.682 32.0086 180.42 31.9833 181.354Z" fill="#C91E25"/>
<path d="M58.9744 152.135L58.0873 153.139C57.9648 153.277 57.9874 153.482 58.1366 153.595L58.3497 153.668L58.6294 153.55L59.5165 152.546C59.639 152.406 59.6164 152.203 59.4672 152.09C59.318 151.975 59.0956 151.996 58.9744 152.135" fill="#C91E25"/>
<path d="M61.3878 152.489C62.9994 152.526 64.338 151.348 64.3792 149.858C64.4192 148.366 63.1459 147.128 61.533 147.089C59.9214 147.052 58.5815 148.23 58.5415 149.722C58.5015 151.213 59.7748 152.451 61.3878 152.489" fill="#C91E25"/>
<path d="M56.577 155.676L56.858 155.556L57.7437 154.552C57.8663 154.414 57.8436 154.21 57.6944 154.097C57.5439 153.983 57.3242 154.003 57.2003 154.142L56.3146 155.146C56.1921 155.285 56.2147 155.489 56.3652 155.603L56.577 155.676" fill="#C91E25"/>
<path d="M64.1262 146.007L63.2831 147.041C63.1659 147.184 63.1965 147.388 63.3524 147.496L63.5535 147.561L63.8425 147.432L64.6856 146.397C64.8028 146.254 64.7722 146.051 64.6177 145.943C64.4632 145.837 64.2421 145.864 64.1262 146.007Z" fill="#C91E25"/>
<path d="M65.8151 143.937L64.9706 144.972C64.8534 145.115 64.8841 145.318 65.0386 145.426L65.241 145.492L65.53 145.362L66.3731 144.327C66.4903 144.185 66.4597 143.981 66.3052 143.874C66.152 143.766 65.931 143.793 65.8151 143.937" fill="#C91E25"/>
<path d="M74.2527 133.589L73.4082 134.624C73.2924 134.767 73.323 134.97 73.4775 135.077L73.6786 135.142L73.9676 135.014L74.812 133.979C74.9279 133.836 74.8973 133.633 74.7428 133.526C74.5896 133.418 74.3685 133.445 74.2527 133.589" fill="#C91E25"/>
<path d="M72.2814 137.084L73.1246 136.049C73.2404 135.906 73.2098 135.703 73.0553 135.594C72.9008 135.487 72.681 135.514 72.5638 135.658L71.7207 136.693C71.6048 136.836 71.6355 137.039 71.79 137.148L71.9924 137.213L72.2814 137.084Z" fill="#C91E25"/>
<path d="M66.9285 143.422L67.2175 143.293L68.0619 142.258C68.1778 142.115 68.1472 141.912 67.9927 141.804C67.8395 141.696 67.6198 141.723 67.5025 141.867L66.6581 142.902C66.5409 143.045 66.5729 143.248 66.7274 143.357L66.9285 143.422" fill="#C91E25"/>
<path d="M55.971 156.56C56.0935 156.421 56.0709 156.218 55.9217 156.105C55.7698 155.991 55.5501 156.011 55.4275 156.15L54.5418 157.154C54.4193 157.293 54.4419 157.497 54.5911 157.61L54.8042 157.683L55.0852 157.564L55.971 156.56" fill="#C91E25"/>
<path d="M70.5926 139.153L71.4357 138.119C71.5529 137.976 71.5223 137.772 71.3678 137.665C71.2146 137.557 70.9948 137.584 70.8776 137.728L70.0332 138.763C69.916 138.906 69.9479 139.109 70.1024 139.216L70.3036 139.283L70.5926 139.153Z" fill="#C91E25"/>
<path d="M68.9051 141.223L69.7483 140.188C69.8655 140.045 69.8348 139.842 69.6803 139.735C69.5272 139.626 69.306 139.654 69.1888 139.798L68.3457 140.833C68.2285 140.975 68.2591 141.179 68.4136 141.287L68.6161 141.352L68.9051 141.223" fill="#C91E25"/>
<path d="M47.9928 165.595L48.8785 164.591C49.0011 164.452 48.9784 164.249 48.8292 164.135C48.6787 164.022 48.459 164.042 48.3351 164.181L47.4494 165.185C47.3269 165.324 47.3495 165.528 47.5 165.641L47.7131 165.714L47.9928 165.595" fill="#C91E25"/>
<path d="M40.9004 173.626L41.7875 172.622C41.91 172.483 41.8874 172.28 41.7369 172.165C41.5864 172.053 41.3666 172.073 41.2441 172.212L40.357 173.216C40.2358 173.355 40.2584 173.558 40.4076 173.672L40.6207 173.744L40.9004 173.626" fill="#C91E25"/>
<path d="M53.6548 158.158L52.7677 159.162C52.6465 159.301 52.6692 159.505 52.8183 159.618L53.0314 159.691L53.3111 159.572L54.1982 158.568C54.3207 158.429 54.2981 158.225 54.1476 158.111C53.9971 157.999 53.7773 158.019 53.6548 158.158" fill="#C91E25"/>
<path d="M39.4713 174.22L38.5843 175.223C38.4631 175.362 38.4844 175.566 38.6349 175.68L38.848 175.752L39.1277 175.633L40.0147 174.629C40.1359 174.491 40.1133 174.286 39.9641 174.173C39.8136 174.061 39.5925 174.079 39.4713 174.22" fill="#C91E25"/>
<path d="M75.6552 132.945L76.4996 131.91C76.6168 131.767 76.5849 131.564 76.4304 131.456C76.2772 131.348 76.0574 131.375 75.9402 131.519L75.0971 132.554C74.9799 132.697 75.0105 132.9 75.165 133.007L75.3675 133.074L75.6552 132.945" fill="#C91E25"/>
<path d="M36.8607 177.688L37.0739 177.76L37.3549 177.641L38.2406 176.638C38.3631 176.499 38.3405 176.294 38.1913 176.181C38.0408 176.069 37.8211 176.087 37.6972 176.228L36.8115 177.231C36.6889 177.37 36.7116 177.574 36.8607 177.688" fill="#134561"/>
<path d="M43.0182 170.204L42.1311 171.208C42.0086 171.346 42.0299 171.55 42.1804 171.664L42.3935 171.738L42.6732 171.618L43.5602 170.614C43.6828 170.476 43.6601 170.272 43.511 170.158C43.3618 170.045 43.138 170.066 43.0182 170.204" fill="#C91E25"/>
<path d="M50.1092 162.173L49.2235 163.177C49.101 163.316 49.1236 163.519 49.2728 163.634L49.4859 163.707L49.7656 163.587L50.6526 162.583C50.7752 162.445 50.7525 162.241 50.602 162.127C50.4515 162.014 50.2318 162.034 50.1092 162.173" fill="#C91E25"/>
<path d="M51.5384 161.58L52.4254 160.576C52.5479 160.437 52.5253 160.234 52.3748 160.121C52.227 160.007 52.0045 160.026 51.8833 160.166L50.9963 161.17C50.8737 161.308 50.895 161.513 51.0455 161.626L51.2587 161.699L51.5384 161.58" fill="#C91E25"/>
<path d="M44.7909 168.197L43.9039 169.201C43.7813 169.339 43.804 169.544 43.9532 169.656L44.1663 169.73L44.446 169.61L45.333 168.607C45.4556 168.468 45.4329 168.264 45.2838 168.151C45.1346 168.038 44.9121 168.057 44.7909 168.197" fill="#C91E25"/>
<path d="M46.5624 166.189L45.6766 167.193C45.5541 167.332 45.5767 167.535 45.7259 167.649L45.939 167.721L46.22 167.603L47.1058 166.599C47.2283 166.46 47.2057 166.256 47.0565 166.142C46.9047 166.03 46.6849 166.05 46.5624 166.189" fill="#C91E25"/>
<path d="M35.5808 179.649L36.4678 178.645C36.5904 178.507 36.5677 178.302 36.4185 178.189C36.2694 178.076 36.047 178.095 35.9258 178.235L35.0387 179.239C34.9162 179.377 34.9388 179.581 35.088 179.694L35.3011 179.767L35.5808 179.649" fill="#C91E25"/>
<rect x="-209.5" y="-175.5" width="621" height="578" stroke="white"/>
</g>
<defs>
<radialGradient id="paint0_radial" cx="0" cy="0" r="1" gradientUnits="userSpaceOnUse" gradientTransform="translate(20.0376 179.667) rotate(-152.049) scale(65.1262 145.986)">
<stop stop-color="#ED1C24"/>
<stop offset="1" stop-color="#F36118"/>
</radialGradient>
<radialGradient id="paint1_radial" cx="0" cy="0" r="1" gradientUnits="userSpaceOnUse" gradientTransform="translate(20.0375 179.664) rotate(-152.05) scale(65.1262 145.982)">
<stop stop-color="#ED1C24"/>
<stop offset="1" stop-color="#F36817"/>
</radialGradient>
<radialGradient id="paint2_radial" cx="0" cy="0" r="1" gradientUnits="userSpaceOnUse" gradientTransform="translate(198.133 171.025) rotate(-152.095) scale(131.267 293.922)">
<stop stop-color="#ED1C24"/>
<stop offset="1" stop-color="#F14E1C"/>
</radialGradient>
<radialGradient id="paint3_radial" cx="0" cy="0" r="1" gradientUnits="userSpaceOnUse" gradientTransform="translate(197.885 171.021) rotate(-152.05) scale(131.061 293.775)">
<stop stop-color="#ED1C24"/>
<stop offset="1" stop-color="#F2591A"/>
</radialGradient>
<radialGradient id="paint4_radial" cx="0" cy="0" r="1" gradientUnits="userSpaceOnUse" gradientTransform="translate(197.884 171.022) rotate(-152.05) scale(131.06 293.778)">
<stop stop-color="#ED1C24"/>
<stop offset="1" stop-color="#F25D19"/>
</radialGradient>
<radialGradient id="paint5_radial" cx="0" cy="0" r="1" gradientUnits="userSpaceOnUse" gradientTransform="translate(197.884 171.022) rotate(-152.05) scale(131.06 293.778)">
<stop stop-color="#ED1C24"/>
<stop offset="1" stop-color="#F14C1C"/>
</radialGradient>
<radialGradient id="paint6_radial" cx="0" cy="0" r="1" gradientUnits="userSpaceOnUse" gradientTransform="translate(197.884 171.022) rotate(-152.05) scale(131.061 293.779)">
<stop stop-color="#ED1C24"/>
<stop offset="1" stop-color="#F0411E"/>
</radialGradient>
<radialGradient id="paint7_radial" cx="0" cy="0" r="1" gradientUnits="userSpaceOnUse" gradientTransform="translate(197.884 171.022) rotate(-152.049) scale(131.059 293.779)">
<stop stop-color="#ED1C24"/>
<stop offset="1" stop-color="#F0401E"/>
</radialGradient>
<radialGradient id="paint8_radial" cx="0" cy="0" r="1" gradientUnits="userSpaceOnUse" gradientTransform="translate(197.883 171.023) rotate(-152.049) scale(131.059 293.78)">
<stop stop-color="#ED1C24"/>
<stop offset="1" stop-color="#F0401E"/>
</radialGradient>
<radialGradient id="paint9_radial" cx="0" cy="0" r="1" gradientUnits="userSpaceOnUse" gradientTransform="translate(197.884 171.022) rotate(-152.05) scale(131.061 293.779)">
<stop stop-color="#ED1C24"/>
<stop offset="1" stop-color="#F0401E"/>
</radialGradient>
<radialGradient id="paint10_radial" cx="0" cy="0" r="1" gradientUnits="userSpaceOnUse" gradientTransform="translate(197.884 171.022) rotate(-152.05) scale(131.061 293.778)">
<stop stop-color="#ED1C24"/>
<stop offset="1" stop-color="#F03B1F"/>
</radialGradient>
<radialGradient id="paint11_radial" cx="0" cy="0" r="1" gradientUnits="userSpaceOnUse" gradientTransform="translate(197.884 171.022) rotate(-152.05) scale(131.061 293.779)">
<stop stop-color="#CD1E26"/>
<stop offset="1" stop-color="#E61D25"/>
</radialGradient>
<radialGradient id="paint12_radial" cx="0" cy="0" r="1" gradientUnits="userSpaceOnUse" gradientTransform="translate(197.884 171.022) rotate(-152.05) scale(131.061 293.779)">
<stop stop-color="#B91F25"/>
<stop offset="1" stop-color="#E11D25"/>
</radialGradient>
<radialGradient id="paint13_radial" cx="0" cy="0" r="1" gradientUnits="userSpaceOnUse" gradientTransform="translate(197.884 171.022) rotate(-152.05) scale(131.061 293.779)">
<stop stop-color="#831E22"/>
<stop offset="1" stop-color="#D61E25"/>
</radialGradient>
<radialGradient id="paint14_radial" cx="0" cy="0" r="1" gradientUnits="userSpaceOnUse" gradientTransform="translate(197.884 171.021) rotate(-152.05) scale(131.061 293.778)">
<stop stop-color="#52171A"/>
<stop offset="1" stop-color="#CB1E25"/>
</radialGradient>
<radialGradient id="paint15_radial" cx="0" cy="0" r="1" gradientUnits="userSpaceOnUse" gradientTransform="translate(197.886 171.022) rotate(-152.05) scale(131.064 293.781)">
<stop stop-color="#080000"/>
<stop offset="1" stop-color="#B41D23"/>
</radialGradient>
<radialGradient id="paint16_radial" cx="0" cy="0" r="1" gradientUnits="userSpaceOnUse" gradientTransform="translate(197.884 171.02) rotate(-152.05) scale(131.06 293.776)">
<stop stop-color="#070000"/>
<stop offset="1" stop-color="#B21D23"/>
</radialGradient>
<radialGradient id="paint17_radial" cx="0" cy="0" r="1" gradientUnits="userSpaceOnUse" gradientTransform="translate(100.851 78.4323) rotate(-152.049) scale(52.7229 118.181)">
<stop stop-color="#ED1C24"/>
<stop offset="1" stop-color="#EF391F"/>
</radialGradient>
<radialGradient id="paint18_radial" cx="0" cy="0" r="1" gradientUnits="userSpaceOnUse" gradientTransform="translate(100.851 78.4324) rotate(-152.049) scale(52.7229 118.181)">
<stop stop-color="#ED1C24"/>
<stop offset="1" stop-color="#F14A1C"/>
</radialGradient>
<radialGradient id="paint19_radial" cx="0" cy="0" r="1" gradientUnits="userSpaceOnUse" gradientTransform="translate(100.851 78.4323) rotate(-152.05) scale(52.7231 118.181)">
<stop stop-color="#ED1C24"/>
<stop offset="1" stop-color="#F2581A"/>
</radialGradient>
<radialGradient id="paint20_radial" cx="0" cy="0" r="1" gradientUnits="userSpaceOnUse" gradientTransform="translate(100.851 78.4323) rotate(-152.049) scale(52.7229 118.181)">
<stop stop-color="#ED1C24"/>
<stop offset="1" stop-color="#F36118"/>
</radialGradient>
<radialGradient id="paint21_radial" cx="0" cy="0" r="1" gradientUnits="userSpaceOnUse" gradientTransform="translate(100.851 78.4323) rotate(-152.05) scale(52.7229 118.181)">
<stop stop-color="#ED1C24"/>
<stop offset="1" stop-color="#F36817"/>
</radialGradient>
<radialGradient id="paint22_radial" cx="0" cy="0" r="1" gradientUnits="userSpaceOnUse" gradientTransform="translate(100.851 78.4323) rotate(-152.049) scale(52.723 118.181)">
<stop stop-color="#ED1C24"/>
<stop offset="1" stop-color="#F25D19"/>
</radialGradient>
<radialGradient id="paint23_radial" cx="0" cy="0" r="1" gradientUnits="userSpaceOnUse" gradientTransform="translate(100.851 78.4323) rotate(-152.05) scale(52.7231 118.181)">
<stop stop-color="#ED1C24"/>
<stop offset="1" stop-color="#F14F1B"/>
</radialGradient>
<radialGradient id="paint24_radial" cx="0" cy="0" r="1" gradientUnits="userSpaceOnUse" gradientTransform="translate(100.851 78.4322) rotate(-152.049) scale(52.7229 118.181)">
<stop stop-color="#ED1C24"/>
<stop offset="1" stop-color="#EF3120"/>
</radialGradient>
<radialGradient id="paint25_radial" cx="0" cy="0" r="1" gradientUnits="userSpaceOnUse" gradientTransform="translate(100.851 78.4323) rotate(-152.05) scale(52.723 118.181)">
<stop stop-color="#AF2127"/>
<stop offset="1" stop-color="#DF2A23"/>
</radialGradient>
<radialGradient id="paint26_radial" cx="0" cy="0" r="1" gradientUnits="userSpaceOnUse" gradientTransform="translate(100.851 78.4324) rotate(-152.05) scale(52.723 118.181)">
<stop stop-color="#2F0E0F"/>
<stop offset="1" stop-color="#C32424"/>
</radialGradient>
<radialGradient id="paint27_radial" cx="0" cy="0" r="1" gradientUnits="userSpaceOnUse" gradientTransform="translate(100.851 78.4327) rotate(-152.049) scale(52.7228 118.181)">
<stop stop-color="#4C1518"/>
<stop offset="1" stop-color="#CA1E25"/>
</radialGradient>
<radialGradient id="paint28_radial" cx="0" cy="0" r="1" gradientUnits="userSpaceOnUse" gradientTransform="translate(197.883 171.028) rotate(-152.052) scale(131.056 293.748)">
<stop stop-color="#ED1C24"/>
<stop offset="1" stop-color="#F2551A"/>
</radialGradient>
<radialGradient id="paint29_radial" cx="0" cy="0" r="1" gradientUnits="userSpaceOnUse" gradientTransform="translate(197.884 171.022) rotate(-152.05) scale(131.061 293.778)">
<stop stop-color="#ED1C24"/>
<stop offset="1" stop-color="#F25D19"/>
</radialGradient>
<radialGradient id="paint30_radial" cx="0" cy="0" r="1" gradientUnits="userSpaceOnUse" gradientTransform="translate(197.884 171.022) rotate(-152.05) scale(131.061 293.778)">
<stop stop-color="#ED1C24"/>
<stop offset="1" stop-color="#F0431D"/>
</radialGradient>
<radialGradient id="paint31_radial" cx="0" cy="0" r="1" gradientUnits="userSpaceOnUse" gradientTransform="translate(197.884 171.022) rotate(-152.049) scale(131.061 293.78)">
<stop stop-color="#ED1C24"/>
<stop offset="1" stop-color="#EF391F"/>
</radialGradient>
<radialGradient id="paint32_radial" cx="0" cy="0" r="1" gradientUnits="userSpaceOnUse" gradientTransform="translate(197.884 171.022) rotate(-152.05) scale(131.061 293.779)">
<stop stop-color="#ED1C24"/>
<stop offset="1" stop-color="#F36618"/>
</radialGradient>
<radialGradient id="paint33_radial" cx="0" cy="0" r="1" gradientUnits="userSpaceOnUse" gradientTransform="translate(197.884 171.022) rotate(-152.05) scale(131.061 293.78)">
<stop stop-color="#ED1C24"/>
<stop offset="1" stop-color="#F0431E"/>
</radialGradient>
<radialGradient id="paint34_radial" cx="0" cy="0" r="1" gradientUnits="userSpaceOnUse" gradientTransform="translate(197.884 171.022) rotate(-152.05) scale(131.061 293.779)">
<stop stop-color="#ED1C24"/>
<stop offset="1" stop-color="#F47515"/>
</radialGradient>
<radialGradient id="paint35_radial" cx="0" cy="0" r="1" gradientUnits="userSpaceOnUse" gradientTransform="translate(197.885 171.022) rotate(-152.05) scale(131.061 293.777)">
<stop stop-color="#ED1C24"/>
<stop offset="1" stop-color="#EF3620"/>
</radialGradient>
<radialGradient id="paint36_radial" cx="0" cy="0" r="1" gradientUnits="userSpaceOnUse" gradientTransform="translate(197.884 171.022) rotate(-152.05) scale(131.061 293.778)">
<stop stop-color="#ED1C24"/>
<stop offset="1" stop-color="#F46C17"/>
</radialGradient>
<radialGradient id="paint37_radial" cx="0" cy="0" r="1" gradientUnits="userSpaceOnUse" gradientTransform="translate(197.884 171.022) rotate(-152.05) scale(131.061 293.779)">
<stop stop-color="#ED1C24"/>
<stop offset="1" stop-color="#F0441D"/>
</radialGradient>
<radialGradient id="paint38_radial" cx="0" cy="0" r="1" gradientUnits="userSpaceOnUse" gradientTransform="translate(197.884 171.022) rotate(-152.05) scale(131.061 293.778)">
<stop stop-color="#ED1C24"/>
<stop offset="1" stop-color="#F47315"/>
</radialGradient>
<radialGradient id="paint39_radial" cx="0" cy="0" r="1" gradientUnits="userSpaceOnUse" gradientTransform="translate(197.886 171.022) rotate(-152.05) scale(131.062 293.777)">
<stop stop-color="#ED1C24"/>
<stop offset="1" stop-color="#F47315"/>
</radialGradient>
<radialGradient id="paint40_radial" cx="0" cy="0" r="1" gradientUnits="userSpaceOnUse" gradientTransform="translate(197.884 171.022) rotate(-152.05) scale(131.061 293.779)">
<stop stop-color="#ED1C24"/>
<stop offset="1" stop-color="#F36618"/>
</radialGradient>
<radialGradient id="paint41_radial" cx="0" cy="0" r="1" gradientUnits="userSpaceOnUse" gradientTransform="translate(197.884 171.021) rotate(-152.05) scale(131.06 293.774)">
<stop stop-color="#ED1C24"/>
<stop offset="1" stop-color="#F46D16"/>
</radialGradient>
<radialGradient id="paint42_radial" cx="0" cy="0" r="1" gradientUnits="userSpaceOnUse" gradientTransform="translate(197.884 171.022) rotate(-152.049) scale(131.061 293.78)">
<stop stop-color="#ED1C24"/>
<stop offset="1" stop-color="#F46D16"/>
</radialGradient>
<radialGradient id="paint43_radial" cx="0" cy="0" r="1" gradientUnits="userSpaceOnUse" gradientTransform="translate(197.884 171.022) rotate(-152.05) scale(131.061 293.779)">
<stop stop-color="#ED1C24"/>
<stop offset="1" stop-color="#F25A1A"/>
</radialGradient>
<radialGradient id="paint44_radial" cx="0" cy="0" r="1" gradientUnits="userSpaceOnUse" gradientTransform="translate(197.884 171.022) rotate(-152.05) scale(131.061 293.778)">
<stop stop-color="#ED1C24"/>
<stop offset="1" stop-color="#F14C1C"/>
</radialGradient>
<radialGradient id="paint45_radial" cx="0" cy="0" r="1" gradientUnits="userSpaceOnUse" gradientTransform="translate(197.884 171.018) rotate(-152.051) scale(131.059 293.768)">
<stop stop-color="#ED1C24"/>
<stop offset="1" stop-color="#F0401E"/>
</radialGradient>
<radialGradient id="paint46_radial" cx="0" cy="0" r="1" gradientUnits="userSpaceOnUse" gradientTransform="translate(302.652 172.931) rotate(-152.05) scale(146.831 329.129)">
<stop stop-color="#ED1C24"/>
<stop offset="1" stop-color="#F36418"/>
</radialGradient>
<radialGradient id="paint47_radial" cx="0" cy="0" r="1" gradientUnits="userSpaceOnUse" gradientTransform="translate(302.653 172.932) rotate(-152.05) scale(146.831 329.127)">
<stop stop-color="#ED1C24"/>
<stop offset="1" stop-color="#F36817"/>
</radialGradient>
<radialGradient id="paint48_radial" cx="0" cy="0" r="1" gradientUnits="userSpaceOnUse" gradientTransform="translate(302.657 172.932) rotate(-152.051) scale(146.834 329.127)">
<stop stop-color="#ED1C24"/>
<stop offset="1" stop-color="#F35E19"/>
</radialGradient>
<radialGradient id="paint49_radial" cx="0" cy="0" r="1" gradientUnits="userSpaceOnUse" gradientTransform="translate(302.652 172.931) rotate(-152.05) scale(146.831 329.128)">
<stop stop-color="#ED1C24"/>
<stop offset="1" stop-color="#F36817"/>
</radialGradient>
<radialGradient id="paint50_radial" cx="0" cy="0" r="1" gradientUnits="userSpaceOnUse" gradientTransform="translate(302.652 172.932) rotate(-152.05) scale(146.831 329.125)">
<stop stop-color="#ED1C24"/>
<stop offset="1" stop-color="#F2571A"/>
</radialGradient>
<radialGradient id="paint51_radial" cx="0" cy="0" r="1" gradientUnits="userSpaceOnUse" gradientTransform="translate(302.652 172.931) rotate(-152.05) scale(146.831 329.128)">
<stop stop-color="#ED1C24"/>
<stop offset="1" stop-color="#F36218"/>
</radialGradient>
<radialGradient id="paint52_radial" cx="0" cy="0" r="1" gradientUnits="userSpaceOnUse" gradientTransform="translate(302.652 172.931) rotate(-152.049) scale(146.831 329.13)">
<stop stop-color="#ED1C24"/>
<stop offset="1" stop-color="#F36817"/>
</radialGradient>
<radialGradient id="paint53_radial" cx="0" cy="0" r="1" gradientUnits="userSpaceOnUse" gradientTransform="translate(302.652 172.931) rotate(-152.05) scale(146.831 329.13)">
<stop stop-color="#ED1C24"/>
<stop offset="1" stop-color="#F35D19"/>
</radialGradient>
<radialGradient id="paint54_radial" cx="0" cy="0" r="1" gradientUnits="userSpaceOnUse" gradientTransform="translate(302.652 172.931) rotate(-152.049) scale(146.831 329.13)">
<stop stop-color="#ED1C24"/>
<stop offset="1" stop-color="#F2591A"/>
</radialGradient>
<radialGradient id="paint55_radial" cx="0" cy="0" r="1" gradientUnits="userSpaceOnUse" gradientTransform="translate(302.652 172.931) rotate(-152.049) scale(146.831 329.13)">
<stop stop-color="#ED1C24"/>
<stop offset="1" stop-color="#F35D19"/>
</radialGradient>
<radialGradient id="paint56_radial" cx="0" cy="0" r="1" gradientUnits="userSpaceOnUse" gradientTransform="translate(302.652 172.931) rotate(-152.05) scale(146.831 329.129)">
<stop stop-color="#ED1C24"/>
<stop offset="1" stop-color="#F35E19"/>
</radialGradient>
<radialGradient id="paint57_radial" cx="0" cy="0" r="1" gradientUnits="userSpaceOnUse" gradientTransform="translate(302.652 172.931) rotate(-152.05) scale(146.831 329.128)">
<stop stop-color="#ED1C24"/>
<stop offset="1" stop-color="#F2591A"/>
</radialGradient>
<radialGradient id="paint58_radial" cx="0" cy="0" r="1" gradientUnits="userSpaceOnUse" gradientTransform="translate(302.652 172.931) rotate(-152.05) scale(146.831 329.128)">
<stop stop-color="#ED1C24"/>
<stop offset="1" stop-color="#F14E1C"/>
</radialGradient>
<radialGradient id="paint59_radial" cx="0" cy="0" r="1" gradientUnits="userSpaceOnUse" gradientTransform="translate(302.652 172.931) rotate(-152.05) scale(146.831 329.128)">
<stop stop-color="#ED1C24"/>
<stop offset="1" stop-color="#F2581A"/>
</radialGradient>
<radialGradient id="paint60_radial" cx="0" cy="0" r="1" gradientUnits="userSpaceOnUse" gradientTransform="translate(302.652 172.931) rotate(-152.05) scale(146.832 329.129)">
<stop stop-color="#951F25"/>
<stop offset="1" stop-color="#DA2324"/>
</radialGradient>
<radialGradient id="paint61_radial" cx="0" cy="0" r="1" gradientUnits="userSpaceOnUse" gradientTransform="translate(302.652 172.931) rotate(-152.05) scale(146.831 329.129)">
<stop stop-color="#ED1C24"/>
<stop offset="1" stop-color="#F1491C"/>
</radialGradient>
<radialGradient id="paint62_radial" cx="0" cy="0" r="1" gradientUnits="userSpaceOnUse" gradientTransform="translate(302.652 172.931) rotate(-152.05) scale(146.831 329.129)">
<stop stop-color="#641B1F"/>
<stop offset="1" stop-color="#CF1E25"/>
</radialGradient>
<radialGradient id="paint63_radial" cx="0" cy="0" r="1" gradientUnits="userSpaceOnUse" gradientTransform="translate(302.652 172.931) rotate(-152.05) scale(146.831 329.129)">
<stop stop-color="#A62025"/>
<stop offset="1" stop-color="#DD2424"/>
</radialGradient>
<radialGradient id="paint64_radial" cx="0" cy="0" r="1" gradientUnits="userSpaceOnUse" gradientTransform="translate(302.65 172.931) rotate(-152.049) scale(146.83 329.128)">
<stop stop-color="#3F1214"/>
<stop offset="1" stop-color="#C71E25"/>
</radialGradient>
<radialGradient id="paint65_radial" cx="0" cy="0" r="1" gradientUnits="userSpaceOnUse" gradientTransform="translate(302.652 172.931) rotate(-152.049) scale(146.831 329.129)">
<stop stop-color="#BB1F25"/>
<stop offset="1" stop-color="#E32424"/>
</radialGradient>
<radialGradient id="paint66_radial" cx="0" cy="0" r="1" gradientUnits="userSpaceOnUse" gradientTransform="translate(302.65 172.931) rotate(-152.049) scale(146.83 329.128)">
<stop stop-color="#290C0D"/>
<stop offset="1" stop-color="#C21E25"/>
</radialGradient>
<radialGradient id="paint67_radial" cx="0" cy="0" r="1" gradientUnits="userSpaceOnUse" gradientTransform="translate(302.652 172.931) rotate(-152.05) scale(146.831 329.129)">
<stop stop-color="#8B1F24"/>
<stop offset="1" stop-color="#D71E25"/>
</radialGradient>
<radialGradient id="paint68_radial" cx="0" cy="0" r="1" gradientUnits="userSpaceOnUse" gradientTransform="translate(302.651 172.932) rotate(-152.049) scale(146.831 329.131)">
<stop stop-color="#AB1F25"/>
<stop offset="1" stop-color="#DF1D25"/>
</radialGradient>
<clipPath id="clip0">
<rect width="202" height="244" fill="white"/>
</clipPath>
</defs>
</svg>
