<svg width="244" height="244" viewBox="0 0 244 244" fill="none" xmlns="http://www.w3.org/2000/svg">
<g clip-path="url(#clip0)">
<path d="M104.022 79.2756L102.682 79.9319C102.502 80.0199 102.434 80.2238 102.533 80.3869C102.598 80.4952 102.723 80.5577 102.85 80.5615L103.039 80.5207L104.379 79.8631C104.56 79.7752 104.627 79.5713 104.528 79.4094C104.43 79.2463 104.205 79.1851 104.022 79.2756" fill="#C91E25"/>
<path d="M122.789 70.0828L121.448 70.7391C121.268 70.8271 121.201 71.031 121.299 71.1929C121.366 71.3025 121.489 71.3649 121.618 71.3687L121.804 71.3267L123.145 70.6703C123.326 70.5824 123.392 70.3785 123.293 70.2166C123.196 70.0535 122.969 69.9923 122.789 70.0828Z" fill="#C91E25"/>
<path d="M101.343 80.5883L100.001 81.2446C99.8215 81.3326 99.755 81.5365 99.8526 81.6996C99.9177 81.808 100.042 81.8717 100.171 81.8743L100.358 81.8335L101.698 81.1759C101.88 81.0879 101.946 80.8853 101.847 80.7221C101.749 80.559 101.523 80.4978 101.343 80.5883Z" fill="#C91E25"/>
<path d="M120.109 71.3956L118.768 72.0532C118.587 72.1412 118.521 72.3438 118.62 72.5069C118.685 72.6165 118.808 72.679 118.937 72.6815L119.124 72.6407L120.464 71.9844C120.645 71.8965 120.712 71.6925 120.612 71.5294C120.515 71.3676 120.29 71.3051 120.109 71.3956" fill="#C91E25"/>
<path d="M126.537 70.6908L127.681 71.3408L127.869 71.3918L128.193 71.235C128.304 71.0783 128.251 70.8718 128.077 70.7724L126.934 70.1237C126.761 70.0243 126.53 70.0702 126.42 70.2282C126.311 70.385 126.363 70.5914 126.537 70.6908" fill="#C91E25"/>
<path d="M109.385 76.6489L108.044 77.3052C107.864 77.3932 107.797 77.5971 107.895 77.7602C107.961 77.8686 108.085 77.9323 108.213 77.9348L108.4 77.8941L109.741 77.2364C109.922 77.1485 109.988 76.9458 109.889 76.7827C109.792 76.6196 109.565 76.5584 109.385 76.6489Z" fill="#C91E25"/>
<path d="M114.747 74.0222L113.405 74.6786C113.225 74.7678 113.158 74.9704 113.257 75.1336C113.322 75.2419 113.446 75.3056 113.574 75.3082L113.762 75.2674L115.102 74.611C115.283 74.5218 115.35 74.3192 115.251 74.1561C115.153 73.9929 114.927 73.9317 114.747 74.0222" fill="#C91E25"/>
<path d="M106.703 77.9616L105.364 78.618C105.183 78.7072 105.117 78.9099 105.216 79.073C105.281 79.1813 105.404 79.245 105.533 79.2476L105.72 79.2068L107.06 78.5505C107.241 78.4612 107.308 78.2586 107.209 78.0955C107.111 77.9323 106.884 77.8724 106.703 77.9616" fill="#C91E25"/>
<path d="M117.426 72.7082L116.087 73.3659C115.906 73.4538 115.84 73.6577 115.939 73.8196C116.004 73.9292 116.127 73.9917 116.256 73.9942L116.443 73.9534L117.783 73.2971C117.964 73.2091 118.031 73.0052 117.932 72.8421C117.834 72.6802 117.608 72.619 117.426 72.7082" fill="#C91E25"/>
<path d="M191.341 74.5894C191.267 74.9424 191.24 75.3006 191.31 76.064C193.136 73.4271 194.509 74.281 193.107 76.352H193.109C194.221 74.9476 193.862 73.0422 191.784 75.1464V75.1528C191.637 74.9654 191.49 74.7768 191.341 74.5894" fill="#C91E25"/>
<path d="M137.418 77.9106C137.38 79.268 138.571 80.3959 140.079 80.4303C141.586 80.4647 142.839 79.3916 142.877 78.0343C142.914 76.6769 141.723 75.549 140.216 75.5146C138.709 75.4815 137.456 76.5533 137.418 77.9106Z" fill="#C91E25"/>
<path d="M136.083 75.3171C135.91 75.219 135.68 75.2649 135.569 75.4229C135.46 75.5797 135.513 75.7861 135.687 75.8856L136.83 76.5342L137.02 76.5852L137.344 76.4298C137.453 76.273 137.401 76.0652 137.227 75.9671L136.083 75.3171" fill="#C91E25"/>
<path d="M133.796 74.0184C133.623 73.9203 133.392 73.9662 133.282 74.1242C133.173 74.281 133.225 74.4874 133.399 74.5868L134.543 75.2356L134.731 75.2865L135.055 75.131C135.166 74.9743 135.113 74.7666 134.939 74.6684L133.796 74.0184" fill="#C91E25"/>
<path d="M131.508 72.721C131.336 72.6228 131.106 72.6675 130.995 72.8255C130.886 72.9822 130.938 73.1887 131.112 73.2881L132.256 73.9381L132.444 73.9891L132.77 73.8323C132.879 73.6756 132.826 73.4691 132.652 73.3697L131.508 72.721Z" fill="#C91E25"/>
<path d="M129.221 71.4223C129.048 71.3229 128.818 71.3687 128.707 71.5268C128.597 71.6835 128.651 71.89 128.823 71.9894L129.968 72.6394L130.158 72.6904L130.482 72.5336C130.591 72.3769 130.539 72.1704 130.365 72.071L129.221 71.4223" fill="#C91E25"/>
<path d="M186.848 76.626C186.009 78.4523 185.192 80.4825 186.956 79.6031C188.156 78.8155 186.694 77.1485 186.848 76.626Z" fill="#C91E25"/>
<path d="M124.847 70.5468C125.841 70.5685 126.668 69.8624 126.692 68.9677C126.717 68.0731 125.932 67.33 124.938 67.3071C123.944 67.2842 123.119 67.9915 123.094 68.8862C123.07 69.7808 123.855 70.5238 124.847 70.5468Z" fill="#C91E25"/>
<path d="M112.066 75.3349L110.724 75.9925C110.545 76.0805 110.478 76.2831 110.576 76.4462C110.642 76.5558 110.766 76.6183 110.894 76.6208L111.081 76.5801L112.422 75.9237C112.603 75.8358 112.669 75.6319 112.57 75.4687C112.472 75.3069 112.247 75.2444 112.066 75.3349" fill="#C91E25"/>
<path d="M97.36 82.4975C97.3445 83.0685 97.8455 83.5426 98.4782 83.5566C99.1123 83.5706 99.6389 83.1194 99.6544 82.5498C99.6714 81.9788 99.1704 81.5047 98.5363 81.4907C97.9021 81.4754 97.3756 81.9266 97.36 82.4975Z" fill="#C91E25"/>
<path d="M126.716 132.966L127.036 132.816C127.149 132.662 127.102 132.453 126.931 132.351L125.688 131.612C125.517 131.511 125.286 131.552 125.172 131.706C125.058 131.861 125.106 132.069 125.276 132.171L126.519 132.91L126.716 132.966Z" fill="#C91E25"/>
<path d="M96.3594 139.475L97.2568 138.405C97.3799 138.257 97.3474 138.046 97.1832 137.934C97.0204 137.823 96.7854 137.851 96.6623 138.001L95.7649 139.071C95.6417 139.219 95.6743 139.429 95.8385 139.54L96.0522 139.608L96.3594 139.475" fill="#C91E25"/>
<path d="M124.232 131.487L124.552 131.336C124.665 131.182 124.617 130.974 124.447 130.871L123.204 130.132C123.033 130.031 122.801 130.072 122.688 130.226C122.574 130.382 122.621 130.59 122.792 130.691L124.035 131.431L124.232 131.487Z" fill="#C91E25"/>
<path d="M103.534 130.911L104.43 129.839C104.555 129.692 104.522 129.481 104.358 129.37C104.195 129.259 103.96 129.287 103.837 129.436L102.94 130.507C102.815 130.655 102.848 130.865 103.012 130.976L103.227 131.043L103.534 130.911" fill="#C91E25"/>
<path d="M101.739 133.052L102.637 131.981C102.761 131.833 102.729 131.623 102.565 131.511C102.402 131.4 102.167 131.428 102.042 131.577L101.146 132.648C101.022 132.796 101.054 133.006 101.218 133.117L101.434 133.184L101.739 133.052Z" fill="#C91E25"/>
<path d="M114.294 125.569L114.614 125.42C114.727 125.265 114.681 125.057 114.509 124.955L113.267 124.215C113.095 124.114 112.865 124.156 112.751 124.31C112.638 124.464 112.685 124.672 112.856 124.774L114.097 125.515L114.294 125.569" fill="#C91E25"/>
<path d="M98.1527 137.334L99.0501 136.263C99.1747 136.116 99.1422 135.905 98.9765 135.793C98.8138 135.682 98.5802 135.71 98.4556 135.859L97.5597 136.93C97.4351 137.078 97.4677 137.288 97.6319 137.399L97.847 137.467L98.1527 137.334" fill="#C91E25"/>
<path d="M99.9475 135.193L100.843 134.122C100.967 133.975 100.934 133.764 100.77 133.652C100.607 133.541 100.372 133.569 100.248 133.718L99.3516 134.789C99.2284 134.937 99.261 135.147 99.4252 135.259L99.6403 135.325L99.9475 135.193Z" fill="#C91E25"/>
<path d="M109.594 124.995C111.923 125.048 113.86 123.39 113.918 121.292C113.976 119.195 112.136 117.451 109.806 117.399C107.476 117.347 105.54 119.005 105.482 121.102C105.422 123.199 107.264 124.942 109.594 124.995" fill="#C91E25"/>
<path d="M119.262 128.527L119.582 128.378C119.695 128.223 119.649 128.015 119.477 127.913L118.236 127.174C118.063 127.072 117.834 127.114 117.719 127.268C117.606 127.422 117.653 127.631 117.824 127.733L119.067 128.473L119.262 128.527" fill="#C91E25"/>
<path d="M115.235 125.789C115.122 125.944 115.169 126.152 115.34 126.254L116.581 126.994L116.778 127.049L117.098 126.899C117.211 126.744 117.165 126.537 116.993 126.435L115.751 125.694C115.581 125.592 115.349 125.634 115.235 125.789Z" fill="#C91E25"/>
<path d="M106.599 126.693L106.814 126.761L107.121 126.628L108.017 125.557C108.141 125.409 108.109 125.199 107.945 125.088C107.782 124.977 107.547 125.005 107.424 125.154L106.526 126.224C106.402 126.372 106.434 126.583 106.599 126.693" fill="#C91E25"/>
<path d="M121.746 130.007L122.066 129.857C122.181 129.703 122.133 129.495 121.961 129.393L120.72 128.654C120.549 128.552 120.317 128.594 120.203 128.748C120.09 128.902 120.137 129.11 120.308 129.212L121.551 129.952L121.746 130.007" fill="#C91E25"/>
<path d="M105.326 128.77L106.223 127.698C106.348 127.551 106.314 127.34 106.151 127.229C105.987 127.118 105.753 127.146 105.629 127.295L104.733 128.366C104.608 128.513 104.641 128.724 104.805 128.835L105.02 128.902L105.326 128.77" fill="#C91E25"/>
<path d="M182.608 94.1142L182.1 95.3747C182.029 95.5493 182.128 95.7417 182.322 95.8042L182.439 95.8246C182.595 95.8284 182.742 95.743 182.799 95.6041L183.308 94.3436C183.378 94.1703 183.279 93.9779 183.085 93.9141C182.894 93.8491 182.679 93.9409 182.608 94.1142Z" fill="#C91E25"/>
<path d="M181.59 96.6352L181.081 97.8956C181.011 98.069 181.11 98.2614 181.303 98.3251L181.422 98.3455C181.577 98.3481 181.725 98.264 181.78 98.125L182.289 96.8646C182.36 96.69 182.261 96.4975 182.067 96.4351C181.875 96.3701 181.661 96.4606 181.59 96.6352" fill="#C91E25"/>
<path d="M183.34 93.2833L183.457 93.3037C183.613 93.3075 183.76 93.2221 183.817 93.0832L184.326 91.824C184.396 91.6494 184.296 91.4583 184.104 91.3945C183.91 91.3283 183.696 91.42 183.627 91.5946L183.117 92.8538C183.047 93.0284 183.146 93.2209 183.34 93.2833Z" fill="#C91E25"/>
<path d="M180.572 99.1548L180.064 100.415C179.994 100.59 180.093 100.782 180.287 100.845L180.404 100.865C180.56 100.869 180.707 100.784 180.764 100.645L181.272 99.3842C181.342 99.2108 181.242 99.0171 181.049 98.9547C180.857 98.8897 180.642 98.9814 180.572 99.1548Z" fill="#C91E25"/>
<path d="M185.12 88.8737C184.928 88.8074 184.713 88.9004 184.643 89.0737L184.135 90.3341C184.064 90.5075 184.163 90.7012 184.357 90.7636L184.475 90.784C184.63 90.7878 184.779 90.7025 184.834 90.5636L185.342 89.3032C185.413 89.1286 185.314 88.9361 185.12 88.8737Z" fill="#C91E25"/>
<path d="M186.796 87.6705C186.813 87.0996 186.312 86.6255 185.678 86.6114C185.044 86.5974 184.517 87.0486 184.502 87.6183C184.486 88.1892 184.987 88.6633 185.62 88.6786C186.254 88.6927 186.78 88.2415 186.796 87.6705" fill="#C91E25"/>
<path d="M179.386 103.386C179.542 103.389 179.689 103.304 179.744 103.165L180.254 101.905C180.323 101.732 180.224 101.538 180.032 101.476C179.839 101.411 179.624 101.502 179.555 101.676L179.047 102.936C178.976 103.109 179.075 103.302 179.269 103.366L179.386 103.386Z" fill="#C91E25"/>
<path d="M49.8884 213.557C49.0547 213.189 48.1149 212.641 47.0745 211.867C43.9238 209.289 44.7787 206.052 43.8431 202.152H42.7632C43.8375 204.88 42.5282 212.333 49.8884 213.557" fill="#F0431D"/>
<path d="M37.7922 195.98C39.2062 197.843 40.7349 199.695 42.4192 201.528H42.4164C42.5593 201.688 42.6669 201.909 42.7632 202.152H43.8431C43.4836 200.653 42.8679 199.059 41.6436 197.361C37.0888 191.99 43.2218 188.852 47.5643 188.104C48.1276 188.007 48.6301 187.733 48.9882 187.33C51.1085 184.939 52.5027 183.198 53.4892 181.824L50.1799 176.661L37.7922 195.98Z" fill="#EF391F"/>
<path d="M27.6493 176.662C29.7243 183.233 33.0194 189.689 37.7922 195.98L50.1799 176.662H27.6493Z" fill="#EE2D21"/>
<path d="M53.4892 181.824C55.1551 179.505 55.6633 178.229 56.5295 176.662H50.1799L53.4892 181.824" fill="#F0421E"/>
<path d="M33.8347 151.17L25.1638 164.69C25.6055 168.715 26.4023 172.709 27.6493 176.661H50.1799L33.8347 151.17Z" fill="#EF381F"/>
<path d="M24.9784 151.17C24.6359 155.704 24.6741 160.216 25.1638 164.69L33.8347 151.17H24.9784Z" fill="#EF3520"/>
<path d="M50.1799 176.661H56.5295C57.1933 175.46 58.0666 174.087 59.843 171.933C60.2365 171.457 60.5535 170.923 60.7489 170.354C62.4021 165.565 66.9215 162.413 71.4423 158.839L66.5237 151.17L50.1799 176.661" fill="#EF3620"/>
<path d="M50.1799 176.661L66.5238 151.17H33.8347L50.1799 176.661Z" fill="#F03D1F"/>
<path d="M26.5595 139.826C25.8093 143.616 25.2644 147.4 24.9785 151.17H33.8347L26.5595 139.826" fill="#EF3620"/>
<path d="M71.4423 158.839C74.2562 156.615 77.0587 154.219 79.1819 151.17H66.5238L71.4423 158.839Z" fill="#F0441D"/>
<path d="M33.8347 151.17H66.5238L50.1799 125.679L33.8347 151.17Z" fill="#F0441D"/>
<path d="M50.1799 125.679H49.8784L39.2529 142.354C39.8644 137.065 40.9146 131.477 42.3484 125.679H30.2254C28.7463 130.392 27.4936 135.113 26.5594 139.826L33.8347 151.17L50.1799 125.679" fill="#EF381F"/>
<path d="M66.5238 151.17H79.1819C80.368 149.467 81.3517 147.569 81.9872 145.368C82.736 142.77 83.9093 140.277 85.6829 138.118C86.818 136.736 87.8513 135.773 88.8209 134.96L82.8704 125.679L66.5238 151.17" fill="#F14A1C"/>
<path d="M66.5238 151.17L82.8691 125.679H50.1799L66.5238 151.17" fill="#F2531B"/>
<path d="M49.8784 125.679H50.1792L50.0281 125.444L49.8784 125.679" fill="#F14A1C"/>
<path d="M44.7023 117.138L37.5148 105.926C34.817 112.464 32.3018 119.063 30.2254 125.679H42.3484C43.0406 122.879 43.8219 120.032 44.7023 117.138" fill="#F14A1C"/>
<path d="M88.8208 134.96C90.1669 133.828 91.387 132.973 92.5717 131.735C92.7232 131.484 92.8732 131.232 93.0246 130.981C93.0685 129.019 93.2115 127.266 93.4521 125.679H82.869L88.8208 134.96Z" fill="#F14E1C"/>
<path d="M82.8691 125.679L66.5238 100.187L50.1799 125.679H82.8691Z" fill="#F25D19"/>
<path d="M50.0285 125.443L50.1799 125.679L66.5238 100.187H66.1204L50.0285 125.443Z" fill="#F2571A"/>
<path d="M50.7433 100.187H39.9266C39.1114 102.094 38.306 104.008 37.5148 105.926L44.7023 117.138C46.3767 111.631 48.3951 105.964 50.7433 100.187Z" fill="#F2571A"/>
<path d="M99.2142 100.187L82.869 125.679H93.4521C94.5773 118.25 97.9913 114.619 104.873 112.111C105.207 111.599 105.536 111.079 105.871 110.568L99.2142 100.187Z" fill="#F2591A"/>
<path d="M99.2143 100.187H66.5238L82.869 125.679L99.2143 100.187Z" fill="#F36118"/>
<path d="M66.1204 100.187H66.5237L66.3214 99.8711L66.1204 100.187" fill="#F36118"/>
<path d="M50.6485 75.428C50.4588 75.8817 50.2663 76.338 50.0738 76.7942C50.4092 76.5661 50.7461 76.3278 51.0816 76.1035L50.6485 75.428" fill="#F36118"/>
<path d="M57.2287 85.69L51.325 76.482L47.9408 81.794C45.3321 87.826 42.5848 93.9715 39.9267 100.187H50.7433C52.681 95.418 54.8395 90.5789 57.2287 85.69Z" fill="#F36118"/>
<path d="M112.805 100.187H99.2143L105.871 110.568C108.158 107.068 110.474 103.615 112.805 100.187Z" fill="#F25C19"/>
<path d="M66.5238 100.187H99.2143L92.416 89.5835C90.9072 90.1978 89.4734 89.4153 86.7388 88.634C84.6142 88.0274 81.707 87.4207 77.3701 87.4666C77.1139 87.4691 76.8365 87.2882 76.8393 87.0575C76.8478 86.591 77.6858 86.2597 78.9016 86.0124L78.6327 85.8442C78.0071 85.0464 79.8004 84.283 82.3765 84.7163C83.6928 84.938 85.3588 84.9929 86.6765 84.9941C87.6163 85.0107 87.6475 84.2804 86.8761 83.7222C84.6977 82.1483 85.4734 80.912 87.111 81.3096L82.869 74.6952L66.5238 100.187" fill="#F36618"/>
<path d="M66.3214 99.871L66.5238 100.187L82.8691 74.6952H82.3623L66.3214 99.871" fill="#F36717"/>
<path d="M51.9436 75.5134L51.325 76.482L57.2287 85.69C59.0079 82.0463 60.9131 78.3784 62.9385 74.6952H50.95C50.8495 74.9399 50.7504 75.1833 50.6485 75.428L51.0816 76.1035C51.3689 75.9111 51.6562 75.702 51.9436 75.5134" fill="#F36717"/>
<path d="M112.805 100.187C116.086 95.3632 119.405 90.6069 122.763 85.9283L116.799 76.6285C115.721 76.9892 114.642 77.3856 113.567 77.8036L99.2143 100.187H112.805" fill="#F14C1C"/>
<path d="M113.567 77.8036C107.671 80.0989 101.935 83.1321 97.5426 85.755C96.2164 86.5477 95.0048 87.4908 93.9248 88.5422C93.3841 89.0673 92.8972 89.3885 92.416 89.5835L99.2142 100.187L113.567 77.8036" fill="#F2531B"/>
<path d="M87.111 81.3097C87.6177 81.432 88.2037 81.7073 88.8152 82.1827C89.2582 82.5281 89.9574 82.4899 90.3905 82.1343C91.9559 80.8496 94.7726 80.3934 95.9021 80.4393C99.4959 78.6104 100.917 76.8478 103.196 74.6952H82.869L87.111 81.3097" fill="#F2531B"/>
<path d="M71.8471 59.6539C72.075 59.2945 72.3128 58.9478 72.5421 58.5897L66.5238 49.2046L52.2974 71.3918C51.8572 72.4891 51.4085 73.5902 50.95 74.6952H62.9385C65.6901 69.6967 68.6483 64.6753 71.8471 59.6539" fill="#F25C19"/>
<path d="M82.3623 74.6951H82.8691L82.6157 74.2989L82.3623 74.6951Z" fill="#F25C19"/>
<path d="M59.6067 49.2046C57.9789 56.3084 55.3731 63.7361 52.2974 71.3918L66.5238 49.2046H59.6067Z" fill="#F2551A"/>
<path d="M176.591 100.187H175.065C175.427 100.967 175.709 101.154 176.591 100.187Z" fill="#F03C1F"/>
<path d="M129.106 77.2289C128.068 76.4884 127.013 75.6549 126.036 74.6952H124.301C121.872 75.1031 119.342 75.7747 116.799 76.6286L122.763 85.9283C124.863 83.0009 126.976 80.0977 129.106 77.2289" fill="#F0411E"/>
<path d="M82.869 74.6952H103.196C104.993 72.9988 107.329 71.0604 111.687 68.6542L99.2143 49.2046L82.869 74.6952Z" fill="#F14E1C"/>
<path d="M82.6156 74.2988L82.869 74.6952L99.2143 49.2046H98.6042L82.6156 74.2988Z" fill="#F14F1B"/>
<path d="M66.5238 49.2045L72.5421 58.5897C74.6001 55.3907 76.7006 52.2568 78.8464 49.2045H66.5238Z" fill="#F14F1B"/>
<path d="M61.073 40.7012C60.7687 43.4783 60.269 46.3152 59.6066 49.2045H66.5238L61.073 40.7012Z" fill="#F1471D"/>
<path d="M168.581 93.9715C173.502 95.7086 174.431 98.8234 175.065 100.187H176.591L176.698 100.074C179.94 94.8954 182.013 90.5737 182.264 86.8204C182.289 86.4457 182.245 86.0723 182.185 85.7002C181.661 82.4784 182.689 80.7654 183.61 78.8576L180.94 74.6952L168.581 93.9715" fill="#F03A1F"/>
<path d="M178.632 74.6952L173.616 82.5702C173.637 84.1008 173.75 84.7278 172.173 84.8323L167.95 91.4621C168.255 92.5684 168.197 93.4898 168.314 93.867L168.581 93.9716L180.94 74.6952H178.632Z" fill="#F0401E"/>
<path d="M131.905 49.2045L122.831 63.3562C123.6 63.0861 124.44 62.9918 125.166 63.4302C129.868 65.2246 133.547 66.4252 136.396 67.5964C137.726 65.8695 139.061 64.1566 140.4 62.4526L131.905 49.2045Z" fill="#F03B1F"/>
<path d="M125.797 74.4718C125.305 74.5318 124.804 74.6109 124.301 74.6951H126.036L125.797 74.4718Z" fill="#F03B1F"/>
<path d="M99.2143 49.2045L111.687 68.6541C114.021 67.3656 116.934 65.9433 120.659 64.3528C121.08 64.1731 121.493 63.9794 121.893 63.7678C122.184 63.6149 122.502 63.4709 122.83 63.3562L131.905 49.2045H99.2143" fill="#EF3320"/>
<path d="M98.6042 49.2045H99.2143L98.9085 48.7268L98.6042 49.2045Z" fill="#EF3120"/>
<path d="M78.8464 49.2045C82.4161 44.1219 86.099 39.2547 89.8583 34.6118L82.869 23.7126L66.5238 49.2045H78.8464Z" fill="#EF3120"/>
<path d="M82.8705 23.7126H59.9647C61.4608 29.0628 61.7255 34.7444 61.073 40.7012L66.5237 49.2045L82.8705 23.7126Z" fill="#EF2E21"/>
<path d="M183.61 78.8576C184.083 77.8775 184.527 76.8465 184.717 75.53C184.728 75.1463 184.812 74.8851 184.926 74.6952H180.94L183.61 78.8576" fill="#E82124"/>
<path d="M186.493 75.1157C186.497 74.9632 186.507 74.8387 186.514 74.6963H186.211C186.329 74.8171 186.432 74.9543 186.493 75.1157Z" fill="#E82124"/>
<path d="M188.916 75.061C188.956 74.9329 188.998 74.8174 189.04 74.697H188.897C188.902 74.8187 188.913 74.9367 188.916 75.061Z" fill="#E82124"/>
<path d="M180.94 74.6952L179.783 72.8892L178.632 74.6952H180.94Z" fill="#E61D25"/>
<path d="M151.098 49.2045H131.905L140.4 62.4526C143.937 57.955 147.504 53.5364 151.098 49.2045Z" fill="#E11D25"/>
<path d="M131.905 49.2045L115.56 23.7126L99.2143 49.2045H131.905Z" fill="#E12124"/>
<path d="M99.2072 23.7126H82.869L89.8583 34.6119C92.9284 30.8191 96.0508 27.1868 99.2072 23.7126" fill="#DF2A23"/>
<path d="M99.2142 49.2045L115.56 23.7126H114.846L98.9085 48.7265L99.2142 49.2045Z" fill="#DF2A23"/>
<path d="M82.8705 23.7126L73.1763 8.59611C68.8479 8.19083 64.5295 7.98692 60.2393 8.0226L55.9889 14.6524C57.7893 17.5492 59.0886 20.5748 59.9648 23.7126H82.8705Z" fill="#E33B20"/>
<path d="M51.1665 8.43553C53.0688 10.4339 54.6569 12.51 55.9888 14.6524L60.2393 8.0226C57.199 8.04681 54.1728 8.17936 51.1665 8.43553Z" fill="#EA2922"/>
<path d="M184.926 74.6951C185.239 74.1802 185.829 74.3 186.211 74.6951H186.514C186.762 69.1244 188.694 71.1432 188.897 74.6951H189.041C190.129 71.551 191.807 71.4185 191.691 72.9873C191.58 73.687 191.47 74.0617 191.389 74.3829C192.465 71.1967 190.65 71.3484 189.79 72.6649V72.6662C188.395 70.9648 186.943 69.2939 185.467 67.6358L180.94 74.6951H184.926" fill="#DB1E25"/>
<path d="M180.94 74.6952L185.467 67.6359C185.014 67.1261 184.561 66.6176 184.1 66.1129L179.783 72.8893L180.94 74.6952" fill="#D61E25"/>
<path d="M151.098 49.2045C153.106 46.783 155.12 44.3806 157.144 42.0127C152.481 38.6022 147.639 35.4033 142.666 32.421L131.905 49.2045H151.098" fill="#CB1E25"/>
<path d="M131.905 49.2045L142.666 32.421C137.39 29.254 131.964 26.3354 126.423 23.7126H115.56L131.905 49.2045Z" fill="#C61E25"/>
<path d="M115.201 23.1537L114.846 23.7126H115.56L115.201 23.1537" fill="#C32424"/>
<path d="M99.2072 23.7126C101.698 20.9725 104.208 18.328 106.733 15.7982C101.456 14.042 96.1286 12.5597 90.7812 11.3745L82.869 23.7126H99.2072Z" fill="#C32424"/>
<path d="M90.7812 11.3757C84.92 10.0783 79.0389 9.14286 73.1762 8.59611L82.8705 23.7126L90.7812 11.3757" fill="#B01D23"/>
<path d="M126.423 23.7126C123.629 22.3897 120.808 21.1369 117.963 19.9644L115.56 23.7126H126.423Z" fill="#BA1D24"/>
<path d="M115.559 23.7126L117.963 19.9644C117.77 19.8853 117.576 19.8089 117.384 19.7298L115.201 23.1544L115.559 23.7126Z" fill="#CA1E25"/>
<path d="M51.0816 76.1034C50.7461 76.3277 50.4092 76.566 50.0738 76.7942C49.376 78.4523 48.6655 80.1167 47.9408 81.7939L51.325 76.4819L51.0816 76.1034" fill="#F36118"/>
<path d="M47.9408 81.7939C48.6655 80.1167 49.376 78.4523 50.0738 76.7942C50.4092 76.566 50.7461 76.3277 51.0816 76.1034L51.325 76.4819L47.9408 81.7939" fill="url(#paint0_radial)"/>
<path d="M51.0816 76.1035L51.325 76.482L51.9436 75.5134C51.6562 75.702 51.3689 75.911 51.0816 76.1035Z" fill="#F36717"/>
<path d="M51.325 76.482L51.0816 76.1035C51.3689 75.911 51.6562 75.702 51.9436 75.5134L51.325 76.482Z" fill="url(#paint1_radial)"/>
<path d="M93.0156 131.269L93.0255 130.981C92.8738 131.232 92.7235 131.484 92.5717 131.735C92.7192 131.581 92.8681 131.437 93.0156 131.269" fill="#F14E1C"/>
<path d="M92.5717 131.735C92.7235 131.484 92.8738 131.232 93.0255 130.981L93.0156 131.269C92.8681 131.437 92.7192 131.581 92.5717 131.735" fill="url(#paint2_radial)"/>
<path d="M104.873 112.111C105.397 111.921 105.94 111.735 106.505 111.557L105.871 110.568C105.536 111.079 105.207 111.599 104.873 112.111Z" fill="#F2591A"/>
<path d="M104.873 112.111C105.207 111.599 105.536 111.079 105.871 110.568L106.505 111.557C105.94 111.735 105.397 111.921 104.873 112.111Z" fill="url(#paint3_radial)"/>
<path d="M105.871 110.568L106.505 111.557C106.826 111.455 107.135 111.35 107.469 111.251C111.678 106.847 114.508 103.257 116.821 100.187H112.805C110.474 103.615 108.158 107.068 105.871 110.568" fill="#F25C19"/>
<path d="M106.505 111.557L105.871 110.568C108.158 107.068 110.474 103.615 112.805 100.187H116.821C114.508 103.257 111.678 106.847 107.469 111.251C107.135 111.35 106.826 111.455 106.505 111.557" fill="url(#paint4_radial)"/>
<path d="M112.805 100.187H116.821C119.94 96.0476 122.126 92.8691 125.378 90.0092L122.763 85.9284C119.405 90.6069 116.086 95.3633 112.805 100.187Z" fill="#F14C1C"/>
<path d="M116.821 100.187H112.805C116.086 95.3633 119.405 90.6069 122.763 85.9284L125.378 90.0092C122.126 92.8691 119.94 96.0476 116.821 100.187Z" fill="url(#paint5_radial)"/>
<path d="M125.378 90.0091C126.983 88.5983 128.838 87.2588 131.221 85.9207C131.828 83.5897 132.723 82.0144 134.256 80.9094C133.265 79.8797 131.234 78.7441 129.106 77.2288C126.976 80.0976 124.863 83.0008 122.763 85.9283L125.378 90.0091Z" fill="#F0411E"/>
<path d="M125.378 90.0091L122.763 85.9283C124.863 83.0008 126.976 80.0976 129.106 77.2288C131.234 78.7441 133.265 79.8797 134.256 80.9094C132.723 82.0144 131.828 83.5897 131.221 85.9207C128.838 87.2588 126.983 88.5983 125.378 90.0091Z" fill="url(#paint6_radial)"/>
<path d="M176.513 74.6951C176.135 78.5453 174.103 79.4961 173.703 80.6278C173.611 81.3976 173.607 82.0361 173.616 82.5701L178.632 74.6951H176.513" fill="#F0401E"/>
<path d="M173.616 82.5701C173.614 82.4605 173.613 82.3483 173.613 82.2311C173.613 81.771 173.63 81.2408 173.703 80.6278C174.103 79.4961 176.135 78.5453 176.513 74.6951H178.632L173.616 82.5701" fill="url(#paint7_radial)"/>
<path d="M150.685 75.9786C150.757 75.5402 150.846 75.1145 150.941 74.6952H149.53C150.062 75.117 150.454 75.5708 150.685 75.9786Z" fill="#F0401E"/>
<path d="M150.685 75.9786C150.454 75.5708 150.062 75.117 149.53 74.6952H150.941C150.846 75.1145 150.757 75.5402 150.685 75.9786Z" fill="url(#paint8_radial)"/>
<path d="M171.193 84.8425C171.705 85.9691 169.859 86.419 169.859 86.419C170.045 87.538 167.72 87.7699 167.72 87.7699C168.149 88.5983 167.729 89.0648 166.864 89.3158C167.443 90.0461 167.763 90.7879 167.95 91.4621L172.173 84.8323C171.899 84.8501 171.579 84.854 171.193 84.8425Z" fill="#F0401E"/>
<path d="M167.95 91.4621C167.763 90.7879 167.443 90.0461 166.864 89.3158C167.497 89.1323 167.89 88.8341 167.89 88.3638C167.89 88.1905 167.835 87.993 167.72 87.7699C167.72 87.7699 169.866 87.5558 169.869 86.5464C169.87 86.5056 169.866 86.4623 169.859 86.419C169.859 86.419 171.285 86.0711 171.282 85.2223C171.282 85.1063 171.255 84.9788 171.193 84.8425C171.334 84.8476 171.469 84.8488 171.593 84.8488C171.808 84.8488 172.001 84.8437 172.173 84.8323L167.95 91.4621" fill="url(#paint9_radial)"/>
<path d="M136.396 67.5964C140.137 69.1321 142.447 70.6169 143.738 73.3238C145.289 73.1582 146.561 73.3251 147.588 73.6616L140.4 62.4526C139.061 64.1566 137.726 65.8695 136.396 67.5964" fill="#F03B1F"/>
<path d="M147.588 73.6616C146.833 73.4143 145.948 73.2588 144.917 73.2588C144.543 73.2588 144.15 73.2792 143.738 73.3238C142.447 70.6169 140.137 69.1321 136.396 67.5964C137.726 65.8695 139.061 64.1566 140.4 62.4526L147.588 73.6616" fill="url(#paint10_radial)"/>
<path d="M179.783 72.8893L164.595 49.2046L148.628 74.1076C148.969 74.2886 149.266 74.4861 149.53 74.6952H150.941C154.346 59.7367 171.767 57.495 178.356 72.2112C179.662 75.1425 176.523 74.6276 176.523 74.6276L176.513 74.6952H178.632L179.783 72.8893" fill="#E61D25"/>
<path d="M178.632 74.6952H176.513L176.523 74.6276C176.523 74.6276 176.735 74.662 177.027 74.662C177.662 74.662 178.676 74.4963 178.674 73.4372C178.674 73.1174 178.581 72.7159 178.356 72.2112C175.323 65.4349 169.994 62.2551 164.792 62.2551C158.697 62.2551 152.778 66.624 150.941 74.6952H149.53C149.266 74.4861 148.969 74.2886 148.628 74.1076L164.595 49.2046L179.783 72.8893L178.632 74.6952" fill="url(#paint11_radial)"/>
<path d="M151.098 49.2045C147.504 53.5364 143.937 57.955 140.4 62.4526L147.588 73.6615C147.971 73.7877 148.312 73.9406 148.628 74.1076L164.595 49.2045H151.098" fill="#E11D25"/>
<path d="M148.628 74.1076C148.312 73.9406 147.971 73.7877 147.588 73.6615L140.4 62.4526C143.937 57.955 147.504 53.5364 151.098 49.2045H164.595L148.628 74.1076" fill="url(#paint12_radial)"/>
<path d="M179.783 72.8892L184.1 66.1128C178.657 60.1496 172.704 54.4884 166.348 49.2045H164.595L179.783 72.8892Z" fill="#D61E25"/>
<path d="M179.783 72.8892L164.595 49.2045H166.348C172.704 54.4884 178.657 60.1496 184.1 66.1128L179.783 72.8892Z" fill="url(#paint13_radial)"/>
<path d="M164.595 49.2045L162.704 46.2554C160.878 44.8127 159.03 43.3916 157.144 42.0127C155.12 44.3806 153.106 46.783 151.098 49.2045H164.595Z" fill="#CB1E25"/>
<path d="M164.595 49.2045H151.098C153.106 46.783 155.12 44.3806 157.144 42.0127C159.03 43.3916 160.878 44.8127 162.704 46.2554L164.595 49.2045Z" fill="url(#paint14_radial)"/>
<path d="M166.348 49.2045C165.965 48.8871 165.592 48.5634 165.208 48.2486L164.595 49.2045H166.348Z" fill="#B41D23"/>
<path d="M166.348 49.2045H164.595L165.208 48.2486C165.592 48.5634 165.965 48.8871 166.348 49.2045Z" fill="url(#paint15_radial)"/>
<path d="M165.208 48.2486C164.383 47.5744 163.542 46.9168 162.704 46.2554L164.595 49.2045L165.208 48.2486Z" fill="#B21D23"/>
<path d="M164.595 49.2045L162.704 46.2554C163.542 46.9168 164.383 47.5744 165.208 48.2486L164.595 49.2045Z" fill="url(#paint16_radial)"/>
<path d="M39.2529 142.354L49.8784 125.679H42.3484C40.9146 131.477 39.8644 137.065 39.2529 142.354Z" fill="#EF381F"/>
<path d="M39.2529 142.354C39.8644 137.065 40.9146 131.477 42.3484 125.679H49.8784L39.2529 142.354Z" fill="url(#paint17_radial)"/>
<path d="M44.7023 117.138C43.8219 120.032 43.0406 122.879 42.3485 125.679H49.8785L50.0285 125.443L44.7023 117.138" fill="#F14A1C"/>
<path d="M49.8785 125.679H42.3485C43.0406 122.879 43.8219 120.032 44.7023 117.138L50.0285 125.443L49.8785 125.679" fill="url(#paint18_radial)"/>
<path d="M66.1204 100.187H50.7433C48.3951 105.964 46.3767 111.631 44.7023 117.138L50.0285 125.443L66.1204 100.187Z" fill="#F2571A"/>
<path d="M50.0285 125.443L44.7023 117.138C46.3767 111.631 48.3951 105.964 50.7433 100.187H66.1204L50.0285 125.443Z" fill="url(#paint19_radial)"/>
<path d="M66.3213 99.871L57.2287 85.69C54.8395 90.5789 52.681 95.418 50.7433 100.187H66.1204L66.3213 99.871" fill="#F36118"/>
<path d="M66.1204 100.187H50.7433C52.681 95.418 54.8395 90.5789 57.2287 85.69L66.3213 99.871L66.1204 100.187" fill="url(#paint20_radial)"/>
<path d="M82.3623 74.6952H62.9385C60.9131 78.3784 59.0079 82.0463 57.2288 85.69L66.3214 99.871L82.3623 74.6952Z" fill="#F36717"/>
<path d="M66.3214 99.871L57.2288 85.69C59.0079 82.0463 60.9131 78.3784 62.9385 74.6952H82.3623L66.3214 99.871" fill="url(#paint21_radial)"/>
<path d="M82.6156 74.2988L72.5421 58.5897C72.3128 58.9478 72.075 59.2945 71.8471 59.6539C68.6483 64.6753 65.6901 69.6967 62.9385 74.6952H82.3623L82.6156 74.2988" fill="#F25C19"/>
<path d="M82.3623 74.6952H62.9385C65.6901 69.6967 68.6483 64.6753 71.8471 59.6539C72.075 59.2945 72.3128 58.9478 72.5421 58.5897L82.6156 74.2988L82.3623 74.6952" fill="url(#paint22_radial)"/>
<path d="M98.6042 49.2045H78.8464C76.7006 52.2569 74.6001 55.3908 72.5421 58.5897L82.6157 74.2988L98.6042 49.2045Z" fill="#F14F1B"/>
<path d="M82.6157 74.2988L72.5421 58.5897C74.6001 55.3908 76.7006 52.2569 78.8464 49.2045H98.6042L82.6157 74.2988Z" fill="url(#paint23_radial)"/>
<path d="M98.9085 48.7265L89.8583 34.6118C86.099 39.2547 82.4161 44.1219 78.8464 49.2045H98.6042L98.9085 48.7265Z" fill="#EF3120"/>
<path d="M98.6042 49.2045H78.8464C82.4161 44.1219 86.099 39.2547 89.8583 34.6118L98.9085 48.7265L98.6042 49.2045Z" fill="url(#paint24_radial)"/>
<path d="M98.9085 48.7266L114.846 23.7126H99.2072C96.0508 27.1868 92.9284 30.819 89.8583 34.6119L98.9085 48.7266Z" fill="#DF2A23"/>
<path d="M98.9085 48.7266L89.8583 34.6119C92.9284 30.819 96.0508 27.1868 99.2072 23.7126H114.846L98.9085 48.7266Z" fill="url(#paint25_radial)"/>
<path d="M114.846 23.7127L115.201 23.1545L111.569 17.4894C109.963 16.9006 108.351 16.3373 106.733 15.7982C104.208 18.3281 101.698 20.9726 99.2072 23.7127H114.846Z" fill="#C32424"/>
<path d="M114.846 23.7127H99.2072C101.698 20.9726 104.208 18.3281 106.733 15.7982C108.351 16.3373 109.963 16.9006 111.569 17.4894L115.201 23.1545L114.846 23.7127Z" fill="url(#paint26_radial)"/>
<path d="M117.384 19.7299C115.456 18.9436 113.516 18.2031 111.569 17.4894L115.201 23.1544L117.384 19.7299Z" fill="#CA1E25"/>
<path d="M115.201 23.1544L111.569 17.4894C113.516 18.2031 115.456 18.9436 117.384 19.7299L115.201 23.1544Z" fill="url(#paint27_radial)"/>
<path d="M178.537 104.197L178.028 105.457C177.957 105.63 178.057 105.823 178.25 105.887L178.369 105.907C178.524 105.909 178.672 105.825 178.727 105.686L179.236 104.426C179.306 104.251 179.207 104.059 179.014 103.996C178.822 103.93 178.606 104.022 178.537 104.197" fill="#C91E25"/>
<path d="M174.516 107.2C174.49 108.163 175.334 108.962 176.401 108.986C177.47 109.01 178.357 108.251 178.384 107.288C178.411 106.326 177.566 105.527 176.499 105.504C175.43 105.48 174.543 106.239 174.516 107.2Z" fill="#C91E25"/>
<path d="M172.68 104.81C172.546 104.95 172.564 105.161 172.721 105.282L173.852 106.155L174.084 106.236L174.376 106.118C174.51 105.978 174.492 105.767 174.336 105.647L173.205 104.774C173.05 104.654 172.815 104.668 172.68 104.81" fill="#C91E25"/>
<path d="M170.42 103.064C170.285 103.204 170.304 103.415 170.459 103.536L171.59 104.409L171.824 104.49L172.115 104.372C172.25 104.232 172.231 104.021 172.074 103.901L170.943 103.028C170.789 102.908 170.553 102.922 170.42 103.064" fill="#C91E25"/>
<path d="M169.855 102.628C169.988 102.486 169.971 102.275 169.814 102.154L168.684 101.281C168.529 101.162 168.294 101.176 168.159 101.318C168.025 101.458 168.043 101.669 168.199 101.79L169.328 102.663L169.562 102.744L169.855 102.628" fill="#C91E25"/>
<path d="M160.687 97.6241C160.649 98.9814 161.841 100.109 163.348 100.142C164.854 100.177 166.108 99.1038 166.145 97.7465C166.183 96.3892 164.992 95.2613 163.484 95.2281C161.977 95.1937 160.724 96.2668 160.687 97.6241Z" fill="#C91E25"/>
<path d="M165.899 99.5715C165.764 99.7117 165.783 99.9233 165.938 100.044L167.068 100.917L167.302 100.998L167.593 100.882C167.728 100.74 167.709 100.529 167.553 100.408L166.424 99.5346C166.268 99.416 166.032 99.4301 165.899 99.5715" fill="#C91E25"/>
<path d="M125.528 158.333L126.816 157.659C126.995 157.567 127.054 157.362 126.951 157.202C126.849 157.041 126.621 156.986 126.443 157.081L125.155 157.754C124.976 157.847 124.917 158.052 125.02 158.211L125.332 158.378L125.528 158.333" fill="#C91E25"/>
<path d="M127.596 156.865L127.909 157.032L128.106 156.986L129.392 156.313C129.571 156.22 129.632 156.016 129.528 155.856C129.425 155.697 129.198 155.64 129.019 155.735L127.731 156.408C127.554 156.501 127.493 156.705 127.596 156.865" fill="#C91E25"/>
<path d="M130.485 155.686L130.68 155.64L131.968 154.968C132.147 154.875 132.208 154.669 132.104 154.51C132.001 154.351 131.773 154.296 131.595 154.388L130.307 155.062C130.13 155.154 130.069 155.359 130.172 155.519L130.485 155.686" fill="#C91E25"/>
<path d="M121.799 159.893C121.697 159.734 121.469 159.679 121.29 159.772L120.002 160.445C119.824 160.538 119.765 160.743 119.867 160.904L120.179 161.07L120.376 161.025L121.664 160.352C121.842 160.259 121.902 160.054 121.799 159.893" fill="#C91E25"/>
<path d="M122.756 159.724L122.952 159.679L124.24 159.006C124.419 158.913 124.478 158.708 124.375 158.548C124.273 158.388 124.045 158.333 123.867 158.426L122.579 159.099C122.4 159.192 122.341 159.398 122.444 159.557L122.756 159.724" fill="#C91E25"/>
<path d="M133.061 154.341L133.256 154.295L134.546 153.622C134.723 153.529 134.784 153.323 134.68 153.164C134.577 153.004 134.351 152.949 134.171 153.042L132.883 153.715C132.706 153.808 132.645 154.013 132.748 154.174L133.061 154.341" fill="#C91E25"/>
<path d="M135.626 137.528C135.455 137.427 135.224 137.469 135.109 137.623C134.996 137.778 135.044 137.985 135.215 138.087L136.457 138.826L136.653 138.882L136.973 138.732C137.087 138.578 137.04 138.37 136.869 138.268L135.626 137.528" fill="#C91E25"/>
<path d="M130.141 134.664C130.028 134.82 130.076 135.027 130.246 135.129L131.489 135.868L131.684 135.924L132.005 135.774C132.118 135.62 132.07 135.412 131.899 135.31L130.658 134.57C130.487 134.468 130.256 134.51 130.141 134.664" fill="#C91E25"/>
<path d="M127.657 133.184C127.544 133.34 127.591 133.548 127.762 133.65L129.005 134.39L129.2 134.445L129.521 134.296C129.634 134.14 129.586 133.932 129.415 133.83L128.174 133.09C128.002 132.989 127.77 133.031 127.657 133.184" fill="#C91E25"/>
<path d="M82.1896 228.704C82.7954 228.943 83.3984 229.195 84.007 229.419L82.869 227.644L82.1896 228.704" fill="#F36318"/>
<path d="M81.1804 227.644L80.8422 228.176C81.2894 228.36 81.741 228.529 82.1897 228.704L82.8691 227.644H81.1804" fill="#F2551A"/>
<path d="M82.869 227.644L84.007 229.419C92.7033 232.616 101.782 234.377 110.94 234.85L115.559 227.644H82.869Z" fill="#F36817"/>
<path d="M81.1804 227.644H82.8691L82.0226 226.322L81.1804 227.644Z" fill="#F25C19"/>
<path d="M54.2705 202.152C53.5232 205.185 52.1686 207.273 52.6782 209.213C53.6803 206.866 54.705 204.513 55.751 202.152H54.2705Z" fill="#F0431D"/>
<path d="M110.94 234.85C114.025 235.009 117.118 235.023 120.209 234.895L115.56 227.644L110.94 234.85" fill="#F36917"/>
<path d="M60.2124 192.308L58.9145 190.283C58.4262 190.974 57.9322 191.702 57.4255 192.478C57.4255 192.478 56.0171 194.542 55.4609 195.578C55.0108 196.418 54.7079 197.33 54.7249 198.264C54.7517 199.726 54.5536 201.005 54.2705 202.152H55.751C57.2004 198.881 58.6795 195.601 60.2124 192.308" fill="#EF391F"/>
<path d="M115.56 227.644L120.209 234.895C125.432 234.678 130.644 234.05 135.794 233.053C136.494 231.256 137.215 229.45 137.939 227.644H115.56Z" fill="#F36418"/>
<path d="M131.905 202.152L115.56 227.644H137.939C139.242 224.384 140.576 221.114 141.957 217.829L131.905 202.152Z" fill="#F36817"/>
<path d="M99.2143 202.152L115.56 227.644L131.905 202.152H99.2143Z" fill="#F46D16"/>
<path d="M98.3154 200.75L82.0226 226.322L82.869 227.644H115.56L99.2143 202.152L98.3154 200.75Z" fill="#F36618"/>
<path d="M64.3412 183.644C62.6073 185.455 60.8281 187.565 58.9145 190.283L60.2124 192.308C61.5543 189.429 62.9371 186.539 64.3412 183.644" fill="#F0421E"/>
<path d="M148.805 202.152H131.905L141.957 217.829C144.142 212.632 146.428 207.404 148.805 202.152Z" fill="#F36717"/>
<path d="M131.905 202.152L121.589 186.065C120.876 186.419 119.86 186.485 118.651 186.112C115.259 185.065 113.302 183.721 111.97 182.259L99.2143 202.152H131.905" fill="#F57815"/>
<path d="M99.2143 202.152L111.97 182.259C111.578 181.83 111.24 181.389 110.937 180.942L98.3155 200.75L99.2143 202.152" fill="#F47515"/>
<path d="M155.454 187.897L148.25 176.661L131.905 202.152H148.805C150.946 197.419 153.159 192.668 155.454 187.897Z" fill="#F36817"/>
<path d="M148.25 176.662L138.002 160.68C130.433 163.441 125.121 163.795 120.263 166.304L117.613 170.465C118.901 175.27 117.802 175.599 118.044 177.485C118.211 178.799 119.033 179.965 120.192 180.776C123.251 182.915 123.225 185.254 121.589 186.065L131.905 202.152L148.25 176.662Z" fill="#F47315"/>
<path d="M161.002 176.661H148.25L155.454 187.897C157.252 184.163 159.111 180.415 161.002 176.661Z" fill="#F25D19"/>
<path d="M169.938 159.503L164.595 151.17L148.25 176.661H161.001C163.875 170.96 166.85 165.238 169.938 159.503Z" fill="#F2591A"/>
<path d="M164.595 151.17L148.25 125.679L144.639 131.311C148.465 134.533 150.905 137.843 153.624 140.082C154.915 141.146 156.052 142.353 156.914 143.724C159.34 147.587 159.729 148.479 153.729 152.598C147.498 156.688 142.376 159.084 138.002 160.68L148.25 176.661L164.595 151.17" fill="#F36817"/>
<path d="M174.493 151.17H164.595L169.938 159.503C171.433 156.728 172.949 153.951 174.493 151.17Z" fill="#F2571A"/>
<path d="M135.625 146.455C135.428 146.412 135.215 146.362 135.016 146.319L134.845 146.587C135.095 146.538 135.353 146.494 135.625 146.455" fill="#F36817"/>
<path d="M134.845 146.587L135.016 146.319C134.436 146.192 133.851 146.062 133.249 145.923L132.332 147.362C133.085 147.026 133.898 146.769 134.845 146.587Z" fill="#F46D16"/>
<path d="M146.148 125.679L143.262 130.207C143.74 130.573 144.199 130.941 144.639 131.311L148.25 125.679H146.148" fill="#F46D16"/>
<path d="M185.267 132.426L180.94 125.679L164.595 151.17H174.493C177.957 144.932 181.552 138.682 185.267 132.426" fill="#F1491C"/>
<path d="M148.25 125.679L164.595 151.17L180.94 125.679H148.25Z" fill="#F25A1A"/>
<path d="M146.148 125.679H148.25L147.195 124.034L146.148 125.679Z" fill="#F25A1A"/>
<path d="M189.317 125.679H180.94L185.267 132.426C186.602 130.178 187.95 127.928 189.317 125.679" fill="#DE2424"/>
<path d="M180.94 125.679L169.348 107.601C168.854 107.263 168.346 106.948 167.796 106.702C166.06 105.941 164.386 104.467 162.812 102.968L148.25 125.679H180.94" fill="#F1501B"/>
<path d="M148.25 125.679L162.812 102.968C162.35 102.528 161.895 102.087 161.452 101.66L147.195 124.034L148.25 125.679Z" fill="#F14C1C"/>
<path d="M197.957 111.783C199.08 110.02 200.216 108.274 201.349 106.525L197.286 100.187L180.94 125.679H189.317C192.132 121.048 195.005 116.415 197.957 111.783" fill="#E32424"/>
<path d="M197.286 100.187H185.42C183.94 105.237 181.603 109.54 178.788 111.704C177.957 112.344 176.778 112.516 175.774 112.124C173.232 111.131 171.474 109.051 169.348 107.601L180.94 125.679L197.286 100.187Z" fill="#F03C1F"/>
<path d="M205.507 100.187H197.286L201.349 106.525C202.728 104.4 204.114 102.289 205.507 100.187Z" fill="#D71E25"/>
<path d="M189.113 87.4424C188.367 88.3906 187.607 89.572 187.004 91.6558C186.764 94.5756 186.213 97.4865 185.42 100.187H197.286L189.113 87.4424Z" fill="#F03A1F"/>
<path d="M205.506 100.187C205.91 99.5778 206.31 98.9674 206.715 98.3607C205.528 96.0234 204.259 93.7064 202.912 91.4136L197.286 100.187H205.506Z" fill="#DF1D25"/>
<path d="M202.912 91.4136C199.942 86.3604 196.611 81.4167 192.93 76.626C192.493 77.3868 192.366 77.5474 192.131 78.8665C194.83 77.6048 192.081 81.9023 191.607 83.396C191.056 85.3497 190.097 86.1921 189.113 87.4424L197.286 100.187L202.912 91.4136" fill="#E82124"/>
<path d="M79.5683 227.643C79.9915 227.826 80.4175 228.001 80.8421 228.176L81.1804 227.643H79.5683" fill="#F2551A"/>
<path d="M80.8421 228.176C80.4175 228.001 79.9915 227.826 79.5683 227.643H81.1804L80.8421 228.176" fill="url(#paint28_radial)"/>
<path d="M82.0226 226.322L66.5238 202.152L58.1445 215.221C62.1841 218.106 66.6483 220.939 71.5881 223.711C74.1967 225.175 76.8634 226.477 79.5682 227.644H81.1804L82.0226 226.322" fill="#F25C19"/>
<path d="M81.1804 227.644H79.5682C76.8634 226.477 74.1967 225.175 71.5881 223.711C66.6483 220.939 62.1841 218.106 58.1445 215.221L66.5238 202.152L82.0226 226.322L81.1804 227.644Z" fill="url(#paint29_radial)"/>
<path d="M55.751 202.152C54.705 204.513 53.6803 206.866 52.6781 209.213C52.7801 209.603 52.9556 209.985 53.2273 210.369C55.0051 212.551 54.1969 214.571 51.5203 214.084V214.085C54.5083 214.806 54.5918 212.593 54.5918 212.593C55.734 213.473 56.9244 214.349 58.1445 215.221L66.5238 202.152H55.751" fill="#F0431D"/>
<path d="M58.1445 215.221C56.9244 214.349 55.734 213.473 54.5918 212.593C54.5918 212.593 54.5295 214.23 52.6116 214.23C52.3002 214.23 51.9379 214.187 51.5203 214.085V214.084C51.7935 214.133 52.0469 214.156 52.2804 214.156C53.5076 214.156 54.1771 213.503 54.1757 212.559C54.1742 211.925 53.8699 211.158 53.2273 210.369C52.9556 209.985 52.7801 209.603 52.6781 209.213C53.6803 206.866 54.705 204.513 55.751 202.152H66.5238L58.1445 215.221" fill="url(#paint30_radial)"/>
<path d="M55.751 202.152H66.5238L60.2124 192.308C58.6795 195.601 57.2004 198.881 55.751 202.152Z" fill="#EF391F"/>
<path d="M66.5238 202.152H55.751C57.2004 198.881 58.6795 195.601 60.2124 192.308L66.5238 202.152Z" fill="url(#paint31_radial)"/>
<path d="M98.3155 200.75L82.869 176.662L66.5238 202.152L82.0226 226.323L98.3155 200.75Z" fill="#F36618"/>
<path d="M82.0226 226.323L66.5238 202.152L82.869 176.662L98.3155 200.75L82.0226 226.323Z" fill="url(#paint32_radial)"/>
<path d="M66.5238 202.152L82.8691 176.661H71.9137C69.2966 178.998 66.8649 181.009 64.3412 183.644C62.9371 186.539 61.5543 189.429 60.2124 192.308L66.5238 202.152" fill="#F0421E"/>
<path d="M66.5238 202.152L60.2124 192.308C61.5543 189.429 62.9371 186.539 64.3412 183.644C66.8649 181.009 69.2966 178.998 71.9137 176.661H82.8691L66.5238 202.152" fill="url(#paint33_radial)"/>
<path d="M98.3154 200.75L110.937 180.943C109.969 179.523 109.339 178.047 108.392 176.662H82.869L98.3154 200.75Z" fill="#F47515"/>
<path d="M98.3154 200.75L82.869 176.662H108.392C109.339 178.047 109.969 179.523 110.937 180.943L98.3154 200.75Z" fill="url(#paint34_radial)"/>
<path d="M78.6157 170.028C76.1713 172.762 73.9844 174.815 71.9137 176.661H82.8691L78.6157 170.028" fill="#EF3620"/>
<path d="M82.8691 176.661H71.9137C73.9844 174.815 76.1713 172.762 78.6157 170.028L82.8691 176.661Z" fill="url(#paint35_radial)"/>
<path d="M108.392 176.661C107.424 175.248 106.123 173.929 103.778 172.865C97.1619 169.141 100.749 163.392 105.8 163.393C106.202 163.393 106.601 163.359 106.996 163.306L99.9531 152.322C98.8179 153.483 97.6162 154.608 96.3353 155.661L82.869 176.661H108.392Z" fill="#F46B17"/>
<path d="M108.392 176.661H82.869L96.3353 155.661C97.6162 154.608 98.8179 153.483 99.9531 152.322L106.996 163.306C106.603 163.357 106.205 163.393 105.803 163.393C105.803 163.393 105.802 163.393 105.8 163.393C105.8 163.393 105.8 163.393 105.799 163.393C102.712 163.393 100.171 165.541 100.174 168.061C100.177 169.663 101.207 171.417 103.778 172.865C106.123 173.929 107.424 175.248 108.392 176.661" fill="url(#paint36_radial)"/>
<path d="M96.3353 155.661C94.5278 157.146 92.5759 158.485 90.433 159.543C89.9461 159.782 89.2879 160.311 88.9878 160.733C85.7805 165.25 83.4974 164.235 81.2696 166.902C80.351 168.04 79.4677 169.075 78.6157 170.028L82.869 176.661L96.3353 155.661Z" fill="#F0441D"/>
<path d="M82.869 176.661L78.6157 170.028C79.4677 169.075 80.351 168.04 81.2696 166.902C83.4974 164.235 85.7805 165.25 88.9878 160.733C89.2879 160.311 89.9461 159.782 90.433 159.543C92.5759 158.485 94.5278 157.146 96.3353 155.661L82.869 176.661" fill="url(#paint37_radial)"/>
<path d="M109.267 162.626C118.972 157.539 123.712 153.79 126.917 151.17H101.059C100.698 151.557 100.328 151.939 99.9531 152.322L106.996 163.306C107.793 163.201 108.566 162.993 109.267 162.626" fill="#F47315"/>
<path d="M106.996 163.306L99.9531 152.322C100.328 151.939 100.698 151.557 101.059 151.17H126.917C123.712 153.79 118.972 157.539 109.267 162.626C108.566 162.993 107.793 163.201 106.996 163.306" fill="url(#paint38_radial)"/>
<path d="M118.059 167.622C117.415 168.065 117.138 168.821 117.347 169.526C117.446 169.858 117.533 170.168 117.613 170.465L120.263 166.304C119.52 166.689 118.787 167.12 118.059 167.622" fill="#F47315"/>
<path d="M117.613 170.465C117.533 170.168 117.446 169.858 117.347 169.526C117.3 169.369 117.279 169.21 117.279 169.052C117.279 168.5 117.559 167.966 118.059 167.622C118.787 167.12 119.52 166.689 120.263 166.304L117.613 170.465" fill="url(#paint39_radial)"/>
<path d="M130.233 148.563L127.619 144.485C122.697 143.1 117.425 141.236 112.38 138.591C109.268 140.757 105.751 146.12 101.059 151.17H126.917C128.194 150.126 129.228 149.26 130.233 148.563" fill="#F36618"/>
<path d="M126.917 151.17H101.059C105.751 146.12 109.268 140.757 112.38 138.591C117.425 141.236 122.697 143.1 127.619 144.485L130.233 148.563C129.228 149.26 128.194 150.126 126.917 151.17" fill="url(#paint40_radial)"/>
<path d="M132.332 147.361L133.249 145.923C131.452 145.507 129.564 145.033 127.619 144.485L130.233 148.563C130.922 148.085 131.6 147.686 132.332 147.361" fill="#F46D16"/>
<path d="M130.233 148.563L127.619 144.485C129.564 145.033 131.452 145.507 133.249 145.923L132.332 147.361C131.6 147.686 130.922 148.085 130.233 148.563" fill="url(#paint41_radial)"/>
<path d="M135.456 125.679C138.615 127.031 141.145 128.59 143.262 130.207L146.148 125.679H135.456Z" fill="#F46D16"/>
<path d="M143.262 130.207C141.145 128.59 138.615 127.031 135.456 125.679H146.148L143.262 130.207Z" fill="url(#paint42_radial)"/>
<path d="M147.195 124.034L139.739 112.405C133.423 116.366 130.595 115.824 126.233 122.164L131.225 124.118C132.757 124.594 134.154 125.121 135.456 125.679H146.148L147.195 124.034" fill="#F25A1A"/>
<path d="M146.148 125.679H135.456C134.154 125.121 132.757 124.594 131.225 124.118L126.233 122.164C130.595 115.824 133.423 116.366 139.739 112.405L147.195 124.034L146.148 125.679" fill="url(#paint43_radial)"/>
<path d="M161.452 101.66C160.898 101.126 160.366 100.638 159.845 100.187H157.052C152.27 105.555 149.483 105.546 141.064 111.54C140.605 111.851 140.165 112.138 139.739 112.405L147.196 124.034L161.452 101.66" fill="#F14C1C"/>
<path d="M147.196 124.034L139.739 112.405C140.165 112.138 140.605 111.851 141.064 111.54C149.483 105.546 152.27 105.555 157.052 100.187H159.845C160.366 100.638 160.898 101.126 161.452 101.66L147.196 124.034" fill="url(#paint44_radial)"/>
<path d="M158.149 98.9076C157.77 99.3689 157.408 99.7894 157.052 100.187H159.845C159.259 99.6773 158.689 99.2211 158.149 98.9076Z" fill="#F0401E"/>
<path d="M159.845 100.187H157.052C157.408 99.7894 157.77 99.3689 158.149 98.9076C158.689 99.2211 159.259 99.6773 159.845 100.187Z" fill="url(#paint45_radial)"/>
<path d="M148.25 227.644H137.939C137.215 229.45 136.494 231.256 135.794 233.053C139.392 232.357 142.956 231.474 146.472 230.417L148.25 227.644Z" fill="#F36418"/>
<path d="M135.794 233.053C136.494 231.256 137.215 229.45 137.939 227.644H148.25L146.472 230.417C142.956 231.474 139.392 232.357 135.794 233.053Z" fill="url(#paint46_radial)"/>
<path d="M137.939 227.644H148.25L141.957 217.829C140.576 221.114 139.242 224.384 137.939 227.644Z" fill="#F36817"/>
<path d="M148.25 227.644H137.939C139.242 224.384 140.576 221.114 141.957 217.829L148.25 227.644Z" fill="url(#paint47_radial)"/>
<path d="M146.472 230.417C147.463 230.12 148.45 229.811 149.432 229.486L148.25 227.644L146.472 230.417Z" fill="#F35E19"/>
<path d="M146.472 230.417L148.25 227.644L149.432 229.486C148.45 229.811 147.463 230.12 146.472 230.417Z" fill="url(#paint48_radial)"/>
<path d="M148.805 202.152C146.428 207.404 144.142 212.632 141.957 217.829L148.25 227.644L164.595 202.152H148.805Z" fill="#F36717"/>
<path d="M148.25 227.644L141.957 217.829C144.142 212.632 146.428 207.404 148.805 202.152H164.595L148.25 227.644Z" fill="url(#paint49_radial)"/>
<path d="M149.432 229.486C151.156 228.915 152.866 228.299 154.561 227.644H148.25L149.432 229.486" fill="#F2571A"/>
<path d="M149.432 229.486L148.25 227.644H154.561C152.866 228.299 151.156 228.915 149.432 229.486" fill="url(#paint50_radial)"/>
<path d="M148.25 227.644H154.561C161.528 224.954 168.219 221.574 174.479 217.567L164.595 202.152L148.25 227.644Z" fill="#F36218"/>
<path d="M154.561 227.644H148.25L164.595 202.152L174.479 217.567C168.219 221.574 161.528 224.954 154.561 227.644Z" fill="url(#paint51_radial)"/>
<path d="M148.805 202.152H164.595L155.454 187.897C153.159 192.668 150.946 197.419 148.805 202.152Z" fill="#F36817"/>
<path d="M164.595 202.152H148.805C150.946 197.419 153.159 192.668 155.454 187.897L164.595 202.152Z" fill="url(#paint52_radial)"/>
<path d="M174.479 217.567C181.381 213.151 187.746 207.979 193.374 202.152H164.595L174.479 217.567" fill="#F25D19"/>
<path d="M174.479 217.567L164.595 202.152H193.374C187.746 207.979 181.381 213.151 174.479 217.567Z" fill="url(#paint53_radial)"/>
<path d="M164.595 202.152H193.374C194.16 201.337 194.935 200.509 195.692 199.667L180.94 176.661L164.595 202.152" fill="#F2591A"/>
<path d="M193.374 202.152H164.595L180.94 176.661L195.692 199.667C194.935 200.509 194.16 201.337 193.374 202.152" fill="url(#paint54_radial)"/>
<path d="M155.454 187.897L164.595 202.152L180.94 176.661H161.001C159.11 180.415 157.252 184.163 155.454 187.897Z" fill="#F25D19"/>
<path d="M164.595 202.152L155.454 187.897C157.252 184.163 159.11 180.415 161.001 176.661H180.94L164.595 202.152Z" fill="url(#paint55_radial)"/>
<path d="M195.692 199.667C198.385 196.678 200.906 193.547 203.188 190.254C206.279 185.796 208.85 181.256 210.952 176.661H180.94L195.692 199.667" fill="#F35E19"/>
<path d="M195.692 199.667L180.94 176.661H210.952C208.85 181.256 206.279 185.796 203.188 190.254C200.906 193.547 198.385 196.678 195.692 199.667" fill="url(#paint56_radial)"/>
<path d="M161.002 176.661H180.94L169.938 159.503C166.85 165.238 163.875 170.96 161.002 176.661" fill="#F2591A"/>
<path d="M180.94 176.661H161.002C163.875 170.96 166.85 165.238 169.938 159.503L180.94 176.661" fill="url(#paint57_radial)"/>
<path d="M180.94 176.661H210.952C211.331 175.832 211.682 174.998 212.032 174.166L197.286 151.17L180.94 176.661" fill="#F14D1C"/>
<path d="M210.952 176.661H180.94L197.286 151.17L212.032 174.166C211.682 174.998 211.331 175.832 210.952 176.661" fill="url(#paint58_radial)"/>
<path d="M169.938 159.503L180.94 176.661L197.286 151.17H174.493C172.949 153.951 171.433 156.728 169.938 159.503" fill="#F2571A"/>
<path d="M180.94 176.661L169.938 159.503C171.433 156.728 172.949 153.951 174.493 151.17H197.286L180.94 176.661" fill="url(#paint59_radial)"/>
<path d="M212.032 174.166C215.195 166.605 217.104 158.907 217.863 151.17H197.286L212.032 174.166" fill="#DA2324"/>
<path d="M212.032 174.166L197.286 151.17H217.863C217.104 158.907 215.195 166.605 212.032 174.166" fill="url(#paint60_radial)"/>
<path d="M174.493 151.17H197.286L185.267 132.426C181.552 138.682 177.957 144.932 174.493 151.17" fill="#F1491C"/>
<path d="M197.286 151.17H174.493C177.957 144.932 181.552 138.682 185.267 132.426L197.286 151.17Z" fill="url(#paint61_radial)"/>
<path d="M197.286 151.17H217.863C218.501 144.66 218.329 138.125 217.444 131.624L213.631 125.679L197.286 151.17Z" fill="#CF1E25"/>
<path d="M217.863 151.17H197.286L213.631 125.679L217.444 131.624C217.974 135.51 218.248 139.408 218.247 143.304C218.245 145.928 218.121 148.551 217.863 151.17" fill="url(#paint62_radial)"/>
<path d="M185.267 132.426L197.286 151.17L213.631 125.679H189.317C187.95 127.928 186.602 130.178 185.267 132.426" fill="#DE2424"/>
<path d="M197.286 151.17L185.267 132.426C186.602 130.178 187.95 127.928 189.317 125.679H213.631L197.286 151.17Z" fill="url(#paint63_radial)"/>
<path d="M217.444 131.624C217.174 129.639 216.843 127.656 216.441 125.679H213.631L217.444 131.624Z" fill="#C71E25"/>
<path d="M217.444 131.624L213.631 125.679H216.441C216.843 127.656 217.174 129.639 217.444 131.624Z" fill="url(#paint64_radial)"/>
<path d="M189.317 125.679H213.631L201.349 106.525C200.216 108.274 199.08 110.02 197.957 111.783C195.005 116.415 192.132 121.048 189.317 125.679" fill="#E32424"/>
<path d="M213.631 125.679H189.317C192.132 121.048 195.005 116.415 197.957 111.783C199.08 110.02 200.216 108.274 201.349 106.525L213.631 125.679" fill="url(#paint65_radial)"/>
<path d="M216.441 125.679C216.22 124.593 215.973 123.511 215.714 122.429L213.631 125.679H216.441Z" fill="#C21E25"/>
<path d="M216.441 125.679H213.631L215.714 122.429C215.973 123.511 216.22 124.593 216.441 125.679Z" fill="url(#paint66_radial)"/>
<path d="M201.349 106.525L213.631 125.679L215.714 122.429C213.906 114.896 211.178 107.449 207.64 100.187H205.506C204.114 102.289 202.728 104.4 201.349 106.525" fill="#D71E25"/>
<path d="M213.631 125.679L201.349 106.525C202.728 104.4 204.114 102.289 205.506 100.187H207.64C211.178 107.449 213.906 114.896 215.714 122.429L213.631 125.679" fill="url(#paint67_radial)"/>
<path d="M207.64 100.187C207.341 99.5753 207.024 98.9686 206.715 98.3607C206.31 98.9674 205.91 99.5778 205.507 100.187H207.64Z" fill="#DF1D25"/>
<path d="M207.64 100.187H205.507C205.91 99.5778 206.31 98.9674 206.715 98.3607C207.024 98.9686 207.341 99.5753 207.64 100.187Z" fill="url(#paint68_radial)"/>
<path d="M134.385 136.789L133.142 136.049C132.971 135.947 132.74 135.989 132.625 136.144C132.512 136.298 132.56 136.506 132.731 136.609L133.973 137.348L134.169 137.404L134.489 137.254C134.603 137.099 134.554 136.892 134.385 136.789Z" fill="#C91E25"/>
<path d="M118.714 161.118L117.426 161.791C117.248 161.884 117.189 162.089 117.292 162.25L117.603 162.417L117.8 162.371L119.088 161.698C119.266 161.605 119.326 161.4 119.223 161.24C119.121 161.08 118.891 161.025 118.714 161.118" fill="#C91E25"/>
<path d="M136.747 151.696L135.459 152.369C135.282 152.462 135.221 152.667 135.324 152.828L135.637 152.995L135.833 152.949L137.122 152.276C137.299 152.183 137.36 151.978 137.256 151.817C137.153 151.658 136.927 151.603 136.747 151.696" fill="#C91E25"/>
<path d="M147.405 142.395C145.692 142.357 144.268 143.575 144.225 145.118C144.182 146.661 145.537 147.941 147.249 147.981C148.962 148.019 150.386 146.801 150.428 145.257C150.472 143.715 149.118 142.433 147.405 142.395Z" fill="#C91E25"/>
<path d="M140.611 149.677C140.434 149.77 140.373 149.975 140.477 150.135L140.789 150.302L140.985 150.257L142.274 149.583C142.451 149.491 142.512 149.286 142.409 149.125C142.305 148.966 142.079 148.911 141.899 149.004L140.611 149.677" fill="#C91E25"/>
<path d="M143.079 141.965C142.908 141.865 142.677 141.907 142.564 142.06C142.451 142.215 142.498 142.423 142.669 142.525L143.91 143.265L144.107 143.32L144.427 143.17C144.54 143.016 144.493 142.808 144.322 142.706L143.079 141.965Z" fill="#C91E25"/>
<path d="M140.594 140.487C140.423 140.385 140.193 140.427 140.079 140.581C139.966 140.736 140.012 140.945 140.184 141.047L141.426 141.786L141.622 141.841L141.941 141.691C142.055 141.536 142.008 141.328 141.837 141.226L140.594 140.487" fill="#C91E25"/>
<path d="M143.365 148.956L143.561 148.91L144.849 148.237C145.027 148.144 145.088 147.94 144.985 147.78C144.881 147.619 144.653 147.564 144.475 147.658L143.187 148.331C143.01 148.424 142.949 148.628 143.053 148.789L143.365 148.956" fill="#C91E25"/>
<path d="M115.027 163.763L115.224 163.717L116.512 163.044C116.69 162.951 116.75 162.746 116.647 162.586C116.545 162.427 116.317 162.371 116.138 162.464L114.85 163.138C114.672 163.23 114.613 163.435 114.716 163.596L115.027 163.763" fill="#C91E25"/>
<path d="M112.451 165.109L112.648 165.063L113.936 164.39C114.114 164.297 114.174 164.093 114.07 163.932C113.969 163.773 113.741 163.718 113.562 163.811L112.274 164.484C112.096 164.577 112.035 164.781 112.138 164.942L112.451 165.109" fill="#C91E25"/>
<path d="M109.875 166.454L110.072 166.41L111.36 165.736C111.538 165.644 111.598 165.439 111.494 165.278C111.393 165.119 111.165 165.063 110.986 165.157L109.698 165.83C109.52 165.923 109.46 166.128 109.562 166.287L109.875 166.454" fill="#C91E25"/>
<path d="M138.213 151.648L138.409 151.603L139.697 150.93C139.875 150.837 139.936 150.632 139.833 150.471C139.729 150.312 139.503 150.257 139.324 150.35L138.035 151.023C137.858 151.116 137.797 151.321 137.9 151.481L138.213 151.648" fill="#C91E25"/>
<path d="M137.699 139.567L138.941 140.306L139.138 140.362L139.457 140.212C139.571 140.058 139.524 139.849 139.353 139.747L138.11 139.007C137.94 138.907 137.708 138.947 137.595 139.102C137.481 139.257 137.528 139.465 137.699 139.567Z" fill="#C91E25"/>
<path d="M105.411 167.415C105.384 168.381 106.232 169.186 107.306 169.21C108.379 169.234 109.271 168.469 109.298 167.503C109.325 166.537 108.477 165.733 107.404 165.709C106.33 165.685 105.438 166.449 105.411 167.415Z" fill="#C91E25"/>
<path d="M48.1559 191.698C48.129 192.665 48.9783 193.468 50.0511 193.492C51.124 193.516 52.0158 192.752 52.0427 191.786C52.0695 190.82 51.2217 190.017 50.1488 189.991C49.0759 189.968 48.1828 190.732 48.1559 191.698Z" fill="#C91E25"/>
<path d="M76.8393 161.47L75.8967 162.509C75.7665 162.651 75.7905 162.863 75.949 162.98L76.1755 163.055L76.4727 162.933L77.4154 161.894C77.5456 161.75 77.5216 161.54 77.363 161.423C77.2045 161.304 76.9681 161.326 76.8393 161.47" fill="#C91E25"/>
<path d="M79.4041 161.836C81.1167 161.874 82.5392 160.655 82.5831 159.113C82.6256 157.57 81.2724 156.289 79.5583 156.25C77.8457 156.211 76.4218 157.43 76.3793 158.973C76.3368 160.515 77.69 161.796 79.4041 161.836" fill="#C91E25"/>
<path d="M74.2916 165.133L74.5903 165.009L75.5315 163.97C75.6617 163.828 75.6377 163.616 75.4792 163.499C75.3192 163.382 75.0857 163.402 74.954 163.546L74.0128 164.585C73.8826 164.729 73.9066 164.939 74.0666 165.058L74.2916 165.133" fill="#C91E25"/>
<path d="M82.3142 155.129L81.4182 156.2C81.2937 156.348 81.3262 156.558 81.4918 156.67L81.7056 156.738L82.0127 156.604L82.9087 155.533C83.0332 155.386 83.0007 155.175 82.8365 155.063C82.6723 154.954 82.4373 154.982 82.3142 155.129Z" fill="#C91E25"/>
<path d="M84.1089 152.988L83.2116 154.059C83.087 154.207 83.1196 154.417 83.2837 154.529L83.4989 154.597L83.806 154.463L84.702 153.392C84.8265 153.244 84.794 153.034 84.6298 152.923C84.467 152.811 84.2321 152.839 84.1089 152.988" fill="#C91E25"/>
<path d="M93.0756 142.283L92.1782 143.353C92.0551 143.501 92.0876 143.711 92.2518 143.822L92.4655 143.89L92.7727 143.757L93.67 142.687C93.7932 142.539 93.7607 142.329 93.5965 142.218C93.4337 142.106 93.1987 142.134 93.0756 142.283" fill="#C91E25"/>
<path d="M90.9808 145.898L91.8767 144.828C91.9999 144.68 91.9673 144.47 91.8031 144.358C91.639 144.247 91.4054 144.275 91.2809 144.424L90.3849 145.494C90.2617 145.642 90.2943 145.853 90.4585 145.965L90.6736 146.032L90.9808 145.898Z" fill="#C91E25"/>
<path d="M85.2922 152.456L85.5994 152.322L86.4967 151.251C86.6198 151.103 86.5873 150.893 86.4231 150.782C86.2603 150.67 86.0268 150.698 85.9022 150.847L85.0049 151.918C84.8803 152.066 84.9143 152.276 85.0785 152.388L85.2922 152.456" fill="#C91E25"/>
<path d="M73.6476 166.048C73.7778 165.904 73.7537 165.693 73.5952 165.576C73.4339 165.459 73.2003 165.479 73.0701 165.623L72.1289 166.662C71.9987 166.806 72.0227 167.016 72.1813 167.134L72.4077 167.209L72.7064 167.086L73.6476 166.048" fill="#C91E25"/>
<path d="M89.186 148.04L90.082 146.969C90.2065 146.821 90.174 146.611 90.0098 146.5C89.847 146.388 89.6135 146.416 89.4889 146.565L88.5915 147.636C88.467 147.783 88.501 147.994 88.6651 148.105L88.8789 148.173L89.186 148.04Z" fill="#C91E25"/>
<path d="M87.3927 150.181L88.2887 149.11C88.4133 148.962 88.3807 148.752 88.2165 148.641C88.0538 148.529 87.8188 148.557 87.6942 148.706L86.7982 149.777C86.6737 149.924 86.7062 150.135 86.8704 150.247L87.0856 150.314L87.3927 150.181" fill="#C91E25"/>
<path d="M65.1692 175.395L66.1104 174.356C66.2407 174.212 66.2166 174.002 66.0581 173.884C65.8981 173.767 65.6646 173.788 65.533 173.932L64.5917 174.97C64.4615 175.114 64.4856 175.325 64.6455 175.442L64.872 175.517L65.1692 175.395" fill="#C91E25"/>
<path d="M57.6321 183.703L58.5748 182.664C58.705 182.52 58.681 182.31 58.521 182.192C58.3611 182.076 58.1275 182.096 57.9973 182.24L57.0546 183.279C56.9258 183.423 56.9499 183.633 57.1084 183.75L57.3349 183.825L57.6321 183.703" fill="#C91E25"/>
<path d="M71.1862 167.701L70.2435 168.739C70.1147 168.883 70.1388 169.094 70.2973 169.211L70.5238 169.286L70.821 169.164L71.7637 168.125C71.8939 167.981 71.8699 167.77 71.7099 167.652C71.55 167.536 71.3164 167.557 71.1862 167.701" fill="#C91E25"/>
<path d="M56.1134 184.317L55.1707 185.355C55.0419 185.499 55.0646 185.71 55.2245 185.827L55.451 185.903L55.7482 185.779L56.6909 184.74C56.8197 184.598 56.7956 184.386 56.6371 184.269C56.4771 184.153 56.2422 184.172 56.1134 184.317" fill="#C91E25"/>
<path d="M94.566 141.616L95.4634 140.546C95.588 140.398 95.554 140.188 95.3898 140.077C95.227 139.965 94.9935 139.993 94.869 140.142L93.973 141.212C93.8484 141.36 93.881 141.57 94.0452 141.681L94.2603 141.75L94.566 141.616" fill="#C91E25"/>
<path d="M53.3391 187.905L53.5656 187.98L53.8643 187.856L54.8055 186.819C54.9358 186.675 54.9117 186.463 54.7532 186.346C54.5932 186.23 54.3597 186.249 54.228 186.395L53.2868 187.432C53.1566 187.576 53.1806 187.788 53.3391 187.905" fill="#134561"/>
<path d="M59.8826 180.162L58.94 181.201C58.8098 181.344 58.8324 181.556 58.9923 181.673L59.2188 181.749L59.516 181.626L60.4587 180.587C60.5889 180.444 60.5649 180.233 60.4063 180.115C60.2478 179.998 60.01 180.02 59.8826 180.162" fill="#C91E25"/>
<path d="M67.4183 171.854L66.4771 172.893C66.3468 173.037 66.3709 173.247 66.5294 173.366L66.7559 173.441L67.0531 173.317L67.9958 172.279C68.1261 172.136 68.102 171.924 67.9421 171.807C67.7821 171.69 67.5486 171.71 67.4183 171.854" fill="#C91E25"/>
<path d="M68.9371 171.241L69.8797 170.203C70.0099 170.059 69.9859 169.848 69.8259 169.731C69.6688 169.614 69.4324 169.633 69.3036 169.778L68.361 170.817C68.2308 170.96 68.2534 171.171 68.4134 171.288L68.6398 171.364L68.9371 171.241" fill="#C91E25"/>
<path d="M61.7666 178.086L60.8239 179.125C60.6937 179.268 60.7177 179.479 60.8763 179.595L61.1027 179.672L61.4 179.548L62.3426 178.511C62.4729 178.367 62.4488 178.155 62.2903 178.039C62.1318 177.922 61.8954 177.941 61.7666 178.086" fill="#C91E25"/>
<path d="M63.6491 176.009L62.7078 177.048C62.5775 177.192 62.6016 177.402 62.7601 177.519L62.9866 177.594L63.2853 177.472L64.2266 176.433C64.3568 176.289 64.3327 176.078 64.1742 175.961C64.0128 175.845 63.7793 175.865 63.6491 176.009" fill="#C91E25"/>
<path d="M51.9789 189.934L52.9216 188.895C53.0518 188.752 53.0278 188.541 52.8692 188.424C52.7107 188.306 52.4743 188.327 52.3455 188.471L51.4029 189.509C51.2726 189.652 51.2967 189.864 51.4552 189.981L51.6817 190.056L51.9789 189.934" fill="#C91E25"/>
<rect x="-208.5" y="-177.5" width="660" height="598" stroke="white"/>
</g>
<defs>
<radialGradient id="paint0_radial" cx="0" cy="0" r="1" gradientUnits="userSpaceOnUse" gradientTransform="translate(35.4611 189.953) rotate(-152.681) scale(68.8114 151.903)">
<stop stop-color="#ED1C24"/>
<stop offset="1" stop-color="#F36118"/>
</radialGradient>
<radialGradient id="paint1_radial" cx="0" cy="0" r="1" gradientUnits="userSpaceOnUse" gradientTransform="translate(35.4608 189.948) rotate(-152.683) scale(68.8118 151.899)">
<stop stop-color="#ED1C24"/>
<stop offset="1" stop-color="#F36817"/>
</radialGradient>
<radialGradient id="paint2_radial" cx="0" cy="0" r="1" gradientUnits="userSpaceOnUse" gradientTransform="translate(224.719 181.013) rotate(-152.726) scale(138.694 305.834)">
<stop stop-color="#ED1C24"/>
<stop offset="1" stop-color="#F14E1C"/>
</radialGradient>
<radialGradient id="paint3_radial" cx="0" cy="0" r="1" gradientUnits="userSpaceOnUse" gradientTransform="translate(224.462 181.008) rotate(-152.683) scale(138.479 305.687)">
<stop stop-color="#ED1C24"/>
<stop offset="1" stop-color="#F2591A"/>
</radialGradient>
<radialGradient id="paint4_radial" cx="0" cy="0" r="1" gradientUnits="userSpaceOnUse" gradientTransform="translate(224.459 181.009) rotate(-152.682) scale(138.476 305.687)">
<stop stop-color="#ED1C24"/>
<stop offset="1" stop-color="#F25D19"/>
</radialGradient>
<radialGradient id="paint5_radial" cx="0" cy="0" r="1" gradientUnits="userSpaceOnUse" gradientTransform="translate(224.458 181.009) rotate(-152.682) scale(138.475 305.687)">
<stop stop-color="#ED1C24"/>
<stop offset="1" stop-color="#F14C1C"/>
</radialGradient>
<radialGradient id="paint6_radial" cx="0" cy="0" r="1" gradientUnits="userSpaceOnUse" gradientTransform="translate(224.459 181.009) rotate(-152.682) scale(138.476 305.687)">
<stop stop-color="#ED1C24"/>
<stop offset="1" stop-color="#F0411E"/>
</radialGradient>
<radialGradient id="paint7_radial" cx="0" cy="0" r="1" gradientUnits="userSpaceOnUse" gradientTransform="translate(224.458 181.009) rotate(-152.681) scale(138.475 305.688)">
<stop stop-color="#ED1C24"/>
<stop offset="1" stop-color="#F0401E"/>
</radialGradient>
<radialGradient id="paint8_radial" cx="0" cy="0" r="1" gradientUnits="userSpaceOnUse" gradientTransform="translate(224.458 181.011) rotate(-152.681) scale(138.476 305.692)">
<stop stop-color="#ED1C24"/>
<stop offset="1" stop-color="#F0401E"/>
</radialGradient>
<radialGradient id="paint9_radial" cx="0" cy="0" r="1" gradientUnits="userSpaceOnUse" gradientTransform="translate(224.459 181.009) rotate(-152.682) scale(138.477 305.688)">
<stop stop-color="#ED1C24"/>
<stop offset="1" stop-color="#F0401E"/>
</radialGradient>
<radialGradient id="paint10_radial" cx="0" cy="0" r="1" gradientUnits="userSpaceOnUse" gradientTransform="translate(224.459 181.009) rotate(-152.682) scale(138.476 305.687)">
<stop stop-color="#ED1C24"/>
<stop offset="1" stop-color="#F03B1F"/>
</radialGradient>
<radialGradient id="paint11_radial" cx="0" cy="0" r="1" gradientUnits="userSpaceOnUse" gradientTransform="translate(224.459 181.009) rotate(-152.682) scale(138.476 305.687)">
<stop stop-color="#CD1E26"/>
<stop offset="1" stop-color="#E61D25"/>
</radialGradient>
<radialGradient id="paint12_radial" cx="0" cy="0" r="1" gradientUnits="userSpaceOnUse" gradientTransform="translate(224.459 181.009) rotate(-152.682) scale(138.476 305.688)">
<stop stop-color="#B91F25"/>
<stop offset="1" stop-color="#E11D25"/>
</radialGradient>
<radialGradient id="paint13_radial" cx="0" cy="0" r="1" gradientUnits="userSpaceOnUse" gradientTransform="translate(224.459 181.009) rotate(-152.682) scale(138.476 305.688)">
<stop stop-color="#831E22"/>
<stop offset="1" stop-color="#D61E25"/>
</radialGradient>
<radialGradient id="paint14_radial" cx="0" cy="0" r="1" gradientUnits="userSpaceOnUse" gradientTransform="translate(224.459 181.008) rotate(-152.682) scale(138.476 305.687)">
<stop stop-color="#52171A"/>
<stop offset="1" stop-color="#CB1E25"/>
</radialGradient>
<radialGradient id="paint15_radial" cx="0" cy="0" r="1" gradientUnits="userSpaceOnUse" gradientTransform="translate(224.461 181.007) rotate(-152.683) scale(138.48 305.687)">
<stop stop-color="#080000"/>
<stop offset="1" stop-color="#B41D23"/>
</radialGradient>
<radialGradient id="paint16_radial" cx="0" cy="0" r="1" gradientUnits="userSpaceOnUse" gradientTransform="translate(224.458 181.007) rotate(-152.682) scale(138.474 305.684)">
<stop stop-color="#070000"/>
<stop offset="1" stop-color="#B21D23"/>
</radialGradient>
<radialGradient id="paint17_radial" cx="0" cy="0" r="1" gradientUnits="userSpaceOnUse" gradientTransform="translate(121.341 85.221) rotate(-152.682) scale(55.706 122.972)">
<stop stop-color="#ED1C24"/>
<stop offset="1" stop-color="#EF391F"/>
</radialGradient>
<radialGradient id="paint18_radial" cx="0" cy="0" r="1" gradientUnits="userSpaceOnUse" gradientTransform="translate(121.341 85.2211) rotate(-152.682) scale(55.7058 122.971)">
<stop stop-color="#ED1C24"/>
<stop offset="1" stop-color="#F14A1C"/>
</radialGradient>
<radialGradient id="paint19_radial" cx="0" cy="0" r="1" gradientUnits="userSpaceOnUse" gradientTransform="translate(121.342 85.221) rotate(-152.682) scale(55.7061 122.972)">
<stop stop-color="#ED1C24"/>
<stop offset="1" stop-color="#F2581A"/>
</radialGradient>
<radialGradient id="paint20_radial" cx="0" cy="0" r="1" gradientUnits="userSpaceOnUse" gradientTransform="translate(121.341 85.221) rotate(-152.682) scale(55.7059 122.971)">
<stop stop-color="#ED1C24"/>
<stop offset="1" stop-color="#F36118"/>
</radialGradient>
<radialGradient id="paint21_radial" cx="0" cy="0" r="1" gradientUnits="userSpaceOnUse" gradientTransform="translate(121.341 85.221) rotate(-152.682) scale(55.7059 122.971)">
<stop stop-color="#ED1C24"/>
<stop offset="1" stop-color="#F36817"/>
</radialGradient>
<radialGradient id="paint22_radial" cx="0" cy="0" r="1" gradientUnits="userSpaceOnUse" gradientTransform="translate(121.341 85.221) rotate(-152.682) scale(55.7059 122.972)">
<stop stop-color="#ED1C24"/>
<stop offset="1" stop-color="#F25D19"/>
</radialGradient>
<radialGradient id="paint23_radial" cx="0" cy="0" r="1" gradientUnits="userSpaceOnUse" gradientTransform="translate(121.342 85.221) rotate(-152.682) scale(55.7061 122.972)">
<stop stop-color="#ED1C24"/>
<stop offset="1" stop-color="#F14F1B"/>
</radialGradient>
<radialGradient id="paint24_radial" cx="0" cy="0" r="1" gradientUnits="userSpaceOnUse" gradientTransform="translate(121.341 85.2209) rotate(-152.682) scale(55.7059 122.971)">
<stop stop-color="#ED1C24"/>
<stop offset="1" stop-color="#EF3120"/>
</radialGradient>
<radialGradient id="paint25_radial" cx="0" cy="0" r="1" gradientUnits="userSpaceOnUse" gradientTransform="translate(121.342 85.221) rotate(-152.682) scale(55.7061 122.972)">
<stop stop-color="#AF2127"/>
<stop offset="1" stop-color="#DF2A23"/>
</radialGradient>
<radialGradient id="paint26_radial" cx="0" cy="0" r="1" gradientUnits="userSpaceOnUse" gradientTransform="translate(121.341 85.221) rotate(-152.682) scale(55.706 122.972)">
<stop stop-color="#2F0E0F"/>
<stop offset="1" stop-color="#C32424"/>
</radialGradient>
<radialGradient id="paint27_radial" cx="0" cy="0" r="1" gradientUnits="userSpaceOnUse" gradientTransform="translate(121.341 85.2213) rotate(-152.681) scale(55.7057 122.972)">
<stop stop-color="#4C1518"/>
<stop offset="1" stop-color="#CA1E25"/>
</radialGradient>
<radialGradient id="paint28_radial" cx="0" cy="0" r="1" gradientUnits="userSpaceOnUse" gradientTransform="translate(224.458 180.937) rotate(-152.646) scale(138.52 306.052)">
<stop stop-color="#ED1C24"/>
<stop offset="1" stop-color="#F2551A"/>
</radialGradient>
<radialGradient id="paint29_radial" cx="0" cy="0" r="1" gradientUnits="userSpaceOnUse" gradientTransform="translate(224.459 181.009) rotate(-152.682) scale(138.476 305.687)">
<stop stop-color="#ED1C24"/>
<stop offset="1" stop-color="#F25D19"/>
</radialGradient>
<radialGradient id="paint30_radial" cx="0" cy="0" r="1" gradientUnits="userSpaceOnUse" gradientTransform="translate(224.459 181.009) rotate(-152.682) scale(138.476 305.687)">
<stop stop-color="#ED1C24"/>
<stop offset="1" stop-color="#F0431D"/>
</radialGradient>
<radialGradient id="paint31_radial" cx="0" cy="0" r="1" gradientUnits="userSpaceOnUse" gradientTransform="translate(224.459 181.009) rotate(-152.682) scale(138.476 305.688)">
<stop stop-color="#ED1C24"/>
<stop offset="1" stop-color="#EF391F"/>
</radialGradient>
<radialGradient id="paint32_radial" cx="0" cy="0" r="1" gradientUnits="userSpaceOnUse" gradientTransform="translate(224.459 181.009) rotate(-152.682) scale(138.476 305.688)">
<stop stop-color="#ED1C24"/>
<stop offset="1" stop-color="#F36618"/>
</radialGradient>
<radialGradient id="paint33_radial" cx="0" cy="0" r="1" gradientUnits="userSpaceOnUse" gradientTransform="translate(224.459 181.009) rotate(-152.682) scale(138.476 305.688)">
<stop stop-color="#ED1C24"/>
<stop offset="1" stop-color="#F0431E"/>
</radialGradient>
<radialGradient id="paint34_radial" cx="0" cy="0" r="1" gradientUnits="userSpaceOnUse" gradientTransform="translate(224.459 181.009) rotate(-152.682) scale(138.476 305.687)">
<stop stop-color="#ED1C24"/>
<stop offset="1" stop-color="#F47515"/>
</radialGradient>
<radialGradient id="paint35_radial" cx="0" cy="0" r="1" gradientUnits="userSpaceOnUse" gradientTransform="translate(224.46 181.009) rotate(-152.682) scale(138.477 305.686)">
<stop stop-color="#ED1C24"/>
<stop offset="1" stop-color="#EF3620"/>
</radialGradient>
<radialGradient id="paint36_radial" cx="0" cy="0" r="1" gradientUnits="userSpaceOnUse" gradientTransform="translate(224.459 181.009) rotate(-152.682) scale(138.476 305.687)">
<stop stop-color="#ED1C24"/>
<stop offset="1" stop-color="#F46C17"/>
</radialGradient>
<radialGradient id="paint37_radial" cx="0" cy="0" r="1" gradientUnits="userSpaceOnUse" gradientTransform="translate(224.459 181.009) rotate(-152.682) scale(138.476 305.687)">
<stop stop-color="#ED1C24"/>
<stop offset="1" stop-color="#F0441D"/>
</radialGradient>
<radialGradient id="paint38_radial" cx="0" cy="0" r="1" gradientUnits="userSpaceOnUse" gradientTransform="translate(224.459 181.009) rotate(-152.682) scale(138.476 305.687)">
<stop stop-color="#ED1C24"/>
<stop offset="1" stop-color="#F47315"/>
</radialGradient>
<radialGradient id="paint39_radial" cx="0" cy="0" r="1" gradientUnits="userSpaceOnUse" gradientTransform="translate(224.46 181.009) rotate(-152.682) scale(138.477 305.686)">
<stop stop-color="#ED1C24"/>
<stop offset="1" stop-color="#F47315"/>
</radialGradient>
<radialGradient id="paint40_radial" cx="0" cy="0" r="1" gradientUnits="userSpaceOnUse" gradientTransform="translate(224.459 181.009) rotate(-152.682) scale(138.476 305.688)">
<stop stop-color="#ED1C24"/>
<stop offset="1" stop-color="#F36618"/>
</radialGradient>
<radialGradient id="paint41_radial" cx="0" cy="0" r="1" gradientUnits="userSpaceOnUse" gradientTransform="translate(224.459 181.008) rotate(-152.682) scale(138.476 305.683)">
<stop stop-color="#ED1C24"/>
<stop offset="1" stop-color="#F46D16"/>
</radialGradient>
<radialGradient id="paint42_radial" cx="0" cy="0" r="1" gradientUnits="userSpaceOnUse" gradientTransform="translate(224.458 181.009) rotate(-152.682) scale(138.475 305.688)">
<stop stop-color="#ED1C24"/>
<stop offset="1" stop-color="#F46D16"/>
</radialGradient>
<radialGradient id="paint43_radial" cx="0" cy="0" r="1" gradientUnits="userSpaceOnUse" gradientTransform="translate(224.459 181.009) rotate(-152.682) scale(138.476 305.688)">
<stop stop-color="#ED1C24"/>
<stop offset="1" stop-color="#F25A1A"/>
</radialGradient>
<radialGradient id="paint44_radial" cx="0" cy="0" r="1" gradientUnits="userSpaceOnUse" gradientTransform="translate(224.459 181.009) rotate(-152.682) scale(138.476 305.687)">
<stop stop-color="#ED1C24"/>
<stop offset="1" stop-color="#F14C1C"/>
</radialGradient>
<radialGradient id="paint45_radial" cx="0" cy="0" r="1" gradientUnits="userSpaceOnUse" gradientTransform="translate(224.458 181.003) rotate(-152.683) scale(138.473 305.671)">
<stop stop-color="#ED1C24"/>
<stop offset="1" stop-color="#F0401E"/>
</radialGradient>
<radialGradient id="paint46_radial" cx="0" cy="0" r="1" gradientUnits="userSpaceOnUse" gradientTransform="translate(335.796 182.984) rotate(-152.682) scale(155.139 342.471)">
<stop stop-color="#ED1C24"/>
<stop offset="1" stop-color="#F36418"/>
</radialGradient>
<radialGradient id="paint47_radial" cx="0" cy="0" r="1" gradientUnits="userSpaceOnUse" gradientTransform="translate(335.796 182.984) rotate(-152.682) scale(155.139 342.47)">
<stop stop-color="#ED1C24"/>
<stop offset="1" stop-color="#F36817"/>
</radialGradient>
<radialGradient id="paint48_radial" cx="0" cy="0" r="1" gradientUnits="userSpaceOnUse" gradientTransform="translate(335.801 182.985) rotate(-152.683) scale(155.141 342.468)">
<stop stop-color="#ED1C24"/>
<stop offset="1" stop-color="#F35E19"/>
</radialGradient>
<radialGradient id="paint49_radial" cx="0" cy="0" r="1" gradientUnits="userSpaceOnUse" gradientTransform="translate(335.796 182.984) rotate(-152.682) scale(155.139 342.47)">
<stop stop-color="#ED1C24"/>
<stop offset="1" stop-color="#F36817"/>
</radialGradient>
<radialGradient id="paint50_radial" cx="0" cy="0" r="1" gradientUnits="userSpaceOnUse" gradientTransform="translate(335.795 182.984) rotate(-152.682) scale(155.139 342.472)">
<stop stop-color="#ED1C24"/>
<stop offset="1" stop-color="#F2571A"/>
</radialGradient>
<radialGradient id="paint51_radial" cx="0" cy="0" r="1" gradientUnits="userSpaceOnUse" gradientTransform="translate(335.796 182.984) rotate(-152.682) scale(155.139 342.47)">
<stop stop-color="#ED1C24"/>
<stop offset="1" stop-color="#F36218"/>
</radialGradient>
<radialGradient id="paint52_radial" cx="0" cy="0" r="1" gradientUnits="userSpaceOnUse" gradientTransform="translate(335.796 182.984) rotate(-152.682) scale(155.139 342.471)">
<stop stop-color="#ED1C24"/>
<stop offset="1" stop-color="#F36817"/>
</radialGradient>
<radialGradient id="paint53_radial" cx="0" cy="0" r="1" gradientUnits="userSpaceOnUse" gradientTransform="translate(335.796 182.984) rotate(-152.682) scale(155.139 342.472)">
<stop stop-color="#ED1C24"/>
<stop offset="1" stop-color="#F35D19"/>
</radialGradient>
<radialGradient id="paint54_radial" cx="0" cy="0" r="1" gradientUnits="userSpaceOnUse" gradientTransform="translate(335.796 182.984) rotate(-152.682) scale(155.139 342.471)">
<stop stop-color="#ED1C24"/>
<stop offset="1" stop-color="#F2591A"/>
</radialGradient>
<radialGradient id="paint55_radial" cx="0" cy="0" r="1" gradientUnits="userSpaceOnUse" gradientTransform="translate(335.796 182.984) rotate(-152.682) scale(155.139 342.471)">
<stop stop-color="#ED1C24"/>
<stop offset="1" stop-color="#F35D19"/>
</radialGradient>
<radialGradient id="paint56_radial" cx="0" cy="0" r="1" gradientUnits="userSpaceOnUse" gradientTransform="translate(335.796 182.984) rotate(-152.682) scale(155.139 342.47)">
<stop stop-color="#ED1C24"/>
<stop offset="1" stop-color="#F35E19"/>
</radialGradient>
<radialGradient id="paint57_radial" cx="0" cy="0" r="1" gradientUnits="userSpaceOnUse" gradientTransform="translate(335.795 182.984) rotate(-152.682) scale(155.139 342.47)">
<stop stop-color="#ED1C24"/>
<stop offset="1" stop-color="#F2591A"/>
</radialGradient>
<radialGradient id="paint58_radial" cx="0" cy="0" r="1" gradientUnits="userSpaceOnUse" gradientTransform="translate(335.796 182.984) rotate(-152.682) scale(155.139 342.47)">
<stop stop-color="#ED1C24"/>
<stop offset="1" stop-color="#F14E1C"/>
</radialGradient>
<radialGradient id="paint59_radial" cx="0" cy="0" r="1" gradientUnits="userSpaceOnUse" gradientTransform="translate(335.796 182.984) rotate(-152.682) scale(155.139 342.47)">
<stop stop-color="#ED1C24"/>
<stop offset="1" stop-color="#F2581A"/>
</radialGradient>
<radialGradient id="paint60_radial" cx="0" cy="0" r="1" gradientUnits="userSpaceOnUse" gradientTransform="translate(335.796 182.984) rotate(-152.682) scale(155.139 342.471)">
<stop stop-color="#951F25"/>
<stop offset="1" stop-color="#DA2324"/>
</radialGradient>
<radialGradient id="paint61_radial" cx="0" cy="0" r="1" gradientUnits="userSpaceOnUse" gradientTransform="translate(335.796 182.984) rotate(-152.682) scale(155.139 342.471)">
<stop stop-color="#ED1C24"/>
<stop offset="1" stop-color="#F1491C"/>
</radialGradient>
<radialGradient id="paint62_radial" cx="0" cy="0" r="1" gradientUnits="userSpaceOnUse" gradientTransform="translate(335.796 182.984) rotate(-152.682) scale(155.139 342.471)">
<stop stop-color="#641B1F"/>
<stop offset="1" stop-color="#CF1E25"/>
</radialGradient>
<radialGradient id="paint63_radial" cx="0" cy="0" r="1" gradientUnits="userSpaceOnUse" gradientTransform="translate(335.796 182.984) rotate(-152.682) scale(155.139 342.471)">
<stop stop-color="#A62025"/>
<stop offset="1" stop-color="#DD2424"/>
</radialGradient>
<radialGradient id="paint64_radial" cx="0" cy="0" r="1" gradientUnits="userSpaceOnUse" gradientTransform="translate(335.794 182.984) rotate(-152.681) scale(155.137 342.47)">
<stop stop-color="#3F1214"/>
<stop offset="1" stop-color="#C71E25"/>
</radialGradient>
<radialGradient id="paint65_radial" cx="0" cy="0" r="1" gradientUnits="userSpaceOnUse" gradientTransform="translate(335.796 182.984) rotate(-152.682) scale(155.139 342.471)">
<stop stop-color="#BB1F25"/>
<stop offset="1" stop-color="#E32424"/>
</radialGradient>
<radialGradient id="paint66_radial" cx="0" cy="0" r="1" gradientUnits="userSpaceOnUse" gradientTransform="translate(335.793 182.984) rotate(-152.681) scale(155.136 342.468)">
<stop stop-color="#290C0D"/>
<stop offset="1" stop-color="#C21E25"/>
</radialGradient>
<radialGradient id="paint67_radial" cx="0" cy="0" r="1" gradientUnits="userSpaceOnUse" gradientTransform="translate(335.795 182.984) rotate(-152.682) scale(155.139 342.47)">
<stop stop-color="#8B1F24"/>
<stop offset="1" stop-color="#D71E25"/>
</radialGradient>
<radialGradient id="paint68_radial" cx="0" cy="0" r="1" gradientUnits="userSpaceOnUse" gradientTransform="translate(335.795 182.985) rotate(-152.682) scale(155.138 342.472)">
<stop stop-color="#AB1F25"/>
<stop offset="1" stop-color="#DF1D25"/>
</radialGradient>
<clipPath id="clip0">
<rect width="244" height="244" fill="white"/>
</clipPath>
</defs>
</svg>
