<?xml version="1.0" encoding="iso-8859-1"?>
<!-- Generator: Adobe Illustrator 19.0.0, SVG Export Plug-In . SVG Version: 6.00 Build 0)  -->
<svg version="1.1" id="Layer_1" xmlns="http://www.w3.org/2000/svg" xmlns:xlink="http://www.w3.org/1999/xlink" x="0px" y="0px"
	 viewBox="0 0 512 512" style="enable-background:new 0 0 512 512;" xml:space="preserve">
<path style="fill:#54CCFF;" d="M417.614,322.783H238.859c-31.499-5.677-55.207-34.17-55.207-66.783v-33.391
	c0-36.842,29.94-66.783,66.783-66.783H359.96c27.157,0,51.31,16.25,61.661,41.294c25.043,74.463,19.59,58.101,27.492,81.697
	C456.236,300.299,440.321,322.671,417.614,322.783z"/>
<g>
	<path style="fill:#4BB8E6;" d="M417.614,322.783H256V155.826h103.959c27.157,0,51.31,16.25,61.661,41.294
		c25.043,74.463,19.59,58.101,27.492,81.697C456.236,300.299,440.321,322.671,417.614,322.783z"/>
	<path style="fill:#4BB8E6;" d="M306.087,155.826c-27.619,0-50.087-22.468-50.087-50.087s22.468-50.087,50.087-50.087
		s50.087,22.468,50.087,50.087S333.706,155.826,306.087,155.826z"/>
</g>
<path style="fill:#5C5F66;" d="M33.391,456.348C14.978,456.348,0,441.37,0,422.957s14.978-33.391,33.391-33.391h445.217
	c18.413,0,33.391,14.978,33.391,33.391s-14.978,33.391-33.391,33.391H33.391z"/>
<path style="fill:#53565C;" d="M478.609,389.565H256v66.783h222.609c18.413,0,33.391-14.978,33.391-33.391
	C512,404.543,497.022,389.565,478.609,389.565z"/>
<path style="fill:#F9BC35;" d="M128,389.565c-18.413,0-33.391-14.978-33.391-33.391s14.978-33.391,33.391-33.391h345.043
	c18.413,0,33.391,14.978,33.391,33.391s-14.978,33.391-33.391,33.391H128z"/>
<path style="fill:#E7812E;" d="M488.007,212.033c-5.71-17.153-24.309-27.117-42.239-21.103l-100.174,33.391
	c-14.989,5-22.826,19.718-22.826,31.679v83.478h66.783V280.07l77.348-25.783C484.361,248.464,493.867,229.591,488.007,212.033z"/>
<path style="fill:#F39E31;" d="M473.043,322.783H256v66.783h217.043c18.413,0,33.391-14.978,33.391-33.391
	C506.435,337.761,491.457,322.783,473.043,322.783z"/>
<path style="fill:#F9BC35;" d="M50.087,389.565C22.468,389.565,0,367.097,0,339.478s22.468-50.087,50.087-50.087
	s50.087,22.468,50.087,50.087S77.706,389.565,50.087,389.565z"/>
<g>
</g>
<g>
</g>
<g>
</g>
<g>
</g>
<g>
</g>
<g>
</g>
<g>
</g>
<g>
</g>
<g>
</g>
<g>
</g>
<g>
</g>
<g>
</g>
<g>
</g>
<g>
</g>
<g>
</g>
</svg>
