<svg id="Layer_3" enable-background="new 0 0 64 64" height="512" viewBox="0 0 64 64" width="512" xmlns="http://www.w3.org/2000/svg"><g><path d="m32 35h-10v-17h6c2.209 0 4 1.791 4 4z" fill="#f4b2b0"/><path d="m26 6v2c0 2.209-1.791 4-4 4v-10h12c0 2.209-1.791 4-4 4z" fill="#f4b2b0"/><g fill="#b3404a"><path d="m33 11v-5.002c1.214-.914 2-2.366 2-3.998 0-.552-.447-1-1-1h-12c-.553 0-1 .448-1 1v9c0 3.309 2.691 6 6 6s6-2.691 6-6zm-10-8h9.829c-.413 1.164-1.525 2-2.829 2h-4c-.553 0-1 .448-1 1v2c0 1.304-.836 2.416-2 2.829zm8 8c0 2.206-1.794 4-4 4-1.562 0-2.917-.899-3.575-2.207 2.065-.615 3.575-2.531 3.575-4.793v-1h3c.343 0 .677-.035 1-.101z"/><path d="m62 57h-1v-15c0-4.411-3.589-8-8-8h-11.586l-8.414-8.414v-3.586c0-2.757-2.243-5-5-5h-1-5c-.553 0-1 .448-1 1v16h-10c-4.411 0-8 3.589-8 8v15h-1c-.553 0-1 .448-1 1v4c0 .552.447 1 1 1h8c.553 0 1-.448 1-1v-4c0-.552-.447-1-1-1h-1v-14c0-1.654 1.346-3 3-3h9v22c0 .552.447 1 1 1h8c.553 0 1-.448 1-1v-2c0-1.302-.839-2.402-2-2.816v-13.184h4v5 4c0 .552.447 1 1 1h8c.553 0 1-.448 1-1v-2c0-1.302-.839-2.402-2-2.816v-7.184c0-.338-.045-.672-.112-1h11.112c1.654 0 3 1.346 3 3v14h-1c-.553 0-1 .448-1 1v4c0 .552.447 1 1 1h8c.553 0 1-.448 1-1v-4c0-.552-.447-1-1-1zm-24-23.586 1.586 1.586-1.586 1.586-1.586-1.586zm-3 .172-8.672-8.672c-.212-.212-.328-.493-.328-.793 0-.618.503-1.121 1.121-1.121.295 0 .584.12.793.328l8.672 8.672zm-12-14.586h5c1.654 0 3 1.346 3 3v1.586l-1.672-1.672c-.581-.581-1.385-.914-2.207-.914-1.721 0-3.121 1.4-3.121 3.121 0 .834.324 1.618.914 2.207l7.672 7.672h-9.586zm-14 42h-6v-2h6zm-2-18v14h-2v-15c0-3.309 2.691-6 6-6h23.586l2 2h-24.586c-2.757 0-5 2.243-5 5zm20-3v17h-4v-17zm2 21h-6v-2h5c.552 0 1 .449 1 1zm12-9h-6v-2h5c.552 0 1 .449 1 1zm-2-11v7h-4v-5c0-.552-.447-1-1-1h-5v-2h9.806c.114.321.194.654.194 1zm13-3h-12.586l2-2h11.586c3.309 0 6 2.691 6 6v15h-2v-14c0-2.757-2.243-5-5-5zm9 23h-6v-2h6z"/></g></g></svg>