<svg width="411" height="731" viewBox="0 0 411 731" fill="none" xmlns="http://www.w3.org/2000/svg">
<g clip-path="url(#clip0)">
<path d="M300.507 575.242C300.507 578.212 256.067 580.618 201.246 580.618C146.426 580.618 101.986 578.212 101.986 575.242C101.986 572.271 146.426 569.865 201.246 569.865C256.067 569.865 300.507 572.271 300.507 575.242Z" fill="#E9E9E9"/>
<path d="M176.65 258.338L174.399 259.568C174.098 259.733 173.984 260.116 174.15 260.421C174.259 260.625 174.468 260.742 174.682 260.749L174.998 260.672L177.249 259.439C177.554 259.275 177.665 258.892 177.499 258.589C177.335 258.283 176.957 258.168 176.65 258.338" fill="#C91E25"/>
<path d="M208.165 241.104L205.912 242.334C205.61 242.499 205.499 242.881 205.663 243.185C205.774 243.39 205.981 243.507 206.197 243.514L206.511 243.436L208.762 242.205C209.066 242.04 209.178 241.658 209.012 241.355C208.848 241.049 208.467 240.934 208.165 241.104Z" fill="#C91E25"/>
<path d="M172.151 260.799L169.898 262.03C169.596 262.195 169.484 262.577 169.648 262.883C169.758 263.086 169.967 263.205 170.183 263.21L170.497 263.134L172.748 261.901C173.052 261.736 173.164 261.356 172.997 261.05C172.833 260.744 172.453 260.63 172.151 260.799Z" fill="#C91E25"/>
<path d="M203.664 243.565L201.413 244.798C201.108 244.963 200.997 245.342 201.163 245.648C201.272 245.854 201.479 245.971 201.695 245.976L202.009 245.899L204.26 244.669C204.564 244.504 204.676 244.121 204.51 243.816C204.346 243.512 203.968 243.395 203.664 243.565" fill="#C91E25"/>
<path d="M214.459 242.244L216.38 243.462L216.696 243.558L217.24 243.264C217.426 242.97 217.338 242.583 217.045 242.396L215.125 241.18C214.835 240.994 214.447 241.08 214.262 241.376C214.079 241.67 214.167 242.057 214.459 242.244" fill="#C91E25"/>
<path d="M185.657 253.414L183.403 254.644C183.101 254.809 182.99 255.191 183.154 255.497C183.265 255.7 183.472 255.82 183.689 255.824L184.002 255.748L186.253 254.515C186.558 254.35 186.669 253.97 186.503 253.664C186.339 253.359 185.959 253.244 185.657 253.414Z" fill="#C91E25"/>
<path d="M194.66 248.489L192.407 249.72C192.105 249.887 191.991 250.267 192.157 250.573C192.267 250.776 192.476 250.895 192.69 250.9L193.006 250.824L195.257 249.593C195.561 249.426 195.673 249.046 195.506 248.74C195.342 248.434 194.962 248.32 194.66 248.489" fill="#C91E25"/>
<path d="M181.152 255.874L178.903 257.105C178.599 257.272 178.487 257.652 178.654 257.958C178.763 258.161 178.97 258.281 179.186 258.285L179.5 258.209L181.751 256.978C182.055 256.811 182.167 256.431 182 256.125C181.836 255.82 181.456 255.707 181.152 255.874" fill="#C91E25"/>
<path d="M199.159 246.026L196.911 247.259C196.606 247.424 196.495 247.806 196.661 248.109C196.77 248.315 196.977 248.432 197.194 248.437L197.507 248.36L199.758 247.13C200.062 246.965 200.174 246.583 200.008 246.277C199.844 245.973 199.463 245.859 199.159 246.026" fill="#C91E25"/>
<path d="M323.282 249.552C323.158 250.214 323.113 250.886 323.23 252.317C326.296 247.373 328.601 248.974 326.248 252.857H326.251C328.119 250.224 327.515 246.652 324.026 250.597V250.609C323.779 250.257 323.531 249.904 323.282 249.552" fill="#C91E25"/>
<path d="M232.73 255.779C232.666 258.324 234.667 260.438 237.199 260.503C239.73 260.567 241.833 258.555 241.898 256.011C241.959 253.466 239.96 251.351 237.429 251.287C234.898 251.225 232.794 253.234 232.73 255.779Z" fill="#C91E25"/>
<path d="M230.489 250.917C230.199 250.733 229.811 250.819 229.626 251.115C229.443 251.409 229.531 251.796 229.823 251.982L231.743 253.199L232.062 253.294L232.606 253.003C232.789 252.709 232.701 252.319 232.409 252.135L230.489 250.917" fill="#C91E25"/>
<path d="M226.648 248.482C226.358 248.298 225.97 248.384 225.785 248.68C225.602 248.974 225.69 249.361 225.982 249.548L227.903 250.764L228.219 250.859L228.763 250.568C228.949 250.274 228.861 249.885 228.568 249.701L226.648 248.482" fill="#C91E25"/>
<path d="M222.807 246.05C222.517 245.866 222.132 245.949 221.944 246.246C221.761 246.54 221.849 246.927 222.141 247.113L224.062 248.332L224.378 248.427L224.925 248.133C225.108 247.839 225.02 247.452 224.727 247.266L222.807 246.05Z" fill="#C91E25"/>
<path d="M218.966 243.615C218.676 243.428 218.289 243.514 218.103 243.81C217.918 244.104 218.008 244.491 218.298 244.678L220.221 245.896L220.54 245.992L221.084 245.698C221.267 245.404 221.179 245.017 220.887 244.831L218.966 243.615" fill="#C91E25"/>
<path d="M315.738 253.371C314.328 256.795 312.957 260.601 315.918 258.952C317.934 257.476 315.479 254.35 315.738 253.371Z" fill="#C91E25"/>
<path d="M211.622 241.973C213.29 242.014 214.678 240.69 214.719 239.013C214.761 237.335 213.442 235.942 211.774 235.899C210.105 235.856 208.719 237.183 208.677 238.86C208.636 240.537 209.955 241.93 211.622 241.973Z" fill="#C91E25"/>
<path d="M190.158 250.95L187.905 252.183C187.603 252.348 187.492 252.728 187.656 253.033C187.767 253.239 187.974 253.356 188.19 253.361L188.504 253.284L190.755 252.054C191.059 251.889 191.171 251.507 191.005 251.201C190.841 250.897 190.463 250.78 190.158 250.95" fill="#C91E25"/>
<path d="M165.462 264.378C165.436 265.449 166.277 266.338 167.34 266.364C168.405 266.39 169.289 265.544 169.315 264.476C169.343 263.406 168.502 262.517 167.437 262.491C166.372 262.462 165.488 263.308 165.462 264.378Z" fill="#C91E25"/>
<path d="M214.758 358.997L215.296 358.715C215.486 358.426 215.407 358.034 215.12 357.843L213.033 356.457C212.745 356.268 212.358 356.345 212.165 356.634C211.975 356.925 212.056 357.315 212.341 357.506L214.428 358.892L214.758 358.997Z" fill="#C91E25"/>
<path d="M163.782 371.2L165.289 369.193C165.495 368.915 165.441 368.521 165.165 368.311C164.892 368.103 164.497 368.156 164.29 368.435L162.783 370.442C162.577 370.72 162.631 371.114 162.907 371.322L163.266 371.448L163.782 371.2" fill="#C91E25"/>
<path d="M210.587 356.223L211.124 355.941C211.314 355.652 211.234 355.263 210.948 355.069L208.861 353.683C208.574 353.494 208.184 353.571 207.994 353.86C207.804 354.152 207.882 354.541 208.17 354.732L210.257 356.118L210.587 356.223Z" fill="#C91E25"/>
<path d="M175.831 355.143L177.335 353.133C177.544 352.859 177.49 352.462 177.214 352.254C176.94 352.046 176.546 352.099 176.339 352.378L174.832 354.385C174.623 354.663 174.678 355.057 174.953 355.265L175.315 355.391L175.831 355.143" fill="#C91E25"/>
<path d="M172.816 359.157L174.323 357.15C174.533 356.873 174.478 356.479 174.202 356.268C173.929 356.06 173.534 356.113 173.325 356.393L171.821 358.4C171.611 358.677 171.666 359.071 171.942 359.279L172.303 359.406L172.816 359.157Z" fill="#C91E25"/>
<path d="M193.899 345.129L194.436 344.85C194.627 344.558 194.548 344.169 194.26 343.978L192.174 342.589C191.886 342.401 191.499 342.479 191.308 342.769C191.118 343.058 191.197 343.447 191.484 343.638L193.569 345.026L193.899 345.129" fill="#C91E25"/>
<path d="M166.794 367.186L168.3 365.179C168.51 364.901 168.455 364.507 168.177 364.297C167.904 364.089 167.511 364.142 167.302 364.421L165.798 366.428C165.588 366.705 165.643 367.1 165.919 367.307L166.28 367.434L166.794 367.186" fill="#C91E25"/>
<path d="M169.807 363.171L171.312 361.164C171.519 360.887 171.464 360.493 171.188 360.283C170.915 360.075 170.52 360.127 170.311 360.407L168.806 362.414C168.6 362.691 168.654 363.085 168.93 363.296L169.291 363.42L169.807 363.171Z" fill="#C91E25"/>
<path d="M186.006 344.052C189.918 344.152 193.17 341.044 193.267 337.111C193.365 333.178 190.275 329.909 186.362 329.811C182.45 329.713 179.198 332.822 179.101 336.755C179.001 340.685 182.093 343.954 186.006 344.052" fill="#C91E25"/>
<path d="M202.242 350.675L202.779 350.395C202.97 350.104 202.891 349.714 202.604 349.523L200.519 348.137C200.229 347.946 199.844 348.025 199.652 348.314C199.461 348.603 199.54 348.995 199.828 349.186L201.914 350.572L202.242 350.675" fill="#C91E25"/>
<path d="M195.48 345.54C195.29 345.832 195.368 346.221 195.656 346.412L197.74 347.801L198.071 347.903L198.608 347.621C198.798 347.332 198.719 346.943 198.432 346.752L196.345 345.363C196.06 345.172 195.67 345.251 195.48 345.54Z" fill="#C91E25"/>
<path d="M180.976 347.236L181.338 347.363L181.853 347.115L183.358 345.105C183.567 344.828 183.513 344.434 183.237 344.226C182.963 344.018 182.569 344.07 182.362 344.35L180.855 346.357C180.646 346.634 180.701 347.029 180.976 347.236" fill="#C91E25"/>
<path d="M206.413 353.449L206.951 353.167C207.143 352.878 207.062 352.489 206.775 352.298L204.69 350.912C204.402 350.72 204.013 350.799 203.823 351.089C203.632 351.378 203.711 351.767 203.998 351.958L206.085 353.346L206.413 353.449" fill="#C91E25"/>
<path d="M178.839 351.129L180.346 349.119C180.555 348.845 180.498 348.448 180.225 348.24C179.949 348.032 179.557 348.085 179.348 348.364L177.843 350.372C177.634 350.649 177.689 351.043 177.965 351.251L178.326 351.377L178.839 351.129" fill="#C91E25"/>
<path d="M308.617 286.157L307.763 288.521C307.645 288.848 307.811 289.209 308.137 289.326L308.334 289.364C308.595 289.371 308.843 289.211 308.938 288.951L309.793 286.587C309.91 286.263 309.744 285.902 309.418 285.782C309.097 285.66 308.736 285.832 308.617 286.157Z" fill="#C91E25"/>
<path d="M306.908 290.884L306.052 293.247C305.936 293.572 306.102 293.932 306.425 294.052L306.625 294.09C306.887 294.095 307.134 293.937 307.226 293.677L308.082 291.314C308.201 290.986 308.035 290.626 307.709 290.509C307.386 290.387 307.027 290.556 306.908 290.884" fill="#C91E25"/>
<path d="M309.846 284.599L310.043 284.637C310.305 284.645 310.552 284.485 310.647 284.224L311.503 281.863C311.619 281.536 311.453 281.178 311.13 281.058C310.804 280.934 310.445 281.106 310.329 281.433L309.473 283.794C309.354 284.121 309.52 284.482 309.846 284.599Z" fill="#C91E25"/>
<path d="M305.199 295.607L304.345 297.971C304.227 298.298 304.393 298.659 304.719 298.776L304.916 298.814C305.177 298.821 305.425 298.661 305.52 298.401L306.373 296.038C306.492 295.713 306.323 295.349 306 295.232C305.676 295.11 305.315 295.282 305.199 295.607Z" fill="#C91E25"/>
<path d="M312.835 276.332C312.512 276.208 312.151 276.382 312.034 276.707L311.181 279.07C311.062 279.395 311.228 279.759 311.554 279.876L311.751 279.914C312.013 279.921 312.262 279.761 312.355 279.5L313.209 277.137C313.327 276.81 313.161 276.449 312.835 276.332Z" fill="#C91E25"/>
<path d="M315.65 274.077C315.679 273.007 314.837 272.118 313.773 272.091C312.708 272.065 311.824 272.911 311.797 273.979C311.771 275.049 312.613 275.938 313.675 275.967C314.74 275.993 315.624 275.147 315.65 274.077" fill="#C91E25"/>
<path d="M303.207 303.54C303.468 303.545 303.716 303.387 303.808 303.127L304.664 300.763C304.78 300.439 304.614 300.075 304.291 299.958C303.968 299.836 303.606 300.008 303.49 300.333L302.637 302.696C302.518 303.021 302.684 303.382 303.01 303.502L303.207 303.54Z" fill="#C91E25"/>
<path d="M85.744 510.088C84.3441 509.398 82.7658 508.37 81.0188 506.92C75.7279 502.086 77.1635 496.018 75.5924 488.706H73.7788C75.5829 493.819 73.3843 507.792 85.744 510.088" fill="#F0431D"/>
<path d="M65.4316 477.134C67.8061 480.628 70.3732 484.099 73.2017 487.535H73.1969C73.437 487.836 73.6176 488.25 73.7792 488.706H75.5928C74.9891 485.896 73.9551 482.907 71.8991 479.724C64.2504 469.653 74.5493 463.771 81.8416 462.368C82.7876 462.186 83.6314 461.673 84.2327 460.918C87.7933 456.435 90.1345 453.171 91.7912 450.596L86.234 440.916L65.4316 477.134Z" fill="#EF391F"/>
<path d="M48.3989 440.916C51.8834 453.236 57.4168 465.34 65.4316 477.134L86.234 440.916H48.3989Z" fill="#EE2D21"/>
<path d="M91.7911 450.596C94.5887 446.247 95.442 443.855 96.8966 440.917H86.2339L91.7911 450.596" fill="#F0421E"/>
<path d="M58.7858 393.124L44.2251 418.473C44.9667 426.019 46.3048 433.507 48.3989 440.916H86.234L58.7858 393.124Z" fill="#EF381F"/>
<path d="M43.914 393.124C43.3388 401.626 43.403 410.084 44.2254 418.473L58.7862 393.124H43.914Z" fill="#EF3520"/>
<path d="M86.2339 440.916H96.8965C98.0113 438.663 99.4778 436.09 102.461 432.052C103.122 431.158 103.654 430.157 103.982 429.091C106.758 420.112 114.348 414.203 121.939 407.503L113.68 393.124L86.2339 440.916" fill="#EF3620"/>
<path d="M86.2338 440.916L113.68 393.124H58.7856L86.2338 440.916Z" fill="#F03D1F"/>
<path d="M46.5685 371.857C45.3088 378.963 44.3937 386.057 43.9136 393.125H58.7857L46.5685 371.857" fill="#EF3620"/>
<path d="M121.939 407.503C126.665 403.334 131.371 398.842 134.936 393.124H113.68L121.939 407.503Z" fill="#F0441D"/>
<path d="M58.7856 393.125H113.68L86.2338 345.335L58.7856 393.125Z" fill="#F0441D"/>
<path d="M86.2341 345.335H85.7278L67.8846 376.597C68.9115 366.681 70.6751 356.204 73.0829 345.335H52.725C50.2411 354.171 48.1376 363.021 46.5688 371.857L58.786 393.125L86.2341 345.335" fill="#EF381F"/>
<path d="M113.68 393.125H134.936C136.928 389.932 138.58 386.375 139.647 382.248C140.904 377.376 142.875 372.703 145.853 368.655C147.759 366.065 149.494 364.259 151.123 362.734L141.13 345.335L113.68 393.125" fill="#F14A1C"/>
<path d="M113.68 393.125L141.128 345.335H86.2339L113.68 393.125" fill="#F2531B"/>
<path d="M85.728 345.334H86.234L85.9798 344.893L85.728 345.334" fill="#F14A1C"/>
<path d="M77.0357 329.321L64.966 308.302C60.4357 320.559 56.212 332.931 52.7251 345.334H73.083C74.2453 340.085 75.5573 334.747 77.0357 329.321" fill="#F14A1C"/>
<path d="M151.123 362.734C153.383 360.612 155.432 359.009 157.421 356.689C157.676 356.218 157.928 355.745 158.182 355.274C158.256 351.597 158.496 348.309 158.9 345.335H141.128L151.123 362.734Z" fill="#F14E1C"/>
<path d="M141.128 345.334L113.68 297.543L86.2339 345.334H141.128Z" fill="#F25D19"/>
<path d="M85.98 344.892L86.2343 345.334L113.68 297.543H113.003L85.98 344.892Z" fill="#F2571A"/>
<path d="M87.1801 297.543H69.016C67.6469 301.117 66.2945 304.706 64.9658 308.302L77.0356 329.321C79.8475 318.997 83.2369 308.374 87.1801 297.543Z" fill="#F2571A"/>
<path d="M168.576 297.543L141.128 345.334H158.9C160.789 331.407 166.522 324.6 178.079 319.897C178.64 318.937 179.191 317.962 179.755 317.004L168.576 297.543Z" fill="#F2591A"/>
<path d="M168.576 297.543H113.68L141.128 345.334L168.576 297.543Z" fill="#F36118"/>
<path d="M113.002 297.543H113.679L113.339 296.951L113.002 297.543" fill="#F36118"/>
<path d="M87.0207 251.125C86.7022 251.975 86.3789 252.831 86.0557 253.686C86.619 253.258 87.1847 252.812 87.748 252.391L87.0207 251.125" fill="#F36118"/>
<path d="M98.071 270.364L88.157 253.101L82.474 263.059C78.0934 274.368 73.4799 285.89 69.0161 297.543H87.1801C90.4341 288.602 94.0588 279.529 98.071 270.364Z" fill="#F36118"/>
<path d="M191.399 297.543H168.576L179.755 317.004C183.596 310.443 187.484 303.97 191.399 297.543Z" fill="#F25C19"/>
<path d="M113.68 297.543H168.576L157.16 277.663C154.626 278.815 152.218 277.348 147.626 275.883C144.059 274.746 139.176 273.608 131.894 273.695C131.463 273.699 130.998 273.36 131.002 272.928C131.017 272.053 132.424 271.432 134.465 270.968L134.014 270.653C132.963 269.157 135.975 267.726 140.301 268.538C142.511 268.954 145.309 269.057 147.522 269.059C149.1 269.09 149.152 267.721 147.857 266.675C144.199 263.724 145.501 261.406 148.251 262.152L141.128 249.751L113.68 297.543" fill="#F36618"/>
<path d="M113.34 296.95L113.68 297.543L141.128 249.751H140.277L113.34 296.95" fill="#F36717"/>
<path d="M89.1958 251.285L88.1571 253.101L98.0711 270.364C101.059 263.533 104.258 256.656 107.659 249.751H87.5273C87.3585 250.21 87.1921 250.666 87.021 251.125L87.7483 252.391C88.2308 252.03 88.7133 251.638 89.1958 251.285" fill="#F36717"/>
<path d="M191.399 297.543C196.908 288.499 202.482 279.582 208.12 270.811L198.106 253.375C196.295 254.052 194.484 254.795 192.678 255.578L168.576 297.543H191.399" fill="#F14C1C"/>
<path d="M192.677 255.578C182.778 259.882 173.144 265.568 165.769 270.486C163.542 271.972 161.507 273.74 159.693 275.711C158.785 276.696 157.968 277.298 157.16 277.663L168.576 297.543L192.677 255.578" fill="#F2531B"/>
<path d="M148.251 262.151C149.102 262.381 150.086 262.897 151.113 263.788C151.857 264.436 153.031 264.364 153.759 263.697C156.387 261.289 161.117 260.433 163.014 260.519C169.049 257.091 171.435 253.786 175.262 249.751H141.128L148.251 262.151" fill="#F2531B"/>
<path d="M122.619 221.552C123.002 220.878 123.401 220.228 123.787 219.556L113.68 201.961L89.7901 243.558C89.0509 245.615 88.2975 247.679 87.5273 249.751H107.659C112.28 240.38 117.248 230.966 122.619 221.552" fill="#F25C19"/>
<path d="M140.277 249.75H141.128L140.703 249.009L140.277 249.75Z" fill="#F25C19"/>
<path d="M102.064 201.961C99.3308 215.279 94.955 229.205 89.79 243.558L113.68 201.961H102.064Z" fill="#F2551A"/>
<path d="M298.513 297.543H295.951C296.559 299.005 297.032 299.356 298.513 297.543Z" fill="#F03C1F"/>
<path d="M218.773 254.501C217.029 253.113 215.258 251.55 213.618 249.751H210.704C206.625 250.515 202.375 251.775 198.106 253.375L208.12 270.811C211.648 265.322 215.196 259.879 218.773 254.501" fill="#F0411E"/>
<path d="M141.128 249.751H175.262C178.281 246.57 182.203 242.936 189.521 238.425L168.576 201.961L141.128 249.751Z" fill="#F14E1C"/>
<path d="M140.703 249.008L141.128 249.751L168.576 201.961H167.552L140.703 249.008Z" fill="#F14F1B"/>
<path d="M113.68 201.961L123.786 219.556C127.242 213.559 130.769 207.683 134.373 201.961H113.68Z" fill="#F14F1B"/>
<path d="M104.526 186.019C104.015 191.226 103.176 196.544 102.064 201.961H113.68L104.526 186.019Z" fill="#F1471D"/>
<path d="M285.062 285.89C293.326 289.147 294.886 294.986 295.95 297.543H298.513L298.693 297.33C304.136 287.622 307.619 279.52 308.039 272.483C308.082 271.781 308.008 271.081 307.906 270.383C307.027 264.343 308.752 261.131 310.3 257.554L305.817 249.751L285.062 285.89" fill="#F03A1F"/>
<path d="M301.94 249.751L293.517 264.514C293.552 267.384 293.742 268.56 291.095 268.756L284.002 281.185C284.515 283.259 284.418 284.986 284.613 285.694L285.062 285.89L305.817 249.751H301.94Z" fill="#F0401E"/>
<path d="M223.472 201.961L208.234 228.492C209.527 227.986 210.936 227.809 212.156 228.631C220.052 231.995 226.229 234.246 231.014 236.442C233.248 233.204 235.49 229.993 237.738 226.798L223.472 201.961Z" fill="#F03B1F"/>
<path d="M213.216 249.333C212.389 249.445 211.548 249.593 210.704 249.751H213.618L213.216 249.333Z" fill="#F03B1F"/>
<path d="M168.576 201.961L189.521 238.425C193.441 236.009 198.332 233.343 204.588 230.361C205.294 230.024 205.988 229.661 206.661 229.264C207.148 228.977 207.683 228.707 208.234 228.492L223.472 201.961H168.576" fill="#EF3320"/>
<path d="M167.552 201.961H168.576L168.063 201.067L167.552 201.961Z" fill="#EF3120"/>
<path d="M134.373 201.961C140.367 192.432 146.552 183.307 152.865 174.603L141.128 154.169L113.68 201.961H134.373Z" fill="#EF3120"/>
<path d="M141.131 154.169H102.666C105.178 164.199 105.622 174.851 104.527 186.019L113.68 201.961L141.131 154.169Z" fill="#EF2E21"/>
<path d="M310.3 257.555C311.094 255.717 311.84 253.784 312.158 251.316C312.177 250.597 312.318 250.107 312.51 249.751H305.817L310.3 257.555" fill="#E82124"/>
<path d="M315.141 250.539C315.148 250.254 315.165 250.021 315.176 249.754H314.668C314.865 249.98 315.039 250.237 315.141 250.539Z" fill="#E82124"/>
<path d="M319.21 250.437C319.276 250.197 319.347 249.981 319.418 249.755H319.177C319.186 249.983 319.205 250.204 319.21 250.437Z" fill="#E82124"/>
<path d="M305.817 249.751L303.873 246.365L301.94 249.751H305.817Z" fill="#E61D25"/>
<path d="M255.703 201.961H223.473L237.739 226.799C243.678 218.367 249.668 210.083 255.703 201.961Z" fill="#E11D25"/>
<path d="M223.472 201.961L196.024 154.169L168.576 201.961H223.472Z" fill="#E12124"/>
<path d="M168.564 154.169H141.128L152.865 174.603C158.02 167.492 163.264 160.682 168.564 154.169" fill="#DF2A23"/>
<path d="M168.576 201.961L196.025 154.169H194.827L168.063 201.065L168.576 201.961Z" fill="#DF2A23"/>
<path d="M141.131 154.169L124.852 125.829C117.583 125.069 110.331 124.687 103.127 124.754L95.9893 137.183C99.0126 142.614 101.195 148.286 102.666 154.169H141.131Z" fill="#E33B20"/>
<path d="M87.8906 125.528C91.0851 129.274 93.752 133.167 95.9887 137.183L103.126 124.754C98.0209 124.799 92.9391 125.047 87.8906 125.528Z" fill="#EA2922"/>
<path d="M312.51 249.75C313.036 248.785 314.027 249.01 314.668 249.75H315.177C315.593 239.307 318.837 243.091 319.177 249.75H319.42C321.248 243.856 324.064 243.607 323.869 246.549C323.684 247.861 323.499 248.563 323.363 249.165C325.17 243.192 322.122 243.476 320.677 245.944V245.947C318.336 242.757 315.897 239.624 313.418 236.516L305.817 249.75H312.51" fill="#DB1E25"/>
<path d="M305.818 249.751L313.419 236.516C312.658 235.56 311.898 234.607 311.123 233.661L303.874 246.365L305.818 249.751" fill="#D61E25"/>
<path d="M255.703 201.961C259.076 197.421 262.458 192.917 265.857 188.478C258.025 182.084 249.894 176.087 241.544 170.495L223.473 201.961H255.703" fill="#CB1E25"/>
<path d="M223.473 201.961L241.544 170.495C232.683 164.558 223.572 159.086 214.267 154.169H196.024L223.473 201.961Z" fill="#C61E25"/>
<path d="M195.423 153.123L194.826 154.169H196.024L195.423 153.123" fill="#C32424"/>
<path d="M168.564 154.169C172.747 149.032 176.962 144.074 181.202 139.331C172.341 136.038 163.394 133.26 154.415 131.037L141.128 154.169H168.564Z" fill="#C32424"/>
<path d="M154.415 131.04C144.572 128.607 134.696 126.854 124.851 125.829L141.13 154.169L154.415 131.04" fill="#B01D23"/>
<path d="M214.267 154.169C209.575 151.689 204.838 149.34 200.06 147.142L196.024 154.169H214.267Z" fill="#BA1D24"/>
<path d="M196.024 154.169L200.06 147.142C199.737 146.994 199.411 146.85 199.088 146.702L195.423 153.122L196.024 154.169Z" fill="#CA1E25"/>
<path d="M87.7483 252.391C87.185 252.811 86.6193 253.258 86.056 253.686C84.8842 256.794 83.6911 259.915 82.4741 263.059L88.1572 253.1L87.7483 252.391" fill="#F36118"/>
<path d="M82.4741 263.059C83.6911 259.915 84.8842 256.794 86.056 253.686C86.6193 253.258 87.185 252.811 87.7483 252.391L88.1572 253.1L82.4741 263.059" fill="url(#paint0_radial)"/>
<path d="M87.748 252.391L88.1569 253.101L89.1956 251.285C88.7131 251.638 88.2306 252.03 87.748 252.391Z" fill="#F36717"/>
<path d="M88.1569 253.101L87.748 252.391C88.2306 252.03 88.7131 251.638 89.1956 251.285L88.1569 253.101Z" fill="url(#paint1_radial)"/>
<path d="M158.167 355.815L158.184 355.275C157.929 355.745 157.677 356.218 157.422 356.689C157.67 356.4 157.92 356.13 158.167 355.815" fill="#F14E1C"/>
<path d="M157.422 356.689C157.677 356.218 157.929 355.745 158.184 355.275L158.167 355.815C157.92 356.13 157.67 356.4 157.422 356.689" fill="url(#paint2_radial)"/>
<path d="M178.079 319.897C178.959 319.541 179.871 319.193 180.82 318.858L179.755 317.004C179.192 317.962 178.64 318.937 178.079 319.897Z" fill="#F2591A"/>
<path d="M178.079 319.897C178.64 318.937 179.192 317.962 179.755 317.004L180.82 318.858C179.871 319.193 178.959 319.541 178.079 319.897Z" fill="url(#paint3_radial)"/>
<path d="M179.755 317.004L180.82 318.858C181.359 318.667 181.877 318.471 182.438 318.285C189.507 310.029 194.258 303.299 198.142 297.543H191.399C187.484 303.97 183.596 310.443 179.755 317.004" fill="#F25C19"/>
<path d="M180.82 318.858L179.755 317.004C183.596 310.443 187.484 303.97 191.399 297.543H198.142C194.258 303.299 189.507 310.029 182.438 318.285C181.877 318.471 181.359 318.667 180.82 318.858" fill="url(#paint4_radial)"/>
<path d="M191.399 297.543H198.142C203.381 289.782 207.051 283.823 212.513 278.461L208.12 270.811C202.482 279.582 196.909 288.499 191.399 297.543Z" fill="#F14C1C"/>
<path d="M198.142 297.543H191.399C196.909 288.499 202.482 279.582 208.12 270.811L212.513 278.461C207.051 283.823 203.381 289.782 198.142 297.543Z" fill="url(#paint5_radial)"/>
<path d="M212.513 278.461C215.208 275.816 218.322 273.305 222.324 270.796C223.344 266.426 224.846 263.473 227.42 261.401C225.756 259.47 222.346 257.341 218.773 254.5C215.196 259.879 211.647 265.322 208.12 270.81L212.513 278.461Z" fill="#F0411E"/>
<path d="M212.513 278.461L208.12 270.81C211.647 265.322 215.196 259.879 218.773 254.5C222.346 257.341 225.756 259.47 227.42 261.401C224.846 263.473 223.344 266.426 222.324 270.796C218.322 273.305 215.208 275.816 212.513 278.461Z" fill="url(#paint6_radial)"/>
<path d="M298.382 249.751C297.747 256.969 294.334 258.751 293.664 260.873C293.509 262.316 293.502 263.514 293.516 264.515L301.94 249.751H298.382" fill="#F0401E"/>
<path d="M293.516 264.515C293.514 264.309 293.511 264.099 293.511 263.879C293.511 263.016 293.54 262.023 293.663 260.873C294.334 258.751 297.747 256.969 298.381 249.751H301.94L293.516 264.515" fill="url(#paint7_radial)"/>
<path d="M255.009 252.157C255.13 251.335 255.28 250.537 255.439 249.751H253.069C253.963 250.542 254.621 251.392 255.009 252.157Z" fill="#F0401E"/>
<path d="M255.009 252.157C254.621 251.392 253.963 250.542 253.069 249.751H255.439C255.28 250.537 255.13 251.335 255.009 252.157Z" fill="url(#paint8_radial)"/>
<path d="M289.447 268.775C290.308 270.887 287.208 271.73 287.208 271.73C287.52 273.828 283.617 274.263 283.617 274.263C284.337 275.816 283.631 276.691 282.179 277.161C283.151 278.53 283.688 279.921 284.002 281.185L291.094 268.756C290.633 268.789 290.096 268.796 289.447 268.775Z" fill="#F0401E"/>
<path d="M284.002 281.185C283.688 279.921 283.151 278.53 282.179 277.161C283.241 276.817 283.902 276.258 283.902 275.377C283.902 275.052 283.809 274.681 283.617 274.263C283.617 274.263 287.22 273.862 287.225 271.969C287.227 271.893 287.22 271.812 287.208 271.73C287.208 271.73 289.602 271.078 289.597 269.487C289.597 269.269 289.552 269.03 289.447 268.775C289.685 268.784 289.911 268.787 290.12 268.787C290.481 268.787 290.804 268.777 291.094 268.756L284.002 281.185" fill="url(#paint9_radial)"/>
<path d="M231.015 236.442C237.297 239.321 241.176 242.105 243.343 247.18C245.949 246.869 248.085 247.182 249.809 247.813L237.739 226.799C235.49 229.993 233.249 233.204 231.015 236.442" fill="#F03B1F"/>
<path d="M249.809 247.813C248.542 247.349 247.056 247.058 245.323 247.058C244.696 247.058 244.035 247.096 243.343 247.18C241.176 242.105 237.297 239.321 231.015 236.442C233.249 233.204 235.49 229.993 237.739 226.799L249.809 247.813" fill="url(#paint10_radial)"/>
<path d="M303.873 246.365L278.369 201.961L251.555 248.649C252.128 248.989 252.627 249.359 253.069 249.751H255.439C261.158 221.707 290.412 217.504 301.477 245.094C303.671 250.589 298.399 249.624 298.399 249.624L298.382 249.751H301.94L303.873 246.365" fill="#E61D25"/>
<path d="M301.94 249.751H298.382L298.399 249.624C298.399 249.624 298.755 249.689 299.245 249.689C300.312 249.689 302.014 249.378 302.012 247.392C302.012 246.793 301.855 246.04 301.477 245.094C296.383 232.39 287.434 226.428 278.699 226.428C268.464 226.428 258.524 234.619 255.439 249.751H253.069C252.627 249.359 252.128 248.989 251.555 248.649L278.369 201.961L303.873 246.365L301.94 249.751" fill="url(#paint11_radial)"/>
<path d="M255.703 201.961C249.668 210.082 243.679 218.366 237.739 226.798L249.809 247.813C250.453 248.049 251.025 248.336 251.555 248.649L278.369 201.961H255.703" fill="#E11D25"/>
<path d="M251.555 248.649C251.025 248.336 250.453 248.049 249.809 247.813L237.739 226.798C243.679 218.366 249.668 210.082 255.703 201.961H278.369L251.555 248.649" fill="url(#paint12_radial)"/>
<path d="M303.873 246.365L311.122 233.661C301.983 222.481 291.986 211.867 281.311 201.961H278.369L303.873 246.365Z" fill="#D61E25"/>
<path d="M303.873 246.365L278.369 201.961H281.311C291.986 211.867 301.983 222.481 311.122 233.661L303.873 246.365Z" fill="url(#paint13_radial)"/>
<path d="M278.369 201.961L275.193 196.432C272.127 193.727 269.023 191.063 265.857 188.478C262.458 192.917 259.076 197.421 255.703 201.961H278.369Z" fill="#CB1E25"/>
<path d="M278.369 201.961H255.703C259.076 197.421 262.458 192.917 265.857 188.478C269.023 191.063 272.127 193.727 275.193 196.432L278.369 201.961Z" fill="url(#paint14_radial)"/>
<path d="M281.311 201.961C280.67 201.366 280.042 200.759 279.398 200.169L278.369 201.961H281.311Z" fill="#B41D23"/>
<path d="M281.311 201.961H278.369L279.398 200.169C280.042 200.759 280.67 201.366 281.311 201.961Z" fill="url(#paint15_radial)"/>
<path d="M279.398 200.169C278.012 198.905 276.6 197.672 275.193 196.432L278.369 201.961L279.398 200.169Z" fill="#B21D23"/>
<path d="M278.369 201.961L275.193 196.432C276.6 197.672 278.012 198.905 279.398 200.169L278.369 201.961Z" fill="url(#paint16_radial)"/>
<path d="M67.8843 376.597L85.7274 345.335H73.0825C70.6747 356.204 68.9111 366.681 67.8843 376.597Z" fill="#EF381F"/>
<path d="M67.8843 376.597C68.9111 366.681 70.6747 356.204 73.0825 345.335H85.7274L67.8843 376.597Z" fill="url(#paint17_radial)"/>
<path d="M77.0357 329.321C75.5573 334.747 74.2453 340.085 73.083 345.334H85.7279L85.9799 344.892L77.0357 329.321" fill="#F14A1C"/>
<path d="M85.7279 345.334H73.083C74.2453 340.085 75.5573 334.747 77.0357 329.321L85.9799 344.892L85.7279 345.334" fill="url(#paint18_radial)"/>
<path d="M113.003 297.543H87.1801C83.2369 308.374 79.8475 318.997 77.0356 329.321L85.9798 344.893L113.003 297.543Z" fill="#F2571A"/>
<path d="M85.9798 344.893L77.0356 329.321C79.8475 318.997 83.2369 308.374 87.1801 297.543H113.003L85.9798 344.893Z" fill="url(#paint19_radial)"/>
<path d="M113.34 296.95L98.071 270.364C94.0589 279.529 90.4341 288.602 87.1802 297.543H113.002L113.34 296.95" fill="#F36118"/>
<path d="M113.002 297.543H87.1802C90.4341 288.602 94.0589 279.529 98.071 270.364L113.34 296.95L113.002 297.543" fill="url(#paint20_radial)"/>
<path d="M140.277 249.751H107.66C104.258 256.656 101.059 263.533 98.0713 270.364L113.34 296.95L140.277 249.751Z" fill="#F36717"/>
<path d="M113.34 296.95L98.0713 270.364C101.059 263.533 104.258 256.656 107.66 249.751H140.277L113.34 296.95" fill="url(#paint21_radial)"/>
<path d="M140.702 249.008L123.786 219.556C123.401 220.228 123.002 220.878 122.619 221.551C117.247 230.966 112.28 240.38 107.659 249.751H140.277L140.702 249.008" fill="#F25C19"/>
<path d="M140.277 249.751H107.659C112.28 240.38 117.247 230.966 122.619 221.551C123.002 220.878 123.401 220.228 123.786 219.556L140.702 249.008L140.277 249.751" fill="url(#paint22_radial)"/>
<path d="M167.552 201.961H134.373C130.769 207.684 127.242 213.559 123.786 219.556L140.702 249.008L167.552 201.961Z" fill="#F14F1B"/>
<path d="M140.702 249.008L123.786 219.556C127.242 213.559 130.769 207.684 134.373 201.961H167.552L140.702 249.008Z" fill="url(#paint23_radial)"/>
<path d="M168.062 201.065L152.865 174.603C146.552 183.307 140.367 192.432 134.373 201.961H167.551L168.062 201.065Z" fill="#EF3120"/>
<path d="M167.551 201.961H134.373C140.367 192.432 146.552 183.307 152.865 174.603L168.062 201.065L167.551 201.961Z" fill="url(#paint24_radial)"/>
<path d="M168.062 201.065L194.826 154.169H168.564C163.264 160.682 158.02 167.492 152.865 174.603L168.062 201.065Z" fill="#DF2A23"/>
<path d="M168.062 201.065L152.865 174.603C158.02 167.492 163.264 160.682 168.564 154.169H194.826L168.062 201.065Z" fill="url(#paint25_radial)"/>
<path d="M194.827 154.169L195.423 153.122L189.324 142.502C186.626 141.398 183.919 140.342 181.202 139.331C176.962 144.074 172.748 149.032 168.564 154.169H194.827Z" fill="#C32424"/>
<path d="M194.827 154.169H168.564C172.748 149.032 176.962 144.074 181.202 139.331C183.919 140.342 186.626 141.398 189.324 142.502L195.423 153.122L194.827 154.169Z" fill="url(#paint26_radial)"/>
<path d="M199.088 146.702C195.851 145.228 192.592 143.84 189.324 142.502L195.423 153.123L199.088 146.702Z" fill="#CA1E25"/>
<path d="M195.423 153.123L189.324 142.502C192.592 143.84 195.851 145.228 199.088 146.702L195.423 153.123Z" fill="url(#paint27_radial)"/>
<path d="M301.781 305.06L300.925 307.423C300.806 307.748 300.975 308.109 301.298 308.228L301.498 308.266C301.76 308.271 302.007 308.114 302.099 307.853L302.955 305.49C303.072 305.163 302.905 304.802 302.582 304.685C302.259 304.561 301.897 304.733 301.781 305.06" fill="#C91E25"/>
<path d="M295.028 310.691C294.986 312.495 296.402 313.993 298.194 314.039C299.989 314.084 301.479 312.66 301.524 310.856C301.569 309.052 300.15 307.554 298.358 307.511C296.564 307.465 295.073 308.89 295.028 310.691Z" fill="#C91E25"/>
<path d="M291.946 306.209C291.72 306.472 291.751 306.868 292.014 307.095L293.914 308.732L294.303 308.883L294.793 308.663C295.019 308.4 294.988 308.003 294.726 307.779L292.827 306.142C292.566 305.917 292.171 305.944 291.946 306.209" fill="#C91E25"/>
<path d="M288.149 302.935C287.924 303.198 287.954 303.595 288.216 303.822L290.115 305.459L290.507 305.609L290.997 305.389C291.223 305.126 291.192 304.73 290.928 304.505L289.029 302.868C288.77 302.644 288.373 302.67 288.149 302.935" fill="#C91E25"/>
<path d="M287.201 302.118C287.425 301.853 287.396 301.456 287.132 301.229L285.236 299.593C284.974 299.37 284.58 299.397 284.354 299.662C284.128 299.925 284.159 300.321 284.42 300.548L286.317 302.185L286.709 302.336L287.201 302.118" fill="#C91E25"/>
<path d="M271.806 292.738C271.742 295.282 273.743 297.397 276.274 297.459C278.803 297.523 280.909 295.512 280.971 292.967C281.035 290.422 279.034 288.308 276.502 288.246C273.971 288.181 271.867 290.193 271.806 292.738Z" fill="#C91E25"/>
<path d="M280.558 296.389C280.332 296.651 280.363 297.048 280.624 297.275L282.521 298.912L282.913 299.062L283.403 298.845C283.628 298.58 283.598 298.183 283.336 297.956L281.439 296.319C281.178 296.097 280.781 296.123 280.558 296.389" fill="#C91E25"/>
<path d="M212.765 406.555L214.928 405.291C215.227 405.119 215.327 404.734 215.153 404.433C214.982 404.132 214.6 404.029 214.3 404.206L212.137 405.468C211.838 405.642 211.738 406.027 211.911 406.326L212.434 406.639L212.765 406.555" fill="#C91E25"/>
<path d="M216.237 403.803L216.762 404.116L217.093 404.03L219.253 402.768C219.553 402.594 219.655 402.211 219.481 401.91C219.308 401.612 218.928 401.506 218.626 401.683L216.463 402.945C216.166 403.119 216.063 403.502 216.237 403.803" fill="#C91E25"/>
<path d="M221.088 401.592L221.416 401.506L223.579 400.245C223.878 400.07 223.981 399.686 223.807 399.387C223.634 399.088 223.251 398.986 222.951 399.158L220.788 400.422C220.491 400.594 220.389 400.978 220.563 401.279L221.088 401.592" fill="#C91E25"/>
<path d="M206.501 409.48C206.33 409.181 205.947 409.078 205.648 409.253L203.485 410.514C203.185 410.689 203.086 411.073 203.257 411.374L203.782 411.685L204.113 411.601L206.275 410.34C206.575 410.165 206.675 409.781 206.501 409.48" fill="#C91E25"/>
<path d="M208.108 409.162L208.438 409.078L210.601 407.816C210.901 407.642 211.001 407.257 210.827 406.956C210.656 406.658 210.273 406.555 209.974 406.729L207.811 407.991C207.511 408.165 207.412 408.55 207.585 408.849L208.108 409.162" fill="#C91E25"/>
<path d="M225.414 399.069L225.742 398.983L227.907 397.721C228.205 397.547 228.307 397.162 228.133 396.864C227.96 396.563 227.579 396.46 227.278 396.634L225.115 397.896C224.817 398.07 224.715 398.455 224.889 398.756L225.414 399.069" fill="#C91E25"/>
<path d="M229.722 367.549C229.434 367.36 229.047 367.439 228.854 367.728C228.664 368.017 228.745 368.406 229.032 368.597L231.117 369.983L231.447 370.088L231.984 369.806C232.175 369.517 232.096 369.128 231.809 368.937L229.722 367.549" fill="#C91E25"/>
<path d="M220.511 362.18C220.321 362.471 220.402 362.861 220.687 363.052L222.774 364.438L223.102 364.543L223.641 364.261C223.831 363.972 223.751 363.582 223.463 363.391L221.378 362.003C221.091 361.812 220.703 361.891 220.511 362.18" fill="#C91E25"/>
<path d="M216.34 359.406C216.15 359.697 216.228 360.087 216.516 360.278L218.603 361.666L218.931 361.769L219.47 361.489C219.66 361.198 219.58 360.808 219.292 360.617L217.208 359.229C216.92 359.04 216.53 359.119 216.34 359.406" fill="#C91E25"/>
<path d="M139.987 538.486C141.005 538.933 142.017 539.406 143.039 539.827L141.128 536.498L139.987 538.486" fill="#F36318"/>
<path d="M138.293 536.498L137.725 537.495C138.476 537.841 139.234 538.156 139.987 538.486L141.128 536.498H138.293" fill="#F2551A"/>
<path d="M141.128 536.498L143.039 539.826C157.642 545.819 172.888 549.121 188.266 550.008L196.024 536.498H141.128Z" fill="#F36817"/>
<path d="M138.292 536.498H141.128L139.707 534.02L138.292 536.498Z" fill="#F25C19"/>
<path d="M93.1035 488.706C91.8485 494.393 89.5738 498.307 90.4295 501.943C92.1123 497.544 93.8331 493.131 95.5897 488.706H93.1035Z" fill="#F0431D"/>
<path d="M188.266 550.007C193.448 550.306 198.641 550.332 203.832 550.091L196.024 536.498L188.266 550.007" fill="#F36917"/>
<path d="M103.082 470.251L100.902 466.454C100.082 467.749 99.2525 469.113 98.4016 470.568C98.4016 470.568 96.0366 474.439 95.1025 476.382C94.3466 477.956 93.838 479.665 93.8665 481.416C93.9116 484.157 93.5789 486.556 93.1035 488.706H95.5897C98.0236 482.573 100.507 476.425 103.082 470.251" fill="#EF391F"/>
<path d="M196.024 536.498L203.832 550.091C212.603 549.685 221.355 548.507 230.004 546.639C231.178 543.269 232.391 539.884 233.605 536.498H196.024Z" fill="#F36418"/>
<path d="M223.472 488.706L196.024 536.498H233.605C235.794 530.386 238.033 524.255 240.353 518.098L223.472 488.706Z" fill="#F36817"/>
<path d="M168.576 488.706L196.024 536.498L223.472 488.706H168.576Z" fill="#F46D16"/>
<path d="M167.067 486.078L139.707 534.02L141.128 536.498H196.024L168.576 488.706L167.067 486.078Z" fill="#F36618"/>
<path d="M110.015 454.008C107.103 457.403 104.115 461.357 100.902 466.454L103.081 470.25C105.335 464.853 107.657 459.434 110.015 454.008" fill="#F0421E"/>
<path d="M251.853 488.706H223.473L240.353 518.097C244.023 508.354 247.862 498.552 251.853 488.706Z" fill="#F36717"/>
<path d="M223.472 488.706L206.15 458.545C204.952 459.209 203.245 459.334 201.215 458.634C195.52 456.672 192.233 454.151 189.996 451.411L168.576 488.706H223.472" fill="#F57815"/>
<path d="M168.576 488.706L189.997 451.411C189.338 450.605 188.77 449.779 188.262 448.942L167.067 486.078L168.576 488.706" fill="#F47515"/>
<path d="M263.019 461.981L250.921 440.916L223.473 488.706H251.853C255.449 479.832 259.164 470.924 263.019 461.981Z" fill="#F36817"/>
<path d="M250.921 440.916L233.712 410.954C221 416.132 212.08 416.793 203.923 421.498L199.473 429.299C201.636 438.307 199.789 438.924 200.196 442.46C200.476 444.923 201.857 447.11 203.804 448.629C208.94 452.641 208.897 457.025 206.15 458.545L223.472 488.706L250.921 440.916Z" fill="#F47315"/>
<path d="M272.334 440.916H250.92L263.019 461.981C266.037 454.98 269.158 447.953 272.334 440.916Z" fill="#F25D19"/>
<path d="M287.341 408.748L278.368 393.124L250.92 440.916H272.334C277.159 430.226 282.155 419.5 287.341 408.748Z" fill="#F2591A"/>
<path d="M278.369 393.124L250.921 345.335L244.858 355.893C251.282 361.934 255.38 368.139 259.946 372.337C262.114 374.332 264.022 376.595 265.47 379.166C269.544 386.408 270.197 388.08 260.122 395.803C249.659 403.47 241.057 407.962 233.712 410.954L250.921 440.916L278.369 393.124" fill="#F36817"/>
<path d="M294.99 393.125H278.369L287.341 408.749C289.851 403.545 292.397 398.338 294.99 393.125Z" fill="#F2571A"/>
<path d="M229.719 384.286C229.389 384.205 229.032 384.112 228.697 384.031L228.41 384.532C228.83 384.441 229.263 384.358 229.719 384.286" fill="#F36817"/>
<path d="M228.409 384.532L228.697 384.03C227.722 383.791 226.741 383.548 225.731 383.287L224.19 385.985C225.455 385.356 226.819 384.874 228.409 384.532Z" fill="#F46D16"/>
<path d="M247.391 345.334L242.545 353.824C243.348 354.51 244.118 355.2 244.858 355.893L250.921 345.334H247.391" fill="#F46D16"/>
<path d="M313.083 357.984L305.817 345.335L278.369 393.125H294.99C300.806 381.431 306.844 369.714 313.083 357.984" fill="#F1491C"/>
<path d="M250.92 345.335L278.369 393.125L305.817 345.335H250.92Z" fill="#F25A1A"/>
<path d="M247.391 345.334H250.921L249.15 342.25L247.391 345.334Z" fill="#F25A1A"/>
<path d="M319.883 345.335H305.817L313.083 357.984C315.325 353.769 317.587 349.552 319.883 345.335" fill="#DE2424"/>
<path d="M305.817 345.334L286.35 311.441C285.521 310.808 284.667 310.218 283.743 309.757C280.829 308.33 278.017 305.566 275.374 302.756L250.92 345.334H305.817" fill="#F1501B"/>
<path d="M250.921 345.334L275.374 302.756C274.599 301.932 273.834 301.105 273.09 300.305L249.15 342.25L250.921 345.334Z" fill="#F14C1C"/>
<path d="M334.392 319.283C336.279 315.976 338.185 312.703 340.089 309.425L333.265 297.543L305.817 345.334H319.883C324.611 336.652 329.436 327.966 334.392 319.283" fill="#E32424"/>
<path d="M333.265 297.543H313.34C310.854 307.009 306.93 315.078 302.202 319.135C300.807 320.335 298.827 320.657 297.142 319.921C292.873 318.06 289.921 314.16 286.351 311.441L305.817 345.334L333.265 297.543Z" fill="#F03C1F"/>
<path d="M347.07 297.543H333.265L340.089 309.425C342.404 305.442 344.731 301.483 347.07 297.543Z" fill="#D71E25"/>
<path d="M319.541 273.649C318.288 275.427 317.012 277.642 315.999 281.548C315.595 287.022 314.67 292.48 313.339 297.543H333.265L319.541 273.649Z" fill="#F03A1F"/>
<path d="M347.07 297.543C347.747 296.401 348.42 295.256 349.099 294.119C347.105 289.737 344.976 285.393 342.713 281.094L333.265 297.543H347.07Z" fill="#DF1D25"/>
<path d="M342.713 281.094C337.726 271.621 332.131 262.352 325.951 253.371C325.217 254.797 325.003 255.098 324.609 257.571C329.141 255.206 324.525 263.263 323.729 266.063C322.804 269.726 321.193 271.305 319.541 273.649L333.265 297.543L342.713 281.094" fill="#E82124"/>
<path d="M135.585 536.498C136.296 536.84 137.011 537.167 137.724 537.494L138.292 536.498H135.585" fill="#F2551A"/>
<path d="M137.724 537.494C137.011 537.167 136.296 536.84 135.585 536.498H138.292L137.724 537.494" fill="url(#paint28_radial)"/>
<path d="M139.707 534.02L113.68 488.706L99.6089 513.207C106.392 518.616 113.889 523.928 122.184 529.125C126.565 531.87 131.043 534.309 135.585 536.498H138.292L139.707 534.02" fill="#F25C19"/>
<path d="M138.292 536.498H135.585C131.043 534.309 126.565 531.87 122.184 529.125C113.889 523.928 106.392 518.616 99.6089 513.207L113.68 488.706L139.707 534.02L138.292 536.498Z" fill="url(#paint29_radial)"/>
<path d="M95.5898 488.706C93.8333 493.131 92.1125 497.544 90.4296 501.943C90.6008 502.674 90.8955 503.391 91.3519 504.11C94.3372 508.201 92.98 511.988 88.4854 511.075V511.078C93.5029 512.43 93.6432 508.28 93.6432 508.28C95.5613 509.931 97.5603 511.572 99.6091 513.207L113.68 488.706H95.5898" fill="#F0431D"/>
<path d="M99.6091 513.207C97.5603 511.572 95.5613 509.931 93.6432 508.28C93.6432 508.28 93.5386 511.35 90.3179 511.35C89.795 511.35 89.1865 511.269 88.4854 511.078V511.075C88.9441 511.168 89.3695 511.211 89.7617 511.211C91.8225 511.211 92.9467 509.986 92.9444 508.218C92.942 507.028 92.431 505.589 91.3519 504.11C90.8955 503.391 90.6008 502.674 90.4296 501.943C92.1125 497.544 93.8333 493.131 95.5898 488.706H113.68L99.6091 513.207" fill="url(#paint30_radial)"/>
<path d="M95.5898 488.706H113.68L103.082 470.251C100.508 476.425 98.0238 482.573 95.5898 488.706Z" fill="#EF391F"/>
<path d="M113.68 488.706H95.5898C98.0238 482.573 100.508 476.425 103.082 470.251L113.68 488.706Z" fill="url(#paint31_radial)"/>
<path d="M167.067 486.078L141.128 440.917L113.68 488.706L139.706 534.021L167.067 486.078Z" fill="#F36618"/>
<path d="M139.706 534.021L113.68 488.706L141.128 440.917L167.067 486.078L139.706 534.021Z" fill="url(#paint32_radial)"/>
<path d="M113.68 488.706L141.128 440.916H122.731C118.336 445.296 114.252 449.066 110.014 454.008C107.657 459.434 105.334 464.853 103.081 470.251L113.68 488.706" fill="#F0421E"/>
<path d="M113.68 488.706L103.081 470.251C105.334 464.853 107.657 459.434 110.014 454.008C114.252 449.066 118.336 445.296 122.731 440.916H141.128L113.68 488.706" fill="url(#paint33_radial)"/>
<path d="M167.067 486.078L188.261 448.942C186.635 446.281 185.578 443.514 183.988 440.916H141.128L167.067 486.078Z" fill="#F47515"/>
<path d="M167.067 486.078L141.128 440.916H183.988C185.578 443.514 186.635 446.281 188.261 448.942L167.067 486.078Z" fill="url(#paint34_radial)"/>
<path d="M133.985 428.48C129.881 433.605 126.208 437.454 122.731 440.916H141.128L133.985 428.48" fill="#EF3620"/>
<path d="M141.128 440.916H122.731C126.208 437.454 129.881 433.605 133.985 428.48L141.128 440.916Z" fill="url(#paint35_radial)"/>
<path d="M183.988 440.916C182.362 438.266 180.178 435.793 176.239 433.798C165.13 426.817 171.153 416.038 179.636 416.041C180.311 416.041 180.981 415.976 181.644 415.878L169.817 395.284C167.911 397.461 165.893 399.571 163.741 401.544L141.128 440.916H183.988Z" fill="#F46B17"/>
<path d="M183.988 440.916H141.128L163.741 401.544C165.893 399.571 167.911 397.461 169.817 395.284L181.644 415.878C180.983 415.974 180.315 416.041 179.64 416.041C179.64 416.041 179.638 416.041 179.636 416.041C179.636 416.041 179.636 416.041 179.633 416.041C174.449 416.041 170.183 420.067 170.188 424.793C170.192 427.796 171.923 431.084 176.239 433.798C180.178 435.793 182.362 438.266 183.988 440.916" fill="url(#paint36_radial)"/>
<path d="M163.741 401.544C160.706 404.328 157.428 406.839 153.83 408.822C153.012 409.272 151.907 410.263 151.403 411.054C146.017 419.522 142.183 417.62 138.442 422.619C136.899 424.752 135.416 426.692 133.985 428.48L141.128 440.916L163.741 401.544Z" fill="#F0441D"/>
<path d="M141.128 440.916L133.985 428.48C135.416 426.692 136.899 424.752 138.442 422.619C142.183 417.62 146.017 419.522 151.403 411.054C151.907 410.263 153.012 409.272 153.83 408.822C157.428 406.839 160.706 404.328 163.741 401.544L141.128 440.916" fill="url(#paint37_radial)"/>
<path d="M185.457 414.602C201.755 405.067 209.715 398.037 215.096 393.125H171.673C171.067 393.851 170.447 394.568 169.817 395.285L181.644 415.878C182.982 415.68 184.28 415.291 185.457 414.602" fill="#F47315"/>
<path d="M181.644 415.878L169.817 395.285C170.447 394.568 171.067 393.851 171.673 393.125H215.096C209.715 398.037 201.755 405.067 185.457 414.602C184.28 415.291 182.982 415.68 181.644 415.878" fill="url(#paint38_radial)"/>
<path d="M200.221 423.969C199.14 424.8 198.674 426.217 199.026 427.538C199.192 428.162 199.337 428.743 199.473 429.299L203.922 421.498C202.674 422.22 201.443 423.027 200.221 423.969" fill="#F47315"/>
<path d="M199.473 429.299C199.338 428.743 199.193 428.162 199.026 427.538C198.948 427.244 198.912 426.946 198.912 426.65C198.912 425.615 199.383 424.614 200.222 423.969C201.444 423.027 202.675 422.22 203.923 421.498L199.473 429.299" fill="url(#paint39_radial)"/>
<path d="M220.665 388.238L216.275 380.592C208.011 377.995 199.157 374.502 190.685 369.541C185.459 373.603 179.552 383.658 171.673 393.125H215.096C217.24 391.168 218.977 389.545 220.665 388.238" fill="#F36618"/>
<path d="M215.096 393.125H171.673C179.552 383.658 185.459 373.603 190.685 369.541C199.157 374.502 208.011 377.995 216.275 380.592L220.665 388.238C218.977 389.545 217.24 391.168 215.096 393.125" fill="url(#paint40_radial)"/>
<path d="M224.19 385.985L225.73 383.287C222.712 382.508 219.541 381.62 216.275 380.592L220.665 388.238C221.823 387.342 222.961 386.594 224.19 385.985" fill="#F46D16"/>
<path d="M220.665 388.238L216.275 380.592C219.541 381.62 222.712 382.508 225.73 383.287L224.19 385.985C222.961 386.594 221.823 387.342 220.665 388.238" fill="url(#paint41_radial)"/>
<path d="M229.436 345.335C234.741 347.87 238.988 350.792 242.544 353.824L247.39 345.335H229.436Z" fill="#F46D16"/>
<path d="M242.544 353.824C238.988 350.792 234.741 347.87 229.436 345.335H247.39L242.544 353.824Z" fill="url(#paint42_radial)"/>
<path d="M249.15 342.25L236.628 320.449C226.023 327.875 221.274 326.858 213.948 338.745L222.331 342.408C224.903 343.301 227.249 344.288 229.436 345.334H247.391L249.15 342.25" fill="#F25A1A"/>
<path d="M247.391 345.334H229.436C227.249 344.288 224.903 343.301 222.331 342.408L213.948 338.745C221.274 326.858 226.023 327.875 236.628 320.449L249.15 342.25L247.391 345.334" fill="url(#paint43_radial)"/>
<path d="M273.09 300.305C272.16 299.304 271.267 298.389 270.392 297.543H265.702C257.671 307.607 252.991 307.59 238.853 318.827C238.083 319.41 237.344 319.948 236.628 320.449L249.15 342.25L273.09 300.305" fill="#F14C1C"/>
<path d="M249.15 342.25L236.628 320.449C237.344 319.948 238.083 319.41 238.853 318.827C252.991 307.59 257.671 307.607 265.702 297.543H270.392C271.267 298.389 272.16 299.304 273.09 300.305L249.15 342.25" fill="url(#paint44_radial)"/>
<path d="M267.544 295.144C266.907 296.009 266.299 296.797 265.702 297.543H270.392C269.408 296.587 268.45 295.732 267.544 295.144Z" fill="#F0401E"/>
<path d="M270.392 297.543H265.702C266.299 296.797 266.907 296.009 267.544 295.144C268.45 295.732 269.408 296.587 270.392 297.543Z" fill="url(#paint45_radial)"/>
<path d="M250.92 536.498H233.605C232.39 539.884 231.178 543.269 230.004 546.638C236.046 545.334 242.031 543.678 247.935 541.697L250.92 536.498Z" fill="#F36418"/>
<path d="M230.004 546.638C231.178 543.269 232.39 539.884 233.605 536.498H250.92L247.935 541.697C242.031 543.678 236.046 545.334 230.004 546.638Z" fill="url(#paint46_radial)"/>
<path d="M233.605 536.498H250.921L240.353 518.098C238.033 524.255 235.794 530.386 233.605 536.498Z" fill="#F36817"/>
<path d="M250.921 536.498H233.605C235.794 530.386 238.033 524.255 240.353 518.098L250.921 536.498Z" fill="url(#paint47_radial)"/>
<path d="M247.935 541.697C249.599 541.141 251.256 540.56 252.905 539.951L250.92 536.498L247.935 541.697Z" fill="#F35E19"/>
<path d="M247.935 541.697L250.92 536.498L252.905 539.951C251.256 540.56 249.599 541.141 247.935 541.697Z" fill="url(#paint48_radial)"/>
<path d="M251.852 488.706C247.862 498.553 244.023 508.354 240.353 518.098L250.921 536.498L278.369 488.706H251.852Z" fill="#F36717"/>
<path d="M250.921 536.498L240.353 518.098C244.023 508.354 247.862 498.553 251.852 488.706H278.369L250.921 536.498Z" fill="url(#paint49_radial)"/>
<path d="M252.905 539.951C255.8 538.88 258.671 537.726 261.519 536.498H250.92L252.905 539.951" fill="#F2571A"/>
<path d="M252.905 539.951L250.92 536.498H261.519C258.671 537.726 255.8 538.88 252.905 539.951" fill="url(#paint50_radial)"/>
<path d="M250.92 536.498H261.519C273.218 531.454 284.453 525.118 294.966 517.605L278.369 488.706L250.92 536.498Z" fill="#F36218"/>
<path d="M261.519 536.498H250.92L278.369 488.706L294.966 517.605C284.453 525.118 273.218 531.454 261.519 536.498Z" fill="url(#paint51_radial)"/>
<path d="M251.852 488.706H278.368L263.019 461.981C259.163 470.924 255.448 479.832 251.852 488.706Z" fill="#F36817"/>
<path d="M278.368 488.706H251.852C255.448 479.832 259.163 470.924 263.019 461.981L278.368 488.706Z" fill="url(#paint52_radial)"/>
<path d="M294.966 517.605C306.556 509.326 317.245 499.63 326.695 488.706H278.369L294.966 517.605" fill="#F25D19"/>
<path d="M294.966 517.605L278.369 488.706H326.695C317.245 499.63 306.556 509.326 294.966 517.605Z" fill="url(#paint53_radial)"/>
<path d="M278.369 488.706H326.695C328.017 487.177 329.317 485.626 330.589 484.047L305.817 440.916L278.369 488.706" fill="#F2591A"/>
<path d="M326.695 488.706H278.369L305.817 440.916L330.589 484.047C329.317 485.626 328.017 487.177 326.695 488.706" fill="url(#paint54_radial)"/>
<path d="M263.019 461.981L278.368 488.706L305.816 440.916H272.334C269.158 447.953 266.037 454.98 263.019 461.981Z" fill="#F25D19"/>
<path d="M278.368 488.706L263.019 461.981C266.037 454.98 269.158 447.953 272.334 440.916H305.816L278.368 488.706Z" fill="url(#paint55_radial)"/>
<path d="M330.589 484.047C335.112 478.444 339.345 472.573 343.177 466.399C348.368 458.041 352.684 449.53 356.214 440.916H305.817L330.589 484.047" fill="#F35E19"/>
<path d="M330.589 484.047L305.817 440.916H356.214C352.684 449.53 348.368 458.041 343.177 466.399C339.345 472.573 335.112 478.444 330.589 484.047" fill="url(#paint56_radial)"/>
<path d="M272.334 440.916H305.817L287.342 408.748C282.155 419.5 277.159 430.226 272.334 440.916" fill="#F2591A"/>
<path d="M305.817 440.916H272.334C277.159 430.226 282.155 419.5 287.342 408.748L305.817 440.916" fill="url(#paint57_radial)"/>
<path d="M305.817 440.916H356.214C356.851 439.361 357.44 437.798 358.027 436.238L333.265 393.124L305.817 440.916" fill="#F14D1C"/>
<path d="M356.214 440.916H305.817L333.265 393.124L358.027 436.238C357.44 437.798 356.851 439.361 356.214 440.916" fill="url(#paint58_radial)"/>
<path d="M287.341 408.748L305.817 440.916L333.265 393.124H294.99C292.397 398.338 289.851 403.544 287.341 408.748" fill="#F2571A"/>
<path d="M305.817 440.916L287.341 408.748C289.851 403.544 292.397 398.338 294.99 393.124H333.265L305.817 440.916" fill="url(#paint59_radial)"/>
<path d="M358.027 436.238C363.339 422.062 366.546 407.63 367.82 393.124H333.265L358.027 436.238" fill="#DA2324"/>
<path d="M358.027 436.238L333.265 393.124H367.82C366.546 407.63 363.339 422.062 358.027 436.238" fill="url(#paint60_radial)"/>
<path d="M294.99 393.125H333.265L313.083 357.984C306.844 369.714 300.806 381.431 294.99 393.125" fill="#F1491C"/>
<path d="M333.265 393.125H294.99C300.806 381.431 306.844 369.714 313.083 357.984L333.265 393.125Z" fill="url(#paint61_radial)"/>
<path d="M333.265 393.125H367.82C368.892 380.92 368.602 368.669 367.116 356.481L360.713 345.335L333.265 393.125Z" fill="#CF1E25"/>
<path d="M367.82 393.125H333.265L360.713 345.335L367.116 356.481C368.005 363.766 368.466 371.073 368.464 378.377C368.461 383.297 368.252 388.214 367.82 393.125" fill="url(#paint62_radial)"/>
<path d="M313.083 357.984L333.265 393.125L360.713 345.335H319.883C317.587 349.552 315.324 353.769 313.083 357.984" fill="#DE2424"/>
<path d="M333.265 393.125L313.083 357.984C315.324 353.769 317.587 349.552 319.883 345.335H360.713L333.265 393.125Z" fill="url(#paint63_radial)"/>
<path d="M367.116 356.481C366.663 352.758 366.106 349.04 365.431 345.335H360.713L367.116 356.481Z" fill="#C71E25"/>
<path d="M367.116 356.481L360.713 345.335H365.431C366.106 349.04 366.663 352.758 367.116 356.481Z" fill="url(#paint64_radial)"/>
<path d="M319.883 345.334H360.713L340.089 309.425C338.185 312.703 336.279 315.976 334.392 319.283C329.436 327.966 324.611 336.652 319.883 345.334" fill="#E32424"/>
<path d="M360.713 345.334H319.883C324.611 336.652 329.436 327.966 334.392 319.283C336.279 315.976 338.185 312.703 340.089 309.425L360.713 345.334" fill="url(#paint65_radial)"/>
<path d="M365.431 345.334C365.061 343.299 364.647 341.27 364.212 339.242L360.713 345.334H365.431Z" fill="#C21E25"/>
<path d="M365.431 345.334H360.713L364.212 339.242C364.647 341.27 365.061 343.299 365.431 345.334Z" fill="url(#paint66_radial)"/>
<path d="M340.089 309.425L360.713 345.334L364.212 339.242C361.175 325.118 356.594 311.157 350.652 297.543H347.07C344.731 301.483 342.404 305.442 340.089 309.425" fill="#D71E25"/>
<path d="M360.713 345.334L340.089 309.425C342.404 305.442 344.731 301.483 347.07 297.543H350.652C356.594 311.157 361.175 325.118 364.212 339.242L360.713 345.334" fill="url(#paint67_radial)"/>
<path d="M350.651 297.543C350.15 296.396 349.617 295.258 349.099 294.119C348.419 295.256 347.747 296.401 347.069 297.543H350.651Z" fill="#DF1D25"/>
<path d="M350.651 297.543H347.069C347.747 296.401 348.419 295.256 349.099 294.119C349.617 295.258 350.15 296.396 350.651 297.543Z" fill="url(#paint68_radial)"/>
<path d="M227.637 366.163L225.55 364.777C225.262 364.586 224.875 364.665 224.682 364.954C224.492 365.243 224.573 365.632 224.86 365.826L226.945 367.212L227.275 367.317L227.812 367.035C228.003 366.746 227.922 366.356 227.637 366.163Z" fill="#C91E25"/>
<path d="M201.322 411.776L199.16 413.037C198.86 413.212 198.76 413.596 198.934 413.897L199.457 414.21L199.787 414.124L201.95 412.863C202.249 412.688 202.349 412.304 202.176 412.005C202.005 411.704 201.62 411.601 201.322 411.776" fill="#C91E25"/>
<path d="M231.604 394.111L229.441 395.373C229.144 395.547 229.041 395.932 229.215 396.233L229.74 396.546L230.068 396.46L232.234 395.198C232.531 395.024 232.633 394.639 232.459 394.338C232.286 394.04 231.906 393.937 231.604 394.111" fill="#C91E25"/>
<path d="M249.502 376.674C246.626 376.602 244.234 378.886 244.161 381.78C244.09 384.671 246.364 387.072 249.24 387.146C252.116 387.218 254.507 384.934 254.579 382.04C254.652 379.149 252.378 376.745 249.502 376.674Z" fill="#C91E25"/>
<path d="M238.093 390.327C237.796 390.501 237.693 390.886 237.867 391.184L238.392 391.497L238.72 391.414L240.885 390.15C241.183 389.978 241.285 389.593 241.111 389.292C240.938 388.993 240.557 388.891 240.256 389.065L238.093 390.327" fill="#C91E25"/>
<path d="M242.238 375.868C241.95 375.68 241.563 375.758 241.373 376.045C241.183 376.337 241.261 376.726 241.549 376.917L243.633 378.305L243.964 378.408L244.501 378.126C244.691 377.837 244.612 377.448 244.325 377.256L242.238 375.868Z" fill="#C91E25"/>
<path d="M238.064 373.097C237.777 372.906 237.392 372.984 237.199 373.274C237.009 373.563 237.087 373.955 237.375 374.146L239.462 375.531L239.79 375.634L240.327 375.355C240.517 375.063 240.439 374.674 240.151 374.483L238.064 373.097" fill="#C91E25"/>
<path d="M242.718 388.974L243.046 388.888L245.209 387.626C245.509 387.452 245.611 387.07 245.437 386.769C245.264 386.468 244.881 386.365 244.582 386.542L242.419 387.803C242.122 387.978 242.019 388.36 242.193 388.661L242.718 388.974" fill="#C91E25"/>
<path d="M195.131 416.734L195.461 416.648L197.624 415.386C197.923 415.212 198.023 414.827 197.85 414.528C197.679 414.23 197.296 414.125 196.996 414.299L194.833 415.563C194.534 415.735 194.434 416.12 194.608 416.421L195.131 416.734" fill="#C91E25"/>
<path d="M190.805 419.257L191.135 419.171L193.298 417.909C193.598 417.735 193.698 417.352 193.524 417.051C193.353 416.753 192.97 416.65 192.671 416.824L190.508 418.086C190.209 418.26 190.106 418.643 190.28 418.944L190.805 419.257" fill="#C91E25"/>
<path d="M186.479 421.78L186.809 421.696L188.972 420.432C189.272 420.26 189.372 419.876 189.198 419.575C189.027 419.276 188.644 419.171 188.345 419.348L186.182 420.609C185.882 420.784 185.782 421.168 185.954 421.467L186.479 421.78" fill="#C91E25"/>
<path d="M234.066 394.021L234.394 393.937L236.557 392.675C236.856 392.501 236.959 392.116 236.785 391.815C236.612 391.516 236.231 391.414 235.932 391.588L233.766 392.85C233.469 393.024 233.367 393.409 233.541 393.707L234.066 394.021" fill="#C91E25"/>
<path d="M233.203 371.372L235.288 372.757L235.618 372.863L236.155 372.581C236.345 372.291 236.267 371.9 235.979 371.708L233.892 370.323C233.607 370.134 233.217 370.21 233.027 370.499C232.837 370.791 232.915 371.18 233.203 371.372Z" fill="#C91E25"/>
<path d="M178.982 423.582C178.937 425.393 180.361 426.9 182.165 426.946C183.967 426.991 185.464 425.558 185.509 423.746C185.555 421.935 184.131 420.428 182.329 420.382C180.525 420.337 179.028 421.77 178.982 423.582Z" fill="#C91E25"/>
<path d="M82.835 469.106C82.7899 470.919 84.216 472.425 86.0177 472.47C87.8194 472.516 89.3168 471.082 89.362 469.271C89.4071 467.46 87.9834 465.954 86.1817 465.907C84.38 465.864 82.8802 467.295 82.835 469.106Z" fill="#C91E25"/>
<path d="M131.003 412.435L129.42 414.383C129.201 414.65 129.242 415.047 129.508 415.267L129.888 415.408L130.387 415.178L131.97 413.231C132.189 412.961 132.148 412.567 131.882 412.347C131.616 412.125 131.219 412.165 131.003 412.435" fill="#C91E25"/>
<path d="M135.309 413.121C138.185 413.193 140.574 410.908 140.647 408.017C140.719 405.124 138.447 402.722 135.568 402.648C132.692 402.577 130.301 404.861 130.23 407.754C130.158 410.646 132.431 413.047 135.309 413.121" fill="#C91E25"/>
<path d="M126.724 419.302L127.226 419.07L128.806 417.123C129.025 416.855 128.985 416.459 128.718 416.239C128.45 416.019 128.058 416.057 127.837 416.327L126.256 418.275C126.037 418.545 126.078 418.939 126.346 419.161L126.724 419.302" fill="#C91E25"/>
<path d="M140.196 400.548L138.691 402.555C138.482 402.833 138.537 403.227 138.815 403.437L139.174 403.564L139.69 403.313L141.194 401.306C141.404 401.029 141.349 400.634 141.073 400.424C140.797 400.219 140.403 400.271 140.196 400.548Z" fill="#C91E25"/>
<path d="M143.21 396.534L141.703 398.541C141.494 398.818 141.549 399.212 141.825 399.423L142.186 399.549L142.702 399.298L144.206 397.291C144.415 397.014 144.361 396.62 144.085 396.412C143.812 396.202 143.417 396.255 143.21 396.534" fill="#C91E25"/>
<path d="M158.268 376.463L156.761 378.47C156.554 378.748 156.609 379.142 156.885 379.35L157.244 379.476L157.759 379.228L159.266 377.221C159.473 376.944 159.418 376.549 159.143 376.342C158.869 376.131 158.475 376.184 158.268 376.463" fill="#C91E25"/>
<path d="M154.749 383.242L156.254 381.235C156.461 380.958 156.406 380.564 156.13 380.353C155.855 380.146 155.463 380.198 155.253 380.478L153.749 382.485C153.542 382.762 153.597 383.156 153.872 383.366L154.234 383.493L154.749 383.242Z" fill="#C91E25"/>
<path d="M145.197 395.535L145.713 395.284L147.22 393.277C147.427 393 147.372 392.606 147.096 392.398C146.823 392.188 146.431 392.24 146.222 392.52L144.715 394.527C144.506 394.804 144.563 395.198 144.838 395.409L145.197 395.535" fill="#C91E25"/>
<path d="M125.643 421.018C125.862 420.748 125.821 420.354 125.555 420.134C125.284 419.914 124.892 419.952 124.673 420.222L123.093 422.17C122.874 422.44 122.914 422.834 123.181 423.054L123.561 423.195L124.062 422.965L125.643 421.018" fill="#C91E25"/>
<path d="M151.736 387.256L153.241 385.249C153.45 384.972 153.395 384.578 153.119 384.37C152.846 384.16 152.454 384.212 152.245 384.492L150.738 386.499C150.528 386.776 150.586 387.17 150.861 387.378L151.22 387.507L151.736 387.256Z" fill="#C91E25"/>
<path d="M148.725 391.27L150.229 389.263C150.438 388.986 150.384 388.592 150.108 388.384C149.835 388.173 149.44 388.226 149.231 388.506L147.726 390.513C147.517 390.79 147.572 391.184 147.848 391.394L148.209 391.521L148.725 391.27" fill="#C91E25"/>
<path d="M111.405 438.541L112.986 436.594C113.204 436.324 113.164 435.93 112.898 435.71C112.629 435.49 112.237 435.528 112.016 435.798L110.435 437.746C110.217 438.016 110.257 438.41 110.526 438.63L110.906 438.771L111.405 438.541" fill="#C91E25"/>
<path d="M98.7485 454.118L100.332 452.17C100.55 451.9 100.51 451.506 100.241 451.284C99.9727 451.066 99.5805 451.105 99.3618 451.375L97.7787 453.322C97.5624 453.592 97.6028 453.986 97.8691 454.206L98.2494 454.347L98.7485 454.118" fill="#C91E25"/>
<path d="M121.51 424.117L119.927 426.064C119.71 426.334 119.751 426.728 120.017 426.948L120.397 427.089L120.896 426.86L122.479 424.912C122.698 424.642 122.658 424.246 122.389 424.026C122.121 423.809 121.728 423.847 121.51 424.117" fill="#C91E25"/>
<path d="M96.1979 455.269L94.6149 457.214C94.3987 457.484 94.4367 457.881 94.7053 458.1L95.0855 458.241L95.5847 458.01L97.1676 456.062C97.3839 455.795 97.3435 455.398 97.0773 455.178C96.8087 454.961 96.4142 454.997 96.1979 455.269" fill="#C91E25"/>
<path d="M160.771 375.214L162.277 373.207C162.487 372.93 162.43 372.535 162.154 372.328C161.881 372.117 161.488 372.17 161.279 372.449L159.775 374.457C159.565 374.734 159.62 375.128 159.896 375.336L160.257 375.465L160.771 375.214" fill="#C91E25"/>
<path d="M91.5395 461.995L91.9198 462.136L92.4214 461.904L94.002 459.96C94.2207 459.69 94.1803 459.293 93.9141 459.073C93.6455 458.856 93.2533 458.892 93.0322 459.164L91.4516 461.109C91.2329 461.379 91.2733 461.775 91.5395 461.995" fill="#134561"/>
<path d="M102.527 447.48L100.945 449.427C100.726 449.695 100.764 450.091 101.032 450.311L101.413 450.455L101.912 450.223L103.495 448.275C103.713 448.008 103.673 447.611 103.407 447.391C103.141 447.172 102.741 447.212 102.527 447.48" fill="#C91E25"/>
<path d="M115.182 431.904L113.601 433.851C113.383 434.121 113.423 434.515 113.689 434.738L114.07 434.879L114.569 434.647L116.152 432.7C116.371 432.432 116.33 432.035 116.062 431.816C115.793 431.596 115.401 431.634 115.182 431.904" fill="#C91E25"/>
<path d="M117.733 430.755L119.316 428.807C119.534 428.537 119.494 428.143 119.225 427.923C118.962 427.703 118.565 427.739 118.348 428.011L116.765 429.959C116.547 430.226 116.585 430.623 116.853 430.843L117.234 430.984L117.733 430.755" fill="#C91E25"/>
<path d="M105.691 443.588L104.108 445.535C103.889 445.803 103.93 446.199 104.196 446.417L104.576 446.56L105.075 446.328L106.658 444.383C106.877 444.113 106.837 443.717 106.57 443.499C106.304 443.279 105.907 443.315 105.691 443.588" fill="#C91E25"/>
<path d="M108.852 439.693L107.271 441.64C107.053 441.91 107.093 442.305 107.359 442.524L107.74 442.665L108.241 442.436L109.822 440.489C110.04 440.219 110 439.822 109.734 439.602C109.463 439.385 109.071 439.423 108.852 439.693" fill="#C91E25"/>
<path d="M89.2549 465.799L90.8379 463.852C91.0565 463.584 91.0161 463.188 90.7499 462.968C90.4837 462.748 90.0868 462.786 89.8705 463.056L88.2875 465.004C88.0688 465.271 88.1093 465.668 88.3755 465.888L88.7557 466.029L89.2549 465.799" fill="#C91E25"/>
</g>
<defs>
<radialGradient id="paint0_radial" cx="0" cy="0" r="1" gradientUnits="userSpaceOnUse" gradientTransform="translate(61.5175 465.834) rotate(-150.028) scale(118.513 277.672)">
<stop stop-color="#ED1C24"/>
<stop offset="1" stop-color="#F36118"/>
</radialGradient>
<radialGradient id="paint1_radial" cx="0" cy="0" r="1" gradientUnits="userSpaceOnUse" gradientTransform="translate(61.5166 465.826) rotate(-150.03) scale(118.514 277.665)">
<stop stop-color="#ED1C24"/>
<stop offset="1" stop-color="#F36817"/>
</radialGradient>
<radialGradient id="paint2_radial" cx="0" cy="0" r="1" gradientUnits="userSpaceOnUse" gradientTransform="translate(379.366 449.075) rotate(-150.079) scale(238.882 559.114)">
<stop stop-color="#ED1C24"/>
<stop offset="1" stop-color="#F14E1C"/>
</radialGradient>
<radialGradient id="paint3_radial" cx="0" cy="0" r="1" gradientUnits="userSpaceOnUse" gradientTransform="translate(378.899 449.066) rotate(-150.029) scale(238.5 558.785)">
<stop stop-color="#ED1C24"/>
<stop offset="1" stop-color="#F2591A"/>
</radialGradient>
<radialGradient id="paint4_radial" cx="0" cy="0" r="1" gradientUnits="userSpaceOnUse" gradientTransform="translate(378.896 449.066) rotate(-150.029) scale(238.497 558.783)">
<stop stop-color="#ED1C24"/>
<stop offset="1" stop-color="#F25D19"/>
</radialGradient>
<radialGradient id="paint5_radial" cx="0" cy="0" r="1" gradientUnits="userSpaceOnUse" gradientTransform="translate(378.895 449.067) rotate(-150.029) scale(238.496 558.783)">
<stop stop-color="#ED1C24"/>
<stop offset="1" stop-color="#F14C1C"/>
</radialGradient>
<radialGradient id="paint6_radial" cx="0" cy="0" r="1" gradientUnits="userSpaceOnUse" gradientTransform="translate(378.895 449.066) rotate(-150.029) scale(238.496 558.782)">
<stop stop-color="#ED1C24"/>
<stop offset="1" stop-color="#F0411E"/>
</radialGradient>
<radialGradient id="paint7_radial" cx="0" cy="0" r="1" gradientUnits="userSpaceOnUse" gradientTransform="translate(378.894 449.067) rotate(-150.028) scale(238.495 558.783)">
<stop stop-color="#ED1C24"/>
<stop offset="1" stop-color="#F0401E"/>
</radialGradient>
<radialGradient id="paint8_radial" cx="0" cy="0" r="1" gradientUnits="userSpaceOnUse" gradientTransform="translate(378.892 449.068) rotate(-150.028) scale(238.492 558.783)">
<stop stop-color="#ED1C24"/>
<stop offset="1" stop-color="#F0401E"/>
</radialGradient>
<radialGradient id="paint9_radial" cx="0" cy="0" r="1" gradientUnits="userSpaceOnUse" gradientTransform="translate(378.897 449.066) rotate(-150.029) scale(238.499 558.785)">
<stop stop-color="#ED1C24"/>
<stop offset="1" stop-color="#F0401E"/>
</radialGradient>
<radialGradient id="paint10_radial" cx="0" cy="0" r="1" gradientUnits="userSpaceOnUse" gradientTransform="translate(378.896 449.066) rotate(-150.029) scale(238.497 558.783)">
<stop stop-color="#ED1C24"/>
<stop offset="1" stop-color="#F03B1F"/>
</radialGradient>
<radialGradient id="paint11_radial" cx="0" cy="0" r="1" gradientUnits="userSpaceOnUse" gradientTransform="translate(378.897 449.066) rotate(-150.029) scale(238.498 558.783)">
<stop stop-color="#CD1E26"/>
<stop offset="1" stop-color="#E61D25"/>
</radialGradient>
<radialGradient id="paint12_radial" cx="0" cy="0" r="1" gradientUnits="userSpaceOnUse" gradientTransform="translate(378.896 449.066) rotate(-150.029) scale(238.497 558.783)">
<stop stop-color="#B91F25"/>
<stop offset="1" stop-color="#E11D25"/>
</radialGradient>
<radialGradient id="paint13_radial" cx="0" cy="0" r="1" gradientUnits="userSpaceOnUse" gradientTransform="translate(378.896 449.067) rotate(-150.029) scale(238.498 558.784)">
<stop stop-color="#831E22"/>
<stop offset="1" stop-color="#D61E25"/>
</radialGradient>
<radialGradient id="paint14_radial" cx="0" cy="0" r="1" gradientUnits="userSpaceOnUse" gradientTransform="translate(378.896 449.066) rotate(-150.029) scale(238.496 558.781)">
<stop stop-color="#52171A"/>
<stop offset="1" stop-color="#CB1E25"/>
</radialGradient>
<radialGradient id="paint15_radial" cx="0" cy="0" r="1" gradientUnits="userSpaceOnUse" gradientTransform="translate(378.899 449.067) rotate(-150.029) scale(238.502 558.787)">
<stop stop-color="#080000"/>
<stop offset="1" stop-color="#B41D23"/>
</radialGradient>
<radialGradient id="paint16_radial" cx="0" cy="0" r="1" gradientUnits="userSpaceOnUse" gradientTransform="translate(378.895 449.064) rotate(-150.029) scale(238.495 558.777)">
<stop stop-color="#070000"/>
<stop offset="1" stop-color="#B21D23"/>
</radialGradient>
<radialGradient id="paint17_radial" cx="0" cy="0" r="1" gradientUnits="userSpaceOnUse" gradientTransform="translate(205.733 269.485) rotate(-150.029) scale(95.9422 224.786)">
<stop stop-color="#ED1C24"/>
<stop offset="1" stop-color="#EF391F"/>
</radialGradient>
<radialGradient id="paint18_radial" cx="0" cy="0" r="1" gradientUnits="userSpaceOnUse" gradientTransform="translate(205.734 269.484) rotate(-150.029) scale(95.9422 224.786)">
<stop stop-color="#ED1C24"/>
<stop offset="1" stop-color="#F14A1C"/>
</radialGradient>
<radialGradient id="paint19_radial" cx="0" cy="0" r="1" gradientUnits="userSpaceOnUse" gradientTransform="translate(205.734 269.484) rotate(-150.029) scale(95.9425 224.787)">
<stop stop-color="#ED1C24"/>
<stop offset="1" stop-color="#F2581A"/>
</radialGradient>
<radialGradient id="paint20_radial" cx="0" cy="0" r="1" gradientUnits="userSpaceOnUse" gradientTransform="translate(205.734 269.484) rotate(-150.029) scale(95.9424 224.787)">
<stop stop-color="#ED1C24"/>
<stop offset="1" stop-color="#F36118"/>
</radialGradient>
<radialGradient id="paint21_radial" cx="0" cy="0" r="1" gradientUnits="userSpaceOnUse" gradientTransform="translate(205.734 269.485) rotate(-150.029) scale(95.9424 224.786)">
<stop stop-color="#ED1C24"/>
<stop offset="1" stop-color="#F36817"/>
</radialGradient>
<radialGradient id="paint22_radial" cx="0" cy="0" r="1" gradientUnits="userSpaceOnUse" gradientTransform="translate(205.734 269.485) rotate(-150.029) scale(95.9424 224.787)">
<stop stop-color="#ED1C24"/>
<stop offset="1" stop-color="#F25D19"/>
</radialGradient>
<radialGradient id="paint23_radial" cx="0" cy="0" r="1" gradientUnits="userSpaceOnUse" gradientTransform="translate(205.734 269.484) rotate(-150.029) scale(95.9426 224.787)">
<stop stop-color="#ED1C24"/>
<stop offset="1" stop-color="#F14F1B"/>
</radialGradient>
<radialGradient id="paint24_radial" cx="0" cy="0" r="1" gradientUnits="userSpaceOnUse" gradientTransform="translate(205.733 269.484) rotate(-150.029) scale(95.9423 224.787)">
<stop stop-color="#ED1C24"/>
<stop offset="1" stop-color="#EF3120"/>
</radialGradient>
<radialGradient id="paint25_radial" cx="0" cy="0" r="1" gradientUnits="userSpaceOnUse" gradientTransform="translate(205.734 269.484) rotate(-150.029) scale(95.9426 224.787)">
<stop stop-color="#AF2127"/>
<stop offset="1" stop-color="#DF2A23"/>
</radialGradient>
<radialGradient id="paint26_radial" cx="0" cy="0" r="1" gradientUnits="userSpaceOnUse" gradientTransform="translate(205.734 269.485) rotate(-150.029) scale(95.9427 224.787)">
<stop stop-color="#2F0E0F"/>
<stop offset="1" stop-color="#C32424"/>
</radialGradient>
<radialGradient id="paint27_radial" cx="0" cy="0" r="1" gradientUnits="userSpaceOnUse" gradientTransform="translate(205.734 269.485) rotate(-150.028) scale(95.9419 224.788)">
<stop stop-color="#4C1518"/>
<stop offset="1" stop-color="#CA1E25"/>
</radialGradient>
<radialGradient id="paint28_radial" cx="0" cy="0" r="1" gradientUnits="userSpaceOnUse" gradientTransform="translate(378.895 449.074) rotate(-150.031) scale(238.492 558.748)">
<stop stop-color="#ED1C24"/>
<stop offset="1" stop-color="#F2551A"/>
</radialGradient>
<radialGradient id="paint29_radial" cx="0" cy="0" r="1" gradientUnits="userSpaceOnUse" gradientTransform="translate(378.896 449.067) rotate(-150.029) scale(238.497 558.782)">
<stop stop-color="#ED1C24"/>
<stop offset="1" stop-color="#F25D19"/>
</radialGradient>
<radialGradient id="paint30_radial" cx="0" cy="0" r="1" gradientUnits="userSpaceOnUse" gradientTransform="translate(378.897 449.067) rotate(-150.029) scale(238.497 558.782)">
<stop stop-color="#ED1C24"/>
<stop offset="1" stop-color="#F0431D"/>
</radialGradient>
<radialGradient id="paint31_radial" cx="0" cy="0" r="1" gradientUnits="userSpaceOnUse" gradientTransform="translate(378.897 449.066) rotate(-150.029) scale(238.498 558.785)">
<stop stop-color="#ED1C24"/>
<stop offset="1" stop-color="#EF391F"/>
</radialGradient>
<radialGradient id="paint32_radial" cx="0" cy="0" r="1" gradientUnits="userSpaceOnUse" gradientTransform="translate(378.896 449.067) rotate(-150.029) scale(238.497 558.784)">
<stop stop-color="#ED1C24"/>
<stop offset="1" stop-color="#F36618"/>
</radialGradient>
<radialGradient id="paint33_radial" cx="0" cy="0" r="1" gradientUnits="userSpaceOnUse" gradientTransform="translate(378.896 449.066) rotate(-150.029) scale(238.498 558.785)">
<stop stop-color="#ED1C24"/>
<stop offset="1" stop-color="#F0431E"/>
</radialGradient>
<radialGradient id="paint34_radial" cx="0" cy="0" r="1" gradientUnits="userSpaceOnUse" gradientTransform="translate(378.896 449.066) rotate(-150.029) scale(238.497 558.782)">
<stop stop-color="#ED1C24"/>
<stop offset="1" stop-color="#F47515"/>
</radialGradient>
<radialGradient id="paint35_radial" cx="0" cy="0" r="1" gradientUnits="userSpaceOnUse" gradientTransform="translate(378.897 449.066) rotate(-150.029) scale(238.498 558.781)">
<stop stop-color="#ED1C24"/>
<stop offset="1" stop-color="#EF3620"/>
</radialGradient>
<radialGradient id="paint36_radial" cx="0" cy="0" r="1" gradientUnits="userSpaceOnUse" gradientTransform="translate(378.896 449.066) rotate(-150.029) scale(238.497 558.782)">
<stop stop-color="#ED1C24"/>
<stop offset="1" stop-color="#F46C17"/>
</radialGradient>
<radialGradient id="paint37_radial" cx="0" cy="0" r="1" gradientUnits="userSpaceOnUse" gradientTransform="translate(378.896 449.066) rotate(-150.029) scale(238.497 558.783)">
<stop stop-color="#ED1C24"/>
<stop offset="1" stop-color="#F0441D"/>
</radialGradient>
<radialGradient id="paint38_radial" cx="0" cy="0" r="1" gradientUnits="userSpaceOnUse" gradientTransform="translate(378.896 449.067) rotate(-150.029) scale(238.497 558.783)">
<stop stop-color="#ED1C24"/>
<stop offset="1" stop-color="#F47315"/>
</radialGradient>
<radialGradient id="paint39_radial" cx="0" cy="0" r="1" gradientUnits="userSpaceOnUse" gradientTransform="translate(378.901 449.066) rotate(-150.03) scale(238.501 558.782)">
<stop stop-color="#ED1C24"/>
<stop offset="1" stop-color="#F47315"/>
</radialGradient>
<radialGradient id="paint40_radial" cx="0" cy="0" r="1" gradientUnits="userSpaceOnUse" gradientTransform="translate(378.896 449.067) rotate(-150.029) scale(238.497 558.784)">
<stop stop-color="#ED1C24"/>
<stop offset="1" stop-color="#F36618"/>
</radialGradient>
<radialGradient id="paint41_radial" cx="0" cy="0" r="1" gradientUnits="userSpaceOnUse" gradientTransform="translate(378.894 449.065) rotate(-150.029) scale(238.494 558.773)">
<stop stop-color="#ED1C24"/>
<stop offset="1" stop-color="#F46D16"/>
</radialGradient>
<radialGradient id="paint42_radial" cx="0" cy="0" r="1" gradientUnits="userSpaceOnUse" gradientTransform="translate(378.895 449.067) rotate(-150.029) scale(238.497 558.785)">
<stop stop-color="#ED1C24"/>
<stop offset="1" stop-color="#F46D16"/>
</radialGradient>
<radialGradient id="paint43_radial" cx="0" cy="0" r="1" gradientUnits="userSpaceOnUse" gradientTransform="translate(378.896 449.066) rotate(-150.029) scale(238.498 558.784)">
<stop stop-color="#ED1C24"/>
<stop offset="1" stop-color="#F25A1A"/>
</radialGradient>
<radialGradient id="paint44_radial" cx="0" cy="0" r="1" gradientUnits="userSpaceOnUse" gradientTransform="translate(378.896 449.066) rotate(-150.029) scale(238.497 558.783)">
<stop stop-color="#ED1C24"/>
<stop offset="1" stop-color="#F14C1C"/>
</radialGradient>
<radialGradient id="paint45_radial" cx="0" cy="0" r="1" gradientUnits="userSpaceOnUse" gradientTransform="translate(378.895 449.058) rotate(-150.03) scale(238.492 558.758)">
<stop stop-color="#ED1C24"/>
<stop offset="1" stop-color="#F0401E"/>
</radialGradient>
<radialGradient id="paint46_radial" cx="0" cy="0" r="1" gradientUnits="userSpaceOnUse" gradientTransform="translate(565.861 452.769) rotate(-150.029) scale(267.196 626.024)">
<stop stop-color="#ED1C24"/>
<stop offset="1" stop-color="#F36418"/>
</radialGradient>
<radialGradient id="paint47_radial" cx="0" cy="0" r="1" gradientUnits="userSpaceOnUse" gradientTransform="translate(565.862 452.77) rotate(-150.029) scale(267.196 626.02)">
<stop stop-color="#ED1C24"/>
<stop offset="1" stop-color="#F36817"/>
</radialGradient>
<radialGradient id="paint48_radial" cx="0" cy="0" r="1" gradientUnits="userSpaceOnUse" gradientTransform="translate(565.871 452.77) rotate(-150.03) scale(267.202 626.024)">
<stop stop-color="#ED1C24"/>
<stop offset="1" stop-color="#F35E19"/>
</radialGradient>
<radialGradient id="paint49_radial" cx="0" cy="0" r="1" gradientUnits="userSpaceOnUse" gradientTransform="translate(565.861 452.77) rotate(-150.029) scale(267.195 626.02)">
<stop stop-color="#ED1C24"/>
<stop offset="1" stop-color="#F36817"/>
</radialGradient>
<radialGradient id="paint50_radial" cx="0" cy="0" r="1" gradientUnits="userSpaceOnUse" gradientTransform="translate(565.862 452.768) rotate(-150.028) scale(267.198 626.031)">
<stop stop-color="#ED1C24"/>
<stop offset="1" stop-color="#F2571A"/>
</radialGradient>
<radialGradient id="paint51_radial" cx="0" cy="0" r="1" gradientUnits="userSpaceOnUse" gradientTransform="translate(565.861 452.77) rotate(-150.029) scale(267.195 626.02)">
<stop stop-color="#ED1C24"/>
<stop offset="1" stop-color="#F36218"/>
</radialGradient>
<radialGradient id="paint52_radial" cx="0" cy="0" r="1" gradientUnits="userSpaceOnUse" gradientTransform="translate(565.861 452.77) rotate(-150.029) scale(267.196 626.025)">
<stop stop-color="#ED1C24"/>
<stop offset="1" stop-color="#F36817"/>
</radialGradient>
<radialGradient id="paint53_radial" cx="0" cy="0" r="1" gradientUnits="userSpaceOnUse" gradientTransform="translate(565.862 452.77) rotate(-150.029) scale(267.196 626.022)">
<stop stop-color="#ED1C24"/>
<stop offset="1" stop-color="#F35D19"/>
</radialGradient>
<radialGradient id="paint54_radial" cx="0" cy="0" r="1" gradientUnits="userSpaceOnUse" gradientTransform="translate(565.861 452.77) rotate(-150.029) scale(267.196 626.023)">
<stop stop-color="#ED1C24"/>
<stop offset="1" stop-color="#F2591A"/>
</radialGradient>
<radialGradient id="paint55_radial" cx="0" cy="0" r="1" gradientUnits="userSpaceOnUse" gradientTransform="translate(565.86 452.77) rotate(-150.029) scale(267.195 626.022)">
<stop stop-color="#ED1C24"/>
<stop offset="1" stop-color="#F35D19"/>
</radialGradient>
<radialGradient id="paint56_radial" cx="0" cy="0" r="1" gradientUnits="userSpaceOnUse" gradientTransform="translate(565.861 452.77) rotate(-150.029) scale(267.195 626.02)">
<stop stop-color="#ED1C24"/>
<stop offset="1" stop-color="#F35E19"/>
</radialGradient>
<radialGradient id="paint57_radial" cx="0" cy="0" r="1" gradientUnits="userSpaceOnUse" gradientTransform="translate(565.861 452.77) rotate(-150.029) scale(267.195 626.021)">
<stop stop-color="#ED1C24"/>
<stop offset="1" stop-color="#F2591A"/>
</radialGradient>
<radialGradient id="paint58_radial" cx="0" cy="0" r="1" gradientUnits="userSpaceOnUse" gradientTransform="translate(565.862 452.77) rotate(-150.029) scale(267.196 626.02)">
<stop stop-color="#ED1C24"/>
<stop offset="1" stop-color="#F14E1C"/>
</radialGradient>
<radialGradient id="paint59_radial" cx="0" cy="0" r="1" gradientUnits="userSpaceOnUse" gradientTransform="translate(565.861 452.77) rotate(-150.029) scale(267.196 626.02)">
<stop stop-color="#ED1C24"/>
<stop offset="1" stop-color="#F2581A"/>
</radialGradient>
<radialGradient id="paint60_radial" cx="0" cy="0" r="1" gradientUnits="userSpaceOnUse" gradientTransform="translate(565.861 452.77) rotate(-150.029) scale(267.196 626.021)">
<stop stop-color="#951F25"/>
<stop offset="1" stop-color="#DA2324"/>
</radialGradient>
<radialGradient id="paint61_radial" cx="0" cy="0" r="1" gradientUnits="userSpaceOnUse" gradientTransform="translate(565.861 452.77) rotate(-150.029) scale(267.196 626.022)">
<stop stop-color="#ED1C24"/>
<stop offset="1" stop-color="#F1491C"/>
</radialGradient>
<radialGradient id="paint62_radial" cx="0" cy="0" r="1" gradientUnits="userSpaceOnUse" gradientTransform="translate(565.861 452.77) rotate(-150.029) scale(267.196 626.021)">
<stop stop-color="#641B1F"/>
<stop offset="1" stop-color="#CF1E25"/>
</radialGradient>
<radialGradient id="paint63_radial" cx="0" cy="0" r="1" gradientUnits="userSpaceOnUse" gradientTransform="translate(565.861 452.77) rotate(-150.029) scale(267.195 626.021)">
<stop stop-color="#A62025"/>
<stop offset="1" stop-color="#DD2424"/>
</radialGradient>
<radialGradient id="paint64_radial" cx="0" cy="0" r="1" gradientUnits="userSpaceOnUse" gradientTransform="translate(565.856 452.77) rotate(-150.028) scale(267.19 626.018)">
<stop stop-color="#3F1214"/>
<stop offset="1" stop-color="#C71E25"/>
</radialGradient>
<radialGradient id="paint65_radial" cx="0" cy="0" r="1" gradientUnits="userSpaceOnUse" gradientTransform="translate(565.861 452.77) rotate(-150.029) scale(267.195 626.021)">
<stop stop-color="#BB1F25"/>
<stop offset="1" stop-color="#E32424"/>
</radialGradient>
<radialGradient id="paint66_radial" cx="0" cy="0" r="1" gradientUnits="userSpaceOnUse" gradientTransform="translate(565.855 452.77) rotate(-150.028) scale(267.189 626.017)">
<stop stop-color="#290C0D"/>
<stop offset="1" stop-color="#C21E25"/>
</radialGradient>
<radialGradient id="paint67_radial" cx="0" cy="0" r="1" gradientUnits="userSpaceOnUse" gradientTransform="translate(565.861 452.77) rotate(-150.029) scale(267.195 626.02)">
<stop stop-color="#8B1F24"/>
<stop offset="1" stop-color="#D71E25"/>
</radialGradient>
<radialGradient id="paint68_radial" cx="0" cy="0" r="1" gradientUnits="userSpaceOnUse" gradientTransform="translate(565.858 452.772) rotate(-150.028) scale(267.194 626.025)">
<stop stop-color="#AB1F25"/>
<stop offset="1" stop-color="#DF1D25"/>
</radialGradient>
<clipPath id="clip0">
<rect width="411" height="731" fill="white"/>
</clipPath>
</defs>
</svg>
