<svg width="360" height="4079" viewBox="0 0 360 4079" fill="none" xmlns="http://www.w3.org/2000/svg">
<rect width="360" height="4079" fill="white"/>
<ellipse opacity="0.25" cx="253.5" cy="789.5" rx="31.5" ry="33.5" fill="url(#paint0_linear)"/>
<ellipse opacity="0.25" cx="302.5" cy="2835.5" rx="31.5" ry="33.5" fill="url(#paint1_linear)"/>
<ellipse opacity="0.25" cx="306.5" cy="4032.5" rx="31.5" ry="33.5" fill="url(#paint2_linear)"/>
<ellipse opacity="0.25" cx="296.5" cy="755.5" rx="11.5" ry="12.5" fill="url(#paint3_linear)"/>
<ellipse opacity="0.25" cx="77.5" cy="1842" rx="17.5" ry="17" fill="url(#paint4_linear)"/>
<ellipse opacity="0.25" cx="214.5" cy="2404" rx="17.5" ry="17" fill="url(#paint5_linear)"/>
<ellipse opacity="0.25" cx="302.5" cy="1137" rx="17.5" ry="17" fill="url(#paint6_linear)"/>
<ellipse opacity="0.25" cx="55.5" cy="1521" rx="17.5" ry="17" fill="url(#paint7_linear)"/>
<ellipse opacity="0.25" cx="112" cy="1850" rx="12" ry="13" fill="url(#paint8_linear)"/>
<ellipse opacity="0.25" cx="273" cy="2446.5" rx="8" ry="8.5" fill="url(#paint9_linear)"/>
<ellipse opacity="0.25" cx="215" cy="3551.5" rx="8" ry="8.5" fill="url(#paint10_linear)"/>
<circle opacity="0.25" cx="294" cy="3097" r="5" fill="url(#paint11_linear)"/>
<ellipse opacity="0.25" cx="285" cy="3117.5" rx="8" ry="8.5" fill="url(#paint12_linear)"/>
<ellipse opacity="0.25" cx="265" cy="3130.5" rx="8" ry="8.5" fill="url(#paint13_linear)"/>
<ellipse opacity="0.25" cx="134" cy="3525.5" rx="8" ry="8.5" fill="url(#paint14_linear)"/>
<ellipse opacity="0.25" cx="244" cy="2434" rx="12" ry="13" fill="url(#paint15_linear)"/>
<ellipse opacity="0.25" cx="177" cy="3530" rx="12" ry="13" fill="url(#paint16_linear)"/>
<ellipse opacity="0.25" cx="241" cy="3122" rx="12" ry="13" fill="url(#paint17_linear)"/>
<circle opacity="0.25" cx="324.5" cy="1117.5" r="8.5" fill="url(#paint18_linear)"/>
<circle opacity="0.25" cx="44.5" cy="618.5" r="8.5" fill="url(#paint19_linear)"/>
<circle opacity="0.25" cx="60" cy="1812" r="13" fill="url(#paint20_linear)"/>
<ellipse opacity="0.25" cx="48" cy="52" rx="24" ry="26" fill="url(#paint21_linear)"/>
<ellipse opacity="0.25" cx="24" cy="91.5" rx="12" ry="13.5" fill="url(#paint22_linear)"/>
<path d="M344.649 203C331.978 223.006 315.316 239.641 298.649 245.308C270.939 252.5 283.149 278.192 295.439 293C314.651 316.149 334.014 378.833 328 401.5C321.5 426 318 432.5 298.649 443.308C280.625 453.375 234.484 481.736 211 443.308C186.061 402.5 211 396.5 158 367C122.203 347.075 91.4346 319.89 61.3293 293.291L61.0005 293C40.8746 275.218 18.4999 208.5 36.9387 153.308C46.5289 124.602 68.4387 95.3082 101.439 92.8082C134.439 90.3082 148.439 92.8081 175.939 111.808C203.439 130.808 241.939 110.808 270.939 111.808C299.939 112.808 317.149 126 338.439 151C354.062 169.345 354.149 188 344.649 203Z" fill="url(#paint23_linear)"/>
<path d="M341.573 3266C328.902 3286.01 312.239 3302.64 295.573 3308.31C267.863 3315.5 280.072 3341.19 292.362 3356C311.575 3379.15 335.363 3441.05 335.363 3464.5C335.363 3491 324.351 3552.19 305 3563C286.976 3573.07 241.226 3536.63 207.924 3506.31C162 3464.5 124.5 3520.5 71.5 3491C35.573 3471 115.71 3356.19 85.5 3329.5C65.3742 3311.72 15.4237 3271.5 33.8625 3216.31C43.4527 3187.6 79.5 3125 112.5 3122.5C145.5 3120 145.363 3155.81 172.863 3174.81C200.363 3193.81 238.863 3173.81 267.863 3174.81C296.862 3175.81 314.073 3189 335.363 3214C350.985 3232.35 351.073 3251 341.573 3266Z" fill="url(#paint24_linear)"/>
<path d="M27.5003 407.5C13.6512 424.119 11.6877 452 27.5003 475C71.5 539 79.701 646.9 66.501 674.5C50.001 709 27.5003 709 18.501 776C9.50177 843 27.5003 845 66.501 891.5C105.502 938 41.7628 958.52 81.5 1007.5C103 1034 99.628 1048.11 192.501 1061C279 1073 253 1030 287 997C321 964 306.001 945.5 263.001 902C220.001 858.5 186.501 857 192.501 804.5C198.501 752 307.501 673 318.001 632.5C328.501 592 303.001 539.5 263.001 512.5C223.001 485.5 189.501 499 167.001 484C144.501 469 141.501 424 105.501 397C69.501 370 42.5 389.5 27.5003 407.5Z" fill="url(#paint25_linear)"/>
<path d="M32.5011 2462.32C7.70378 2490.23 11.2435 2595.91 32.5011 2614C89.4999 2662.5 88.9999 2648 104 2687.5C117.577 2723.25 56.4999 2735.5 32.5011 2794.5C7.02989 2857.12 56.2781 2865.32 95.2789 2911.82C134.28 2958.32 20.2628 3042.02 60 3091C81.5 3117.5 130.77 3042.52 221.279 3067C310 3091 252.5 3042.5 286.5 3009.5C320.5 2976.5 354 2974.5 311 2931C268 2887.5 215.279 2877.32 221.279 2824.82C227.279 2772.32 342.413 2677.13 326.779 2638.32C305.5 2585.5 248.001 2622.5 208.001 2595.5C168.001 2568.5 236.501 2530.5 228.001 2480.5C221.772 2443.86 210.222 2431.18 157.001 2418.5C102.756 2405.58 78.9998 2410 32.5011 2462.32Z" fill="url(#paint26_linear)"/>
<path d="M337.082 1603.36C357.979 1586.36 300 1490 305.582 1451.93C309.092 1428 316.082 1381.93 337.082 1337.43C359.098 1290.78 323.082 1263.43 283.582 1234.93C244.082 1206.43 272.979 1160.86 217.479 1125.86C161.979 1090.86 87.6371 1102.18 64.9785 1119.36C0.978516 1167.86 26.582 1234.93 44.5817 1263.43C68.082 1285.93 80.9785 1275.86 95.0817 1294.93C105.522 1309.06 76.8968 1310.92 56.5 1335.5C41.1669 1353.98 30.4642 1393.56 37 1423.5C45.4183 1462.07 60.421 1479.13 85.5817 1494.43C119.979 1515.36 228.2 1542.32 237.979 1547.36C283.582 1570.86 301.786 1632.07 337.082 1603.36Z" fill="url(#paint27_linear)"/>
<path d="M182.947 1813.8C167.947 1816.8 74.4459 1803.8 39.4464 1757.8C25.4464 1741.8 26.4474 1716.3 36.9464 1702.8C47.4458 1689.3 59.4464 1683.3 56.4464 1669.3C53.4464 1655.3 33.9469 1647.3 29.9469 1633.8C20.8203 1603 33.1439 1587.98 43.9469 1577.8C65.5013 1557.5 91.4469 1551.8 142.447 1583.8C193.447 1615.8 188.947 1589.8 236.447 1599.8C283.947 1609.8 262.947 1643.8 264.947 1676.3C266.947 1708.8 274.856 1709.7 309.947 1735.8C344.5 1761.5 349 1773.5 344.5 1819C339.935 1865.16 312.5 1835.5 298.947 1859.3C285.874 1882.26 256.947 1846.3 240.447 1828.3C223.947 1810.3 197.947 1810.8 182.947 1813.8Z" fill="url(#paint28_linear)"/>
<path d="M185 3961C114 3974.5 81.1831 4047 46.1836 4001C32.1836 3985 33.895 3898.23 74.0004 3806.81C110.5 3723.61 116.497 3685.72 58.6831 3657.11C32.1836 3644 20.9996 3622.39 21 3610V3610C21.0009 3577.87 21.0013 3563.89 46.1836 3550.5C72.3301 3536.6 93.6836 3539.61 144.684 3571.61C195.684 3603.61 191.184 3577.61 238.684 3587.61C286.184 3597.61 265.184 3631.61 267.184 3664.11C269.184 3696.61 277.092 3697.52 312.184 3723.61C346.737 3749.31 351.237 3761.31 346.737 3806.81C342.172 3852.97 275.053 3825.2 261.5 3849C248.427 3871.96 328.553 3949.88 312.184 3968C290.5 3992 256.715 3947.37 185 3961Z" fill="url(#paint29_linear)"/>
<path d="M217.499 1891C197.999 1878.5 147.5 1871.5 90.4997 1916C59.4997 1944 32.4991 1962 51.9998 2022C62.9477 2055.68 73.8058 2037.86 62.9998 2113.5C58.4997 2145 50.1 2158.18 32.4991 2202.5C18.9983 2236.5 14.9984 2250 44.9991 2315C73.8297 2377.46 121.738 2370.39 144.999 2352.5C184 2322.5 220.5 2353 251 2328C281.5 2303 315.039 2269.83 303.5 2231.5C289.5 2185 233.999 2183 230.999 2134.5C227.999 2086 258.999 2085.5 299.499 2062C339.999 2038.5 337.457 1992.36 329 1965C320.5 1937.5 294 1922.5 258.999 1916C225.079 1909.7 236.999 1903.5 217.499 1891Z" fill="url(#paint30_linear)"/>
<ellipse opacity="0.25" cx="329.5" cy="2786.5" rx="11.5" ry="12.5" fill="url(#paint31_linear)"/>
<ellipse opacity="0.25" cx="256.5" cy="4011.5" rx="11.5" ry="12.5" fill="url(#paint32_linear)"/>
<ellipse opacity="0.25" cx="295.5" cy="3871.5" rx="11.5" ry="12.5" fill="url(#paint33_linear)"/>
<ellipse opacity="0.25" cx="82" cy="3725.5" rx="7" ry="7.5" fill="url(#paint34_linear)"/>
<ellipse opacity="0.25" cx="66.5" cy="3705.5" rx="11.5" ry="12.5" fill="url(#paint35_linear)"/>
<defs>
<linearGradient id="paint0_linear" x1="253.5" y1="756" x2="253.5" y2="823" gradientUnits="userSpaceOnUse">
<stop stop-color="#F46D16"/>
<stop offset="1" stop-color="#EF3620"/>
</linearGradient>
<linearGradient id="paint1_linear" x1="302.5" y1="2802" x2="302.5" y2="2869" gradientUnits="userSpaceOnUse">
<stop stop-color="#F46D16"/>
<stop offset="1" stop-color="#EF3620"/>
</linearGradient>
<linearGradient id="paint2_linear" x1="306.5" y1="3999" x2="306.5" y2="4066" gradientUnits="userSpaceOnUse">
<stop stop-color="#F46D16"/>
<stop offset="1" stop-color="#EF3620"/>
</linearGradient>
<linearGradient id="paint3_linear" x1="296.5" y1="743" x2="296.5" y2="768" gradientUnits="userSpaceOnUse">
<stop stop-color="#FB8B08" stop-opacity="0.77"/>
<stop offset="1" stop-color="#EA2B2B"/>
</linearGradient>
<linearGradient id="paint4_linear" x1="77.5" y1="1825" x2="77.5" y2="1859" gradientUnits="userSpaceOnUse">
<stop stop-color="#FB8B08" stop-opacity="0.77"/>
<stop offset="1" stop-color="#EA2B2B"/>
</linearGradient>
<linearGradient id="paint5_linear" x1="214.5" y1="2387" x2="214.5" y2="2421" gradientUnits="userSpaceOnUse">
<stop stop-color="#FB8B08" stop-opacity="0.77"/>
<stop offset="1" stop-color="#EA2B2B"/>
</linearGradient>
<linearGradient id="paint6_linear" x1="302.5" y1="1120" x2="302.5" y2="1154" gradientUnits="userSpaceOnUse">
<stop stop-color="#FB8B08" stop-opacity="0.77"/>
<stop offset="1" stop-color="#EA2B2B"/>
</linearGradient>
<linearGradient id="paint7_linear" x1="55.5" y1="1504" x2="55.5" y2="1538" gradientUnits="userSpaceOnUse">
<stop stop-color="#FB8B08" stop-opacity="0.77"/>
<stop offset="1" stop-color="#EA2B2B"/>
</linearGradient>
<linearGradient id="paint8_linear" x1="112" y1="1837" x2="112" y2="1863" gradientUnits="userSpaceOnUse">
<stop stop-color="#FB8B08" stop-opacity="0.77"/>
<stop offset="1" stop-color="#EA2B2B"/>
</linearGradient>
<linearGradient id="paint9_linear" x1="273" y1="2438" x2="273" y2="2455" gradientUnits="userSpaceOnUse">
<stop stop-color="#FB8B08" stop-opacity="0.77"/>
<stop offset="1" stop-color="#EA2B2B"/>
</linearGradient>
<linearGradient id="paint10_linear" x1="215" y1="3543" x2="215" y2="3560" gradientUnits="userSpaceOnUse">
<stop stop-color="#FB8B08" stop-opacity="0.77"/>
<stop offset="1" stop-color="#EA2B2B"/>
</linearGradient>
<linearGradient id="paint11_linear" x1="294" y1="3092" x2="294" y2="3102" gradientUnits="userSpaceOnUse">
<stop stop-color="#FB8B08" stop-opacity="0.77"/>
<stop offset="1" stop-color="#EA2B2B"/>
</linearGradient>
<linearGradient id="paint12_linear" x1="285" y1="3109" x2="285" y2="3126" gradientUnits="userSpaceOnUse">
<stop stop-color="#FB8B08" stop-opacity="0.77"/>
<stop offset="1" stop-color="#EA2B2B"/>
</linearGradient>
<linearGradient id="paint13_linear" x1="265" y1="3122" x2="265" y2="3139" gradientUnits="userSpaceOnUse">
<stop stop-color="#FB8B08" stop-opacity="0.77"/>
<stop offset="1" stop-color="#EA2B2B"/>
</linearGradient>
<linearGradient id="paint14_linear" x1="134" y1="3517" x2="134" y2="3534" gradientUnits="userSpaceOnUse">
<stop stop-color="#FB8B08" stop-opacity="0.77"/>
<stop offset="1" stop-color="#EA2B2B"/>
</linearGradient>
<linearGradient id="paint15_linear" x1="244" y1="2421" x2="244" y2="2447" gradientUnits="userSpaceOnUse">
<stop stop-color="#FB8B08" stop-opacity="0.77"/>
<stop offset="1" stop-color="#EA2B2B"/>
</linearGradient>
<linearGradient id="paint16_linear" x1="177" y1="3517" x2="177" y2="3543" gradientUnits="userSpaceOnUse">
<stop stop-color="#FB8B08" stop-opacity="0.77"/>
<stop offset="1" stop-color="#EA2B2B"/>
</linearGradient>
<linearGradient id="paint17_linear" x1="241" y1="3109" x2="241" y2="3135" gradientUnits="userSpaceOnUse">
<stop stop-color="#FB8B08" stop-opacity="0.77"/>
<stop offset="1" stop-color="#EA2B2B"/>
</linearGradient>
<linearGradient id="paint18_linear" x1="324.5" y1="1109" x2="324.5" y2="1126" gradientUnits="userSpaceOnUse">
<stop stop-color="#FB8B08" stop-opacity="0.77"/>
<stop offset="1" stop-color="#EA2B2B"/>
</linearGradient>
<linearGradient id="paint19_linear" x1="44.5" y1="610" x2="44.5" y2="627" gradientUnits="userSpaceOnUse">
<stop stop-color="#FB8B08" stop-opacity="0.77"/>
<stop offset="1" stop-color="#EA2B2B"/>
</linearGradient>
<linearGradient id="paint20_linear" x1="60" y1="1799" x2="60" y2="1825" gradientUnits="userSpaceOnUse">
<stop stop-color="#FB8B08" stop-opacity="0.77"/>
<stop offset="1" stop-color="#EA2B2B"/>
</linearGradient>
<linearGradient id="paint21_linear" x1="48" y1="26" x2="48" y2="78" gradientUnits="userSpaceOnUse">
<stop stop-color="#FFEFB8"/>
<stop offset="1" stop-color="#F35D19"/>
</linearGradient>
<linearGradient id="paint22_linear" x1="24" y1="78" x2="24" y2="105" gradientUnits="userSpaceOnUse">
<stop stop-color="#FB8B08" stop-opacity="0.77"/>
<stop offset="1" stop-color="#EA2B2B"/>
</linearGradient>
<linearGradient id="paint23_linear" x1="190.595" y1="92" x2="190.595" y2="462.852" gradientUnits="userSpaceOnUse">
<stop stop-color="#FFF8DE"/>
<stop offset="0.519597" stop-color="#FFDCC2"/>
</linearGradient>
<linearGradient id="paint24_linear" x1="187.519" y1="3155" x2="187.519" y2="3525.85" gradientUnits="userSpaceOnUse">
<stop stop-color="#FFF8DE"/>
<stop offset="0.519597" stop-color="#FFDCC2"/>
</linearGradient>
<linearGradient id="paint25_linear" x1="168.296" y1="383.678" x2="168.296" y2="1063.06" gradientUnits="userSpaceOnUse">
<stop offset="0.627467" stop-color="#FFDCC2"/>
<stop offset="1" stop-color="#FFFAE2"/>
</linearGradient>
<linearGradient id="paint26_linear" x1="197.074" y1="2404" x2="197.074" y2="3083.38" gradientUnits="userSpaceOnUse">
<stop offset="0.627467" stop-color="#FFDCC2"/>
<stop offset="1" stop-color="#FFFAE2"/>
</linearGradient>
<linearGradient id="paint27_linear" x1="183.889" y1="1610.87" x2="183.889" y2="1103" gradientUnits="userSpaceOnUse">
<stop offset="0.476901" stop-color="#FFE4CB"/>
<stop offset="0.801286" stop-color="#FFFAE2"/>
</linearGradient>
<linearGradient id="paint28_linear" x1="183.566" y1="1564" x2="183.566" y2="1862.81" gradientUnits="userSpaceOnUse">
<stop stop-color="#FFE4CB"/>
<stop offset="1" stop-color="#FFFBDB"/>
</linearGradient>
<linearGradient id="paint29_linear" x1="185.802" y1="3551.81" x2="185.802" y2="3850.62" gradientUnits="userSpaceOnUse">
<stop stop-color="#FFE4CB"/>
<stop offset="1" stop-color="#FFFBDB"/>
</linearGradient>
<linearGradient id="paint30_linear" x1="177.845" y1="1881.57" x2="177.845" y2="2363.79" gradientUnits="userSpaceOnUse">
<stop stop-color="#FFFBDB"/>
<stop offset="1" stop-color="#FFDFCD"/>
</linearGradient>
<linearGradient id="paint31_linear" x1="329.5" y1="2774" x2="329.5" y2="2799" gradientUnits="userSpaceOnUse">
<stop stop-color="#FB8B08" stop-opacity="0.77"/>
<stop offset="1" stop-color="#EA2B2B"/>
</linearGradient>
<linearGradient id="paint32_linear" x1="256.5" y1="3999" x2="256.5" y2="4024" gradientUnits="userSpaceOnUse">
<stop stop-color="#FB8B08" stop-opacity="0.77"/>
<stop offset="1" stop-color="#EA2B2B"/>
</linearGradient>
<linearGradient id="paint33_linear" x1="295.5" y1="3859" x2="295.5" y2="3884" gradientUnits="userSpaceOnUse">
<stop stop-color="#FB8B08" stop-opacity="0.77"/>
<stop offset="1" stop-color="#EA2B2B"/>
</linearGradient>
<linearGradient id="paint34_linear" x1="82" y1="3718" x2="82" y2="3733" gradientUnits="userSpaceOnUse">
<stop stop-color="#FB8B08" stop-opacity="0.77"/>
<stop offset="1" stop-color="#EA2B2B"/>
</linearGradient>
<linearGradient id="paint35_linear" x1="66.5" y1="3693" x2="66.5" y2="3718" gradientUnits="userSpaceOnUse">
<stop stop-color="#FB8B08" stop-opacity="0.77"/>
<stop offset="1" stop-color="#EA2B2B"/>
</linearGradient>
</defs>
</svg>
