<svg width="360" height="640" viewBox="0 0 360 640" fill="none" xmlns="http://www.w3.org/2000/svg">
<rect width="360" height="640" fill="white"/>
<path d="M331.818 127.868C311.499 93.5 296.818 92.5 224.818 84.3678C191.818 79.3684 175.749 74.2529 142.318 84.3678C88.9993 100.5 19.4993 154 33.4993 218C49.4595 290.961 81.4993 285.5 120.999 303C180.794 329.491 181.969 366.836 156.318 429.368C142.318 463.5 99.4623 437.868 51.3185 494.868C16.9994 535.5 28.4669 560.177 51.3185 582.5C74.9987 605.632 108.19 575.368 156.318 544.868C242.318 490.368 245.818 531.868 296.818 504.368C347.818 476.868 331.818 462.868 342.818 437.868C353.818 412.868 305.818 377.868 281.818 350.868C257.973 324.042 273.299 295.866 288.699 267.551L288.999 267C304.499 238.5 323.999 251.132 342.818 225.5C358.443 204.219 346.884 153.349 331.818 127.868Z" fill="url(#paint0_linear)"/>
<ellipse cx="54.5" cy="60" rx="18.5" ry="17" fill="url(#paint1_linear)"/>
<ellipse cx="298.5" cy="537" rx="7.5" ry="7" fill="url(#paint2_linear)"/>
<ellipse cx="276.5" cy="551" rx="7.5" ry="7" fill="url(#paint3_linear)"/>
<ellipse cx="261.5" cy="571" rx="7.5" ry="7" fill="url(#paint4_linear)"/>
<ellipse cx="93.5" cy="349" rx="20.5" ry="20" fill="url(#paint5_linear)"/>
<ellipse cx="57" cy="322" rx="16" ry="15" fill="url(#paint6_linear)"/>
<ellipse cx="84" cy="391" rx="16" ry="15" fill="url(#paint7_linear)"/>
<ellipse cx="57" cy="416.5" rx="11" ry="10.5" fill="url(#paint8_linear)"/>
<circle cx="80.5" cy="80.5" r="9.5" fill="url(#paint9_linear)"/>
<defs>
<linearGradient id="paint0_linear" x1="189.964" y1="78.5459" x2="189.964" y2="590.669" gradientUnits="userSpaceOnUse">
<stop offset="0.119792" stop-color="#FFD8BC"/>
<stop offset="0.776042" stop-color="#FEF4D1"/>
</linearGradient>
<linearGradient id="paint1_linear" x1="54.5" y1="43" x2="54.5" y2="77" gradientUnits="userSpaceOnUse">
<stop stop-color="#FFF6DA"/>
<stop offset="1" stop-color="#FFDEC4"/>
</linearGradient>
<linearGradient id="paint2_linear" x1="298.5" y1="530" x2="298.5" y2="544" gradientUnits="userSpaceOnUse">
<stop stop-color="#FFF6DA"/>
<stop offset="1" stop-color="#FFDEC4"/>
</linearGradient>
<linearGradient id="paint3_linear" x1="276.5" y1="544" x2="276.5" y2="558" gradientUnits="userSpaceOnUse">
<stop stop-color="#FFF6DA"/>
<stop offset="1" stop-color="#FFDEC4"/>
</linearGradient>
<linearGradient id="paint4_linear" x1="261.5" y1="564" x2="261.5" y2="578" gradientUnits="userSpaceOnUse">
<stop stop-color="#FFF6DA"/>
<stop offset="1" stop-color="#FFDEC4"/>
</linearGradient>
<linearGradient id="paint5_linear" x1="93.5" y1="329" x2="93.5" y2="369" gradientUnits="userSpaceOnUse">
<stop stop-color="#FFF6DA"/>
<stop offset="1" stop-color="#FFDEC4"/>
</linearGradient>
<linearGradient id="paint6_linear" x1="57" y1="307" x2="57" y2="337" gradientUnits="userSpaceOnUse">
<stop stop-color="#FFF6DA"/>
<stop offset="1" stop-color="#FFDEC4"/>
</linearGradient>
<linearGradient id="paint7_linear" x1="84" y1="376" x2="84" y2="406" gradientUnits="userSpaceOnUse">
<stop stop-color="#FFF6DA"/>
<stop offset="1" stop-color="#FFDEC4"/>
</linearGradient>
<linearGradient id="paint8_linear" x1="57" y1="406" x2="57" y2="427" gradientUnits="userSpaceOnUse">
<stop stop-color="#FFF6DA"/>
<stop offset="1" stop-color="#FFDEC4"/>
</linearGradient>
<linearGradient id="paint9_linear" x1="80.5" y1="71" x2="80.5" y2="90" gradientUnits="userSpaceOnUse">
<stop stop-color="#FFF6DA"/>
<stop offset="1" stop-color="#FFDEC4"/>
</linearGradient>
</defs>
</svg>
