<svg width="411" height="731" viewBox="0 0 411 731" fill="none" xmlns="http://www.w3.org/2000/svg">
<g clip-path="url(#clip0)">
<path d="M321.963 606.384C321.963 609.793 267.433 612.555 200.167 612.555C132.901 612.555 78.3716 609.793 78.3716 606.384C78.3716 602.975 132.901 600.213 200.167 600.213C267.433 600.213 321.963 602.975 321.963 606.384Z" fill="#E9E9E9"/>
<path d="M169.987 242.636L167.225 244.049C166.855 244.238 166.715 244.677 166.919 245.028C167.053 245.261 167.31 245.395 167.573 245.404L167.96 245.316L170.722 243.901C171.096 243.711 171.233 243.273 171.029 242.924C170.827 242.573 170.364 242.442 169.987 242.636" fill="#C91E25"/>
<path d="M208.657 222.854L205.892 224.267C205.522 224.456 205.385 224.895 205.586 225.243C205.723 225.479 205.977 225.613 206.242 225.622L206.627 225.531L209.389 224.119C209.762 223.929 209.899 223.491 209.695 223.142C209.494 222.791 209.027 222.66 208.657 222.854Z" fill="#C91E25"/>
<path d="M164.467 245.461L161.702 246.874C161.331 247.063 161.194 247.502 161.395 247.853C161.53 248.086 161.786 248.223 162.052 248.229L162.437 248.141L165.199 246.726C165.572 246.537 165.709 246.101 165.505 245.749C165.304 245.398 164.837 245.267 164.467 245.461Z" fill="#C91E25"/>
<path d="M203.133 225.679L200.371 227.095C199.998 227.284 199.861 227.72 200.065 228.071C200.199 228.307 200.453 228.441 200.718 228.447L201.103 228.359L203.865 226.946C204.238 226.757 204.375 226.318 204.171 225.967C203.97 225.619 203.506 225.485 203.133 225.679" fill="#C91E25"/>
<path d="M216.38 224.163L218.736 225.561L219.124 225.671L219.792 225.334C220.019 224.997 219.912 224.552 219.553 224.338L217.196 222.942C216.84 222.728 216.365 222.827 216.138 223.167C215.913 223.505 216.021 223.949 216.38 224.163" fill="#C91E25"/>
<path d="M181.038 236.984L178.273 238.396C177.903 238.586 177.766 239.024 177.967 239.376C178.104 239.609 178.358 239.746 178.623 239.751L179.008 239.664L181.77 238.248C182.143 238.059 182.281 237.623 182.076 237.272C181.875 236.921 181.408 236.789 181.038 236.984Z" fill="#C91E25"/>
<path d="M192.086 231.332L189.321 232.744C188.95 232.936 188.81 233.372 189.014 233.723C189.149 233.956 189.405 234.094 189.668 234.099L190.056 234.011L192.818 232.599C193.191 232.407 193.328 231.971 193.124 231.62C192.923 231.269 192.456 231.137 192.086 231.332" fill="#C91E25"/>
<path d="M175.511 239.809L172.752 241.221C172.379 241.413 172.242 241.849 172.446 242.2C172.58 242.433 172.834 242.57 173.099 242.576L173.484 242.488L176.246 241.076C176.619 240.884 176.756 240.448 176.552 240.097C176.351 239.746 175.884 239.617 175.511 239.809" fill="#C91E25"/>
<path d="M197.606 228.504L194.847 229.919C194.474 230.109 194.337 230.547 194.541 230.896C194.675 231.132 194.929 231.266 195.194 231.271L195.579 231.184L198.341 229.771C198.714 229.582 198.852 229.143 198.647 228.792C198.446 228.444 197.979 228.312 197.606 228.504" fill="#C91E25"/>
<path d="M349.908 232.552C349.757 233.312 349.701 234.083 349.844 235.725C353.606 230.051 356.435 231.889 353.548 236.345H353.551C355.843 233.323 355.103 229.223 350.821 233.751V233.764C350.518 233.361 350.214 232.955 349.908 232.552" fill="#C91E25"/>
<path d="M238.799 239.699C238.72 242.62 241.176 245.047 244.282 245.121C247.388 245.195 249.969 242.886 250.048 239.965C250.123 237.044 247.671 234.617 244.565 234.543C241.459 234.472 238.877 236.778 238.799 239.699Z" fill="#C91E25"/>
<path d="M236.048 234.118C235.692 233.907 235.217 234.006 234.989 234.346C234.765 234.683 234.873 235.127 235.231 235.341L237.588 236.737L237.979 236.847L238.646 236.512C238.871 236.175 238.763 235.728 238.404 235.517L236.048 234.118" fill="#C91E25"/>
<path d="M231.336 231.323C230.98 231.112 230.504 231.211 230.277 231.551C230.052 231.888 230.16 232.333 230.519 232.547L232.875 233.943L233.263 234.052L233.931 233.718C234.159 233.38 234.051 232.933 233.692 232.722L231.336 231.323" fill="#C91E25"/>
<path d="M226.623 228.532C226.267 228.32 225.794 228.416 225.564 228.757C225.339 229.094 225.447 229.538 225.806 229.752L228.162 231.151L228.55 231.26L229.221 230.923C229.446 230.586 229.338 230.142 228.979 229.928L226.623 228.532Z" fill="#C91E25"/>
<path d="M221.91 225.737C221.554 225.523 221.078 225.621 220.851 225.961C220.623 226.299 220.734 226.743 221.09 226.957L223.45 228.356L223.84 228.465L224.508 228.128C224.733 227.791 224.625 227.346 224.266 227.132L221.91 225.737" fill="#C91E25"/>
<path d="M340.651 236.935C338.922 240.865 337.239 245.234 340.873 243.341C343.346 241.647 340.333 238.059 340.651 236.935Z" fill="#C91E25"/>
<path d="M212.898 223.853C214.945 223.899 216.648 222.38 216.698 220.455C216.751 218.529 215.132 216.93 213.085 216.881C211.037 216.832 209.337 218.354 209.284 220.279C209.235 222.204 210.853 223.803 212.898 223.853Z" fill="#C91E25"/>
<path d="M186.562 234.156L183.797 235.571C183.427 235.761 183.289 236.197 183.491 236.548C183.628 236.784 183.881 236.918 184.147 236.924L184.532 236.836L187.294 235.423C187.667 235.234 187.804 234.795 187.6 234.444C187.399 234.096 186.935 233.962 186.562 234.156" fill="#C91E25"/>
<path d="M156.259 249.57C156.227 250.798 157.259 251.819 158.563 251.849C159.87 251.879 160.955 250.908 160.987 249.682C161.022 248.453 159.989 247.433 158.683 247.403C157.376 247.37 156.291 248.341 156.259 249.57Z" fill="#C91E25"/>
<path d="M216.747 358.175L217.406 357.851C217.639 357.519 217.543 357.07 217.19 356.85L214.63 355.259C214.277 355.043 213.801 355.131 213.565 355.462C213.332 355.797 213.431 356.244 213.781 356.463L216.342 358.054L216.747 358.175Z" fill="#C91E25"/>
<path d="M154.197 372.181L156.046 369.877C156.3 369.559 156.233 369.107 155.894 368.865C155.559 368.627 155.075 368.687 154.821 369.008L152.972 371.312C152.718 371.63 152.785 372.082 153.124 372.321L153.564 372.466L154.197 372.181" fill="#C91E25"/>
<path d="M211.629 354.991L212.288 354.667C212.521 354.335 212.422 353.888 212.072 353.666L209.511 352.075C209.158 351.859 208.68 351.946 208.447 352.278C208.213 352.613 208.31 353.06 208.662 353.279L211.223 354.87L211.629 354.991Z" fill="#C91E25"/>
<path d="M168.981 353.751L170.827 351.444C171.084 351.129 171.017 350.674 170.678 350.435C170.343 350.197 169.859 350.257 169.605 350.578L167.756 352.882C167.5 353.2 167.567 353.652 167.905 353.891L168.348 354.036L168.981 353.751" fill="#C91E25"/>
<path d="M165.283 358.358L167.132 356.055C167.389 355.736 167.321 355.284 166.983 355.043C166.648 354.804 166.164 354.864 165.907 355.185L164.061 357.489C163.804 357.807 163.871 358.26 164.21 358.498L164.653 358.644L165.283 358.358Z" fill="#C91E25"/>
<path d="M191.152 342.257L191.811 341.936C192.044 341.601 191.948 341.154 191.595 340.935L189.035 339.342C188.682 339.125 188.206 339.215 187.973 339.547C187.74 339.879 187.836 340.326 188.189 340.546L190.747 342.139L191.152 342.257" fill="#C91E25"/>
<path d="M157.893 367.574L159.742 365.27C159.998 364.952 159.931 364.499 159.59 364.258C159.255 364.019 158.773 364.08 158.517 364.401L156.671 366.704C156.414 367.022 156.481 367.475 156.819 367.714L157.263 367.859L157.893 367.574" fill="#C91E25"/>
<path d="M161.591 362.966L163.437 360.662C163.691 360.344 163.623 359.892 163.285 359.65C162.95 359.412 162.466 359.472 162.209 359.793L160.363 362.097C160.109 362.415 160.176 362.867 160.514 363.109L160.958 363.251L161.591 362.966Z" fill="#C91E25"/>
<path d="M181.466 341.02C186.267 341.135 190.257 337.567 190.376 333.053C190.496 328.539 186.704 324.787 181.904 324.675C177.103 324.562 173.114 328.13 172.994 332.644C172.872 337.156 176.666 340.908 181.466 341.02" fill="#C91E25"/>
<path d="M201.389 348.622L202.048 348.301C202.282 347.967 202.185 347.52 201.833 347.3L199.275 345.71C198.919 345.49 198.447 345.581 198.21 345.913C197.977 346.245 198.073 346.694 198.426 346.914L200.987 348.504L201.389 348.622" fill="#C91E25"/>
<path d="M193.092 342.729C192.858 343.063 192.955 343.51 193.307 343.73L195.865 345.323L196.271 345.441L196.93 345.118C197.163 344.786 197.067 344.339 196.714 344.119L194.153 342.526C193.803 342.306 193.325 342.397 193.092 342.729Z" fill="#C91E25"/>
<path d="M175.296 344.676L175.739 344.821L176.372 344.536L178.218 342.229C178.474 341.911 178.407 341.459 178.069 341.22C177.734 340.981 177.25 341.042 176.996 341.363L175.147 343.666C174.89 343.985 174.957 344.437 175.296 344.676" fill="#C91E25"/>
<path d="M206.508 351.807L207.167 351.483C207.403 351.151 207.304 350.704 206.951 350.485L204.393 348.894C204.04 348.675 203.562 348.765 203.329 349.097C203.095 349.429 203.191 349.876 203.544 350.095L206.105 351.689L206.508 351.807" fill="#C91E25"/>
<path d="M172.673 349.143L174.522 346.837C174.779 346.522 174.709 346.066 174.373 345.828C174.035 345.589 173.554 345.649 173.297 345.97L171.451 348.274C171.194 348.592 171.261 349.045 171.6 349.283L172.043 349.429L172.673 349.143" fill="#C91E25"/>
<path d="M331.914 274.568L330.866 277.28C330.721 277.656 330.925 278.07 331.324 278.205L331.566 278.249C331.887 278.257 332.191 278.073 332.307 277.774L333.357 275.062C333.5 274.689 333.296 274.274 332.896 274.137C332.503 273.997 332.059 274.195 331.914 274.568Z" fill="#C91E25"/>
<path d="M329.817 279.993L328.767 282.705C328.624 283.078 328.828 283.492 329.225 283.63L329.47 283.673C329.791 283.679 330.094 283.498 330.208 283.199L331.257 280.487C331.403 280.111 331.199 279.697 330.8 279.562C330.403 279.423 329.963 279.617 329.817 279.993" fill="#C91E25"/>
<path d="M333.422 272.78L333.664 272.823C333.985 272.832 334.288 272.648 334.405 272.349L335.455 269.639C335.598 269.264 335.394 268.852 334.997 268.715C334.597 268.573 334.157 268.77 334.014 269.146L332.964 271.855C332.818 272.231 333.022 272.645 333.422 272.78Z" fill="#C91E25"/>
<path d="M327.72 285.415L326.673 288.127C326.527 288.503 326.731 288.917 327.13 289.052L327.372 289.095C327.693 289.104 327.997 288.92 328.113 288.621L329.16 285.909C329.306 285.536 329.099 285.119 328.702 284.984C328.306 284.845 327.862 285.042 327.72 285.415Z" fill="#C91E25"/>
<path d="M337.09 263.291C336.693 263.148 336.25 263.348 336.107 263.721L335.06 266.433C334.914 266.806 335.118 267.223 335.518 267.358L335.76 267.402C336.081 267.41 336.387 267.226 336.501 266.927L337.548 264.215C337.694 263.839 337.489 263.425 337.09 263.291Z" fill="#C91E25"/>
<path d="M340.544 260.702C340.579 259.473 339.546 258.453 338.24 258.423C336.933 258.393 335.848 259.363 335.816 260.589C335.784 261.818 336.816 262.838 338.12 262.871C339.427 262.901 340.512 261.93 340.544 260.702" fill="#C91E25"/>
<path d="M325.275 294.52C325.596 294.525 325.899 294.344 326.013 294.045L327.063 291.333C327.206 290.96 327.002 290.543 326.605 290.409C326.209 290.269 325.765 290.466 325.622 290.839L324.575 293.552C324.43 293.925 324.634 294.339 325.033 294.476L325.275 294.52Z" fill="#C91E25"/>
<path d="M58.4429 531.6C56.7251 530.808 54.7885 529.628 52.6449 527.964C46.1528 522.415 47.9143 515.449 45.9865 507.057H43.7612C45.9749 512.926 43.2771 528.965 58.4429 531.6" fill="#F0431D"/>
<path d="M33.519 493.775C36.4326 497.785 39.5824 501.769 43.0531 505.713H43.0472C43.3418 506.059 43.5634 506.533 43.7617 507.057H45.987C45.2462 503.832 43.9776 500.401 41.4548 496.748C32.0696 485.188 44.7067 478.436 53.6545 476.826C54.8153 476.617 55.8506 476.028 56.5885 475.161C60.9574 470.016 63.8301 466.27 65.8629 463.313L59.0442 452.203L33.519 493.775Z" fill="#EF391F"/>
<path d="M12.6191 452.203C16.8947 466.344 23.6843 480.238 33.5187 493.775L59.0438 452.203H12.6191Z" fill="#EE2D21"/>
<path d="M65.8627 463.313C69.2955 458.322 70.3425 455.577 72.1274 452.203H59.0439L65.8627 463.313" fill="#F0421E"/>
<path d="M25.3645 397.347L7.49805 426.442C8.40799 435.103 10.05 443.698 12.6194 452.203H59.0441L25.3645 397.347Z" fill="#EF381F"/>
<path d="M7.11605 397.347C6.41026 407.105 6.48902 416.813 7.49812 426.442L25.3645 397.347H7.11605Z" fill="#EF3520"/>
<path d="M59.0439 452.203H72.1273C73.4951 449.617 75.2946 446.663 78.9548 442.028C79.7656 441.003 80.4189 439.853 80.8214 438.63C84.2278 428.324 93.5401 421.541 102.855 413.851L92.7206 397.347L59.0439 452.203" fill="#EF3620"/>
<path d="M59.0439 452.203L92.7206 397.347H25.3643L59.0439 452.203Z" fill="#F03D1F"/>
<path d="M10.3734 372.935C8.82771 381.092 7.70485 389.234 7.11572 397.347H25.3642L10.3734 372.935" fill="#EF3620"/>
<path d="M102.856 413.851C108.653 409.066 114.428 403.91 118.803 397.347H92.7207L102.856 413.851Z" fill="#F0441D"/>
<path d="M25.3643 397.347H92.7206L59.0439 342.493L25.3643 397.347Z" fill="#F0441D"/>
<path d="M59.0438 342.493H58.4226L36.5286 378.376C37.7885 366.995 39.9525 354.969 42.9069 342.493H17.9272C14.8795 352.635 12.2984 362.793 10.3735 372.935L25.3643 397.347L59.0438 342.493" fill="#EF381F"/>
<path d="M92.7207 397.347H118.803C121.247 393.683 123.274 389.599 124.583 384.863C126.126 379.271 128.544 373.906 132.198 369.26C134.537 366.287 136.666 364.214 138.664 362.464L126.403 342.493L92.7207 397.347" fill="#F14A1C"/>
<path d="M92.7207 397.347L126.4 342.493H59.0439L92.7207 397.347" fill="#F2531B"/>
<path d="M58.4229 342.493H59.0426L58.7313 341.986L58.4229 342.493" fill="#F14A1C"/>
<path d="M47.7575 324.112L32.9476 299.986C27.3888 314.055 22.2062 328.256 17.9277 342.493H42.9074C44.3336 336.467 45.9435 330.34 47.7575 324.112" fill="#F14A1C"/>
<path d="M138.664 362.464C141.438 360.029 143.952 358.188 146.393 355.525C146.705 354.985 147.014 354.442 147.326 353.902C147.417 349.681 147.711 345.907 148.207 342.493H126.4L138.664 362.464Z" fill="#F14E1C"/>
<path d="M126.4 342.493L92.7207 287.636L59.0439 342.493H126.4Z" fill="#F25D19"/>
<path d="M58.7319 341.985L59.044 342.493L92.7207 287.636H91.8895L58.7319 341.985Z" fill="#F2571A"/>
<path d="M60.2048 287.636H37.917C36.2371 291.739 34.5776 295.859 32.9473 299.986L47.7572 324.112C51.2074 312.262 55.3663 300.068 60.2048 287.636Z" fill="#F2571A"/>
<path d="M160.08 287.636L126.4 342.493H148.207C150.526 326.506 157.56 318.693 171.74 313.295C172.428 312.193 173.105 311.074 173.796 309.974L160.08 287.636Z" fill="#F2591A"/>
<path d="M160.08 287.636H92.7207L126.4 342.493L160.08 287.636Z" fill="#F36118"/>
<path d="M91.8892 287.636H92.7202L92.3032 286.958L91.8892 287.636" fill="#F36118"/>
<path d="M60.0093 234.357C59.6185 235.333 59.2218 236.315 58.8252 237.297C59.5164 236.806 60.2105 236.293 60.9017 235.81L60.0093 234.357" fill="#F36118"/>
<path d="M73.5681 256.44L61.4034 236.625L54.4301 248.056C49.055 261.036 43.3942 274.261 37.917 287.636H60.2047C64.1974 277.374 68.6451 266.96 73.5681 256.44Z" fill="#F36118"/>
<path d="M188.084 287.637H160.08L173.796 309.975C178.509 302.444 183.281 295.014 188.084 287.637Z" fill="#F25C19"/>
<path d="M92.7207 287.636H160.08L146.072 264.818C142.963 266.14 140.009 264.456 134.374 262.775C129.996 261.47 124.006 260.164 115.07 260.263C114.542 260.268 113.97 259.879 113.976 259.382C113.994 258.379 115.72 257.666 118.225 257.134L117.671 256.772C116.382 255.055 120.077 253.412 125.385 254.344C128.098 254.822 131.53 254.94 134.246 254.942C136.182 254.978 136.246 253.406 134.657 252.205C130.168 248.818 131.767 246.158 135.141 247.014L126.4 232.78L92.7207 287.636" fill="#F36618"/>
<path d="M92.3037 286.956L92.7207 287.636L126.4 232.78H125.356L92.3037 286.956" fill="#F36717"/>
<path d="M62.6778 234.541L61.4033 236.625L73.5681 256.44C77.2341 248.599 81.1597 240.706 85.3332 232.78H60.6305C60.4234 233.307 60.2193 233.83 60.0093 234.357L60.9017 235.811C61.4938 235.396 62.0858 234.947 62.6778 234.541" fill="#F36717"/>
<path d="M188.084 287.636C194.845 277.256 201.684 267.02 208.602 256.953L196.314 236.94C194.092 237.716 191.87 238.569 189.653 239.469L160.08 287.636H188.084" fill="#F14C1C"/>
<path d="M189.653 239.469C177.506 244.408 165.685 250.935 156.635 256.58C153.903 258.285 151.406 260.315 149.181 262.577C148.067 263.707 147.063 264.399 146.072 264.818L160.08 287.636L189.653 239.469" fill="#F2531B"/>
<path d="M135.141 247.013C136.185 247.277 137.393 247.869 138.653 248.892C139.565 249.635 141.006 249.553 141.899 248.788C145.124 246.023 150.928 245.042 153.255 245.14C160.66 241.205 163.588 237.412 168.284 232.78H126.4L135.141 247.013" fill="#F2531B"/>
<path d="M103.69 200.412C104.159 199.639 104.649 198.893 105.122 198.122L92.7209 177.926L63.4073 225.671C62.5003 228.032 61.5758 230.402 60.6309 232.78H85.3335C91.0031 222.023 97.0986 211.218 103.69 200.412" fill="#F25C19"/>
<path d="M125.356 232.78H126.401L125.879 231.928L125.356 232.78Z" fill="#F25C19"/>
<path d="M78.468 177.926C75.114 193.213 69.7448 209.197 63.4072 225.671L92.7209 177.926H78.468Z" fill="#F2551A"/>
<path d="M319.516 287.636H316.372C317.119 289.315 317.699 289.718 319.516 287.636Z" fill="#F03C1F"/>
<path d="M221.673 238.232C219.533 236.639 217.36 234.845 215.348 232.78H211.772C206.767 233.657 201.552 235.103 196.314 236.94L208.602 256.953C212.93 250.653 217.284 244.405 221.673 238.232" fill="#F0411E"/>
<path d="M126.4 232.78H168.284C171.988 229.129 176.8 224.958 185.78 219.78L160.08 177.926L126.4 232.78Z" fill="#F14E1C"/>
<path d="M125.878 231.927L126.4 232.78L160.08 177.926H158.823L125.878 231.927Z" fill="#F14F1B"/>
<path d="M92.7207 177.926L105.122 198.122C109.362 191.238 113.69 184.494 118.112 177.926H92.7207Z" fill="#F14F1B"/>
<path d="M81.4893 159.627C80.8622 165.603 79.8327 171.708 78.4678 177.926H92.7207L81.4893 159.627Z" fill="#F1471D"/>
<path d="M303.011 274.261C313.152 277.999 315.065 284.702 316.372 287.636H319.516L319.737 287.392C326.416 276.249 330.689 266.949 331.205 258.872C331.257 258.066 331.167 257.263 331.042 256.462C329.963 249.529 332.08 245.842 333.979 241.737L328.478 232.78L303.011 274.261" fill="#F03A1F"/>
<path d="M323.721 232.78L313.385 249.726C313.429 253.02 313.662 254.369 310.413 254.594L301.71 268.861C302.34 271.241 302.221 273.224 302.46 274.036L303.011 274.261L328.478 232.78H323.721Z" fill="#F0401E"/>
<path d="M227.439 177.926L208.741 208.379C210.328 207.798 212.057 207.595 213.553 208.538C223.242 212.4 230.822 214.983 236.693 217.503C239.435 213.787 242.185 210.101 244.944 206.434L227.439 177.926Z" fill="#F03B1F"/>
<path d="M214.855 232.3C213.84 232.429 212.807 232.599 211.772 232.78H215.348L214.855 232.3Z" fill="#F03B1F"/>
<path d="M160.08 177.926L185.78 219.78C190.589 217.007 196.592 213.946 204.268 210.524C205.134 210.137 205.986 209.72 206.811 209.265C207.409 208.936 208.065 208.626 208.742 208.379L227.439 177.926H160.08" fill="#EF3320"/>
<path d="M158.823 177.926H160.08L159.45 176.9L158.823 177.926Z" fill="#EF3120"/>
<path d="M118.112 177.926C125.467 166.988 133.056 156.515 140.802 146.524L126.4 123.069L92.7207 177.926H118.112Z" fill="#EF3120"/>
<path d="M126.403 123.069H79.2056C82.2883 134.582 82.8337 146.809 81.4892 159.627L92.7206 177.926L126.403 123.069Z" fill="#EF2E21"/>
<path d="M333.979 241.737C334.953 239.628 335.868 237.41 336.259 234.577C336.283 233.751 336.455 233.189 336.691 232.78H328.478L333.979 241.737" fill="#E82124"/>
<path d="M339.918 233.685C339.927 233.357 339.947 233.089 339.962 232.784H339.339C339.58 233.043 339.793 233.338 339.918 233.685Z" fill="#E82124"/>
<path d="M344.912 233.567C344.993 233.292 345.079 233.044 345.166 232.785H344.871C344.883 233.046 344.906 233.3 344.912 233.567Z" fill="#E82124"/>
<path d="M328.478 232.78L326.092 228.894L323.721 232.78H328.478Z" fill="#E61D25"/>
<path d="M266.987 177.926H227.439L244.944 206.435C252.233 196.756 259.582 187.248 266.987 177.926Z" fill="#E11D25"/>
<path d="M227.439 177.926L193.76 123.069L160.08 177.926H227.439Z" fill="#E12124"/>
<path d="M160.065 123.069H126.4L140.802 146.524C147.128 138.362 153.562 130.546 160.065 123.069" fill="#DF2A23"/>
<path d="M160.08 177.926L193.76 123.069H192.29L159.45 176.897L160.08 177.926Z" fill="#DF2A23"/>
<path d="M126.404 123.069L106.429 90.54C97.51 89.6678 88.6117 89.229 79.7719 89.3058L71.0137 103.573C74.7234 109.806 77.4008 116.317 79.2061 123.069H126.404Z" fill="#E33B20"/>
<path d="M61.0767 90.1943C64.9964 94.4946 68.2688 98.9622 71.0132 103.573L79.7714 89.3057C73.5067 89.3578 67.2713 89.643 61.0767 90.1943Z" fill="#EA2922"/>
<path d="M336.691 232.78C337.335 231.672 338.552 231.929 339.339 232.78H339.963C340.474 220.792 344.455 225.136 344.872 232.78H345.169C347.412 226.014 350.868 225.728 350.629 229.105C350.401 230.61 350.174 231.416 350.008 232.108C352.224 225.251 348.485 225.578 346.712 228.411V228.413C343.839 224.752 340.847 221.157 337.805 217.588L328.478 232.78H336.691" fill="#DB1E25"/>
<path d="M328.479 232.78L337.806 217.589C336.872 216.492 335.939 215.397 334.988 214.311L326.093 228.894L328.479 232.78" fill="#D61E25"/>
<path d="M266.987 177.926C271.126 172.715 275.276 167.545 279.446 162.45C269.836 155.111 259.859 148.227 249.614 141.809L227.439 177.926H266.987" fill="#CB1E25"/>
<path d="M227.439 177.926L249.613 141.809C238.741 134.994 227.562 128.713 216.144 123.069H193.76L227.439 177.926Z" fill="#C61E25"/>
<path d="M193.022 121.869L192.29 123.069H193.76L193.022 121.869" fill="#C32424"/>
<path d="M160.065 123.069C165.198 117.173 170.369 111.482 175.572 106.038C164.7 102.259 153.722 99.0692 142.704 96.5186L126.4 123.069H160.065Z" fill="#C32424"/>
<path d="M142.703 96.5213C130.626 93.7294 118.508 91.7164 106.428 90.5399L126.403 123.069L142.703 96.5213" fill="#B01D23"/>
<path d="M216.144 123.069C210.387 120.223 204.574 117.527 198.712 115.003L193.76 123.069H216.144Z" fill="#BA1D24"/>
<path d="M193.759 123.069L198.711 115.003C198.315 114.833 197.915 114.669 197.519 114.499L193.021 121.868L193.759 123.069Z" fill="#CA1E25"/>
<path d="M60.9018 235.81C60.2106 236.293 59.5165 236.806 58.8253 237.297C57.3875 240.865 55.9234 244.446 54.4302 248.056L61.4034 236.625L60.9018 235.81" fill="#F36118"/>
<path d="M54.4302 248.056C55.9234 244.446 57.3875 240.865 58.8253 237.297C59.5165 236.806 60.2106 236.293 60.9018 235.81L61.4034 236.625L54.4302 248.056" fill="url(#paint0_radial)"/>
<path d="M60.9019 235.81L61.4035 236.625L62.678 234.54C62.086 234.946 61.4939 235.396 60.9019 235.81Z" fill="#F36717"/>
<path d="M61.4035 236.625L60.9019 235.81C61.4939 235.396 62.086 234.946 62.678 234.54L61.4035 236.625Z" fill="url(#paint1_radial)"/>
<path d="M147.308 354.522L147.328 353.902C147.016 354.442 146.706 354.985 146.393 355.526C146.697 355.194 147.004 354.884 147.308 354.522" fill="#F14E1C"/>
<path d="M146.393 355.526C146.706 354.985 147.016 354.442 147.328 353.902L147.308 354.522C147.004 354.884 146.697 355.194 146.393 355.526" fill="url(#paint2_radial)"/>
<path d="M171.74 313.296C172.819 312.887 173.939 312.487 175.103 312.103L173.796 309.974C173.105 311.074 172.429 312.193 171.74 313.296Z" fill="#F2591A"/>
<path d="M171.74 313.296C172.429 312.193 173.105 311.074 173.796 309.974L175.103 312.103C173.939 312.487 172.819 312.887 171.74 313.296Z" fill="url(#paint3_radial)"/>
<path d="M173.796 309.974L175.103 312.103C175.765 311.883 176.401 311.658 177.089 311.444C185.763 301.969 191.593 294.243 196.358 287.636H188.084C183.281 295.014 178.509 302.443 173.796 309.974" fill="#F25C19"/>
<path d="M175.103 312.103L173.796 309.974C178.509 302.443 183.281 295.014 188.084 287.636H196.358C191.593 294.243 185.763 301.969 177.089 311.444C176.401 311.658 175.765 311.883 175.103 312.103" fill="url(#paint4_radial)"/>
<path d="M188.084 287.636H196.358C202.786 278.728 207.289 271.888 213.991 265.734L208.601 256.953C201.683 267.02 194.844 277.256 188.084 287.636Z" fill="#F14C1C"/>
<path d="M196.358 287.636H188.084C194.844 277.256 201.683 267.02 208.601 256.953L213.991 265.734C207.289 271.888 202.786 278.728 196.358 287.636Z" fill="url(#paint5_radial)"/>
<path d="M213.991 265.734C217.298 262.698 221.119 259.816 226.03 256.936C227.282 251.92 229.125 248.53 232.283 246.152C230.242 243.936 226.057 241.492 221.673 238.232C217.284 244.405 212.93 250.653 208.602 256.952L213.991 265.734Z" fill="#F0411E"/>
<path d="M213.991 265.734L208.602 256.952C212.93 250.653 217.284 244.405 221.673 238.232C226.057 241.492 230.242 243.936 232.283 246.152C229.125 248.53 227.282 251.92 226.03 256.936C221.119 259.816 217.298 262.698 213.991 265.734Z" fill="url(#paint6_radial)"/>
<path d="M319.355 232.78C318.576 241.065 314.388 243.111 313.566 245.546C313.376 247.203 313.368 248.577 313.385 249.726L323.721 232.78H319.355" fill="#F0401E"/>
<path d="M313.385 249.726C313.382 249.49 313.379 249.249 313.379 248.997C313.379 248.006 313.414 246.866 313.566 245.546C314.388 243.111 318.576 241.065 319.355 232.78H323.721L313.385 249.726" fill="url(#paint7_radial)"/>
<path d="M266.135 235.542C266.284 234.598 266.468 233.682 266.663 232.78H263.755C264.852 233.688 265.66 234.664 266.135 235.542Z" fill="#F0401E"/>
<path d="M266.135 235.542C265.66 234.664 264.852 233.688 263.755 232.78H266.663C266.468 233.682 266.284 234.598 266.135 235.542Z" fill="url(#paint8_radial)"/>
<path d="M308.392 254.616C309.448 257.04 305.644 258.009 305.644 258.009C306.027 260.416 301.238 260.916 301.238 260.916C302.121 262.698 301.255 263.702 299.473 264.242C300.666 265.814 301.325 267.41 301.71 268.861L310.413 254.594C309.847 254.632 309.188 254.641 308.392 254.616Z" fill="#F0401E"/>
<path d="M301.71 268.861C301.325 267.41 300.666 265.814 299.473 264.242C300.777 263.847 301.588 263.206 301.588 262.194C301.588 261.821 301.474 261.396 301.238 260.916C301.238 260.916 305.659 260.455 305.665 258.283C305.668 258.195 305.659 258.102 305.644 258.009C305.644 258.009 308.581 257.26 308.576 255.433C308.576 255.184 308.52 254.909 308.392 254.616C308.684 254.627 308.961 254.63 309.217 254.63C309.661 254.63 310.057 254.619 310.413 254.594L301.71 268.861" fill="url(#paint9_radial)"/>
<path d="M236.693 217.504C244.402 220.809 249.161 224.004 251.821 229.829C255.018 229.472 257.64 229.832 259.754 230.556L244.944 206.435C242.185 210.102 239.435 213.788 236.693 217.504" fill="#F03B1F"/>
<path d="M259.754 230.556C258.199 230.024 256.377 229.689 254.251 229.689C253.481 229.689 252.67 229.733 251.821 229.829C249.161 224.004 244.402 220.809 236.693 217.504C239.435 213.788 242.185 210.102 244.944 206.435L259.754 230.556" fill="url(#paint10_radial)"/>
<path d="M326.092 228.894L294.798 177.926L261.897 231.515C262.6 231.905 263.213 232.33 263.755 232.78H266.663C273.68 200.59 309.576 195.766 323.153 227.435C325.845 233.742 319.376 232.634 319.376 232.634L319.355 232.78H323.721L326.092 228.894" fill="#E61D25"/>
<path d="M323.721 232.78H319.355L319.376 232.634C319.376 232.634 319.813 232.708 320.414 232.708C321.724 232.708 323.812 232.352 323.809 230.073C323.809 229.384 323.616 228.521 323.153 227.435C316.903 212.852 305.922 206.01 295.204 206.01C282.645 206.01 270.449 215.411 266.663 232.78H263.755C263.213 232.33 262.6 231.905 261.897 231.515L294.798 177.926L326.092 228.894L323.721 232.78" fill="url(#paint11_radial)"/>
<path d="M266.987 177.926C259.582 187.248 252.233 196.756 244.944 206.435L259.754 230.555C260.545 230.827 261.247 231.156 261.898 231.515L294.799 177.926H266.987" fill="#E11D25"/>
<path d="M261.898 231.515C261.247 231.156 260.545 230.827 259.754 230.555L244.944 206.435C252.233 196.756 259.582 187.248 266.987 177.926H294.799L261.898 231.515" fill="url(#paint12_radial)"/>
<path d="M326.092 228.894L334.988 214.311C323.774 201.479 311.507 189.297 298.409 177.926H294.798L326.092 228.894Z" fill="#D61E25"/>
<path d="M326.092 228.894L294.798 177.926H298.409C311.507 189.297 323.774 201.479 334.988 214.311L326.092 228.894Z" fill="url(#paint13_radial)"/>
<path d="M294.798 177.926L290.902 171.58C287.14 168.475 283.331 165.417 279.446 162.45C275.275 167.545 271.125 172.715 266.987 177.926H294.798Z" fill="#CB1E25"/>
<path d="M294.798 177.926H266.987C271.125 172.715 275.275 167.545 279.446 162.45C283.331 165.417 287.14 168.475 290.902 171.58L294.798 177.926Z" fill="url(#paint14_radial)"/>
<path d="M298.409 177.926C297.622 177.243 296.852 176.546 296.061 175.869L294.798 177.926H298.409Z" fill="#B41D23"/>
<path d="M298.409 177.926H294.798L296.061 175.869C296.852 176.546 297.622 177.243 298.409 177.926Z" fill="url(#paint15_radial)"/>
<path d="M296.062 175.869C294.361 174.418 292.629 173.003 290.902 171.58L294.799 177.926L296.062 175.869Z" fill="#B21D23"/>
<path d="M294.799 177.926L290.902 171.58C292.629 173.003 294.361 174.418 296.062 175.869L294.799 177.926Z" fill="url(#paint16_radial)"/>
<path d="M36.5283 378.376L58.4223 342.493H42.9067C39.9523 354.969 37.7882 366.995 36.5283 378.376Z" fill="#EF381F"/>
<path d="M36.5283 378.376C37.7882 366.995 39.9523 354.969 42.9067 342.493H58.4223L36.5283 378.376Z" fill="url(#paint17_radial)"/>
<path d="M47.7573 324.112C45.9433 330.34 44.3334 336.467 42.9072 342.493H58.4229L58.732 341.985L47.7573 324.112" fill="#F14A1C"/>
<path d="M58.4229 342.493H42.9072C44.3334 336.467 45.9433 330.34 47.7573 324.112L58.732 341.985L58.4229 342.493" fill="url(#paint18_radial)"/>
<path d="M91.8897 287.636H60.2049C55.3664 300.068 51.2075 312.262 47.7573 324.112L58.7321 341.985L91.8897 287.636Z" fill="#F2571A"/>
<path d="M58.7321 341.985L47.7573 324.112C51.2075 312.262 55.3664 300.068 60.2049 287.636H91.8897L58.7321 341.985Z" fill="url(#paint19_radial)"/>
<path d="M92.3034 286.956L73.5679 256.44C68.6449 266.96 64.1973 277.374 60.2046 287.636H91.8893L92.3034 286.956" fill="#F36118"/>
<path d="M91.8893 287.636H60.2046C64.1973 277.374 68.6449 266.96 73.5679 256.44L92.3034 286.956L91.8893 287.636" fill="url(#paint20_radial)"/>
<path d="M125.356 232.78H85.3335C81.16 240.706 77.2344 248.599 73.5684 256.44L92.3039 286.956L125.356 232.78Z" fill="#F36717"/>
<path d="M92.3039 286.956L73.5684 256.44C77.2344 248.599 81.16 240.706 85.3335 232.78H125.356L92.3039 286.956" fill="url(#paint21_radial)"/>
<path d="M125.878 231.927L105.121 198.122C104.649 198.893 104.159 199.639 103.689 200.412C97.0981 211.218 91.0026 222.023 85.333 232.78H125.356L125.878 231.927" fill="#F25C19"/>
<path d="M125.356 232.78H85.333C91.0026 222.023 97.0981 211.218 103.689 200.412C104.159 199.639 104.649 198.893 105.121 198.122L125.878 231.927L125.356 232.78" fill="url(#paint22_radial)"/>
<path d="M158.823 177.926H118.112C113.69 184.494 109.362 191.238 105.122 198.122L125.878 231.927L158.823 177.926Z" fill="#F14F1B"/>
<path d="M125.878 231.927L105.122 198.122C109.362 191.238 113.69 184.494 118.112 177.926H158.823L125.878 231.927Z" fill="url(#paint23_radial)"/>
<path d="M159.45 176.897L140.802 146.524C133.055 156.515 125.467 166.988 118.111 177.926H158.823L159.45 176.897Z" fill="#EF3120"/>
<path d="M158.823 177.926H118.111C125.467 166.988 133.055 156.515 140.802 146.524L159.45 176.897L158.823 177.926Z" fill="url(#paint24_radial)"/>
<path d="M159.45 176.897L192.29 123.069H160.065C153.561 130.546 147.128 138.362 140.802 146.524L159.45 176.897Z" fill="#DF2A23"/>
<path d="M159.45 176.897L140.802 146.524C147.128 138.362 153.561 130.546 160.065 123.069H192.29L159.45 176.897Z" fill="url(#paint25_radial)"/>
<path d="M192.29 123.069L193.022 121.868L185.538 109.677C182.228 108.41 178.906 107.198 175.572 106.038C170.369 111.482 165.198 117.173 160.065 123.069H192.29Z" fill="#C32424"/>
<path d="M192.29 123.069H160.065C165.198 117.173 170.369 111.482 175.572 106.038C178.906 107.198 182.228 108.41 185.538 109.677L193.022 121.868L192.29 123.069Z" fill="url(#paint26_radial)"/>
<path d="M197.519 114.499C193.547 112.807 189.548 111.213 185.538 109.677L193.022 121.868L197.519 114.499Z" fill="#CA1E25"/>
<path d="M193.022 121.868L185.538 109.677C189.548 111.213 193.547 112.807 197.519 114.499L193.022 121.868Z" fill="url(#paint27_radial)"/>
<path d="M323.526 296.265L322.476 298.977C322.33 299.35 322.537 299.764 322.934 299.901L323.179 299.945C323.5 299.951 323.803 299.77 323.917 299.471L324.966 296.758C325.109 296.383 324.905 295.969 324.509 295.834C324.112 295.692 323.669 295.889 323.526 296.265" fill="#C91E25"/>
<path d="M315.24 302.728C315.188 304.799 316.926 306.519 319.125 306.571C321.327 306.623 323.156 304.988 323.211 302.918C323.267 300.847 321.525 299.127 319.326 299.078C317.124 299.026 315.296 300.66 315.24 302.728Z" fill="#C91E25"/>
<path d="M311.457 297.583C311.18 297.885 311.218 298.34 311.542 298.601L313.872 300.48L314.35 300.652L314.951 300.4C315.228 300.098 315.19 299.643 314.87 299.385L312.539 297.507C312.219 297.249 311.734 297.279 311.457 297.583" fill="#C91E25"/>
<path d="M306.799 293.826C306.522 294.128 306.56 294.583 306.881 294.844L309.211 296.722L309.693 296.895L310.294 296.643C310.571 296.341 310.533 295.886 310.209 295.628L307.879 293.749C307.561 293.491 307.074 293.522 306.799 293.826" fill="#C91E25"/>
<path d="M305.636 292.888C305.91 292.584 305.875 292.128 305.552 291.868L303.224 289.989C302.903 289.734 302.419 289.764 302.142 290.069C301.865 290.37 301.903 290.826 302.224 291.086L304.551 292.965L305.032 293.138L305.636 292.888" fill="#C91E25"/>
<path d="M286.745 282.121C286.667 285.042 289.122 287.469 292.228 287.54C295.332 287.614 297.916 285.305 297.991 282.384C298.07 279.463 295.615 277.036 292.508 276.965C289.402 276.891 286.821 279.2 286.745 282.121Z" fill="#C91E25"/>
<path d="M297.484 286.311C297.207 286.613 297.245 287.068 297.566 287.329L299.893 289.208L300.374 289.38L300.975 289.131C301.252 288.826 301.214 288.371 300.893 288.111L298.566 286.232C298.245 285.977 297.758 286.007 297.484 286.311" fill="#C91E25"/>
<path d="M214.3 412.763L216.954 411.312C217.322 411.114 217.444 410.673 217.231 410.327C217.021 409.982 216.552 409.864 216.184 410.067L213.53 411.515C213.163 411.715 213.04 412.157 213.253 412.499L213.895 412.859L214.3 412.763" fill="#C91E25"/>
<path d="M218.561 409.603L219.206 409.963L219.611 409.864L222.262 408.416C222.63 408.216 222.755 407.777 222.542 407.431C222.329 407.088 221.863 406.968 221.492 407.171L218.838 408.619C218.474 408.819 218.348 409.258 218.561 409.603" fill="#C91E25"/>
<path d="M224.514 407.066L224.916 406.968L227.57 405.52C227.938 405.319 228.063 404.878 227.85 404.535C227.637 404.192 227.168 404.074 226.8 404.272L224.146 405.723C223.781 405.92 223.656 406.362 223.869 406.707L224.514 407.066" fill="#C91E25"/>
<path d="M206.615 416.119C206.405 415.777 205.936 415.659 205.568 415.859L202.914 417.307C202.547 417.507 202.424 417.949 202.634 418.294L203.279 418.651L203.684 418.555L206.338 417.107C206.706 416.907 206.828 416.465 206.615 416.119" fill="#C91E25"/>
<path d="M208.587 415.755L208.992 415.659L211.646 414.211C212.014 414.01 212.136 413.569 211.923 413.223C211.713 412.88 211.244 412.763 210.876 412.963L208.222 414.411C207.855 414.611 207.732 415.053 207.945 415.395L208.587 415.755" fill="#C91E25"/>
<path d="M229.822 404.17L230.224 404.071L232.881 402.623C233.246 402.423 233.371 401.982 233.158 401.639C232.945 401.293 232.479 401.175 232.108 401.375L229.454 402.824C229.09 403.024 228.964 403.465 229.177 403.811L229.822 404.17" fill="#C91E25"/>
<path d="M235.107 367.99C234.754 367.774 234.279 367.864 234.042 368.196C233.809 368.528 233.908 368.975 234.261 369.194L236.819 370.785L237.224 370.906L237.884 370.582C238.117 370.25 238.021 369.803 237.668 369.584L235.107 367.99" fill="#C91E25"/>
<path d="M223.805 361.828C223.572 362.162 223.671 362.609 224.021 362.829L226.582 364.419L226.984 364.54L227.646 364.216C227.88 363.885 227.78 363.438 227.428 363.218L224.87 361.625C224.517 361.405 224.042 361.496 223.805 361.828" fill="#C91E25"/>
<path d="M218.687 358.644C218.454 358.978 218.55 359.425 218.903 359.645L221.464 361.238L221.866 361.356L222.528 361.035C222.762 360.701 222.662 360.254 222.31 360.034L219.752 358.441C219.399 358.224 218.921 358.315 218.687 358.644" fill="#C91E25"/>
<path d="M125 564.196C126.249 564.708 127.491 565.251 128.745 565.734L126.4 561.914L125 564.196" fill="#F36318"/>
<path d="M122.921 561.914L122.224 563.057C123.146 563.455 124.076 563.817 125.001 564.195L126.401 561.914H122.921" fill="#F2551A"/>
<path d="M126.4 561.914L128.745 565.734C146.664 572.612 165.37 576.403 184.24 577.42L193.76 561.914H126.4Z" fill="#F36817"/>
<path d="M122.921 561.913H126.4L124.656 559.069L122.921 561.913Z" fill="#F25C19"/>
<path d="M67.4729 507.057C65.933 513.584 63.1419 518.077 64.1918 522.251C66.2567 517.202 68.3682 512.136 70.5235 507.057H67.4729Z" fill="#F0431D"/>
<path d="M184.24 577.42C190.598 577.763 196.971 577.793 203.34 577.516L193.76 561.914L184.24 577.42" fill="#F36917"/>
<path d="M79.7161 485.874L77.0417 481.516C76.0355 483.002 75.0176 484.568 73.9735 486.238C73.9735 486.238 71.0716 490.681 69.9254 492.911C68.998 494.718 68.3738 496.679 68.4088 498.69C68.4643 501.835 68.056 504.589 67.4727 507.057H70.5233C73.5098 500.017 76.5575 492.96 79.7161 485.874" fill="#EF391F"/>
<path d="M193.76 561.914L203.34 577.516C214.102 577.05 224.841 575.698 235.454 573.553C236.895 569.686 238.382 565.8 239.872 561.914H193.76Z" fill="#F36418"/>
<path d="M227.439 507.057L193.76 561.913H239.872C242.558 554.898 245.306 547.861 248.152 540.793L227.439 507.057Z" fill="#F36817"/>
<path d="M160.08 507.057L193.76 561.913L227.439 507.057H160.08Z" fill="#F46D16"/>
<path d="M158.228 504.04L124.656 559.069L126.4 561.913H193.76L160.08 507.057L158.228 504.04Z" fill="#F36618"/>
<path d="M88.2234 467.23C84.6507 471.127 80.9846 475.666 77.0415 481.516L79.716 485.874C82.4808 479.678 85.3303 473.458 88.2234 467.23" fill="#F0421E"/>
<path d="M262.262 507.057H227.439L248.152 540.793C252.655 529.609 257.366 518.359 262.262 507.057Z" fill="#F36717"/>
<path d="M227.439 507.057L206.184 472.438C204.714 473.2 202.62 473.343 200.129 472.539C193.141 470.288 189.108 467.394 186.363 464.249L160.08 507.057H227.439" fill="#F57815"/>
<path d="M160.08 507.057L186.363 464.249C185.556 463.324 184.859 462.375 184.234 461.416L158.228 504.04L160.08 507.057" fill="#F47515"/>
<path d="M275.964 476.382L261.119 452.203L227.439 507.057H262.262C266.675 496.871 271.233 486.647 275.964 476.382Z" fill="#F36817"/>
<path d="M261.119 452.203L240.003 417.812C224.406 423.755 213.46 424.514 203.451 429.915L197.991 438.869C200.645 449.208 198.379 449.916 198.878 453.975C199.222 456.803 200.916 459.312 203.305 461.056C209.608 465.661 209.555 470.694 206.184 472.438L227.439 507.057L261.119 452.203Z" fill="#F47315"/>
<path d="M287.393 452.203H261.119L275.964 476.381C279.668 468.346 283.497 460.28 287.393 452.203Z" fill="#F25D19"/>
<path d="M305.808 415.28L294.798 397.347L261.119 452.203H287.393C293.314 439.933 299.444 427.622 305.808 415.28Z" fill="#F2591A"/>
<path d="M294.799 397.347L261.119 342.493L253.679 354.612C261.562 361.545 266.591 368.668 272.193 373.486C274.853 375.776 277.195 378.374 278.971 381.325C283.97 389.637 284.772 391.557 272.409 400.421C259.571 409.222 249.016 414.378 240.004 417.812L261.119 452.203L294.799 397.347" fill="#F36817"/>
<path d="M315.193 397.347H294.798L305.808 415.28C308.888 409.307 312.011 403.331 315.193 397.347Z" fill="#F2571A"/>
<path d="M235.104 387.202C234.699 387.109 234.261 387.002 233.85 386.909L233.497 387.485C234.013 387.38 234.544 387.285 235.104 387.202" fill="#F36817"/>
<path d="M233.497 387.484L233.849 386.908C232.654 386.634 231.449 386.354 230.21 386.055L228.32 389.152C229.871 388.431 231.545 387.877 233.497 387.484Z" fill="#F46D16"/>
<path d="M256.788 342.493L250.841 352.237C251.827 353.024 252.772 353.817 253.679 354.612L261.119 342.493H256.788" fill="#F46D16"/>
<path d="M337.394 357.012L328.478 342.493L294.798 397.347H315.193C322.33 383.925 329.738 370.475 337.394 357.012" fill="#F1491C"/>
<path d="M261.119 342.493L294.798 397.347L328.478 342.493H261.119Z" fill="#F25A1A"/>
<path d="M256.788 342.493H261.119L258.946 338.952L256.788 342.493Z" fill="#F25A1A"/>
<path d="M345.738 342.493H328.478L337.394 357.012C340.144 352.174 342.921 347.333 345.738 342.493" fill="#DE2424"/>
<path d="M328.478 342.493L304.592 303.59C303.574 302.863 302.527 302.185 301.392 301.656C297.817 300.019 294.367 296.846 291.124 293.62L261.119 342.493H328.478" fill="#F1501B"/>
<path d="M261.119 342.493L291.124 293.62C290.173 292.674 289.234 291.725 288.321 290.807L258.946 338.952L261.119 342.493Z" fill="#F14C1C"/>
<path d="M363.54 312.591C365.856 308.795 368.195 305.038 370.531 301.275L362.158 287.636L328.478 342.493H345.738C351.539 332.526 357.459 322.557 363.54 312.591" fill="#E32424"/>
<path d="M362.158 287.636H337.709C334.658 298.502 329.843 307.764 324.042 312.421C322.33 313.797 319.901 314.168 317.833 313.323C312.595 311.186 308.973 306.711 304.592 303.59L328.478 342.493L362.158 287.636Z" fill="#F03C1F"/>
<path d="M379.096 287.636H362.157L370.53 301.275C373.371 296.703 376.226 292.159 379.096 287.636Z" fill="#D71E25"/>
<path d="M345.318 260.211C343.781 262.251 342.214 264.794 340.972 269.278C340.476 275.561 339.342 281.825 337.708 287.636H362.157L345.318 260.211Z" fill="#F03A1F"/>
<path d="M379.096 287.636C379.927 286.325 380.753 285.012 381.587 283.706C379.14 278.676 376.527 273.69 373.75 268.756L362.157 287.636H379.096Z" fill="#DF1D25"/>
<path d="M373.751 268.757C367.632 257.882 360.766 247.244 353.184 236.935C352.282 238.572 352.02 238.918 351.536 241.756C357.098 239.041 351.434 248.289 350.457 251.503C349.322 255.707 347.345 257.52 345.318 260.211L362.158 287.636L373.751 268.757" fill="#E82124"/>
<path d="M119.599 561.914C120.471 562.306 121.349 562.682 122.224 563.057L122.921 561.914H119.599" fill="#F2551A"/>
<path d="M122.224 563.057C121.349 562.682 120.471 562.306 119.599 561.914H122.921L122.224 563.057" fill="url(#paint28_radial)"/>
<path d="M124.656 559.069L92.7206 507.057L75.4551 535.179C83.7787 541.388 92.9773 547.485 103.156 553.45C108.531 556.601 114.026 559.401 119.599 561.913H122.921L124.656 559.069" fill="#F25C19"/>
<path d="M122.921 561.913H119.599C114.026 559.401 108.531 556.601 103.156 553.45C92.9773 547.485 83.7787 541.388 75.4551 535.179L92.7206 507.057L124.656 559.069L122.921 561.913Z" fill="url(#paint29_radial)"/>
<path d="M70.5235 507.057C68.3683 512.136 66.2567 517.202 64.1919 522.251C64.4018 523.09 64.7635 523.913 65.3235 524.738C68.9866 529.434 67.3212 533.78 61.8062 532.733V532.736C67.9629 534.288 68.135 529.524 68.135 529.524C70.4886 531.419 72.9413 533.303 75.4553 535.179L92.7209 507.057H70.5235" fill="#F0431D"/>
<path d="M75.4553 535.179C72.9413 533.303 70.4886 531.419 68.135 529.524C68.135 529.524 68.0066 533.048 64.0548 533.048C63.4132 533.048 62.6665 532.955 61.8062 532.736V532.733C62.369 532.84 62.8911 532.889 63.3723 532.889C65.9009 532.889 67.2804 531.482 67.2775 529.453C67.2746 528.087 66.6475 526.436 65.3235 524.738C64.7635 523.913 64.4018 523.09 64.1919 522.251C66.2567 517.202 68.3683 512.136 70.5235 507.057H92.7209L75.4553 535.179" fill="url(#paint30_radial)"/>
<path d="M70.5234 507.057H92.7209L79.7162 485.874C76.5577 492.96 73.5099 500.017 70.5234 507.057Z" fill="#EF391F"/>
<path d="M92.7209 507.057H70.5234C73.5099 500.017 76.5577 492.96 79.7162 485.874L92.7209 507.057Z" fill="url(#paint31_radial)"/>
<path d="M158.228 504.04L126.4 452.203L92.7207 507.057L124.656 559.07L158.228 504.04Z" fill="#F36618"/>
<path d="M124.656 559.07L92.7207 507.057L126.4 452.203L158.228 504.04L124.656 559.07Z" fill="url(#paint32_radial)"/>
<path d="M92.7205 507.057L126.4 452.203H103.826C98.4339 457.23 93.4234 461.558 88.2232 467.23C85.3301 473.458 82.4807 479.678 79.7158 485.874L92.7205 507.057" fill="#F0421E"/>
<path d="M92.7205 507.057L79.7158 485.874C82.4807 479.678 85.3301 473.458 88.2232 467.23C93.4234 461.558 98.4339 457.23 103.826 452.203H126.4L92.7205 507.057" fill="url(#paint33_radial)"/>
<path d="M158.228 504.04L184.234 461.415C182.239 458.36 180.941 455.184 178.99 452.203H126.4L158.228 504.04Z" fill="#F47515"/>
<path d="M158.228 504.04L126.4 452.203H178.99C180.941 455.184 182.239 458.36 184.234 461.415L158.228 504.04Z" fill="url(#paint34_radial)"/>
<path d="M117.636 437.928C112.599 443.811 108.093 448.229 103.827 452.203H126.4L117.636 437.928" fill="#EF3620"/>
<path d="M126.4 452.203H103.827C108.093 448.229 112.599 443.811 117.636 437.928L126.4 452.203Z" fill="url(#paint35_radial)"/>
<path d="M178.99 452.203C176.996 449.162 174.315 446.323 169.483 444.033C155.851 436.019 163.241 423.648 173.65 423.65C174.479 423.65 175.301 423.576 176.115 423.464L161.602 399.826C159.263 402.324 156.787 404.746 154.148 407.011L126.4 452.203H178.99Z" fill="#F46B17"/>
<path d="M178.99 452.203H126.4L154.148 407.011C156.787 404.746 159.263 402.324 161.602 399.826L176.115 423.464C175.304 423.574 174.485 423.65 173.656 423.65C173.656 423.65 173.653 423.65 173.65 423.65C173.65 423.65 173.65 423.65 173.647 423.65C167.287 423.65 162.052 428.272 162.057 433.696C162.063 437.144 164.186 440.918 169.483 444.033C174.315 446.323 176.996 449.162 178.99 452.203" fill="url(#paint36_radial)"/>
<path d="M154.148 407.011C150.423 410.206 146.402 413.089 141.986 415.365C140.983 415.881 139.627 417.019 139.008 417.927C132.4 427.646 127.695 425.463 123.105 431.201C121.212 433.65 119.392 435.877 117.636 437.928L126.4 452.203L154.148 407.011Z" fill="#F0441D"/>
<path d="M126.4 452.203L117.636 437.928C119.392 435.877 121.212 433.65 123.105 431.201C127.695 425.463 132.4 427.646 139.008 417.927C139.627 417.019 140.983 415.881 141.986 415.365C146.402 413.089 150.423 410.206 154.148 407.011L126.4 452.203" fill="url(#paint37_radial)"/>
<path d="M180.793 422C200.791 411.054 210.559 402.986 217.162 397.347H163.88C163.137 398.181 162.375 399.003 161.603 399.826L176.115 423.464C177.757 423.236 179.349 422.789 180.793 422" fill="#F47315"/>
<path d="M176.115 423.464L161.603 399.826C162.375 399.003 163.137 398.181 163.88 397.347H217.162C210.559 402.986 200.791 411.054 180.793 422C179.349 422.789 177.757 423.236 176.115 423.464" fill="url(#paint38_radial)"/>
<path d="M198.91 432.75C197.583 433.705 197.011 435.331 197.443 436.848C197.647 437.563 197.825 438.23 197.991 438.869L203.451 429.915C201.919 430.743 200.409 431.67 198.91 432.75" fill="#F47315"/>
<path d="M197.991 438.869C197.825 438.23 197.647 437.563 197.443 436.848C197.346 436.51 197.303 436.168 197.303 435.827C197.303 434.64 197.88 433.491 198.91 432.75C200.409 431.67 201.92 430.743 203.451 429.915L197.991 438.869" fill="url(#paint39_radial)"/>
<path d="M223.995 391.738L218.608 382.962C208.467 379.981 197.603 375.971 187.209 370.278C180.796 374.94 173.548 386.481 163.88 397.347H217.161C219.792 395.101 221.924 393.238 223.995 391.738" fill="#F36618"/>
<path d="M217.161 397.347H163.88C173.548 386.481 180.796 374.94 187.209 370.278C197.603 375.971 208.467 379.981 218.608 382.962L223.995 391.738C221.924 393.238 219.792 395.101 217.161 397.347" fill="url(#paint40_radial)"/>
<path d="M228.32 389.152L230.21 386.056C226.506 385.161 222.615 384.141 218.608 382.962L223.995 391.738C225.415 390.71 226.812 389.851 228.32 389.152" fill="#F46D16"/>
<path d="M223.995 391.738L218.608 382.962C222.615 384.141 226.506 385.161 230.21 386.056L228.32 389.152C226.812 389.851 225.415 390.71 223.995 391.738" fill="url(#paint41_radial)"/>
<path d="M234.756 342.493C241.266 345.403 246.478 348.757 250.841 352.237L256.787 342.493H234.756Z" fill="#F46D16"/>
<path d="M250.841 352.237C246.478 348.757 241.266 345.403 234.756 342.493H256.787L250.841 352.237Z" fill="url(#paint42_radial)"/>
<path d="M258.946 338.952L243.582 313.929C230.569 322.453 224.742 321.284 215.753 334.929L226.039 339.133C229.195 340.159 232.074 341.291 234.757 342.493H256.788L258.946 338.952" fill="#F25A1A"/>
<path d="M256.788 342.493H234.757C232.074 341.291 229.195 340.159 226.039 339.133L215.753 334.929C224.742 321.284 230.569 322.453 243.582 313.929L258.946 338.952L256.788 342.493" fill="url(#paint43_radial)"/>
<path d="M288.321 290.807C287.181 289.658 286.084 288.607 285.011 287.636H279.256C269.402 299.188 263.659 299.169 246.312 312.067C245.367 312.736 244.46 313.353 243.582 313.929L258.946 338.952L288.321 290.807" fill="#F14C1C"/>
<path d="M258.946 338.952L243.582 313.929C244.46 313.353 245.367 312.736 246.312 312.067C263.659 299.169 269.402 299.188 279.256 287.636H285.011C286.084 288.607 287.181 289.658 288.321 290.807L258.946 338.952" fill="url(#paint44_radial)"/>
<path d="M281.517 284.883C280.735 285.876 279.988 286.781 279.256 287.636H285.011C283.803 286.539 282.628 285.557 281.517 284.883Z" fill="#F0401E"/>
<path d="M285.011 287.636H279.256C279.988 286.781 280.735 285.876 281.517 284.883C282.628 285.557 283.803 286.539 285.011 287.636Z" fill="url(#paint45_radial)"/>
<path d="M261.119 561.914H239.872C238.382 565.8 236.894 569.686 235.454 573.553C242.867 572.056 250.211 570.155 257.456 567.881L261.119 561.914Z" fill="#F36418"/>
<path d="M235.454 573.553C236.894 569.686 238.382 565.8 239.872 561.914H261.119L257.456 567.881C250.211 570.155 242.867 572.056 235.454 573.553Z" fill="url(#paint46_radial)"/>
<path d="M239.872 561.913H261.119L248.152 540.793C245.306 547.861 242.558 554.898 239.872 561.913Z" fill="#F36817"/>
<path d="M261.119 561.913H239.872C242.558 554.898 245.306 547.861 248.152 540.793L261.119 561.913Z" fill="url(#paint47_radial)"/>
<path d="M257.456 567.881C259.497 567.242 261.53 566.576 263.554 565.877L261.119 561.914L257.456 567.881Z" fill="#F35E19"/>
<path d="M257.456 567.881L261.119 561.914L263.554 565.877C261.53 566.576 259.497 567.242 257.456 567.881Z" fill="url(#paint48_radial)"/>
<path d="M262.262 507.057C257.365 518.359 252.655 529.609 248.152 540.793L261.119 561.913L294.798 507.057H262.262Z" fill="#F36717"/>
<path d="M261.119 561.913L248.152 540.793C252.655 529.609 257.365 518.359 262.262 507.057H294.798L261.119 561.913Z" fill="url(#paint49_radial)"/>
<path d="M263.554 565.877C267.106 564.648 270.629 563.323 274.123 561.914H261.119L263.554 565.877" fill="#F2571A"/>
<path d="M263.554 565.877L261.119 561.914H274.123C270.629 563.323 267.106 564.648 263.554 565.877" fill="url(#paint50_radial)"/>
<path d="M261.119 561.913H274.123C288.478 556.124 302.265 548.851 315.164 540.228L294.798 507.057L261.119 561.913Z" fill="#F36218"/>
<path d="M274.123 561.913H261.119L294.798 507.057L315.164 540.228C302.265 548.851 288.478 556.124 274.123 561.913Z" fill="url(#paint51_radial)"/>
<path d="M262.262 507.057H294.798L275.963 476.381C271.233 486.647 266.674 496.871 262.262 507.057Z" fill="#F36817"/>
<path d="M294.798 507.057H262.262C266.674 496.871 271.233 486.647 275.963 476.381L294.798 507.057Z" fill="url(#paint52_radial)"/>
<path d="M315.164 540.228C329.385 530.725 342.501 519.596 354.097 507.057H294.798L315.164 540.228" fill="#F25D19"/>
<path d="M315.164 540.228L294.798 507.057H354.097C342.501 519.596 329.385 530.725 315.164 540.228Z" fill="url(#paint53_radial)"/>
<path d="M294.798 507.057H354.096C355.718 505.302 357.313 503.522 358.874 501.709L328.478 452.203L294.798 507.057" fill="#F2591A"/>
<path d="M354.096 507.057H294.798L328.478 452.203L358.874 501.709C357.313 503.522 355.718 505.302 354.096 507.057" fill="url(#paint54_radial)"/>
<path d="M275.963 476.382L294.798 507.057L328.478 452.203H287.393C283.497 460.28 279.667 468.346 275.963 476.382Z" fill="#F25D19"/>
<path d="M294.798 507.057L275.963 476.382C279.667 468.346 283.497 460.28 287.393 452.203H328.478L294.798 507.057Z" fill="url(#paint55_radial)"/>
<path d="M358.874 501.709C364.424 495.278 369.618 488.539 374.319 481.453C380.689 471.859 385.985 462.09 390.316 452.203H328.478L358.874 501.709" fill="#F35E19"/>
<path d="M358.874 501.709L328.478 452.203H390.316C385.985 462.09 380.689 471.859 374.319 481.453C369.618 488.539 364.424 495.278 358.874 501.709" fill="url(#paint56_radial)"/>
<path d="M287.394 452.203H328.478L305.808 415.28C299.444 427.622 293.314 439.933 287.394 452.203" fill="#F2591A"/>
<path d="M328.478 452.203H287.394C293.314 439.933 299.444 427.622 305.808 415.28L328.478 452.203" fill="url(#paint57_radial)"/>
<path d="M328.478 452.203H390.316C391.098 450.418 391.821 448.624 392.542 446.833L362.158 397.347L328.478 452.203" fill="#F14D1C"/>
<path d="M390.316 452.203H328.478L362.158 397.347L392.542 446.833C391.821 448.624 391.098 450.418 390.316 452.203" fill="url(#paint58_radial)"/>
<path d="M305.808 415.28L328.478 452.203L362.158 397.347H315.193C312.011 403.331 308.888 409.307 305.808 415.28" fill="#F2571A"/>
<path d="M328.478 452.203L305.808 415.28C308.888 409.307 312.011 403.331 315.193 397.347H362.158L328.478 452.203" fill="url(#paint59_radial)"/>
<path d="M392.541 446.833C399.06 430.562 402.994 413.997 404.557 397.347H362.157L392.541 446.833" fill="#DA2324"/>
<path d="M392.541 446.833L362.157 397.347H404.557C402.994 413.997 399.06 430.562 392.541 446.833" fill="url(#paint60_radial)"/>
<path d="M315.193 397.347H362.158L337.394 357.012C329.738 370.475 322.33 383.925 315.193 397.347" fill="#F1491C"/>
<path d="M362.158 397.347H315.193C322.33 383.925 329.738 370.475 337.394 357.012L362.158 397.347Z" fill="url(#paint61_radial)"/>
<path d="M362.157 397.347H404.557C405.873 383.338 405.517 369.277 403.694 355.287L395.837 342.493L362.157 397.347Z" fill="#CF1E25"/>
<path d="M404.557 397.347H362.157L395.837 342.493L403.694 355.287C404.785 363.649 405.35 372.036 405.348 380.42C405.345 386.067 405.088 391.711 404.557 397.347" fill="url(#paint62_radial)"/>
<path d="M337.394 357.012L362.157 397.347L395.837 342.493H345.738C342.92 347.333 340.144 352.174 337.394 357.012" fill="#DE2424"/>
<path d="M362.157 397.347L337.394 357.012C340.144 352.174 342.92 347.333 345.738 342.493H395.837L362.157 397.347Z" fill="url(#paint63_radial)"/>
<path d="M403.694 355.287C403.137 351.014 402.455 346.747 401.626 342.493H395.837L403.694 355.287Z" fill="#C71E25"/>
<path d="M403.694 355.287L395.837 342.493H401.626C402.455 346.747 403.137 351.014 403.694 355.287Z" fill="url(#paint64_radial)"/>
<path d="M345.738 342.493H395.837L370.531 301.275C368.195 305.038 365.856 308.795 363.54 312.591C357.459 322.557 351.539 332.526 345.738 342.493" fill="#E32424"/>
<path d="M395.837 342.493H345.738C351.539 332.526 357.459 322.557 363.54 312.591C365.856 308.795 368.195 305.038 370.531 301.275L395.837 342.493" fill="url(#paint65_radial)"/>
<path d="M401.626 342.493C401.171 340.156 400.664 337.828 400.13 335.499L395.837 342.493H401.626Z" fill="#C21E25"/>
<path d="M401.626 342.493H395.837L400.13 335.499C400.664 337.828 401.171 340.156 401.626 342.493Z" fill="url(#paint66_radial)"/>
<path d="M370.531 301.275L395.838 342.493L400.131 335.499C396.403 319.288 390.783 303.263 383.492 287.636H379.097C376.227 292.159 373.372 296.703 370.531 301.275" fill="#D71E25"/>
<path d="M395.838 342.493L370.531 301.275C373.372 296.703 376.227 292.159 379.097 287.636H383.492C390.783 303.263 396.403 319.288 400.131 335.499L395.838 342.493" fill="url(#paint67_radial)"/>
<path d="M383.491 287.636C382.876 286.32 382.223 285.014 381.587 283.706C380.753 285.012 379.927 286.325 379.096 287.636H383.491Z" fill="#DF1D25"/>
<path d="M383.491 287.636H379.096C379.927 286.325 380.753 285.012 381.587 283.706C382.223 285.014 382.876 286.32 383.491 287.636Z" fill="url(#paint68_radial)"/>
<path d="M232.549 366.4L229.988 364.809C229.635 364.59 229.16 364.68 228.924 365.012C228.69 365.344 228.79 365.791 229.143 366.013L231.7 367.604L232.106 367.724L232.765 367.401C232.998 367.069 232.899 366.622 232.549 366.4Z" fill="#C91E25"/>
<path d="M200.26 418.755L197.607 420.203C197.239 420.403 197.117 420.845 197.33 421.191L197.971 421.55L198.377 421.451L201.03 420.003C201.398 419.803 201.52 419.361 201.307 419.018C201.097 418.673 200.625 418.555 200.26 418.755" fill="#C91E25"/>
<path d="M237.417 398.479L234.763 399.928C234.398 400.128 234.273 400.569 234.486 400.915L235.13 401.274L235.533 401.175L238.19 399.727C238.554 399.527 238.68 399.086 238.467 398.74C238.254 398.397 237.787 398.279 237.417 398.479" fill="#C91E25"/>
<path d="M259.378 378.464C255.849 378.382 252.915 381.004 252.824 384.325C252.737 387.644 255.528 390.4 259.057 390.485C262.586 390.567 265.52 387.945 265.607 384.624C265.698 381.306 262.907 378.547 259.378 378.464Z" fill="#C91E25"/>
<path d="M245.378 394.135C245.014 394.335 244.888 394.777 245.101 395.12L245.746 395.479L246.148 395.383L248.805 393.932C249.17 393.735 249.295 393.293 249.082 392.948C248.869 392.605 248.403 392.487 248.032 392.687L245.378 394.135" fill="#C91E25"/>
<path d="M250.465 377.54C250.112 377.323 249.637 377.414 249.403 377.743C249.17 378.077 249.266 378.525 249.619 378.744L252.177 380.337L252.582 380.455L253.241 380.132C253.475 379.8 253.378 379.353 253.025 379.133L250.465 377.54Z" fill="#C91E25"/>
<path d="M245.344 374.359C244.991 374.139 244.518 374.23 244.282 374.562C244.049 374.893 244.145 375.343 244.498 375.563L247.059 377.153L247.461 377.271L248.12 376.95C248.354 376.616 248.257 376.169 247.904 375.949L245.344 374.359" fill="#C91E25"/>
<path d="M251.054 392.583L251.457 392.484L254.111 391.036C254.478 390.836 254.603 390.397 254.391 390.051C254.178 389.706 253.708 389.588 253.341 389.791L250.687 391.239C250.322 391.439 250.197 391.878 250.409 392.224L251.054 392.583" fill="#C91E25"/>
<path d="M192.663 424.446L193.068 424.347L195.723 422.899C196.09 422.699 196.213 422.257 196 421.914C195.79 421.572 195.32 421.451 194.953 421.651L192.299 423.102C191.931 423.299 191.809 423.741 192.021 424.087L192.663 424.446" fill="#C91E25"/>
<path d="M187.355 427.342L187.761 427.243L190.415 425.795C190.782 425.595 190.904 425.156 190.692 424.811C190.482 424.468 190.012 424.35 189.645 424.55L186.991 425.998C186.623 426.198 186.498 426.637 186.711 426.983L187.355 427.342" fill="#C91E25"/>
<path d="M182.047 430.238L182.452 430.142L185.106 428.691C185.474 428.494 185.596 428.052 185.383 427.707C185.173 427.364 184.704 427.243 184.336 427.446L181.682 428.894C181.315 429.095 181.192 429.536 181.402 429.879L182.047 430.238" fill="#C91E25"/>
<path d="M240.438 398.375L240.84 398.279L243.494 396.831C243.862 396.631 243.987 396.189 243.774 395.844C243.561 395.501 243.095 395.383 242.727 395.583L240.07 397.031C239.706 397.232 239.58 397.673 239.793 398.016L240.438 398.375" fill="#C91E25"/>
<path d="M239.379 372.378L241.937 373.969L242.342 374.09L243.001 373.766C243.234 373.434 243.138 372.985 242.785 372.765L240.225 371.174C239.875 370.958 239.396 371.046 239.163 371.377C238.93 371.712 239.026 372.159 239.379 372.378Z" fill="#C91E25"/>
<path d="M172.848 432.306C172.793 434.385 174.54 436.115 176.754 436.167C178.964 436.22 180.802 434.574 180.857 432.495C180.913 430.416 179.166 428.686 176.955 428.634C174.741 428.582 172.904 430.227 172.848 432.306Z" fill="#C91E25"/>
<path d="M54.8734 484.56C54.8179 486.641 56.5678 488.369 58.7786 488.421C60.9893 488.473 62.8267 486.828 62.8821 484.749C62.9375 482.67 61.1905 480.942 58.9798 480.887C56.7691 480.838 54.9288 482.481 54.8734 484.56Z" fill="#C91E25"/>
<path d="M113.976 419.512L112.034 421.747C111.766 422.054 111.815 422.51 112.142 422.762L112.608 422.924L113.221 422.661L115.163 420.425C115.432 420.115 115.382 419.663 115.055 419.411C114.729 419.155 114.242 419.202 113.976 419.512" fill="#C91E25"/>
<path d="M119.26 420.299C122.789 420.381 125.72 417.76 125.811 414.441C125.898 411.12 123.11 408.364 119.578 408.279C116.049 408.196 113.115 410.818 113.028 414.139C112.94 417.458 115.729 420.214 119.26 420.299" fill="#C91E25"/>
<path d="M108.726 427.394L109.342 427.128L111.281 424.893C111.55 424.586 111.5 424.13 111.173 423.878C110.844 423.626 110.363 423.67 110.091 423.979L108.152 426.215C107.884 426.525 107.933 426.977 108.263 427.232L108.726 427.394" fill="#C91E25"/>
<path d="M125.257 405.868L123.411 408.172C123.154 408.49 123.221 408.942 123.562 409.184L124.003 409.329L124.636 409.041L126.482 406.737C126.738 406.419 126.671 405.967 126.333 405.725C125.995 405.49 125.511 405.55 125.257 405.868Z" fill="#C91E25"/>
<path d="M128.955 401.26L127.106 403.564C126.85 403.882 126.917 404.335 127.255 404.576L127.698 404.721L128.331 404.433L130.177 402.13C130.434 401.812 130.367 401.359 130.028 401.121C129.693 400.879 129.209 400.94 128.955 401.26" fill="#C91E25"/>
<path d="M147.431 378.223L145.582 380.527C145.329 380.845 145.396 381.297 145.734 381.536L146.174 381.681L146.807 381.396L148.656 379.092C148.91 378.774 148.843 378.322 148.505 378.083C148.169 377.842 147.685 377.902 147.431 378.223" fill="#C91E25"/>
<path d="M143.114 386.004L144.961 383.7C145.214 383.382 145.147 382.929 144.809 382.688C144.471 382.449 143.989 382.51 143.733 382.831L141.887 385.134C141.633 385.452 141.7 385.905 142.038 386.146L142.482 386.292L143.114 386.004Z" fill="#C91E25"/>
<path d="M131.394 400.114L132.026 399.826L133.875 397.522C134.129 397.204 134.062 396.751 133.724 396.513C133.388 396.272 132.907 396.332 132.651 396.653L130.801 398.956C130.545 399.275 130.615 399.727 130.953 399.968L131.394 400.114" fill="#C91E25"/>
<path d="M107.4 429.363C107.668 429.053 107.618 428.601 107.292 428.349C106.959 428.096 106.478 428.14 106.21 428.45L104.27 430.685C104.002 430.995 104.052 431.448 104.378 431.7L104.845 431.862L105.46 431.599L107.4 429.363" fill="#C91E25"/>
<path d="M139.417 390.611L141.263 388.307C141.519 387.989 141.452 387.536 141.114 387.298C140.779 387.057 140.297 387.117 140.041 387.438L138.192 389.742C137.935 390.06 138.005 390.512 138.343 390.751L138.784 390.899L139.417 390.611Z" fill="#C91E25"/>
<path d="M135.721 395.218L137.567 392.915C137.824 392.596 137.757 392.144 137.419 391.905C137.083 391.664 136.599 391.724 136.342 392.045L134.496 394.349C134.24 394.667 134.307 395.12 134.645 395.361L135.088 395.506L135.721 395.218" fill="#C91E25"/>
<path d="M89.9297 449.477L91.8691 447.242C92.1374 446.932 92.0879 446.479 91.7612 446.227C91.4316 445.975 90.9504 446.019 90.6792 446.329L88.7397 448.564C88.4714 448.874 88.521 449.326 88.8505 449.579L89.3172 449.74L89.9297 449.477" fill="#C91E25"/>
<path d="M74.3997 467.356L76.3421 465.121C76.6105 464.811 76.5609 464.358 76.2313 464.103C75.9017 463.854 75.4205 463.897 75.1522 464.207L73.2097 466.443C72.9443 466.752 72.9939 467.205 73.3206 467.457L73.7872 467.619L74.3997 467.356" fill="#C91E25"/>
<path d="M102.328 432.92L100.386 435.155C100.12 435.465 100.17 435.918 100.496 436.17L100.963 436.332L101.575 436.069L103.518 433.834C103.786 433.524 103.737 433.068 103.407 432.816C103.077 432.567 102.596 432.61 102.328 432.92" fill="#C91E25"/>
<path d="M71.2697 468.678L69.3274 470.91C69.062 471.22 69.1086 471.675 69.4382 471.928L69.9048 472.089L70.5172 471.823L72.4596 469.588C72.725 469.281 72.6754 468.826 72.3488 468.573C72.0192 468.324 71.5351 468.365 71.2697 468.678" fill="#C91E25"/>
<path d="M150.502 376.789L152.351 374.485C152.608 374.167 152.538 373.714 152.199 373.476C151.864 373.234 151.383 373.295 151.126 373.616L149.28 375.919C149.023 376.237 149.09 376.69 149.429 376.929L149.872 377.077L150.502 376.789" fill="#C91E25"/>
<path d="M65.5539 476.398L66.0206 476.56L66.636 476.294L68.5754 474.061C68.8437 473.752 68.7942 473.296 68.4675 473.044C68.138 472.794 67.6567 472.836 67.3855 473.148L65.446 475.381C65.1777 475.69 65.2273 476.146 65.5539 476.398" fill="#134561"/>
<path d="M79.0362 459.737L77.0939 461.972C76.8256 462.279 76.8723 462.734 77.2018 462.987L77.6684 463.151L78.2808 462.885L80.2232 460.65C80.4915 460.343 80.4419 459.888 80.1152 459.635C79.7886 459.383 79.2987 459.43 79.0362 459.737" fill="#C91E25"/>
<path d="M94.5642 441.858L92.6247 444.094C92.3564 444.404 92.406 444.856 92.7326 445.111L93.1993 445.273L93.8117 445.007L95.7541 442.772C96.0225 442.465 95.9729 442.009 95.6433 441.757C95.3137 441.505 94.8325 441.549 94.5642 441.858" fill="#C91E25"/>
<path d="M97.6936 440.539L99.636 438.304C99.9043 437.994 99.8547 437.542 99.5251 437.289C99.2014 437.037 98.7143 437.078 98.4489 437.391L96.5065 439.626C96.2382 439.933 96.2849 440.388 96.6144 440.641L97.0811 440.802L97.6936 440.539" fill="#C91E25"/>
<path d="M82.9182 455.269L80.9758 457.505C80.7075 457.812 80.757 458.267 81.0837 458.517L81.5504 458.681L82.1629 458.415L84.1053 456.183C84.3736 455.873 84.324 455.418 83.9974 455.168C83.6707 454.916 83.1836 454.957 82.9182 455.269" fill="#C91E25"/>
<path d="M86.7971 450.799L84.8576 453.034C84.5893 453.344 84.6389 453.797 84.9655 454.049L85.4322 454.211L86.0476 453.947L87.9871 451.712C88.2554 451.402 88.2058 450.947 87.8791 450.695C87.5467 450.445 87.0654 450.489 86.7971 450.799" fill="#C91E25"/>
<path d="M62.7507 480.764L64.693 478.529C64.9613 478.222 64.9118 477.766 64.5851 477.514C64.2585 477.262 63.7714 477.306 63.506 477.616L61.5637 479.851C61.2954 480.158 61.3449 480.613 61.6716 480.866L62.1382 481.027L62.7507 480.764" fill="#C91E25"/>
</g>
<defs>
<radialGradient id="paint0_radial" cx="0" cy="0" r="1" gradientUnits="userSpaceOnUse" gradientTransform="translate(28.7158 480.805) rotate(-151.655) scale(143.134 323.805)">
<stop stop-color="#ED1C24"/>
<stop offset="1" stop-color="#F36118"/>
</radialGradient>
<radialGradient id="paint1_radial" cx="0" cy="0" r="1" gradientUnits="userSpaceOnUse" gradientTransform="translate(28.7151 480.794) rotate(-151.656) scale(143.135 323.796)">
<stop stop-color="#ED1C24"/>
<stop offset="1" stop-color="#F36817"/>
</radialGradient>
<radialGradient id="paint2_radial" cx="0" cy="0" r="1" gradientUnits="userSpaceOnUse" gradientTransform="translate(418.724 461.567) rotate(-151.704) scale(288.522 651.975)">
<stop stop-color="#ED1C24"/>
<stop offset="1" stop-color="#F14E1C"/>
</radialGradient>
<radialGradient id="paint3_radial" cx="0" cy="0" r="1" gradientUnits="userSpaceOnUse" gradientTransform="translate(418.152 461.558) rotate(-151.656) scale(288.047 651.623)">
<stop stop-color="#ED1C24"/>
<stop offset="1" stop-color="#F2591A"/>
</radialGradient>
<radialGradient id="paint4_radial" cx="0" cy="0" r="1" gradientUnits="userSpaceOnUse" gradientTransform="translate(418.147 461.558) rotate(-151.655) scale(288.043 651.621)">
<stop stop-color="#ED1C24"/>
<stop offset="1" stop-color="#F25D19"/>
</radialGradient>
<radialGradient id="paint5_radial" cx="0" cy="0" r="1" gradientUnits="userSpaceOnUse" gradientTransform="translate(418.147 461.558) rotate(-151.655) scale(288.043 651.621)">
<stop stop-color="#ED1C24"/>
<stop offset="1" stop-color="#F14C1C"/>
</radialGradient>
<radialGradient id="paint6_radial" cx="0" cy="0" r="1" gradientUnits="userSpaceOnUse" gradientTransform="translate(418.147 461.557) rotate(-151.655) scale(288.043 651.62)">
<stop stop-color="#ED1C24"/>
<stop offset="1" stop-color="#F0411E"/>
</radialGradient>
<radialGradient id="paint7_radial" cx="0" cy="0" r="1" gradientUnits="userSpaceOnUse" gradientTransform="translate(418.146 461.559) rotate(-151.655) scale(288.041 651.622)">
<stop stop-color="#ED1C24"/>
<stop offset="1" stop-color="#F0401E"/>
</radialGradient>
<radialGradient id="paint8_radial" cx="0" cy="0" r="1" gradientUnits="userSpaceOnUse" gradientTransform="translate(418.143 461.56) rotate(-151.654) scale(288.038 651.621)">
<stop stop-color="#ED1C24"/>
<stop offset="1" stop-color="#F0401E"/>
</radialGradient>
<radialGradient id="paint9_radial" cx="0" cy="0" r="1" gradientUnits="userSpaceOnUse" gradientTransform="translate(418.149 461.558) rotate(-151.655) scale(288.047 651.623)">
<stop stop-color="#ED1C24"/>
<stop offset="1" stop-color="#F0401E"/>
</radialGradient>
<radialGradient id="paint10_radial" cx="0" cy="0" r="1" gradientUnits="userSpaceOnUse" gradientTransform="translate(418.148 461.558) rotate(-151.655) scale(288.043 651.62)">
<stop stop-color="#ED1C24"/>
<stop offset="1" stop-color="#F03B1F"/>
</radialGradient>
<radialGradient id="paint11_radial" cx="0" cy="0" r="1" gradientUnits="userSpaceOnUse" gradientTransform="translate(418.149 461.558) rotate(-151.655) scale(288.045 651.621)">
<stop stop-color="#CD1E26"/>
<stop offset="1" stop-color="#E61D25"/>
</radialGradient>
<radialGradient id="paint12_radial" cx="0" cy="0" r="1" gradientUnits="userSpaceOnUse" gradientTransform="translate(418.148 461.558) rotate(-151.655) scale(288.044 651.621)">
<stop stop-color="#B91F25"/>
<stop offset="1" stop-color="#E11D25"/>
</radialGradient>
<radialGradient id="paint13_radial" cx="0" cy="0" r="1" gradientUnits="userSpaceOnUse" gradientTransform="translate(418.149 461.558) rotate(-151.655) scale(288.045 651.622)">
<stop stop-color="#831E22"/>
<stop offset="1" stop-color="#D61E25"/>
</radialGradient>
<radialGradient id="paint14_radial" cx="0" cy="0" r="1" gradientUnits="userSpaceOnUse" gradientTransform="translate(418.147 461.557) rotate(-151.655) scale(288.043 651.619)">
<stop stop-color="#52171A"/>
<stop offset="1" stop-color="#CB1E25"/>
</radialGradient>
<radialGradient id="paint15_radial" cx="0" cy="0" r="1" gradientUnits="userSpaceOnUse" gradientTransform="translate(418.151 461.558) rotate(-151.656) scale(288.05 651.625)">
<stop stop-color="#080000"/>
<stop offset="1" stop-color="#B41D23"/>
</radialGradient>
<radialGradient id="paint16_radial" cx="0" cy="0" r="1" gradientUnits="userSpaceOnUse" gradientTransform="translate(418.147 461.555) rotate(-151.655) scale(288.041 651.614)">
<stop stop-color="#070000"/>
<stop offset="1" stop-color="#B21D23"/>
</radialGradient>
<radialGradient id="paint17_radial" cx="0" cy="0" r="1" gradientUnits="userSpaceOnUse" gradientTransform="translate(205.672 255.431) rotate(-151.655) scale(115.874 262.133)">
<stop stop-color="#ED1C24"/>
<stop offset="1" stop-color="#EF391F"/>
</radialGradient>
<radialGradient id="paint18_radial" cx="0" cy="0" r="1" gradientUnits="userSpaceOnUse" gradientTransform="translate(205.673 255.431) rotate(-151.655) scale(115.874 262.133)">
<stop stop-color="#ED1C24"/>
<stop offset="1" stop-color="#F14A1C"/>
</radialGradient>
<radialGradient id="paint19_radial" cx="0" cy="0" r="1" gradientUnits="userSpaceOnUse" gradientTransform="translate(205.674 255.43) rotate(-151.655) scale(115.874 262.133)">
<stop stop-color="#ED1C24"/>
<stop offset="1" stop-color="#F2581A"/>
</radialGradient>
<radialGradient id="paint20_radial" cx="0" cy="0" r="1" gradientUnits="userSpaceOnUse" gradientTransform="translate(205.673 255.43) rotate(-151.655) scale(115.874 262.133)">
<stop stop-color="#ED1C24"/>
<stop offset="1" stop-color="#F36118"/>
</radialGradient>
<radialGradient id="paint21_radial" cx="0" cy="0" r="1" gradientUnits="userSpaceOnUse" gradientTransform="translate(205.674 255.431) rotate(-151.655) scale(115.874 262.133)">
<stop stop-color="#ED1C24"/>
<stop offset="1" stop-color="#F36817"/>
</radialGradient>
<radialGradient id="paint22_radial" cx="0" cy="0" r="1" gradientUnits="userSpaceOnUse" gradientTransform="translate(205.673 255.431) rotate(-151.655) scale(115.874 262.134)">
<stop stop-color="#ED1C24"/>
<stop offset="1" stop-color="#F25D19"/>
</radialGradient>
<radialGradient id="paint23_radial" cx="0" cy="0" r="1" gradientUnits="userSpaceOnUse" gradientTransform="translate(205.673 255.43) rotate(-151.655) scale(115.874 262.134)">
<stop stop-color="#ED1C24"/>
<stop offset="1" stop-color="#F14F1B"/>
</radialGradient>
<radialGradient id="paint24_radial" cx="0" cy="0" r="1" gradientUnits="userSpaceOnUse" gradientTransform="translate(205.673 255.43) rotate(-151.655) scale(115.874 262.133)">
<stop stop-color="#ED1C24"/>
<stop offset="1" stop-color="#EF3120"/>
</radialGradient>
<radialGradient id="paint25_radial" cx="0" cy="0" r="1" gradientUnits="userSpaceOnUse" gradientTransform="translate(205.673 255.431) rotate(-151.655) scale(115.874 262.134)">
<stop stop-color="#AF2127"/>
<stop offset="1" stop-color="#DF2A23"/>
</radialGradient>
<radialGradient id="paint26_radial" cx="0" cy="0" r="1" gradientUnits="userSpaceOnUse" gradientTransform="translate(205.674 255.431) rotate(-151.655) scale(115.874 262.134)">
<stop stop-color="#2F0E0F"/>
<stop offset="1" stop-color="#C32424"/>
</radialGradient>
<radialGradient id="paint27_radial" cx="0" cy="0" r="1" gradientUnits="userSpaceOnUse" gradientTransform="translate(205.673 255.432) rotate(-151.655) scale(115.873 262.135)">
<stop stop-color="#4C1518"/>
<stop offset="1" stop-color="#CA1E25"/>
</radialGradient>
<radialGradient id="paint28_radial" cx="0" cy="0" r="1" gradientUnits="userSpaceOnUse" gradientTransform="translate(418.147 461.567) rotate(-151.657) scale(288.038 651.578)">
<stop stop-color="#ED1C24"/>
<stop offset="1" stop-color="#F2551A"/>
</radialGradient>
<radialGradient id="paint29_radial" cx="0" cy="0" r="1" gradientUnits="userSpaceOnUse" gradientTransform="translate(418.148 461.558) rotate(-151.655) scale(288.044 651.619)">
<stop stop-color="#ED1C24"/>
<stop offset="1" stop-color="#F25D19"/>
</radialGradient>
<radialGradient id="paint30_radial" cx="0" cy="0" r="1" gradientUnits="userSpaceOnUse" gradientTransform="translate(418.149 461.558) rotate(-151.655) scale(288.044 651.619)">
<stop stop-color="#ED1C24"/>
<stop offset="1" stop-color="#F0431D"/>
</radialGradient>
<radialGradient id="paint31_radial" cx="0" cy="0" r="1" gradientUnits="userSpaceOnUse" gradientTransform="translate(418.149 461.558) rotate(-151.655) scale(288.045 651.623)">
<stop stop-color="#ED1C24"/>
<stop offset="1" stop-color="#EF391F"/>
</radialGradient>
<radialGradient id="paint32_radial" cx="0" cy="0" r="1" gradientUnits="userSpaceOnUse" gradientTransform="translate(418.148 461.558) rotate(-151.655) scale(288.044 651.622)">
<stop stop-color="#ED1C24"/>
<stop offset="1" stop-color="#F36618"/>
</radialGradient>
<radialGradient id="paint33_radial" cx="0" cy="0" r="1" gradientUnits="userSpaceOnUse" gradientTransform="translate(418.149 461.558) rotate(-151.655) scale(288.045 651.623)">
<stop stop-color="#ED1C24"/>
<stop offset="1" stop-color="#F0431E"/>
</radialGradient>
<radialGradient id="paint34_radial" cx="0" cy="0" r="1" gradientUnits="userSpaceOnUse" gradientTransform="translate(418.148 461.558) rotate(-151.655) scale(288.044 651.62)">
<stop stop-color="#ED1C24"/>
<stop offset="1" stop-color="#F47515"/>
</radialGradient>
<radialGradient id="paint35_radial" cx="0" cy="0" r="1" gradientUnits="userSpaceOnUse" gradientTransform="translate(418.15 461.558) rotate(-151.655) scale(288.045 651.619)">
<stop stop-color="#ED1C24"/>
<stop offset="1" stop-color="#EF3620"/>
</radialGradient>
<radialGradient id="paint36_radial" cx="0" cy="0" r="1" gradientUnits="userSpaceOnUse" gradientTransform="translate(418.148 461.558) rotate(-151.655) scale(288.044 651.62)">
<stop stop-color="#ED1C24"/>
<stop offset="1" stop-color="#F46C17"/>
</radialGradient>
<radialGradient id="paint37_radial" cx="0" cy="0" r="1" gradientUnits="userSpaceOnUse" gradientTransform="translate(418.149 461.558) rotate(-151.655) scale(288.044 651.621)">
<stop stop-color="#ED1C24"/>
<stop offset="1" stop-color="#F0441D"/>
</radialGradient>
<radialGradient id="paint38_radial" cx="0" cy="0" r="1" gradientUnits="userSpaceOnUse" gradientTransform="translate(418.149 461.558) rotate(-151.655) scale(288.044 651.62)">
<stop stop-color="#ED1C24"/>
<stop offset="1" stop-color="#F47315"/>
</radialGradient>
<radialGradient id="paint39_radial" cx="0" cy="0" r="1" gradientUnits="userSpaceOnUse" gradientTransform="translate(418.154 461.558) rotate(-151.656) scale(288.049 651.618)">
<stop stop-color="#ED1C24"/>
<stop offset="1" stop-color="#F47315"/>
</radialGradient>
<radialGradient id="paint40_radial" cx="0" cy="0" r="1" gradientUnits="userSpaceOnUse" gradientTransform="translate(418.148 461.558) rotate(-151.655) scale(288.044 651.622)">
<stop stop-color="#ED1C24"/>
<stop offset="1" stop-color="#F36618"/>
</radialGradient>
<radialGradient id="paint41_radial" cx="0" cy="0" r="1" gradientUnits="userSpaceOnUse" gradientTransform="translate(418.146 461.557) rotate(-151.655) scale(288.04 651.609)">
<stop stop-color="#ED1C24"/>
<stop offset="1" stop-color="#F46D16"/>
</radialGradient>
<radialGradient id="paint42_radial" cx="0" cy="0" r="1" gradientUnits="userSpaceOnUse" gradientTransform="translate(418.148 461.559) rotate(-151.655) scale(288.044 651.623)">
<stop stop-color="#ED1C24"/>
<stop offset="1" stop-color="#F46D16"/>
</radialGradient>
<radialGradient id="paint43_radial" cx="0" cy="0" r="1" gradientUnits="userSpaceOnUse" gradientTransform="translate(418.149 461.558) rotate(-151.655) scale(288.044 651.622)">
<stop stop-color="#ED1C24"/>
<stop offset="1" stop-color="#F25A1A"/>
</radialGradient>
<radialGradient id="paint44_radial" cx="0" cy="0" r="1" gradientUnits="userSpaceOnUse" gradientTransform="translate(418.148 461.558) rotate(-151.655) scale(288.044 651.62)">
<stop stop-color="#ED1C24"/>
<stop offset="1" stop-color="#F14C1C"/>
</radialGradient>
<radialGradient id="paint45_radial" cx="0" cy="0" r="1" gradientUnits="userSpaceOnUse" gradientTransform="translate(418.147 461.548) rotate(-151.656) scale(288.039 651.59)">
<stop stop-color="#ED1C24"/>
<stop offset="1" stop-color="#F0401E"/>
</radialGradient>
<radialGradient id="paint46_radial" cx="0" cy="0" r="1" gradientUnits="userSpaceOnUse" gradientTransform="translate(647.56 465.809) rotate(-151.655) scale(322.705 730.033)">
<stop stop-color="#ED1C24"/>
<stop offset="1" stop-color="#F36418"/>
</radialGradient>
<radialGradient id="paint47_radial" cx="0" cy="0" r="1" gradientUnits="userSpaceOnUse" gradientTransform="translate(647.561 465.809) rotate(-151.655) scale(322.705 730.029)">
<stop stop-color="#ED1C24"/>
<stop offset="1" stop-color="#F36817"/>
</radialGradient>
<radialGradient id="paint48_radial" cx="0" cy="0" r="1" gradientUnits="userSpaceOnUse" gradientTransform="translate(647.572 465.81) rotate(-151.656) scale(322.712 730.032)">
<stop stop-color="#ED1C24"/>
<stop offset="1" stop-color="#F35E19"/>
</radialGradient>
<radialGradient id="paint49_radial" cx="0" cy="0" r="1" gradientUnits="userSpaceOnUse" gradientTransform="translate(647.559 465.809) rotate(-151.655) scale(322.704 730.028)">
<stop stop-color="#ED1C24"/>
<stop offset="1" stop-color="#F36817"/>
</radialGradient>
<radialGradient id="paint50_radial" cx="0" cy="0" r="1" gradientUnits="userSpaceOnUse" gradientTransform="translate(647.561 465.807) rotate(-151.655) scale(322.707 730.041)">
<stop stop-color="#ED1C24"/>
<stop offset="1" stop-color="#F2571A"/>
</radialGradient>
<radialGradient id="paint51_radial" cx="0" cy="0" r="1" gradientUnits="userSpaceOnUse" gradientTransform="translate(647.559 465.809) rotate(-151.655) scale(322.704 730.028)">
<stop stop-color="#ED1C24"/>
<stop offset="1" stop-color="#F36218"/>
</radialGradient>
<radialGradient id="paint52_radial" cx="0" cy="0" r="1" gradientUnits="userSpaceOnUse" gradientTransform="translate(647.559 465.809) rotate(-151.655) scale(322.705 730.034)">
<stop stop-color="#ED1C24"/>
<stop offset="1" stop-color="#F36817"/>
</radialGradient>
<radialGradient id="paint53_radial" cx="0" cy="0" r="1" gradientUnits="userSpaceOnUse" gradientTransform="translate(647.56 465.809) rotate(-151.655) scale(322.705 730.031)">
<stop stop-color="#ED1C24"/>
<stop offset="1" stop-color="#F35D19"/>
</radialGradient>
<radialGradient id="paint54_radial" cx="0" cy="0" r="1" gradientUnits="userSpaceOnUse" gradientTransform="translate(647.559 465.809) rotate(-151.655) scale(322.704 730.032)">
<stop stop-color="#ED1C24"/>
<stop offset="1" stop-color="#F2591A"/>
</radialGradient>
<radialGradient id="paint55_radial" cx="0" cy="0" r="1" gradientUnits="userSpaceOnUse" gradientTransform="translate(647.558 465.809) rotate(-151.655) scale(322.704 730.032)">
<stop stop-color="#ED1C24"/>
<stop offset="1" stop-color="#F35D19"/>
</radialGradient>
<radialGradient id="paint56_radial" cx="0" cy="0" r="1" gradientUnits="userSpaceOnUse" gradientTransform="translate(647.559 465.809) rotate(-151.655) scale(322.704 730.029)">
<stop stop-color="#ED1C24"/>
<stop offset="1" stop-color="#F35E19"/>
</radialGradient>
<radialGradient id="paint57_radial" cx="0" cy="0" r="1" gradientUnits="userSpaceOnUse" gradientTransform="translate(647.559 465.809) rotate(-151.655) scale(322.704 730.029)">
<stop stop-color="#ED1C24"/>
<stop offset="1" stop-color="#F2591A"/>
</radialGradient>
<radialGradient id="paint58_radial" cx="0" cy="0" r="1" gradientUnits="userSpaceOnUse" gradientTransform="translate(647.56 465.809) rotate(-151.655) scale(322.704 730.029)">
<stop stop-color="#ED1C24"/>
<stop offset="1" stop-color="#F14E1C"/>
</radialGradient>
<radialGradient id="paint59_radial" cx="0" cy="0" r="1" gradientUnits="userSpaceOnUse" gradientTransform="translate(647.56 465.809) rotate(-151.655) scale(322.704 730.029)">
<stop stop-color="#ED1C24"/>
<stop offset="1" stop-color="#F2581A"/>
</radialGradient>
<radialGradient id="paint60_radial" cx="0" cy="0" r="1" gradientUnits="userSpaceOnUse" gradientTransform="translate(647.56 465.809) rotate(-151.655) scale(322.705 730.03)">
<stop stop-color="#951F25"/>
<stop offset="1" stop-color="#DA2324"/>
</radialGradient>
<radialGradient id="paint61_radial" cx="0" cy="0" r="1" gradientUnits="userSpaceOnUse" gradientTransform="translate(647.56 465.809) rotate(-151.655) scale(322.704 730.031)">
<stop stop-color="#ED1C24"/>
<stop offset="1" stop-color="#F1491C"/>
</radialGradient>
<radialGradient id="paint62_radial" cx="0" cy="0" r="1" gradientUnits="userSpaceOnUse" gradientTransform="translate(647.559 465.809) rotate(-151.655) scale(322.705 730.03)">
<stop stop-color="#641B1F"/>
<stop offset="1" stop-color="#CF1E25"/>
</radialGradient>
<radialGradient id="paint63_radial" cx="0" cy="0" r="1" gradientUnits="userSpaceOnUse" gradientTransform="translate(647.559 465.809) rotate(-151.655) scale(322.704 730.03)">
<stop stop-color="#A62025"/>
<stop offset="1" stop-color="#DD2424"/>
</radialGradient>
<radialGradient id="paint64_radial" cx="0" cy="0" r="1" gradientUnits="userSpaceOnUse" gradientTransform="translate(647.552 465.809) rotate(-151.654) scale(322.697 730.027)">
<stop stop-color="#3F1214"/>
<stop offset="1" stop-color="#C71E25"/>
</radialGradient>
<radialGradient id="paint65_radial" cx="0" cy="0" r="1" gradientUnits="userSpaceOnUse" gradientTransform="translate(647.559 465.809) rotate(-151.655) scale(322.704 730.03)">
<stop stop-color="#BB1F25"/>
<stop offset="1" stop-color="#E32424"/>
</radialGradient>
<radialGradient id="paint66_radial" cx="0" cy="0" r="1" gradientUnits="userSpaceOnUse" gradientTransform="translate(647.551 465.809) rotate(-151.654) scale(322.696 730.025)">
<stop stop-color="#290C0D"/>
<stop offset="1" stop-color="#C21E25"/>
</radialGradient>
<radialGradient id="paint67_radial" cx="0" cy="0" r="1" gradientUnits="userSpaceOnUse" gradientTransform="translate(647.56 465.809) rotate(-151.655) scale(322.704 730.029)">
<stop stop-color="#8B1F24"/>
<stop offset="1" stop-color="#D71E25"/>
</radialGradient>
<radialGradient id="paint68_radial" cx="0" cy="0" r="1" gradientUnits="userSpaceOnUse" gradientTransform="translate(647.555 465.811) rotate(-151.655) scale(322.702 730.035)">
<stop stop-color="#AB1F25"/>
<stop offset="1" stop-color="#DF1D25"/>
</radialGradient>
<clipPath id="clip0">
<rect width="411" height="731" fill="white"/>
</clipPath>
</defs>
</svg>
