<svg width="1024" height="1366" viewBox="0 0 1024 1366" fill="none" xmlns="http://www.w3.org/2000/svg">
<g clip-path="url(#clip0)">
<path d="M789.732 1256.77C789.732 1264.61 659.133 1270.96 498.03 1270.96C336.928 1270.96 206.329 1264.61 206.329 1256.77C206.329 1248.94 336.928 1242.59 498.03 1242.59C659.133 1242.59 789.732 1248.94 789.732 1256.77Z" fill="#E9E9E9"/>
<path d="M425.749 420.633L419.134 423.88C418.247 424.315 417.912 425.324 418.401 426.131C418.722 426.666 419.337 426.975 419.966 426.994L420.895 426.793L427.509 423.54C428.404 423.105 428.732 422.096 428.243 421.295C427.761 420.489 426.65 420.186 425.749 420.633" fill="#C91E25"/>
<path d="M518.364 375.161L511.742 378.408C510.854 378.843 510.526 379.851 511.008 380.652C511.337 381.194 511.944 381.503 512.58 381.522L513.502 381.314L520.117 378.067C521.011 377.632 521.339 376.624 520.85 375.823C520.368 375.016 519.251 374.714 518.364 375.161Z" fill="#C91E25"/>
<path d="M412.527 427.127L405.905 430.374C405.018 430.809 404.689 431.818 405.171 432.625C405.493 433.161 406.107 433.476 406.743 433.489L407.665 433.287L414.28 430.034C415.174 429.599 415.502 428.596 415.013 427.789C414.532 426.982 413.414 426.68 412.527 427.127Z" fill="#C91E25"/>
<path d="M505.134 381.655L498.519 384.908C497.625 385.343 497.297 386.345 497.786 387.152C498.107 387.694 498.715 388.003 499.35 388.016L500.272 387.814L506.887 384.567C507.781 384.132 508.11 383.124 507.621 382.317C507.139 381.516 506.028 381.207 505.134 381.655" fill="#C91E25"/>
<path d="M536.86 378.169L542.504 381.384L543.433 381.636L545.032 380.861C545.577 380.085 545.319 379.064 544.459 378.572L538.815 375.363C537.963 374.872 536.825 375.099 536.28 375.88C535.742 376.656 536.001 377.677 536.86 378.169" fill="#C91E25"/>
<path d="M452.216 407.641L445.593 410.887C444.706 411.322 444.378 412.331 444.86 413.138C445.188 413.674 445.796 413.989 446.432 414.001L447.354 413.8L453.969 410.547C454.863 410.112 455.191 409.109 454.702 408.302C454.22 407.495 453.103 407.193 452.216 407.641Z" fill="#C91E25"/>
<path d="M478.674 394.648L472.052 397.895C471.165 398.336 470.83 399.338 471.319 400.145C471.64 400.681 472.255 400.996 472.884 401.009L473.813 400.807L480.428 397.561C481.322 397.119 481.65 396.117 481.161 395.31C480.679 394.503 479.561 394.201 478.674 394.648" fill="#C91E25"/>
<path d="M438.979 414.134L432.371 417.381C431.477 417.822 431.149 418.824 431.638 419.631C431.959 420.167 432.567 420.482 433.202 420.495L434.124 420.293L440.739 417.046C441.633 416.605 441.962 415.603 441.473 414.796C440.991 413.989 439.873 413.692 438.979 414.134" fill="#C91E25"/>
<path d="M491.897 388.148L485.289 391.401C484.395 391.836 484.067 392.844 484.556 393.645C484.877 394.187 485.485 394.496 486.12 394.509L487.042 394.307L493.657 391.06C494.551 390.625 494.88 389.617 494.391 388.81C493.909 388.009 492.791 387.706 491.897 388.148" fill="#C91E25"/>
<path d="M856.662 397.453C856.298 399.199 856.166 400.971 856.508 404.747C865.519 391.704 872.294 395.927 865.379 406.172H865.386C870.876 399.225 869.102 389.8 858.848 400.208V400.24C858.122 399.313 857.395 398.38 856.662 397.453" fill="#C91E25"/>
<path d="M590.553 413.882C590.365 420.596 596.246 426.175 603.685 426.345C611.124 426.515 617.306 421.207 617.494 414.493C617.676 407.779 611.802 402.2 604.363 402.03C596.924 401.866 590.742 407.168 590.553 413.882Z" fill="#C91E25"/>
<path d="M583.966 401.053C583.114 400.567 581.975 400.794 581.43 401.576C580.893 402.351 581.151 403.373 582.01 403.864L587.654 407.073L588.59 407.325L590.189 406.556C590.727 405.781 590.469 404.753 589.61 404.268L583.966 401.053" fill="#C91E25"/>
<path d="M572.679 394.629C571.827 394.143 570.688 394.37 570.143 395.152C569.605 395.927 569.864 396.949 570.723 397.44L576.367 400.649L577.296 400.901L578.896 400.132C579.44 399.357 579.182 398.329 578.323 397.844L572.679 394.629" fill="#C91E25"/>
<path d="M561.391 388.211C560.539 387.725 559.408 387.946 558.856 388.728C558.318 389.503 558.576 390.525 559.435 391.016L565.079 394.232L566.008 394.484L567.615 393.708C568.153 392.933 567.894 391.912 567.035 391.42L561.391 388.211Z" fill="#C91E25"/>
<path d="M550.103 381.786C549.251 381.295 548.113 381.522 547.568 382.303C547.023 383.079 547.288 384.1 548.141 384.592L553.792 387.807L554.727 388.059L556.327 387.284C556.865 386.508 556.606 385.487 555.747 384.995L550.103 381.786" fill="#C91E25"/>
<path d="M834.491 407.527C830.348 416.561 826.318 426.604 835.021 422.254C840.945 418.358 833.729 410.112 834.491 407.527Z" fill="#C91E25"/>
<path d="M528.52 377.456C533.423 377.563 537.503 374.07 537.621 369.645C537.747 365.219 533.871 361.544 528.967 361.43C524.063 361.317 519.991 364.815 519.865 369.241C519.747 373.667 523.623 377.342 528.52 377.456Z" fill="#C91E25"/>
<path d="M465.445 401.141L458.823 404.394C457.936 404.829 457.608 405.831 458.09 406.638C458.418 407.18 459.026 407.489 459.661 407.502L460.583 407.3L467.198 404.053C468.092 403.618 468.42 402.61 467.931 401.803C467.449 401.002 466.339 400.693 465.445 401.141" fill="#C91E25"/>
<path d="M392.87 436.571C392.793 439.395 395.266 441.74 398.388 441.81C401.517 441.879 404.116 439.647 404.192 436.829C404.276 434.005 401.804 431.66 398.674 431.591C395.545 431.515 392.947 433.747 392.87 436.571Z" fill="#C91E25"/>
<path d="M537.739 686.219L539.318 685.475C539.877 684.713 539.646 683.679 538.801 683.174L532.668 679.518C531.823 679.02 530.684 679.222 530.119 679.984C529.56 680.754 529.797 681.781 530.635 682.285L536.768 685.942L537.739 686.219Z" fill="#C91E25"/>
<path d="M387.932 718.416L392.361 713.12C392.968 712.389 392.808 711.348 391.997 710.794C391.194 710.245 390.035 710.384 389.427 711.121L384.999 716.417C384.391 717.148 384.552 718.189 385.362 718.737L386.416 719.071L387.932 718.416" fill="#C91E25"/>
<path d="M525.481 678.9L527.059 678.156C527.618 677.393 527.381 676.366 526.542 675.855L520.41 672.199C519.565 671.701 518.419 671.902 517.86 672.665C517.301 673.434 517.532 674.462 518.377 674.966L524.51 678.623L525.481 678.9Z" fill="#C91E25"/>
<path d="M423.34 676.051L427.761 670.749C428.376 670.024 428.215 668.977 427.405 668.429C426.601 667.88 425.442 668.019 424.834 668.757L420.406 674.052C419.791 674.783 419.952 675.824 420.762 676.372L421.824 676.706L423.34 676.051" fill="#C91E25"/>
<path d="M414.482 686.642L418.911 681.346C419.525 680.615 419.365 679.574 418.554 679.02C417.751 678.471 416.592 678.61 415.977 679.348L411.555 684.643C410.941 685.374 411.101 686.415 411.912 686.963L412.973 687.297L414.482 686.642Z" fill="#C91E25"/>
<path d="M476.439 649.629L478.018 648.892C478.577 648.123 478.346 647.095 477.501 646.591L471.368 642.928C470.523 642.43 469.385 642.638 468.826 643.401C468.267 644.164 468.497 645.191 469.343 645.696L475.468 649.358L476.439 649.629" fill="#C91E25"/>
<path d="M396.782 707.824L401.211 702.529C401.826 701.797 401.665 700.757 400.848 700.202C400.045 699.654 398.892 699.793 398.277 700.53L393.856 705.826C393.241 706.557 393.402 707.597 394.212 708.146L395.274 708.48L396.782 707.824" fill="#C91E25"/>
<path d="M405.639 697.233L410.061 691.938C410.669 691.206 410.508 690.166 409.698 689.611C408.894 689.063 407.735 689.202 407.12 689.939L402.699 695.235C402.091 695.966 402.251 697.006 403.062 697.561L404.124 697.889L405.639 697.233Z" fill="#C91E25"/>
<path d="M453.242 646.787C464.739 647.052 474.295 638.85 474.581 628.473C474.868 618.096 465.787 609.472 454.29 609.213C442.792 608.955 433.237 617.157 432.951 627.533C432.657 637.904 441.745 646.528 453.242 646.787" fill="#C91E25"/>
<path d="M500.957 664.262L502.535 663.524C503.094 662.755 502.864 661.728 502.019 661.223L495.893 657.567C495.041 657.062 493.909 657.27 493.344 658.033C492.785 658.796 493.015 659.83 493.86 660.334L499.993 663.991L500.957 664.262" fill="#C91E25"/>
<path d="M481.084 650.714C480.525 651.483 480.756 652.511 481.601 653.015L487.727 656.678L488.698 656.949L490.276 656.205C490.835 655.442 490.605 654.414 489.76 653.91L483.627 650.247C482.789 649.743 481.643 649.951 481.084 650.714Z" fill="#C91E25"/>
<path d="M438.462 655.19L439.524 655.524L441.04 654.868L445.461 649.566C446.076 648.835 445.915 647.795 445.105 647.246C444.302 646.698 443.142 646.836 442.534 647.574L438.106 652.87C437.491 653.601 437.652 654.641 438.462 655.19" fill="#C91E25"/>
<path d="M513.216 671.581L514.794 670.837C515.36 670.074 515.123 669.047 514.277 668.542L508.151 664.886C507.306 664.381 506.161 664.59 505.602 665.352C505.043 666.115 505.274 667.143 506.119 667.647L512.252 671.31L513.216 671.581" fill="#C91E25"/>
<path d="M432.182 665.46L436.611 660.158C437.225 659.433 437.058 658.386 436.255 657.838C435.444 657.289 434.292 657.428 433.677 658.166L429.256 663.461C428.641 664.193 428.802 665.233 429.612 665.781L430.674 666.115L432.182 665.46" fill="#C91E25"/>
<path d="M813.564 494.034L811.057 500.269C810.707 501.133 811.196 502.085 812.153 502.394L812.733 502.495C813.502 502.513 814.228 502.091 814.507 501.404L817.022 495.169C817.364 494.311 816.875 493.359 815.919 493.044C814.975 492.723 813.914 493.177 813.564 494.034Z" fill="#C91E25"/>
<path d="M808.541 506.504L806.027 512.739C805.684 513.597 806.173 514.548 807.123 514.864L807.71 514.965C808.479 514.977 809.205 514.561 809.477 513.874L811.992 507.639C812.341 506.775 811.852 505.824 810.895 505.515C809.945 505.193 808.891 505.641 808.541 506.504" fill="#C91E25"/>
<path d="M817.175 489.924L817.755 490.025C818.523 490.043 819.25 489.621 819.529 488.934L822.044 482.705C822.386 481.842 821.897 480.896 820.947 480.581C819.99 480.253 818.935 480.707 818.593 481.571L816.079 487.799C815.729 488.663 816.218 489.615 817.175 489.924Z" fill="#C91E25"/>
<path d="M803.519 518.967L801.011 525.202C800.662 526.066 801.151 527.018 802.108 527.327L802.687 527.428C803.456 527.447 804.182 527.024 804.462 526.337L806.969 520.102C807.319 519.245 806.823 518.287 805.873 517.978C804.923 517.656 803.861 518.11 803.519 518.967Z" fill="#C91E25"/>
<path d="M825.962 468.111C825.012 467.783 823.95 468.243 823.608 469.101L821.1 475.336C820.751 476.193 821.24 477.151 822.197 477.46L822.776 477.561C823.545 477.58 824.278 477.157 824.551 476.47L827.059 470.236C827.408 469.372 826.919 468.42 825.962 468.111Z" fill="#C91E25"/>
<path d="M834.233 462.16C834.316 459.336 831.844 456.99 828.714 456.921C825.585 456.852 822.987 459.083 822.91 461.901C822.833 464.726 825.306 467.071 828.428 467.147C831.557 467.216 834.156 464.984 834.233 462.16" fill="#C91E25"/>
<path d="M797.666 539.897C798.434 539.91 799.161 539.494 799.433 538.807L801.948 532.572C802.29 531.714 801.801 530.756 800.851 530.447C799.901 530.126 798.839 530.58 798.497 531.437L795.99 537.672C795.64 538.529 796.129 539.481 797.086 539.796L797.666 539.897Z" fill="#C91E25"/>
<path d="M158.6 1084.87C154.486 1083.05 149.848 1080.34 144.714 1076.51C129.166 1063.76 133.384 1047.74 128.767 1028.45H123.438C128.739 1041.94 122.278 1078.81 158.6 1084.87" fill="#F0431D"/>
<path d="M98.9067 997.921C105.885 1007.14 113.429 1016.3 121.741 1025.36H121.727C122.432 1026.16 122.963 1027.25 123.438 1028.45H128.768C126.993 1021.04 123.955 1013.15 117.913 1004.75C95.4352 978.182 125.701 962.661 147.131 958.96C149.911 958.481 152.391 957.126 154.158 955.134C164.622 943.307 171.502 934.695 176.371 927.899L160.04 902.361L98.9067 997.921Z" fill="#EF391F"/>
<path d="M48.8521 902.361C59.0921 934.866 75.3532 966.803 98.9066 997.921L160.039 902.361H48.8521Z" fill="#EE2D21"/>
<path d="M176.37 927.899C184.592 916.426 187.099 910.115 191.374 902.361H160.039L176.37 927.899" fill="#F0421E"/>
<path d="M79.3761 776.263L36.5859 843.145C38.7653 863.054 42.6978 882.811 48.8516 902.361H160.039L79.3761 776.263Z" fill="#EF381F"/>
<path d="M35.6711 776.263C33.9807 798.694 34.1694 821.011 36.5862 843.145L79.3764 776.263H35.6711Z" fill="#EF3520"/>
<path d="M160.039 902.361H191.374C194.65 896.416 198.96 889.626 207.726 878.972C209.668 876.614 211.232 873.973 212.196 871.161C220.355 847.47 242.658 831.879 264.968 814.202L240.695 776.263L160.039 902.361" fill="#EF3620"/>
<path d="M160.039 902.361L240.695 776.263H79.3762L160.039 902.361Z" fill="#F03D1F"/>
<path d="M43.4734 720.149C39.7714 738.898 37.0821 757.615 35.6711 776.263H79.3763L43.4734 720.149" fill="#EF3620"/>
<path d="M264.968 814.202C278.854 803.201 292.685 791.349 303.162 776.263H240.695L264.968 814.202Z" fill="#F0441D"/>
<path d="M79.3762 776.263H240.695L160.039 650.172L79.3762 776.263Z" fill="#F0441D"/>
<path d="M160.039 650.172H158.551L106.115 732.657C109.132 706.494 114.315 678.85 121.391 650.172H61.5643C54.265 673.485 48.0832 696.836 43.4731 720.149L79.3761 776.263L160.039 650.172" fill="#EF381F"/>
<path d="M240.695 776.263H303.162C309.016 767.841 313.87 758.454 317.007 747.566C320.702 734.712 326.492 722.381 335.244 711.701C340.846 704.867 345.946 700.101 350.73 696.079L321.365 650.172L240.695 776.263" fill="#F14A1C"/>
<path d="M240.695 776.263L321.358 650.172H160.039L240.695 776.263" fill="#F2531B"/>
<path d="M158.551 650.171H160.036L159.29 649.008L158.551 650.171" fill="#F14A1C"/>
<path d="M133.007 607.92L97.5372 552.462C84.2238 584.803 71.8114 617.446 61.5645 650.171H121.391C124.807 636.321 128.662 622.237 133.007 607.92" fill="#F14A1C"/>
<path d="M350.73 696.079C357.373 690.481 363.394 686.251 369.24 680.13C369.988 678.888 370.728 677.639 371.476 676.397C371.692 666.695 372.398 658.02 373.585 650.172H321.358L350.73 696.079Z" fill="#F14E1C"/>
<path d="M321.358 650.171L240.695 524.074L160.039 650.171H321.358Z" fill="#F25D19"/>
<path d="M159.292 649.005L160.039 650.171L240.695 524.074H238.705L159.292 649.005Z" fill="#F2571A"/>
<path d="M162.819 524.074H109.44C105.416 533.505 101.442 542.974 97.5371 552.462L133.007 607.92C141.27 580.68 151.231 552.651 162.819 524.074Z" fill="#F2571A"/>
<path d="M402.021 524.074L321.358 650.171H373.585C379.139 613.424 395.986 595.463 429.948 583.056C431.596 580.522 433.217 577.95 434.872 575.422L402.021 524.074Z" fill="#F2591A"/>
<path d="M402.021 524.074H240.695L321.358 650.171L402.021 524.074Z" fill="#F36118"/>
<path d="M238.704 524.074H240.695L239.696 522.514L238.704 524.074" fill="#F36118"/>
<path d="M162.352 401.601C161.416 403.845 160.466 406.102 159.516 408.359C161.171 407.231 162.833 406.052 164.489 404.942L162.352 401.601" fill="#F36118"/>
<path d="M194.825 452.363L165.69 406.815L148.989 433.091C136.116 462.929 122.558 493.328 109.44 524.074H162.819C172.382 500.483 183.034 476.546 194.825 452.363Z" fill="#F36118"/>
<path d="M469.091 524.074H402.021L434.872 575.422C446.16 558.111 457.587 541.033 469.091 524.074Z" fill="#F25C19"/>
<path d="M240.695 524.074H402.021L368.472 471.623C361.026 474.661 353.95 470.791 340.455 466.926C329.971 463.925 315.624 460.924 294.221 461.151C292.957 461.164 291.588 460.269 291.602 459.128C291.644 456.82 295.779 455.181 301.779 453.958L300.452 453.126C297.365 449.179 306.215 445.403 318.928 447.547C325.424 448.644 333.645 448.915 340.148 448.921C344.786 449.003 344.94 445.391 341.133 442.629C330.383 434.844 334.211 428.728 342.292 430.695L321.358 397.976L240.695 524.074" fill="#F36618"/>
<path d="M239.697 522.511L240.695 524.074L321.358 397.976H318.858L239.697 522.511" fill="#F36717"/>
<path d="M168.743 402.024L165.69 406.815L194.825 452.363C203.605 434.339 213.007 416.195 223.002 397.976H163.839C163.343 399.187 162.854 400.391 162.352 401.601L164.489 404.942C165.907 403.991 167.325 402.957 168.743 402.024" fill="#F36717"/>
<path d="M469.091 524.074C485.283 500.212 501.662 476.685 518.231 453.542L488.803 407.54C483.481 409.324 478.158 411.285 472.849 413.352L402.021 524.074H469.091" fill="#F14C1C"/>
<path d="M472.849 413.352C443.756 424.706 415.446 439.71 393.771 452.685C387.226 456.606 381.247 461.271 375.918 466.472C373.249 469.069 370.847 470.658 368.472 471.623L402.021 524.074L472.849 413.352" fill="#F2531B"/>
<path d="M342.292 430.695C344.793 431.301 347.685 432.662 350.702 435.014C352.889 436.722 356.339 436.533 358.477 434.774C366.202 428.42 380.102 426.163 385.676 426.39C403.411 417.343 410.424 408.624 421.67 397.977H321.358L342.292 430.695" fill="#F2531B"/>
<path d="M266.965 323.574C268.09 321.796 269.264 320.081 270.395 318.309L240.695 271.885L170.489 381.636C168.316 387.064 166.102 392.511 163.839 397.976H223.002C236.581 373.251 251.179 348.412 266.965 323.574" fill="#F25C19"/>
<path d="M318.857 397.976H321.359L320.108 396.019L318.857 397.976Z" fill="#F25C19"/>
<path d="M206.56 271.885C198.527 307.025 185.667 343.766 170.489 381.636L240.695 271.885H206.56Z" fill="#F2551A"/>
<path d="M783.871 524.074H776.341C778.129 527.932 779.52 528.859 783.871 524.074Z" fill="#F03C1F"/>
<path d="M549.538 410.509C544.411 406.847 539.207 402.724 534.387 397.977H525.824C513.837 399.994 501.348 403.316 488.803 407.54L518.231 453.542C528.597 439.061 539.025 424.7 549.538 410.509" fill="#F0411E"/>
<path d="M321.358 397.976H421.67C430.541 389.585 442.066 379.997 463.573 368.094L402.021 271.885L321.358 397.976Z" fill="#F14E1C"/>
<path d="M320.108 396.016L321.358 397.976L402.021 271.885H399.011L320.108 396.016Z" fill="#F14F1B"/>
<path d="M240.695 271.885L270.396 318.309C280.552 302.485 290.918 286.983 301.507 271.885H240.695Z" fill="#F14F1B"/>
<path d="M213.796 229.822C212.294 243.559 209.829 257.592 206.56 271.884H240.695L213.796 229.822Z" fill="#F1471D"/>
<path d="M744.343 493.328C768.63 501.921 773.212 517.328 776.341 524.074H783.871L784.402 523.513C800.398 497.899 810.631 476.521 811.867 457.955C811.993 456.101 811.776 454.254 811.476 452.414C808.891 436.476 813.963 428.003 818.51 418.566L805.336 397.976L744.343 493.328" fill="#F03A1F"/>
<path d="M793.943 397.976L769.188 436.93C769.293 444.502 769.852 447.603 762.071 448.12L741.228 480.915C742.736 486.387 742.45 490.945 743.023 492.811L744.343 493.328L805.336 397.976H793.943Z" fill="#F0401E"/>
<path d="M563.347 271.884L518.565 341.887C522.365 340.551 526.507 340.084 530.091 342.253C553.295 351.129 571.449 357.068 585.51 362.861C592.076 354.319 598.663 345.846 605.271 337.417L563.347 271.884Z" fill="#F03B1F"/>
<path d="M533.207 396.874C530.776 397.17 528.303 397.56 525.823 397.976H534.387L533.207 396.874Z" fill="#F03B1F"/>
<path d="M402.021 271.885L463.573 368.094C475.091 361.72 489.467 354.685 507.851 346.817C509.926 345.928 511.965 344.97 513.942 343.923C515.374 343.167 516.946 342.454 518.566 341.887L563.347 271.885H402.021" fill="#EF3320"/>
<path d="M399.01 271.884H402.021L400.512 269.525L399.01 271.884Z" fill="#EF3120"/>
<path d="M301.507 271.884C319.123 246.743 337.298 222.667 355.85 199.701L321.358 145.787L240.695 271.884H301.507Z" fill="#EF3120"/>
<path d="M321.365 145.787H208.327C215.71 172.252 217.016 200.356 213.796 229.822L240.695 271.884L321.365 145.787Z" fill="#EF2E21"/>
<path d="M818.509 418.566C820.842 413.718 823.035 408.618 823.971 402.106C824.027 400.209 824.439 398.916 825.005 397.977H805.335L818.509 418.566" fill="#E82124"/>
<path d="M832.735 400.057C832.756 399.304 832.804 398.689 832.839 397.986H831.348C831.926 398.582 832.435 399.26 832.735 400.057Z" fill="#E82124"/>
<path d="M844.695 399.786C844.889 399.153 845.096 398.583 845.304 397.988H844.598C844.625 398.589 844.681 399.172 844.695 399.786Z" fill="#E82124"/>
<path d="M805.336 397.976L799.622 389.043L793.943 397.976H805.336Z" fill="#E61D25"/>
<path d="M658.064 271.885H563.347L605.271 337.418C622.726 315.17 640.329 293.313 658.064 271.885Z" fill="#E11D25"/>
<path d="M563.347 271.884L482.684 145.787L402.021 271.884H563.347Z" fill="#E12124"/>
<path d="M401.986 145.787H321.358L355.85 199.701C371.001 180.94 386.41 162.973 401.986 145.787" fill="#DF2A23"/>
<path d="M402.021 271.884L482.684 145.787H479.164L400.512 269.52L402.021 271.884Z" fill="#DF2A23"/>
<path d="M321.366 145.787L273.525 71.0127C252.165 69.0079 230.854 67.9992 209.682 68.1758L188.706 100.97C197.591 115.3 204.003 130.266 208.327 145.787H321.366Z" fill="#E33B20"/>
<path d="M164.908 70.2177C174.296 80.1029 182.133 90.3724 188.706 100.97L209.682 68.1751C194.678 68.2949 179.744 68.9505 164.908 70.2177Z" fill="#EA2922"/>
<path d="M825.005 397.976C826.549 395.429 829.461 396.022 831.347 397.976H832.842C834.065 370.42 843.599 380.406 844.598 397.976H845.31C850.682 382.423 858.959 381.768 858.386 389.528C857.842 392.989 857.297 394.843 856.899 396.431C862.207 380.671 853.252 381.421 849.006 387.933V387.939C842.125 379.523 834.959 371.258 827.673 363.056L805.335 397.976H825.005" fill="#DB1E25"/>
<path d="M805.337 397.976L827.674 363.057C825.439 360.535 823.204 358.02 820.927 355.523L799.623 389.043L805.337 397.976" fill="#D61E25"/>
<path d="M658.063 271.884C667.975 259.906 677.915 248.023 687.903 236.309C664.888 219.439 640.992 203.616 616.454 188.864L563.347 271.884H658.063" fill="#CB1E25"/>
<path d="M563.347 271.884L616.454 188.864C590.414 173.197 563.641 158.761 536.294 145.787H482.684L563.347 271.884Z" fill="#C61E25"/>
<path d="M480.917 143.027L479.164 145.787H482.684L480.917 143.027" fill="#C32424"/>
<path d="M401.986 145.787C414.28 132.233 426.664 119.152 439.126 106.638C413.085 97.9507 386.794 90.6187 360.405 84.7557L321.358 145.787H401.986Z" fill="#C32424"/>
<path d="M360.405 84.762C331.48 78.3442 302.457 73.717 273.525 71.0125L321.366 145.787L360.405 84.762" fill="#B01D23"/>
<path d="M536.294 145.787C522.506 139.243 508.585 133.046 494.545 127.246L482.684 145.787H536.294Z" fill="#BA1D24"/>
<path d="M482.684 145.787L494.544 127.246C493.594 126.856 492.637 126.477 491.688 126.086L480.917 143.026L482.684 145.787Z" fill="#CA1E25"/>
<path d="M164.489 404.942C162.834 406.052 161.171 407.23 159.516 408.359C156.072 416.561 152.566 424.794 148.99 433.091L165.69 406.814L164.489 404.942" fill="#F36118"/>
<path d="M148.99 433.091C152.566 424.794 156.072 416.561 159.516 408.359C161.171 407.23 162.834 406.052 164.489 404.942L165.69 406.814L148.99 433.091" fill="url(#paint0_radial)"/>
<path d="M164.489 404.942L165.69 406.815L168.743 402.024C167.325 402.957 165.907 403.991 164.489 404.942Z" fill="#F36717"/>
<path d="M165.69 406.815L164.489 404.942C165.907 403.991 167.325 402.957 168.743 402.024L165.69 406.815Z" fill="url(#paint1_radial)"/>
<path d="M371.431 677.822L371.48 676.397C370.731 677.639 369.989 678.888 369.24 680.13C369.968 679.367 370.703 678.654 371.431 677.822" fill="#F14E1C"/>
<path d="M369.24 680.13C369.989 678.888 370.731 677.639 371.48 676.397L371.431 677.822C370.703 678.654 369.968 679.367 369.24 680.13" fill="url(#paint2_radial)"/>
<path d="M429.947 583.057C432.531 582.117 435.214 581.197 438.001 580.314L434.871 575.422C433.216 577.95 431.595 580.522 429.947 583.057Z" fill="#F2591A"/>
<path d="M429.947 583.057C431.595 580.522 433.216 577.95 434.871 575.422L438.001 580.314C435.214 581.197 432.531 582.117 429.947 583.057Z" fill="url(#paint3_radial)"/>
<path d="M434.871 575.422L438.001 580.314C439.586 579.81 441.109 579.293 442.757 578.801C463.531 557.02 477.494 539.261 488.907 524.074H469.091C457.587 541.033 446.159 558.111 434.871 575.422" fill="#F25C19"/>
<path d="M438.001 580.314L434.871 575.422C446.159 558.111 457.587 541.033 469.091 524.074H488.907C477.494 539.261 463.531 557.02 442.757 578.801C441.109 579.293 439.586 579.81 438.001 580.314" fill="url(#paint4_radial)"/>
<path d="M469.091 524.074H488.908C504.303 503.598 515.087 487.875 531.139 473.728L518.231 453.542C501.662 476.685 485.283 500.212 469.091 524.074Z" fill="#F14C1C"/>
<path d="M488.908 524.074H469.091C485.283 500.212 501.662 476.685 518.231 453.542L531.139 473.728C515.087 487.875 504.303 503.598 488.908 524.074Z" fill="url(#paint5_radial)"/>
<path d="M531.139 473.728C539.06 466.749 548.21 460.124 559.973 453.504C562.969 441.974 567.384 434.182 574.948 428.716C570.059 423.622 560.035 418.005 549.537 410.509C539.025 424.7 528.596 439.061 518.23 453.542L531.139 473.728Z" fill="#F0411E"/>
<path d="M531.139 473.728L518.23 453.542C528.596 439.061 539.025 424.7 549.537 410.509C560.035 418.005 570.059 423.622 574.948 428.716C567.384 434.182 562.969 441.974 559.973 453.504C548.21 460.124 539.06 466.749 531.139 473.728Z" fill="url(#paint6_radial)"/>
<path d="M783.487 397.976C781.622 417.022 771.591 421.725 769.622 427.323C769.168 431.131 769.147 434.289 769.188 436.931L793.943 397.976H783.487" fill="#F0401E"/>
<path d="M769.188 436.931C769.181 436.388 769.174 435.834 769.174 435.254C769.174 432.978 769.258 430.355 769.621 427.323C771.591 421.725 781.621 417.022 783.486 397.976H793.943L769.188 436.931" fill="url(#paint7_radial)"/>
<path d="M656.024 404.325C656.38 402.157 656.82 400.051 657.288 397.977H650.324C652.951 400.063 654.885 402.308 656.024 404.325Z" fill="#F0401E"/>
<path d="M656.024 404.325C654.885 402.308 652.951 400.063 650.324 397.977H657.288C656.82 400.051 656.38 402.157 656.024 404.325Z" fill="url(#paint8_radial)"/>
<path d="M757.23 448.171C759.758 453.744 750.65 455.969 750.65 455.969C751.565 461.504 740.095 462.652 740.095 462.652C742.212 466.749 740.137 469.057 735.869 470.299C738.726 473.911 740.305 477.58 741.227 480.915L762.07 448.12C760.715 448.209 759.137 448.227 757.23 448.171Z" fill="#F0401E"/>
<path d="M741.227 480.915C740.305 477.58 738.726 473.911 735.869 470.299C738.991 469.391 740.933 467.916 740.933 465.589C740.933 464.732 740.661 463.755 740.095 462.652C740.095 462.652 750.685 461.592 750.698 456.599C750.705 456.398 750.684 456.183 750.65 455.969C750.65 455.969 757.684 454.248 757.67 450.049C757.67 449.476 757.537 448.845 757.23 448.171C757.928 448.196 758.592 448.202 759.206 448.202C760.268 448.202 761.218 448.177 762.07 448.12L741.227 480.915" fill="url(#paint9_radial)"/>
<path d="M585.51 362.862C603.972 370.458 615.371 377.803 621.742 391.193C629.397 390.373 635.677 391.199 640.741 392.864L605.271 337.418C598.663 345.846 592.076 354.319 585.51 362.862" fill="#F03B1F"/>
<path d="M640.741 392.864C637.018 391.641 632.652 390.871 627.56 390.871C625.716 390.871 623.774 390.972 621.742 391.193C615.371 377.803 603.972 370.458 585.51 362.862C592.076 354.319 598.663 345.846 605.271 337.418L640.741 392.864" fill="url(#paint10_radial)"/>
<path d="M799.622 389.043L724.672 271.885L645.874 395.07C647.558 395.965 649.025 396.942 650.324 397.976H657.288C674.094 323.983 760.066 312.894 792.581 385.689C799.028 400.189 783.535 397.642 783.535 397.642L783.486 397.976H793.943L799.622 389.043" fill="#E61D25"/>
<path d="M793.943 397.976H783.486L783.535 397.642C783.535 397.642 784.583 397.812 786.022 397.812C789.158 397.812 794.16 396.993 794.153 391.754C794.153 390.172 793.692 388.186 792.581 385.689C777.612 352.17 751.313 336.44 725.643 336.44C695.566 336.44 666.354 358.051 657.288 397.976H650.324C649.025 396.942 647.558 395.965 645.874 395.07L724.672 271.885L799.622 389.043L793.943 397.976" fill="url(#paint11_radial)"/>
<path d="M658.064 271.885C640.329 293.313 622.727 315.17 605.271 337.418L640.741 392.864C642.634 393.488 644.317 394.244 645.875 395.07L724.673 271.885H658.064" fill="#E11D25"/>
<path d="M645.875 395.07C644.317 394.244 642.634 393.488 640.741 392.864L605.271 337.418C622.727 315.17 640.329 293.313 658.064 271.885H724.673L645.875 395.07" fill="url(#paint12_radial)"/>
<path d="M799.622 389.043L820.927 355.523C794.069 326.026 764.69 298.022 733.32 271.885H724.673L799.622 389.043Z" fill="#D61E25"/>
<path d="M799.622 389.043L724.673 271.885H733.32C764.69 298.022 794.069 326.026 820.927 355.523L799.622 389.043Z" fill="url(#paint13_radial)"/>
<path d="M724.673 271.884L715.341 257.296C706.33 250.16 697.208 243.131 687.904 236.309C677.915 248.023 667.976 259.906 658.064 271.884H724.673Z" fill="#CB1E25"/>
<path d="M724.673 271.884H658.064C667.976 259.906 677.915 248.023 687.904 236.309C697.208 243.131 706.33 250.16 715.341 257.296L724.673 271.884Z" fill="url(#paint14_radial)"/>
<path d="M733.32 271.884C731.435 270.315 729.59 268.713 727.697 267.156L724.673 271.884H733.32Z" fill="#B41D23"/>
<path d="M733.32 271.884H724.673L727.697 267.156C729.59 268.713 731.435 270.315 733.32 271.884Z" fill="url(#paint15_radial)"/>
<path d="M727.697 267.156C723.625 263.821 719.476 260.568 715.341 257.296L724.673 271.884L727.697 267.156Z" fill="#B21D23"/>
<path d="M724.673 271.884L715.341 257.296C719.476 260.568 723.625 263.821 727.697 267.156L724.673 271.884Z" fill="url(#paint16_radial)"/>
<path d="M106.115 732.656L158.551 650.172H121.391C114.315 678.85 109.132 706.494 106.115 732.656Z" fill="#EF381F"/>
<path d="M106.115 732.656C109.132 706.494 114.315 678.85 121.391 650.172H158.551L106.115 732.656Z" fill="url(#paint17_radial)"/>
<path d="M133.008 607.92C128.663 622.237 124.807 636.321 121.392 650.171H158.552L159.292 649.005L133.008 607.92" fill="#F14A1C"/>
<path d="M158.552 650.171H121.392C124.807 636.321 128.663 622.237 133.008 607.92L159.292 649.005L158.552 650.171" fill="url(#paint18_radial)"/>
<path d="M238.704 524.074H162.819C151.231 552.651 141.27 580.68 133.007 607.921L159.292 649.005L238.704 524.074Z" fill="#F2571A"/>
<path d="M159.292 649.005L133.007 607.921C141.27 580.68 151.231 552.651 162.819 524.074H238.704L159.292 649.005Z" fill="url(#paint19_radial)"/>
<path d="M239.696 522.511L194.824 452.363C183.034 476.546 172.382 500.483 162.819 524.074H238.704L239.696 522.511" fill="#F36118"/>
<path d="M238.704 524.074H162.819C172.382 500.483 183.034 476.546 194.824 452.363L239.696 522.511L238.704 524.074" fill="url(#paint20_radial)"/>
<path d="M318.858 397.977H223.002C213.007 416.196 203.605 434.34 194.825 452.364L239.696 522.511L318.858 397.977Z" fill="#F36717"/>
<path d="M239.696 522.511L194.825 452.364C203.605 434.34 213.007 416.196 223.002 397.977H318.858L239.696 522.511" fill="url(#paint21_radial)"/>
<path d="M320.108 396.016L270.395 318.309C269.264 320.081 268.09 321.796 266.966 323.573C251.18 348.412 236.581 373.251 223.002 397.976H318.857L320.108 396.016" fill="#F25C19"/>
<path d="M318.857 397.976H223.002C236.581 373.251 251.18 348.412 266.966 323.573C268.09 321.796 269.264 320.081 270.395 318.309L320.108 396.016L318.857 397.976" fill="url(#paint22_radial)"/>
<path d="M399.011 271.885H301.507C290.918 286.983 280.552 302.486 270.396 318.309L320.108 396.016L399.011 271.885Z" fill="#F14F1B"/>
<path d="M320.108 396.016L270.396 318.309C280.552 302.486 290.918 286.983 301.507 271.885H399.011L320.108 396.016Z" fill="url(#paint23_radial)"/>
<path d="M400.512 269.52L355.85 199.701C337.298 222.667 319.123 246.743 301.507 271.884H399.01L400.512 269.52Z" fill="#EF3120"/>
<path d="M399.01 271.884H301.507C319.123 246.743 337.298 222.667 355.85 199.701L400.512 269.52L399.01 271.884Z" fill="url(#paint24_radial)"/>
<path d="M400.512 269.521L479.163 145.787H401.986C386.409 162.973 371 180.94 355.85 199.701L400.512 269.521Z" fill="#DF2A23"/>
<path d="M400.512 269.521L355.85 199.701C371 180.94 386.409 162.973 401.986 145.787H479.163L400.512 269.521Z" fill="url(#paint25_radial)"/>
<path d="M479.164 145.787L480.917 143.026L462.994 115.003C455.066 112.091 447.11 109.305 439.126 106.638C426.664 119.152 414.28 132.233 401.986 145.787H479.164Z" fill="#C32424"/>
<path d="M479.164 145.787H401.986C414.28 132.233 426.664 119.152 439.126 106.638C447.11 109.305 455.066 112.091 462.994 115.003L480.917 143.026L479.164 145.787Z" fill="url(#paint26_radial)"/>
<path d="M491.688 126.086C482.174 122.196 472.598 118.534 462.993 115.003L480.917 143.026L491.688 126.086Z" fill="#CA1E25"/>
<path d="M480.917 143.026L462.993 115.003C472.598 118.534 482.174 122.196 491.688 126.086L480.917 143.026Z" fill="url(#paint27_radial)"/>
<path d="M793.475 543.907L790.961 550.142C790.611 551 791.107 551.952 792.057 552.267L792.644 552.368C793.412 552.38 794.139 551.964 794.411 551.277L796.925 545.042C797.268 544.179 796.779 543.227 795.829 542.918C794.879 542.59 793.817 543.044 793.475 543.907" fill="#C91E25"/>
<path d="M773.631 558.766C773.505 563.526 777.668 567.479 782.935 567.599C788.209 567.718 792.588 563.961 792.721 559.201C792.854 554.441 788.684 550.488 783.417 550.375C778.143 550.255 773.764 554.013 773.631 558.766Z" fill="#C91E25"/>
<path d="M764.571 546.94C763.907 547.633 763.998 548.679 764.773 549.278L770.354 553.597L771.5 553.994L772.939 553.414C773.602 552.721 773.512 551.674 772.743 551.081L767.162 546.763C766.394 546.17 765.234 546.24 764.571 546.94" fill="#C91E25"/>
<path d="M753.416 538.302C752.752 538.996 752.843 540.042 753.611 540.641L759.193 544.96L760.345 545.357L761.784 544.777C762.448 544.083 762.357 543.037 761.582 542.444L756 538.126C755.239 537.533 754.072 537.602 753.416 538.302" fill="#C91E25"/>
<path d="M750.629 536.146C751.286 535.447 751.202 534.4 750.427 533.801L744.853 529.483C744.084 528.897 742.925 528.966 742.261 529.666C741.597 530.359 741.688 531.406 742.457 532.005L748.031 536.323L749.183 536.72L750.629 536.146" fill="#C91E25"/>
<path d="M705.387 511.396C705.198 518.11 711.079 523.689 718.519 523.853C725.951 524.023 732.139 518.715 732.321 512.001C732.51 505.287 726.628 499.708 719.189 499.544C711.75 499.374 705.568 504.682 705.387 511.396Z" fill="#C91E25"/>
<path d="M731.106 521.029C730.442 521.723 730.533 522.769 731.301 523.368L736.875 527.686L738.028 528.083L739.467 527.51C740.13 526.81 740.04 525.764 739.271 525.165L733.697 520.846C732.929 520.26 731.762 520.329 731.106 521.029" fill="#C91E25"/>
<path d="M531.88 811.699L538.236 808.365C539.116 807.911 539.41 806.896 538.9 806.101C538.397 805.307 537.272 805.036 536.392 805.502L530.036 808.831C529.156 809.291 528.862 810.306 529.372 811.094L530.909 811.92L531.88 811.699" fill="#C91E25"/>
<path d="M542.085 804.437L543.628 805.263L544.599 805.036L550.948 801.707C551.829 801.247 552.129 800.238 551.619 799.444C551.109 798.656 549.992 798.379 549.104 798.845L542.748 802.174C541.875 802.634 541.575 803.643 542.085 804.437" fill="#C91E25"/>
<path d="M556.34 798.605L557.304 798.378L563.661 795.05C564.541 794.59 564.841 793.575 564.331 792.787C563.822 791.999 562.697 791.728 561.817 792.182L555.46 795.516C554.587 795.97 554.287 796.985 554.797 797.779L556.34 798.605" fill="#C91E25"/>
<path d="M513.474 819.416C512.971 818.628 511.846 818.357 510.966 818.817L504.609 822.146C503.729 822.606 503.436 823.621 503.939 824.415L505.483 825.235L506.454 825.014L512.81 821.685C513.69 821.225 513.984 820.21 513.474 819.416" fill="#C91E25"/>
<path d="M518.196 818.577L519.167 818.356L525.523 815.028C526.403 814.568 526.697 813.553 526.187 812.758C525.684 811.97 524.559 811.699 523.679 812.159L517.323 815.488C516.443 815.948 516.149 816.963 516.659 817.751L518.196 818.577" fill="#C91E25"/>
<path d="M569.054 791.948L570.018 791.721L576.381 788.393C577.254 787.932 577.554 786.917 577.044 786.129C576.534 785.335 575.417 785.064 574.53 785.524L568.173 788.853C567.3 789.313 567 790.328 567.51 791.122L569.054 791.948" fill="#C91E25"/>
<path d="M581.711 708.782C580.866 708.284 579.727 708.493 579.161 709.255C578.602 710.018 578.84 711.046 579.685 711.55L585.811 715.206L586.782 715.484L588.361 714.74C588.919 713.977 588.689 712.949 587.844 712.445L581.711 708.782" fill="#C91E25"/>
<path d="M554.643 694.617C554.085 695.386 554.322 696.413 555.16 696.918L561.293 700.574L562.257 700.852L563.843 700.108C564.401 699.345 564.164 698.317 563.319 697.813L557.193 694.15C556.348 693.646 555.209 693.854 554.643 694.617" fill="#C91E25"/>
<path d="M542.386 687.297C541.827 688.066 542.057 689.094 542.902 689.598L549.035 693.261L549.999 693.532L551.585 692.795C552.143 692.026 551.906 690.998 551.061 690.494L544.935 686.831C544.09 686.333 542.944 686.541 542.386 687.297" fill="#C91E25"/>
<path d="M318.005 1159.8C320.995 1160.97 323.971 1162.22 326.974 1163.33L321.358 1154.55L318.005 1159.8" fill="#F36318"/>
<path d="M313.025 1154.55L311.356 1157.18C313.563 1158.09 315.791 1158.93 318.006 1159.8L321.358 1154.55H313.025" fill="#F2551A"/>
<path d="M321.358 1154.55L326.974 1163.33C369.89 1179.14 414.692 1187.86 459.885 1190.19L482.684 1154.55H321.358Z" fill="#F36817"/>
<path d="M313.025 1154.55H321.358L317.181 1148.01L313.025 1154.55Z" fill="#F25C19"/>
<path d="M180.226 1028.45C176.538 1043.46 169.854 1053.78 172.368 1063.38C177.314 1051.77 182.371 1040.13 187.533 1028.45H180.226Z" fill="#F0431D"/>
<path d="M459.885 1190.19C475.113 1190.98 490.375 1191.05 505.63 1190.41L482.684 1154.55L459.885 1190.19" fill="#F36917"/>
<path d="M209.549 979.758L203.144 969.741C200.734 973.157 198.296 976.757 195.796 980.597C195.796 980.597 188.846 990.81 186.1 995.935C183.879 1000.09 182.384 1004.6 182.468 1009.22C182.601 1016.45 181.623 1022.78 180.226 1028.45H187.532C194.685 1012.27 201.984 996.048 209.549 979.758" fill="#EF391F"/>
<path d="M482.684 1154.55L505.63 1190.42C531.405 1189.34 557.123 1186.24 582.542 1181.31C585.992 1172.42 589.555 1163.48 593.124 1154.55H482.684Z" fill="#F36418"/>
<path d="M563.347 1028.45L482.684 1154.55H593.124C599.557 1138.42 606.137 1122.25 612.954 1106L563.347 1028.45Z" fill="#F36817"/>
<path d="M402.021 1028.45L482.684 1154.55L563.347 1028.45H402.021Z" fill="#F46D16"/>
<path d="M397.586 1021.52L317.181 1148.01L321.358 1154.55H482.684L402.021 1028.45L397.586 1021.52Z" fill="#F36618"/>
<path d="M229.925 936.902C221.368 945.86 212.588 956.294 203.144 969.741L209.549 979.758C216.171 965.517 222.995 951.219 229.925 936.902" fill="#F0421E"/>
<path d="M646.748 1028.45H563.347L612.954 1106C623.739 1080.29 635.02 1054.43 646.748 1028.45Z" fill="#F36717"/>
<path d="M563.347 1028.45L512.44 948.874C508.92 950.626 503.905 950.954 497.94 949.107C481.203 943.931 471.543 937.28 464.97 930.049L402.021 1028.45H563.347" fill="#F57815"/>
<path d="M402.021 1028.45L464.97 930.049C463.035 927.925 461.366 925.744 459.871 923.537L397.585 1021.52L402.021 1028.45" fill="#F47515"/>
<path d="M679.563 957.939L644.01 902.361L563.347 1028.45H646.748C657.316 1005.04 668.234 981.536 679.563 957.939Z" fill="#F36817"/>
<path d="M644.01 902.361L593.438 823.305C556.083 836.967 529.868 838.713 505.895 851.126L492.819 871.71C499.176 895.477 493.748 897.103 494.943 906.433C495.767 912.933 499.825 918.702 505.546 922.711C520.641 933.296 520.515 944.864 512.44 948.874L563.347 1028.45L644.01 902.361Z" fill="#F47315"/>
<path d="M706.938 902.361H644.01L679.563 957.939C688.434 939.467 697.606 920.927 706.938 902.361Z" fill="#F25D19"/>
<path d="M751.041 817.487L724.672 776.263L644.01 902.361H706.938C721.117 874.155 735.8 845.856 751.041 817.487Z" fill="#F2591A"/>
<path d="M724.673 776.263L644.01 650.172L626.191 678.03C645.072 693.967 657.114 710.339 670.532 721.416C676.902 726.68 682.511 732.65 686.765 739.433C698.737 758.542 700.658 762.955 671.049 783.33C640.301 803.56 615.022 815.412 593.439 823.305L644.01 902.361L724.673 776.263" fill="#F36817"/>
<path d="M773.519 776.263H724.673L751.041 817.487C758.417 803.756 765.898 790.019 773.519 776.263Z" fill="#F2571A"/>
<path d="M581.704 752.944C580.733 752.73 579.685 752.484 578.7 752.27L577.855 753.593C579.091 753.354 580.363 753.133 581.704 752.944" fill="#F36817"/>
<path d="M577.854 753.593L578.699 752.269C575.836 751.639 572.951 750.995 569.982 750.308L565.456 757.426C569.172 755.768 573.181 754.495 577.854 753.593Z" fill="#F46D16"/>
<path d="M633.637 650.172L619.395 672.571C621.755 674.38 624.019 676.202 626.191 678.03L644.01 650.172H633.637" fill="#F46D16"/>
<path d="M826.689 683.546L805.336 650.172L724.673 776.263H773.519C790.611 745.41 808.353 714.494 826.689 683.546" fill="#F1491C"/>
<path d="M644.01 650.172L724.673 776.263L805.336 650.172H644.01Z" fill="#F25A1A"/>
<path d="M633.637 650.171H644.01L638.806 642.033L633.637 650.171Z" fill="#F25A1A"/>
<path d="M846.673 650.172H805.335L826.688 683.546C833.275 672.426 839.925 661.299 846.673 650.172" fill="#DE2424"/>
<path d="M805.336 650.171L748.128 560.745C745.691 559.075 743.183 557.518 740.466 556.301C731.902 552.537 723.639 545.243 715.872 537.83L644.01 650.171H805.336" fill="#F1501B"/>
<path d="M644.01 650.171L715.872 537.83C713.595 535.655 711.346 533.473 709.159 531.362L638.806 642.033L644.01 650.171Z" fill="#F14C1C"/>
<path d="M889.309 581.436C894.855 572.711 900.457 564.074 906.052 555.425L885.998 524.074L805.335 650.171H846.672C860.566 627.262 874.745 604.346 889.309 581.436" fill="#E32424"/>
<path d="M885.998 524.074H827.443C820.137 549.051 808.605 570.341 794.711 581.045C790.611 584.21 784.793 585.061 779.84 583.119C767.295 578.208 758.62 567.92 748.128 560.746L805.336 650.171L885.998 524.074Z" fill="#F03C1F"/>
<path d="M926.567 524.074H885.998L906.052 555.426C912.856 544.916 919.694 534.47 926.567 524.074Z" fill="#D71E25"/>
<path d="M845.667 461.031C841.986 465.722 838.235 471.566 835.259 481.873C834.072 496.316 831.354 510.715 827.443 524.074H885.998L845.667 461.031Z" fill="#F03A1F"/>
<path d="M926.567 524.074C928.558 521.061 930.535 518.041 932.532 515.04C926.672 503.478 920.413 492.017 913.764 480.675L885.998 524.074H926.567Z" fill="#DF1D25"/>
<path d="M913.763 480.676C899.109 455.679 882.666 431.225 864.505 407.527C862.347 411.291 861.718 412.085 860.559 418.61C873.879 412.369 860.314 433.627 857.974 441.016C855.257 450.68 850.521 454.847 845.667 461.032L885.998 524.074L913.763 480.676" fill="#E82124"/>
<path d="M305.069 1154.55C307.157 1155.45 309.26 1156.32 311.355 1157.18L313.025 1154.55H305.069" fill="#F2551A"/>
<path d="M311.355 1157.18C309.26 1156.32 307.157 1155.45 305.069 1154.55H313.025L311.355 1157.18" fill="url(#paint28_radial)"/>
<path d="M317.181 1148.01L240.695 1028.45L199.344 1093.1C219.279 1107.37 241.31 1121.38 265.687 1135.09C278.561 1142.34 291.721 1148.78 305.069 1154.55H313.025L317.181 1148.01" fill="#F25C19"/>
<path d="M313.025 1154.55H305.069C291.721 1148.78 278.561 1142.34 265.687 1135.09C241.31 1121.38 219.279 1107.37 199.344 1093.1L240.695 1028.45L317.181 1148.01L313.025 1154.55Z" fill="url(#paint29_radial)"/>
<path d="M187.532 1028.45C182.37 1040.13 177.313 1051.77 172.368 1063.38C172.871 1065.31 173.737 1067.2 175.078 1069.1C183.851 1079.89 179.863 1089.88 166.654 1087.47V1087.48C181.399 1091.05 181.812 1080.1 181.812 1080.1C187.448 1084.45 193.323 1088.78 199.344 1093.1L240.695 1028.45H187.532" fill="#F0431D"/>
<path d="M199.344 1093.1C193.323 1088.78 187.448 1084.45 181.812 1080.1C181.812 1080.1 181.504 1088.2 172.04 1088.2C170.503 1088.2 168.715 1087.98 166.654 1087.48V1087.47C168.002 1087.72 169.252 1087.83 170.405 1087.83C176.461 1087.83 179.765 1084.6 179.758 1079.93C179.751 1076.79 178.249 1073 175.078 1069.1C173.737 1067.2 172.871 1065.31 172.368 1063.38C177.313 1051.77 182.37 1040.13 187.532 1028.45H240.695L199.344 1093.1" fill="url(#paint30_radial)"/>
<path d="M187.532 1028.45H240.695L209.549 979.758C201.984 996.048 194.685 1012.27 187.532 1028.45Z" fill="#EF391F"/>
<path d="M240.695 1028.45H187.532C194.685 1012.27 201.984 996.048 209.549 979.758L240.695 1028.45Z" fill="url(#paint31_radial)"/>
<path d="M397.586 1021.52L321.358 902.361L240.695 1028.45L317.181 1148.01L397.586 1021.52Z" fill="#F36618"/>
<path d="M317.181 1148.01L240.695 1028.45L321.358 902.361L397.586 1021.52L317.181 1148.01Z" fill="url(#paint32_radial)"/>
<path d="M240.695 1028.45L321.359 902.361H267.295C254.379 913.916 242.379 923.864 229.925 936.902C222.996 951.219 216.171 965.517 209.549 979.758L240.695 1028.45" fill="#F0421E"/>
<path d="M240.695 1028.45L209.549 979.758C216.171 965.517 222.996 951.219 229.925 936.902C242.379 923.864 254.379 913.916 267.295 902.361H321.359L240.695 1028.45" fill="url(#paint33_radial)"/>
<path d="M397.586 1021.52L459.871 923.537C455.093 916.514 451.985 909.214 447.312 902.361H321.358L397.586 1021.52Z" fill="#F47515"/>
<path d="M397.586 1021.52L321.358 902.361H447.312C451.985 909.214 455.093 916.514 459.871 923.537L397.586 1021.52Z" fill="url(#paint34_radial)"/>
<path d="M300.368 869.547C288.305 883.07 277.513 893.226 267.294 902.361H321.358L300.368 869.547" fill="#EF3620"/>
<path d="M321.358 902.361H267.294C277.513 893.226 288.305 883.07 300.368 869.547L321.358 902.361Z" fill="url(#paint35_radial)"/>
<path d="M447.312 902.361C442.534 895.369 436.115 888.844 424.541 883.58C391.893 865.159 409.593 836.721 434.522 836.727C436.506 836.727 438.476 836.557 440.425 836.298L405.667 781.962C400.065 787.705 394.135 793.272 387.814 798.479L321.358 902.361H447.312Z" fill="#F46B17"/>
<path d="M447.312 902.361H321.358L387.814 798.479C394.135 793.272 400.065 787.705 405.667 781.962L440.425 836.298C438.483 836.551 436.52 836.727 434.536 836.727C434.536 836.727 434.529 836.727 434.522 836.727C434.522 836.727 434.522 836.727 434.515 836.727C419.281 836.727 406.743 847.35 406.757 859.82C406.771 867.744 411.856 876.419 424.541 883.58C436.115 888.844 442.534 895.369 447.312 902.361" fill="url(#paint36_radial)"/>
<path d="M387.813 798.479C378.894 805.824 369.261 812.449 358.686 817.682C356.283 818.867 353.035 821.483 351.554 823.57C335.726 845.912 324.459 840.894 313.465 854.083C308.932 859.712 304.573 864.831 300.368 869.547L321.358 902.361L387.813 798.479Z" fill="#F0441D"/>
<path d="M321.358 902.361L300.368 869.547C304.573 864.831 308.932 859.712 313.465 854.083C324.459 840.894 335.726 845.912 351.554 823.57C353.035 821.483 356.283 818.867 358.686 817.682C369.261 812.449 378.894 805.824 387.813 798.479L321.358 902.361" fill="url(#paint37_radial)"/>
<path d="M451.628 832.932C499.525 807.772 522.917 789.225 538.732 776.263H411.122C409.341 778.18 407.518 780.071 405.667 781.962L440.424 836.298C444.357 835.775 448.171 834.748 451.628 832.932" fill="#F47315"/>
<path d="M440.424 836.298L405.667 781.962C407.518 780.071 409.341 778.18 411.122 776.263H538.732C522.917 789.225 499.525 807.772 451.628 832.932C448.171 834.748 444.357 835.775 440.424 836.298" fill="url(#paint38_radial)"/>
<path d="M495.02 857.645C491.842 859.839 490.472 863.577 491.506 867.063C491.995 868.709 492.421 870.241 492.819 871.709L505.895 851.126C502.228 853.03 498.61 855.161 495.02 857.645" fill="#F47315"/>
<path d="M492.819 871.709C492.421 870.241 491.995 868.709 491.506 867.063C491.275 866.288 491.17 865.5 491.17 864.718C491.17 861.988 492.553 859.347 495.019 857.645C498.61 855.161 502.228 853.03 505.895 851.126L492.819 871.709" fill="url(#paint39_radial)"/>
<path d="M555.097 763.371L542.196 743.197C517.909 736.345 491.89 727.128 466.995 714.04C451.635 724.757 434.277 751.286 411.122 776.263H538.731C545.032 771.1 550.138 766.819 555.097 763.371" fill="#F36618"/>
<path d="M538.731 776.263H411.122C434.277 751.286 451.635 724.757 466.995 714.04C491.89 727.128 517.909 736.345 542.196 743.197L555.097 763.371C550.138 766.819 545.032 771.1 538.731 776.263" fill="url(#paint40_radial)"/>
<path d="M565.456 757.426L569.983 750.308C561.112 748.253 551.794 745.908 542.197 743.198L555.098 763.371C558.499 761.007 561.845 759.033 565.456 757.426" fill="#F46D16"/>
<path d="M555.098 763.371L542.197 743.198C551.794 745.908 561.112 748.253 569.983 750.308L565.456 757.426C561.845 759.033 558.499 761.007 555.098 763.371" fill="url(#paint41_radial)"/>
<path d="M580.872 650.172C596.463 656.861 608.945 664.571 619.394 672.571L633.637 650.172H580.872Z" fill="#F46D16"/>
<path d="M619.394 672.571C608.945 664.571 596.463 656.861 580.872 650.172H633.637L619.394 672.571Z" fill="url(#paint42_radial)"/>
<path d="M638.806 642.033L602.009 584.513C570.841 604.106 556.885 601.421 535.357 632.784L559.994 642.449C567.551 644.806 574.446 647.41 580.872 650.171H633.637L638.806 642.033" fill="#F25A1A"/>
<path d="M633.637 650.171H580.872C574.446 647.41 567.551 644.806 559.994 642.449L535.357 632.784C556.885 601.421 570.841 604.106 602.009 584.513L638.806 642.033L633.637 650.171" fill="url(#paint43_radial)"/>
<path d="M709.159 531.362C706.428 528.721 703.802 526.306 701.231 524.074H687.45C663.848 550.628 650.094 550.584 608.547 580.233C606.284 581.771 604.112 583.189 602.009 584.513L638.806 642.033L709.159 531.362" fill="#F14C1C"/>
<path d="M638.806 642.033L602.009 584.513C604.112 583.189 606.284 581.771 608.547 580.233C650.094 550.584 663.848 550.628 687.45 524.074H701.231C703.802 526.306 706.428 528.721 709.159 531.362L638.806 642.033" fill="url(#paint44_radial)"/>
<path d="M692.863 517.745C690.991 520.027 689.203 522.107 687.45 524.074H701.231C698.339 521.552 695.524 519.296 692.863 517.745Z" fill="#F0401E"/>
<path d="M701.231 524.074H687.45C689.203 522.107 690.991 520.027 692.863 517.745C695.524 519.296 698.339 521.552 701.231 524.074Z" fill="url(#paint45_radial)"/>
<path d="M644.01 1154.55H593.124C589.555 1163.48 585.992 1172.42 582.542 1181.31C600.298 1177.86 617.886 1173.49 635.237 1168.27L644.01 1154.55Z" fill="#F36418"/>
<path d="M582.542 1181.31C585.992 1172.42 589.555 1163.48 593.124 1154.55H644.01L635.237 1168.27C617.886 1173.49 600.298 1177.86 582.542 1181.31Z" fill="url(#paint46_radial)"/>
<path d="M593.124 1154.55H644.01L612.955 1106C606.137 1122.25 599.557 1138.42 593.124 1154.55Z" fill="#F36817"/>
<path d="M644.01 1154.55H593.124C599.557 1138.42 606.137 1122.25 612.955 1106L644.01 1154.55Z" fill="url(#paint47_radial)"/>
<path d="M635.236 1168.27C640.126 1166.8 644.994 1165.27 649.842 1163.66L644.009 1154.55L635.236 1168.27Z" fill="#F35E19"/>
<path d="M635.236 1168.27L644.009 1154.55L649.842 1163.66C644.994 1165.27 640.126 1166.8 635.236 1168.27Z" fill="url(#paint48_radial)"/>
<path d="M646.748 1028.45C635.02 1054.43 623.739 1080.29 612.954 1106L644.01 1154.55L724.673 1028.45H646.748Z" fill="#F36717"/>
<path d="M644.01 1154.55L612.954 1106C623.739 1080.29 635.02 1054.43 646.748 1028.45H724.673L644.01 1154.55Z" fill="url(#paint49_radial)"/>
<path d="M649.842 1163.66C658.35 1160.84 666.788 1157.79 675.156 1154.55H644.01L649.842 1163.66" fill="#F2571A"/>
<path d="M649.842 1163.66L644.01 1154.55H675.156C666.788 1157.79 658.35 1160.84 649.842 1163.66" fill="url(#paint50_radial)"/>
<path d="M644.01 1154.55H675.156C709.536 1141.24 742.554 1124.52 773.449 1104.7L724.673 1028.45L644.01 1154.55Z" fill="#F36218"/>
<path d="M675.156 1154.55H644.01L724.673 1028.45L773.449 1104.7C742.554 1124.52 709.536 1141.24 675.156 1154.55Z" fill="url(#paint51_radial)"/>
<path d="M646.748 1028.45H724.673L679.564 957.939C668.234 981.536 657.316 1005.04 646.748 1028.45Z" fill="#F36817"/>
<path d="M724.673 1028.45H646.748C657.316 1005.04 668.234 981.536 679.564 957.939L724.673 1028.45Z" fill="url(#paint52_radial)"/>
<path d="M773.449 1104.7C807.508 1082.86 838.92 1057.28 866.692 1028.45H724.673L773.449 1104.7" fill="#F25D19"/>
<path d="M773.449 1104.7L724.673 1028.45H866.692C838.92 1057.28 807.508 1082.86 773.449 1104.7Z" fill="url(#paint53_radial)"/>
<path d="M724.673 1028.45H866.692C870.576 1024.42 874.397 1020.33 878.134 1016.16L805.336 902.361L724.673 1028.45" fill="#F2591A"/>
<path d="M866.692 1028.45H724.673L805.336 902.361L878.134 1016.16C874.397 1020.33 870.576 1024.42 866.692 1028.45" fill="url(#paint54_radial)"/>
<path d="M679.563 957.939L724.672 1028.45L805.335 902.361H706.938C697.606 920.927 688.434 939.468 679.563 957.939Z" fill="#F25D19"/>
<path d="M724.672 1028.45L679.563 957.939C688.434 939.468 697.606 920.927 706.938 902.361H805.335L724.672 1028.45Z" fill="url(#paint55_radial)"/>
<path d="M878.133 1016.16C891.425 1001.38 903.865 985.886 915.125 969.595C930.381 947.543 943.065 925.087 953.438 902.361H805.335L878.133 1016.16" fill="#F35E19"/>
<path d="M878.133 1016.16L805.335 902.361H953.438C943.065 925.087 930.381 947.543 915.125 969.595C903.865 985.886 891.425 1001.38 878.133 1016.16" fill="url(#paint56_radial)"/>
<path d="M706.938 902.361H805.336L751.041 817.486C735.8 845.856 721.118 874.155 706.938 902.361" fill="#F2591A"/>
<path d="M805.336 902.361H706.938C721.118 874.155 735.8 845.856 751.041 817.486L805.336 902.361" fill="url(#paint57_radial)"/>
<path d="M805.335 902.361H953.438C955.31 898.257 957.043 894.134 958.768 890.017L885.998 776.263L805.335 902.361" fill="#F14D1C"/>
<path d="M953.438 902.361H805.335L885.998 776.263L958.768 890.017C957.043 894.134 955.31 898.257 953.438 902.361" fill="url(#paint58_radial)"/>
<path d="M751.041 817.487L805.336 902.361L885.999 776.263H773.519C765.898 790.019 758.417 803.756 751.041 817.487" fill="#F2571A"/>
<path d="M805.336 902.361L751.041 817.487C758.417 803.756 765.898 790.019 773.519 776.263H885.999L805.336 902.361" fill="url(#paint59_radial)"/>
<path d="M958.768 890.017C974.38 852.614 983.802 814.536 987.546 776.263H885.998L958.768 890.017" fill="#DA2324"/>
<path d="M958.768 890.017L885.998 776.263H987.546C983.802 814.536 974.38 852.614 958.768 890.017" fill="url(#paint60_radial)"/>
<path d="M773.519 776.263H885.998L826.689 683.546C808.353 714.494 790.611 745.41 773.519 776.263" fill="#F1491C"/>
<path d="M885.998 776.263H773.519C790.611 745.41 808.353 714.494 826.689 683.546L885.998 776.263Z" fill="url(#paint61_radial)"/>
<path d="M885.998 776.263H987.546C990.696 744.061 989.844 711.739 985.479 679.581L966.661 650.172L885.998 776.263Z" fill="#CF1E25"/>
<path d="M987.546 776.263H885.998L966.661 650.172L985.479 679.581C988.091 698.803 989.446 718.081 989.439 737.353C989.432 750.334 988.818 763.308 987.546 776.263" fill="url(#paint62_radial)"/>
<path d="M826.689 683.546L885.999 776.263L966.662 650.172H846.673C839.925 661.299 833.276 672.426 826.689 683.546" fill="#DE2424"/>
<path d="M885.999 776.263L826.689 683.546C833.276 672.426 839.925 661.299 846.673 650.172H966.662L885.999 776.263Z" fill="url(#paint63_radial)"/>
<path d="M985.479 679.581C984.145 669.759 982.51 659.95 980.526 650.172H966.662L985.479 679.581Z" fill="#C71E25"/>
<path d="M985.479 679.581L966.662 650.172H980.526C982.51 659.95 984.145 669.759 985.479 679.581Z" fill="url(#paint64_radial)"/>
<path d="M846.673 650.171H966.661L906.052 555.425C900.457 564.074 894.855 572.711 889.309 581.436C874.746 604.346 860.566 627.262 846.673 650.171" fill="#E32424"/>
<path d="M966.661 650.171H846.673C860.566 627.262 874.746 604.346 889.309 581.436C894.855 572.711 900.457 564.074 906.052 555.425L966.661 650.171" fill="url(#paint65_radial)"/>
<path d="M980.526 650.171C979.437 644.8 978.221 639.448 976.943 634.096L966.662 650.171H980.526Z" fill="#C21E25"/>
<path d="M980.526 650.171H966.662L976.943 634.096C978.221 639.448 979.437 644.8 980.526 650.171Z" fill="url(#paint66_radial)"/>
<path d="M906.052 555.425L966.661 650.171L976.943 634.096C968.016 596.831 954.556 559.995 937.094 524.074H926.567C919.694 534.47 912.856 544.916 906.052 555.425" fill="#D71E25"/>
<path d="M966.661 650.171L906.052 555.425C912.856 544.916 919.694 534.47 926.567 524.074H937.094C954.556 559.995 968.016 596.831 976.943 634.096L966.661 650.171" fill="url(#paint67_radial)"/>
<path d="M937.094 524.074C935.62 521.048 934.055 518.047 932.533 515.04C930.535 518.041 928.558 521.061 926.567 524.074H937.094Z" fill="#DF1D25"/>
<path d="M937.094 524.074H926.567C928.558 521.061 930.535 518.041 932.533 515.04C934.055 518.047 935.62 521.048 937.094 524.074Z" fill="url(#paint68_radial)"/>
<path d="M575.585 705.126L569.452 701.469C568.607 700.965 567.469 701.173 566.903 701.936C566.344 702.699 566.582 703.726 567.427 704.237L573.553 707.893L574.524 708.171L576.102 707.427C576.661 706.664 576.424 705.636 575.585 705.126Z" fill="#C91E25"/>
<path d="M498.253 825.474L491.897 828.803C491.017 829.263 490.724 830.278 491.234 831.072L492.77 831.898L493.741 831.671L500.097 828.343C500.977 827.882 501.27 826.867 500.761 826.079C500.258 825.285 499.126 825.014 498.253 825.474" fill="#C91E25"/>
<path d="M587.243 778.867L580.886 782.195C580.013 782.656 579.713 783.671 580.223 784.465L581.766 785.291L582.73 785.064L589.094 781.735C589.967 781.275 590.267 780.26 589.757 779.466C589.247 778.678 588.13 778.407 587.243 778.867" fill="#C91E25"/>
<path d="M639.839 732.858C631.387 732.669 624.36 738.696 624.144 746.33C623.934 753.959 630.619 760.294 639.071 760.49C647.523 760.679 654.55 754.652 654.759 747.018C654.976 739.389 648.291 733.047 639.839 732.858Z" fill="#C91E25"/>
<path d="M606.312 768.881C605.439 769.341 605.138 770.356 605.648 771.144L607.192 771.97L608.156 771.749L614.519 768.414C615.392 767.961 615.693 766.945 615.183 766.151C614.673 765.363 613.555 765.092 612.668 765.552L606.312 768.881" fill="#C91E25"/>
<path d="M618.493 730.734C617.648 730.235 616.51 730.443 615.951 731.2C615.392 731.969 615.623 732.997 616.468 733.501L622.594 737.164L623.564 737.435L625.143 736.691C625.702 735.928 625.471 734.901 624.626 734.396L618.493 730.734Z" fill="#C91E25"/>
<path d="M606.228 723.421C605.382 722.916 604.251 723.124 603.685 723.887C603.126 724.65 603.357 725.684 604.202 726.188L610.335 729.845L611.299 730.116L612.877 729.378C613.436 728.609 613.206 727.581 612.361 727.077L606.228 723.421" fill="#C91E25"/>
<path d="M619.904 765.312L620.868 765.085L627.225 761.757C628.105 761.297 628.405 760.288 627.895 759.494C627.385 758.699 626.261 758.428 625.381 758.895L619.024 762.223C618.151 762.683 617.851 763.692 618.361 764.486L619.904 765.312" fill="#C91E25"/>
<path d="M480.057 838.555L481.028 838.328L487.385 835C488.265 834.54 488.558 833.525 488.049 832.737C487.546 831.949 486.421 831.671 485.541 832.131L479.184 835.466C478.304 835.92 478.011 836.935 478.521 837.73L480.057 838.555" fill="#C91E25"/>
<path d="M467.345 845.213L468.316 844.986L474.672 841.657C475.553 841.197 475.846 840.188 475.336 839.394C474.833 838.606 473.708 838.335 472.828 838.795L466.472 842.124C465.592 842.584 465.292 843.593 465.802 844.387L467.345 845.213" fill="#C91E25"/>
<path d="M454.632 851.87L455.603 851.649L461.96 848.315C462.84 847.861 463.133 846.846 462.623 846.051C462.12 845.263 460.996 844.986 460.116 845.452L453.759 848.781C452.879 849.241 452.586 850.256 453.089 851.044L454.632 851.87" fill="#C91E25"/>
<path d="M594.479 778.627L595.443 778.407L601.799 775.078C602.679 774.618 602.98 773.603 602.47 772.808C601.96 772.02 600.842 771.749 599.962 772.21L593.599 775.538C592.726 775.998 592.425 777.013 592.935 777.801L594.479 778.627" fill="#C91E25"/>
<path d="M591.943 718.869L598.069 722.526L599.04 722.803L600.618 722.059C601.177 721.296 600.946 720.262 600.101 719.758L593.969 716.102C593.13 715.604 591.985 715.805 591.426 716.568C590.867 717.337 591.098 718.365 591.943 718.869Z" fill="#C91E25"/>
<path d="M432.601 856.624C432.469 861.402 436.653 865.38 441.954 865.5C447.249 865.62 451.65 861.837 451.782 857.059C451.915 852.28 447.731 848.302 442.436 848.182C437.135 848.062 432.734 851.845 432.601 856.624Z" fill="#C91E25"/>
<path d="M150.051 976.738C149.918 981.523 154.109 985.495 159.404 985.615C164.699 985.734 169.099 981.952 169.232 977.173C169.365 972.394 165.181 968.423 159.886 968.297C154.591 968.183 150.184 971.959 150.051 976.738Z" fill="#C91E25"/>
<path d="M291.602 827.214L286.95 832.352C286.307 833.058 286.426 834.105 287.208 834.685L288.326 835.057L289.792 834.452L294.444 829.314C295.087 828.601 294.968 827.561 294.186 826.981C293.404 826.395 292.237 826.502 291.602 827.214" fill="#C91E25"/>
<path d="M304.259 829.023C312.71 829.213 319.73 823.186 319.947 815.558C320.157 807.923 313.479 801.587 305.02 801.392C296.568 801.203 289.541 807.23 289.332 814.864C289.122 822.492 295.8 828.828 304.259 829.023" fill="#C91E25"/>
<path d="M279.029 845.333L280.503 844.721L285.148 839.583C285.791 838.877 285.672 837.83 284.89 837.25C284.1 836.67 282.948 836.771 282.298 837.484L277.653 842.622C277.011 843.334 277.129 844.374 277.919 844.961L279.029 845.333" fill="#C91E25"/>
<path d="M318.619 795.851L314.198 801.146C313.583 801.877 313.744 802.917 314.561 803.472L315.616 803.806L317.132 803.144L321.553 797.849C322.168 797.118 322.007 796.078 321.197 795.523C320.387 794.981 319.227 795.119 318.619 795.851Z" fill="#C91E25"/>
<path d="M327.477 785.26L323.049 790.555C322.434 791.286 322.595 792.326 323.405 792.881L324.467 793.215L325.983 792.553L330.404 787.258C331.019 786.527 330.858 785.487 330.048 784.938C329.245 784.383 328.085 784.522 327.477 785.26" fill="#C91E25"/>
<path d="M371.727 732.304L367.299 737.599C366.691 738.33 366.852 739.37 367.662 739.919L368.717 740.253L370.233 739.597L374.661 734.302C375.269 733.571 375.108 732.531 374.298 731.982C373.495 731.427 372.335 731.566 371.727 732.304" fill="#C91E25"/>
<path d="M361.39 750.189L365.811 744.893C366.419 744.162 366.258 743.122 365.448 742.567C364.638 742.019 363.485 742.157 362.87 742.895L358.449 748.19C357.841 748.922 358.002 749.962 358.812 750.516L359.874 750.851L361.39 750.189Z" fill="#C91E25"/>
<path d="M333.316 782.624L334.832 781.962L339.261 776.666C339.868 775.935 339.708 774.895 338.897 774.347C338.094 773.792 336.942 773.931 336.327 774.668L331.899 779.964C331.284 780.695 331.451 781.735 332.262 782.29L333.316 782.624" fill="#C91E25"/>
<path d="M275.851 849.859C276.494 849.147 276.375 848.106 275.593 847.526C274.796 846.947 273.644 847.047 273.001 847.76L268.356 852.898C267.713 853.61 267.832 854.65 268.615 855.23L269.732 855.602L271.206 854.997L275.851 849.859" fill="#C91E25"/>
<path d="M352.532 760.78L356.954 755.484C357.568 754.753 357.408 753.713 356.598 753.164C355.794 752.61 354.642 752.748 354.027 753.486L349.598 758.782C348.984 759.513 349.151 760.553 349.962 761.102L351.016 761.442L352.532 760.78Z" fill="#C91E25"/>
<path d="M343.682 771.371L348.104 766.075C348.718 765.344 348.558 764.304 347.748 763.755C346.944 763.201 345.785 763.339 345.17 764.077L340.748 769.373C340.134 770.104 340.294 771.144 341.105 771.699L342.166 772.033L343.682 771.371" fill="#C91E25"/>
<path d="M234.01 896.095L238.655 890.956C239.298 890.244 239.179 889.204 238.397 888.624C237.608 888.044 236.455 888.145 235.805 888.857L231.16 893.995C230.518 894.708 230.637 895.748 231.426 896.328L232.544 896.7L234.01 896.095" fill="#C91E25"/>
<path d="M196.816 937.192L201.468 932.054C202.11 931.342 201.992 930.301 201.202 929.715C200.413 929.142 199.26 929.242 198.618 929.955L193.966 935.093C193.33 935.805 193.449 936.845 194.231 937.425L195.349 937.797L196.816 937.192" fill="#C91E25"/>
<path d="M263.704 858.036L259.052 863.174C258.416 863.886 258.535 864.926 259.317 865.506L260.435 865.878L261.902 865.273L266.554 860.135C267.197 859.423 267.078 858.376 266.288 857.796C265.499 857.223 264.347 857.323 263.704 858.036" fill="#C91E25"/>
<path d="M189.32 940.231L184.668 945.362C184.033 946.075 184.144 947.121 184.934 947.701L186.051 948.073L187.518 947.462L192.17 942.324C192.806 941.618 192.687 940.571 191.905 939.991C191.115 939.417 189.956 939.512 189.32 940.231" fill="#C91E25"/>
<path d="M379.082 729.007L383.511 723.711C384.126 722.98 383.958 721.939 383.148 721.391C382.344 720.836 381.192 720.975 380.577 721.712L376.156 727.008C375.541 727.739 375.702 728.78 376.512 729.328L377.574 729.668L379.082 729.007" fill="#C91E25"/>
<path d="M175.63 957.977L176.748 958.349L178.221 957.737L182.866 952.606C183.509 951.894 183.39 950.847 182.608 950.267C181.819 949.693 180.666 949.788 180.017 950.507L175.371 955.638C174.729 956.35 174.848 957.397 175.63 957.977" fill="#134561"/>
<path d="M207.921 919.678L203.269 924.817C202.627 925.523 202.738 926.569 203.528 927.149L204.645 927.527L206.112 926.916L210.764 921.778C211.406 921.072 211.288 920.025 210.505 919.445C209.723 918.865 208.55 918.972 207.921 919.678" fill="#C91E25"/>
<path d="M245.11 878.581L240.465 883.719C239.823 884.432 239.941 885.472 240.724 886.058L241.841 886.43L243.308 885.819L247.96 880.681C248.603 879.975 248.484 878.928 247.695 878.348C246.905 877.768 245.753 877.869 245.11 878.581" fill="#C91E25"/>
<path d="M252.604 875.549L257.256 870.411C257.899 869.699 257.78 868.658 256.991 868.078C256.216 867.498 255.049 867.593 254.413 868.312L249.761 873.45C249.119 874.156 249.231 875.202 250.02 875.782L251.138 876.154L252.604 875.549" fill="#C91E25"/>
<path d="M217.218 909.409L212.566 914.547C211.924 915.253 212.042 916.3 212.825 916.873L213.942 917.252L215.409 916.64L220.061 911.508C220.704 910.796 220.585 909.75 219.803 909.176C219.021 908.596 217.854 908.69 217.218 909.409" fill="#C91E25"/>
<path d="M226.508 899.133L221.863 904.271C221.221 904.983 221.339 906.023 222.122 906.603L223.239 906.975L224.713 906.37L229.358 901.232C230.001 900.52 229.882 899.473 229.1 898.893C228.303 898.32 227.151 898.421 226.508 899.133" fill="#C91E25"/>
<path d="M168.917 968.013L173.569 962.875C174.212 962.169 174.093 961.123 173.311 960.543C172.529 959.963 171.362 960.064 170.727 960.776L166.075 965.914C165.432 966.62 165.551 967.667 166.333 968.247L167.451 968.619L168.917 968.013" fill="#C91E25"/>
</g>
<defs>
<radialGradient id="paint0_radial" cx="0" cy="0" r="1" gradientUnits="userSpaceOnUse" gradientTransform="translate(87.4035 968.106) rotate(-152.626) scale(339.747 751.027)">
<stop stop-color="#ED1C24"/>
<stop offset="1" stop-color="#F36118"/>
</radialGradient>
<radialGradient id="paint1_radial" cx="0" cy="0" r="1" gradientUnits="userSpaceOnUse" gradientTransform="translate(87.4016 968.083) rotate(-152.628) scale(339.75 751.005)">
<stop stop-color="#ED1C24"/>
<stop offset="1" stop-color="#F36817"/>
</radialGradient>
<radialGradient id="paint2_radial" cx="0" cy="0" r="1" gradientUnits="userSpaceOnUse" gradientTransform="translate(1021.47 923.884) rotate(-152.674) scale(684.862 1512.12)">
<stop stop-color="#ED1C24"/>
<stop offset="1" stop-color="#F14E1C"/>
</radialGradient>
<radialGradient id="paint3_radial" cx="0" cy="0" r="1" gradientUnits="userSpaceOnUse" gradientTransform="translate(1020.1 923.864) rotate(-152.627) scale(683.719 1511.36)">
<stop stop-color="#ED1C24"/>
<stop offset="1" stop-color="#F2591A"/>
</radialGradient>
<radialGradient id="paint4_radial" cx="0" cy="0" r="1" gradientUnits="userSpaceOnUse" gradientTransform="translate(1020.09 923.865) rotate(-152.627) scale(683.709 1511.36)">
<stop stop-color="#ED1C24"/>
<stop offset="1" stop-color="#F25D19"/>
</radialGradient>
<radialGradient id="paint5_radial" cx="0" cy="0" r="1" gradientUnits="userSpaceOnUse" gradientTransform="translate(1020.09 923.865) rotate(-152.627) scale(683.709 1511.35)">
<stop stop-color="#ED1C24"/>
<stop offset="1" stop-color="#F14C1C"/>
</radialGradient>
<radialGradient id="paint6_radial" cx="0" cy="0" r="1" gradientUnits="userSpaceOnUse" gradientTransform="translate(1020.09 923.864) rotate(-152.627) scale(683.709 1511.35)">
<stop stop-color="#ED1C24"/>
<stop offset="1" stop-color="#F0411E"/>
</radialGradient>
<radialGradient id="paint7_radial" cx="0" cy="0" r="1" gradientUnits="userSpaceOnUse" gradientTransform="translate(1020.09 923.868) rotate(-152.626) scale(683.706 1511.36)">
<stop stop-color="#ED1C24"/>
<stop offset="1" stop-color="#F0401E"/>
</radialGradient>
<radialGradient id="paint8_radial" cx="0" cy="0" r="1" gradientUnits="userSpaceOnUse" gradientTransform="translate(1020.09 923.87) rotate(-152.626) scale(683.697 1511.36)">
<stop stop-color="#ED1C24"/>
<stop offset="1" stop-color="#F0401E"/>
</radialGradient>
<radialGradient id="paint9_radial" cx="0" cy="0" r="1" gradientUnits="userSpaceOnUse" gradientTransform="translate(1020.1 923.865) rotate(-152.627) scale(683.718 1511.36)">
<stop stop-color="#ED1C24"/>
<stop offset="1" stop-color="#F0401E"/>
</radialGradient>
<radialGradient id="paint10_radial" cx="0" cy="0" r="1" gradientUnits="userSpaceOnUse" gradientTransform="translate(1020.1 923.864) rotate(-152.627) scale(683.712 1511.35)">
<stop stop-color="#ED1C24"/>
<stop offset="1" stop-color="#F03B1F"/>
</radialGradient>
<radialGradient id="paint11_radial" cx="0" cy="0" r="1" gradientUnits="userSpaceOnUse" gradientTransform="translate(1020.1 923.864) rotate(-152.627) scale(683.713 1511.36)">
<stop stop-color="#CD1E26"/>
<stop offset="1" stop-color="#E61D25"/>
</radialGradient>
<radialGradient id="paint12_radial" cx="0" cy="0" r="1" gradientUnits="userSpaceOnUse" gradientTransform="translate(1020.1 923.865) rotate(-152.627) scale(683.711 1511.36)">
<stop stop-color="#B91F25"/>
<stop offset="1" stop-color="#E11D25"/>
</radialGradient>
<radialGradient id="paint13_radial" cx="0" cy="0" r="1" gradientUnits="userSpaceOnUse" gradientTransform="translate(1020.1 923.865) rotate(-152.627) scale(683.713 1511.36)">
<stop stop-color="#831E22"/>
<stop offset="1" stop-color="#D61E25"/>
</radialGradient>
<radialGradient id="paint14_radial" cx="0" cy="0" r="1" gradientUnits="userSpaceOnUse" gradientTransform="translate(1020.09 923.862) rotate(-152.627) scale(683.708 1511.35)">
<stop stop-color="#52171A"/>
<stop offset="1" stop-color="#CB1E25"/>
</radialGradient>
<radialGradient id="paint15_radial" cx="0" cy="0" r="1" gradientUnits="userSpaceOnUse" gradientTransform="translate(1020.1 923.864) rotate(-152.627) scale(683.723 1511.36)">
<stop stop-color="#080000"/>
<stop offset="1" stop-color="#B41D23"/>
</radialGradient>
<radialGradient id="paint16_radial" cx="0" cy="0" r="1" gradientUnits="userSpaceOnUse" gradientTransform="translate(1020.09 923.857) rotate(-152.627) scale(683.705 1511.34)">
<stop stop-color="#070000"/>
<stop offset="1" stop-color="#B21D23"/>
</radialGradient>
<radialGradient id="paint17_radial" cx="0" cy="0" r="1" gradientUnits="userSpaceOnUse" gradientTransform="translate(511.216 450.043) rotate(-152.627) scale(275.042 607.986)">
<stop stop-color="#ED1C24"/>
<stop offset="1" stop-color="#EF391F"/>
</radialGradient>
<radialGradient id="paint18_radial" cx="0" cy="0" r="1" gradientUnits="userSpaceOnUse" gradientTransform="translate(511.217 450.043) rotate(-152.627) scale(275.042 607.985)">
<stop stop-color="#ED1C24"/>
<stop offset="1" stop-color="#F14A1C"/>
</radialGradient>
<radialGradient id="paint19_radial" cx="0" cy="0" r="1" gradientUnits="userSpaceOnUse" gradientTransform="translate(511.218 450.043) rotate(-152.627) scale(275.043 607.986)">
<stop stop-color="#ED1C24"/>
<stop offset="1" stop-color="#F2581A"/>
</radialGradient>
<radialGradient id="paint20_radial" cx="0" cy="0" r="1" gradientUnits="userSpaceOnUse" gradientTransform="translate(511.217 450.043) rotate(-152.627) scale(275.043 607.986)">
<stop stop-color="#ED1C24"/>
<stop offset="1" stop-color="#F36118"/>
</radialGradient>
<radialGradient id="paint21_radial" cx="0" cy="0" r="1" gradientUnits="userSpaceOnUse" gradientTransform="translate(511.218 450.044) rotate(-152.627) scale(275.043 607.985)">
<stop stop-color="#ED1C24"/>
<stop offset="1" stop-color="#F36817"/>
</radialGradient>
<radialGradient id="paint22_radial" cx="0" cy="0" r="1" gradientUnits="userSpaceOnUse" gradientTransform="translate(511.217 450.043) rotate(-152.627) scale(275.042 607.987)">
<stop stop-color="#ED1C24"/>
<stop offset="1" stop-color="#F25D19"/>
</radialGradient>
<radialGradient id="paint23_radial" cx="0" cy="0" r="1" gradientUnits="userSpaceOnUse" gradientTransform="translate(511.218 450.043) rotate(-152.627) scale(275.043 607.987)">
<stop stop-color="#ED1C24"/>
<stop offset="1" stop-color="#F14F1B"/>
</radialGradient>
<radialGradient id="paint24_radial" cx="0" cy="0" r="1" gradientUnits="userSpaceOnUse" gradientTransform="translate(511.217 450.042) rotate(-152.627) scale(275.042 607.986)">
<stop stop-color="#ED1C24"/>
<stop offset="1" stop-color="#EF3120"/>
</radialGradient>
<radialGradient id="paint25_radial" cx="0" cy="0" r="1" gradientUnits="userSpaceOnUse" gradientTransform="translate(511.217 450.043) rotate(-152.627) scale(275.043 607.987)">
<stop stop-color="#AF2127"/>
<stop offset="1" stop-color="#DF2A23"/>
</radialGradient>
<radialGradient id="paint26_radial" cx="0" cy="0" r="1" gradientUnits="userSpaceOnUse" gradientTransform="translate(511.218 450.044) rotate(-152.627) scale(275.044 607.989)">
<stop stop-color="#2F0E0F"/>
<stop offset="1" stop-color="#C32424"/>
</radialGradient>
<radialGradient id="paint27_radial" cx="0" cy="0" r="1" gradientUnits="userSpaceOnUse" gradientTransform="translate(511.217 450.046) rotate(-152.626) scale(275.041 607.989)">
<stop stop-color="#4C1518"/>
<stop offset="1" stop-color="#CA1E25"/>
</radialGradient>
<radialGradient id="paint28_radial" cx="0" cy="0" r="1" gradientUnits="userSpaceOnUse" gradientTransform="translate(1020.1 923.886) rotate(-152.629) scale(683.699 1511.25)">
<stop stop-color="#ED1C24"/>
<stop offset="1" stop-color="#F2551A"/>
</radialGradient>
<radialGradient id="paint29_radial" cx="0" cy="0" r="1" gradientUnits="userSpaceOnUse" gradientTransform="translate(1020.1 923.865) rotate(-152.627) scale(683.71 1511.35)">
<stop stop-color="#ED1C24"/>
<stop offset="1" stop-color="#F25D19"/>
</radialGradient>
<radialGradient id="paint30_radial" cx="0" cy="0" r="1" gradientUnits="userSpaceOnUse" gradientTransform="translate(1020.1 923.865) rotate(-152.627) scale(683.711 1511.35)">
<stop stop-color="#ED1C24"/>
<stop offset="1" stop-color="#F0431D"/>
</radialGradient>
<radialGradient id="paint31_radial" cx="0" cy="0" r="1" gradientUnits="userSpaceOnUse" gradientTransform="translate(1020.1 923.864) rotate(-152.627) scale(683.713 1511.36)">
<stop stop-color="#ED1C24"/>
<stop offset="1" stop-color="#EF391F"/>
</radialGradient>
<radialGradient id="paint32_radial" cx="0" cy="0" r="1" gradientUnits="userSpaceOnUse" gradientTransform="translate(1020.1 923.865) rotate(-152.627) scale(683.712 1511.36)">
<stop stop-color="#ED1C24"/>
<stop offset="1" stop-color="#F36618"/>
</radialGradient>
<radialGradient id="paint33_radial" cx="0" cy="0" r="1" gradientUnits="userSpaceOnUse" gradientTransform="translate(1020.1 923.864) rotate(-152.627) scale(683.713 1511.36)">
<stop stop-color="#ED1C24"/>
<stop offset="1" stop-color="#F0431E"/>
</radialGradient>
<radialGradient id="paint34_radial" cx="0" cy="0" r="1" gradientUnits="userSpaceOnUse" gradientTransform="translate(1020.1 923.865) rotate(-152.627) scale(683.711 1511.35)">
<stop stop-color="#ED1C24"/>
<stop offset="1" stop-color="#F47515"/>
</radialGradient>
<radialGradient id="paint35_radial" cx="0" cy="0" r="1" gradientUnits="userSpaceOnUse" gradientTransform="translate(1020.1 923.864) rotate(-152.627) scale(683.714 1511.35)">
<stop stop-color="#ED1C24"/>
<stop offset="1" stop-color="#EF3620"/>
</radialGradient>
<radialGradient id="paint36_radial" cx="0" cy="0" r="1" gradientUnits="userSpaceOnUse" gradientTransform="translate(1020.1 923.864) rotate(-152.627) scale(683.71 1511.35)">
<stop stop-color="#ED1C24"/>
<stop offset="1" stop-color="#F46C17"/>
</radialGradient>
<radialGradient id="paint37_radial" cx="0" cy="0" r="1" gradientUnits="userSpaceOnUse" gradientTransform="translate(1020.1 923.864) rotate(-152.627) scale(683.712 1511.36)">
<stop stop-color="#ED1C24"/>
<stop offset="1" stop-color="#F0441D"/>
</radialGradient>
<radialGradient id="paint38_radial" cx="0" cy="0" r="1" gradientUnits="userSpaceOnUse" gradientTransform="translate(1020.1 923.864) rotate(-152.627) scale(683.712 1511.35)">
<stop stop-color="#ED1C24"/>
<stop offset="1" stop-color="#F47315"/>
</radialGradient>
<radialGradient id="paint39_radial" cx="0" cy="0" r="1" gradientUnits="userSpaceOnUse" gradientTransform="translate(1020.11 923.864) rotate(-152.628) scale(683.724 1511.35)">
<stop stop-color="#ED1C24"/>
<stop offset="1" stop-color="#F47315"/>
</radialGradient>
<radialGradient id="paint40_radial" cx="0" cy="0" r="1" gradientUnits="userSpaceOnUse" gradientTransform="translate(1020.1 923.865) rotate(-152.627) scale(683.712 1511.36)">
<stop stop-color="#ED1C24"/>
<stop offset="1" stop-color="#F36618"/>
</radialGradient>
<radialGradient id="paint41_radial" cx="0" cy="0" r="1" gradientUnits="userSpaceOnUse" gradientTransform="translate(1020.09 923.861) rotate(-152.627) scale(683.702 1511.33)">
<stop stop-color="#ED1C24"/>
<stop offset="1" stop-color="#F46D16"/>
</radialGradient>
<radialGradient id="paint42_radial" cx="0" cy="0" r="1" gradientUnits="userSpaceOnUse" gradientTransform="translate(1020.1 923.866) rotate(-152.627) scale(683.711 1511.36)">
<stop stop-color="#ED1C24"/>
<stop offset="1" stop-color="#F46D16"/>
</radialGradient>
<radialGradient id="paint43_radial" cx="0" cy="0" r="1" gradientUnits="userSpaceOnUse" gradientTransform="translate(1020.1 923.864) rotate(-152.627) scale(683.713 1511.36)">
<stop stop-color="#ED1C24"/>
<stop offset="1" stop-color="#F25A1A"/>
</radialGradient>
<radialGradient id="paint44_radial" cx="0" cy="0" r="1" gradientUnits="userSpaceOnUse" gradientTransform="translate(1020.1 923.865) rotate(-152.627) scale(683.712 1511.35)">
<stop stop-color="#ED1C24"/>
<stop offset="1" stop-color="#F14C1C"/>
</radialGradient>
<radialGradient id="paint45_radial" cx="0" cy="0" r="1" gradientUnits="userSpaceOnUse" gradientTransform="translate(1020.09 923.843) rotate(-152.628) scale(683.697 1511.29)">
<stop stop-color="#ED1C24"/>
<stop offset="1" stop-color="#F0401E"/>
</radialGradient>
<radialGradient id="paint46_radial" cx="0" cy="0" r="1" gradientUnits="userSpaceOnUse" gradientTransform="translate(1569.54 933.635) rotate(-152.627) scale(765.984 1693.22)">
<stop stop-color="#ED1C24"/>
<stop offset="1" stop-color="#F36418"/>
</radialGradient>
<radialGradient id="paint47_radial" cx="0" cy="0" r="1" gradientUnits="userSpaceOnUse" gradientTransform="translate(1569.54 933.637) rotate(-152.627) scale(765.983 1693.21)">
<stop stop-color="#ED1C24"/>
<stop offset="1" stop-color="#F36817"/>
</radialGradient>
<radialGradient id="paint48_radial" cx="0" cy="0" r="1" gradientUnits="userSpaceOnUse" gradientTransform="translate(1569.56 933.638) rotate(-152.628) scale(765.997 1693.22)">
<stop stop-color="#ED1C24"/>
<stop offset="1" stop-color="#F35E19"/>
</radialGradient>
<radialGradient id="paint49_radial" cx="0" cy="0" r="1" gradientUnits="userSpaceOnUse" gradientTransform="translate(1569.54 933.637) rotate(-152.627) scale(765.982 1693.21)">
<stop stop-color="#ED1C24"/>
<stop offset="1" stop-color="#F36817"/>
</radialGradient>
<radialGradient id="paint50_radial" cx="0" cy="0" r="1" gradientUnits="userSpaceOnUse" gradientTransform="translate(1569.54 933.633) rotate(-152.626) scale(765.986 1693.24)">
<stop stop-color="#ED1C24"/>
<stop offset="1" stop-color="#F2571A"/>
</radialGradient>
<radialGradient id="paint51_radial" cx="0" cy="0" r="1" gradientUnits="userSpaceOnUse" gradientTransform="translate(1569.54 933.637) rotate(-152.627) scale(765.982 1693.21)">
<stop stop-color="#ED1C24"/>
<stop offset="1" stop-color="#F36218"/>
</radialGradient>
<radialGradient id="paint52_radial" cx="0" cy="0" r="1" gradientUnits="userSpaceOnUse" gradientTransform="translate(1569.54 933.636) rotate(-152.627) scale(765.983 1693.22)">
<stop stop-color="#ED1C24"/>
<stop offset="1" stop-color="#F36817"/>
</radialGradient>
<radialGradient id="paint53_radial" cx="0" cy="0" r="1" gradientUnits="userSpaceOnUse" gradientTransform="translate(1569.54 933.636) rotate(-152.627) scale(765.984 1693.22)">
<stop stop-color="#ED1C24"/>
<stop offset="1" stop-color="#F35D19"/>
</radialGradient>
<radialGradient id="paint54_radial" cx="0" cy="0" r="1" gradientUnits="userSpaceOnUse" gradientTransform="translate(1569.54 933.636) rotate(-152.627) scale(765.982 1693.22)">
<stop stop-color="#ED1C24"/>
<stop offset="1" stop-color="#F2591A"/>
</radialGradient>
<radialGradient id="paint55_radial" cx="0" cy="0" r="1" gradientUnits="userSpaceOnUse" gradientTransform="translate(1569.54 933.636) rotate(-152.627) scale(765.982 1693.22)">
<stop stop-color="#ED1C24"/>
<stop offset="1" stop-color="#F35D19"/>
</radialGradient>
<radialGradient id="paint56_radial" cx="0" cy="0" r="1" gradientUnits="userSpaceOnUse" gradientTransform="translate(1569.54 933.636) rotate(-152.627) scale(765.982 1693.21)">
<stop stop-color="#ED1C24"/>
<stop offset="1" stop-color="#F35E19"/>
</radialGradient>
<radialGradient id="paint57_radial" cx="0" cy="0" r="1" gradientUnits="userSpaceOnUse" gradientTransform="translate(1569.54 933.636) rotate(-152.627) scale(765.981 1693.21)">
<stop stop-color="#ED1C24"/>
<stop offset="1" stop-color="#F2591A"/>
</radialGradient>
<radialGradient id="paint58_radial" cx="0" cy="0" r="1" gradientUnits="userSpaceOnUse" gradientTransform="translate(1569.54 933.636) rotate(-152.627) scale(765.982 1693.21)">
<stop stop-color="#ED1C24"/>
<stop offset="1" stop-color="#F14E1C"/>
</radialGradient>
<radialGradient id="paint59_radial" cx="0" cy="0" r="1" gradientUnits="userSpaceOnUse" gradientTransform="translate(1569.54 933.636) rotate(-152.627) scale(765.982 1693.21)">
<stop stop-color="#ED1C24"/>
<stop offset="1" stop-color="#F2581A"/>
</radialGradient>
<radialGradient id="paint60_radial" cx="0" cy="0" r="1" gradientUnits="userSpaceOnUse" gradientTransform="translate(1569.54 933.636) rotate(-152.627) scale(765.984 1693.22)">
<stop stop-color="#951F25"/>
<stop offset="1" stop-color="#DA2324"/>
</radialGradient>
<radialGradient id="paint61_radial" cx="0" cy="0" r="1" gradientUnits="userSpaceOnUse" gradientTransform="translate(1569.54 933.636) rotate(-152.627) scale(765.982 1693.22)">
<stop stop-color="#ED1C24"/>
<stop offset="1" stop-color="#F1491C"/>
</radialGradient>
<radialGradient id="paint62_radial" cx="0" cy="0" r="1" gradientUnits="userSpaceOnUse" gradientTransform="translate(1569.54 933.636) rotate(-152.627) scale(765.983 1693.22)">
<stop stop-color="#641B1F"/>
<stop offset="1" stop-color="#CF1E25"/>
</radialGradient>
<radialGradient id="paint63_radial" cx="0" cy="0" r="1" gradientUnits="userSpaceOnUse" gradientTransform="translate(1569.54 933.636) rotate(-152.627) scale(765.982 1693.22)">
<stop stop-color="#A62025"/>
<stop offset="1" stop-color="#DD2424"/>
</radialGradient>
<radialGradient id="paint64_radial" cx="0" cy="0" r="1" gradientUnits="userSpaceOnUse" gradientTransform="translate(1569.52 933.637) rotate(-152.626) scale(765.965 1693.21)">
<stop stop-color="#3F1214"/>
<stop offset="1" stop-color="#C71E25"/>
</radialGradient>
<radialGradient id="paint65_radial" cx="0" cy="0" r="1" gradientUnits="userSpaceOnUse" gradientTransform="translate(1569.54 933.636) rotate(-152.627) scale(765.981 1693.22)">
<stop stop-color="#BB1F25"/>
<stop offset="1" stop-color="#E32424"/>
</radialGradient>
<radialGradient id="paint66_radial" cx="0" cy="0" r="1" gradientUnits="userSpaceOnUse" gradientTransform="translate(1569.52 933.636) rotate(-152.626) scale(765.961 1693.2)">
<stop stop-color="#290C0D"/>
<stop offset="1" stop-color="#C21E25"/>
</radialGradient>
<radialGradient id="paint67_radial" cx="0" cy="0" r="1" gradientUnits="userSpaceOnUse" gradientTransform="translate(1569.54 933.636) rotate(-152.627) scale(765.981 1693.21)">
<stop stop-color="#8B1F24"/>
<stop offset="1" stop-color="#D71E25"/>
</radialGradient>
<radialGradient id="paint68_radial" cx="0" cy="0" r="1" gradientUnits="userSpaceOnUse" gradientTransform="translate(1569.53 933.642) rotate(-152.626) scale(765.979 1693.23)">
<stop stop-color="#AB1F25"/>
<stop offset="1" stop-color="#DF1D25"/>
</radialGradient>
<clipPath id="clip0">
<rect width="1024" height="1366" fill="white"/>
</clipPath>
</defs>
</svg>
