<?xml version="1.0" encoding="iso-8859-1"?>
<!-- Generator: Adobe Illustrator 19.0.0, SVG Export Plug-In . SVG Version: 6.00 Build 0)  -->
<svg version="1.1" id="Layer_1" xmlns="http://www.w3.org/2000/svg" xmlns:xlink="http://www.w3.org/1999/xlink" x="0px" y="0px"
	 viewBox="0 0 512 512" style="enable-background:new 0 0 512 512;" xml:space="preserve">
<path style="fill:#F39E31;" d="M461.914,239.317c-27.619,0-50.086-22.468-50.086-50.086s22.468-50.086,50.086-50.086
	c27.619,0,50.086,22.468,50.086,50.086S489.532,239.317,461.914,239.317z"/>
<g>
	<path style="fill:#F9BC35;" d="M261.568,384.011H161.395c-18.475,0-33.391-15.026-33.391-33.391s14.916-33.391,33.391-33.391
		h57.431l-12.91-85.258l27.826,0.445l41.293,0.668l18.92,109.411C299.188,363.532,283.272,384.011,261.568,384.011z"/>
	<path style="fill:#F9BC35;" d="M425.518,383.01c-18.031,4.563-36.062-6.456-40.513-24.264l-27.049-108.298h-74.461
		c-16.473,0-33.057-0.89-49.753-2.671c-73.239-8.014-146.808-32.723-202.125-69.676c-15.361-10.24-19.589-30.942-9.351-46.302
		c10.239-15.36,30.831-19.589,46.301-9.349c44.966,30.052,104.738,50.643,165.175,58.1c16.584,2.005,33.28,3.116,49.753,3.116
		h100.507c15.582,0,28.939,10.574,32.499,25.711l33.28,133.119C454.235,360.415,443.327,378.558,425.518,383.01z"/>
</g>
<g>
	<path style="fill:#F39E31;" d="M261.568,384.011h-27.826V232.417l41.293,0.668l18.92,109.411
		C299.188,363.532,283.272,384.011,261.568,384.011z"/>
	<path style="fill:#F39E31;" d="M425.518,383.01c-18.031,4.563-36.062-6.456-40.513-24.264l-27.049-108.298h-74.461
		c-16.473,0-33.057-0.89-49.753-2.671v-67.228c16.584,2.005,33.28,3.116,49.753,3.116h100.507c15.582,0,28.939,10.574,32.499,25.711
		l33.28,133.119C454.235,360.415,443.327,378.558,425.518,383.01z"/>
</g>
<path style="fill:#5C5F66;" d="M16.696,395.142c-2.196,0-4.429-0.435-6.57-1.353c-8.478-3.636-12.403-13.451-8.772-21.923
	l100.173-233.737c3.641-8.478,13.472-12.391,21.923-8.772c8.478,3.636,12.403,13.451,8.772,21.923L32.049,385.017
	C29.332,391.349,23.169,395.142,16.696,395.142z"/>
<g>
</g>
<g>
</g>
<g>
</g>
<g>
</g>
<g>
</g>
<g>
</g>
<g>
</g>
<g>
</g>
<g>
</g>
<g>
</g>
<g>
</g>
<g>
</g>
<g>
</g>
<g>
</g>
<g>
</g>
</svg>
